<svg xmlns="http://www.w3.org/2000/svg" viewBox="0 0 16 16" id="svg6">
  <defs id="defs3051">
    <style id="current-color-scheme">
      .ColorScheme-Text {
        color:#f9f9f9;
      }
      .ColorScheme-Highlight {
        color:#E0DFD8;
	  </style>
	</defs>
  <path style="fill:currentColor;fill-opacity:1;stroke:none" 
     d="M 8.727,2.234 V 8 H 9.455 V 3.135 A 5.09,5.09 0 0 1 13.092,8 5.09,5.09 0 0 1 8,13.092 5.09,5.09 0 0 1 2.908,8 5.09,5.09 0 0 1 6.545,3.127 V 2.375 A 5.818,5.818 0 0 0 2.182,8 5.818,5.818 0 0 0 8,13.818 5.818,5.818 0 0 0 13.818,8 5.818,5.818 0 0 0 8.727,2.234 Z"
  	 class="ColorScheme-Text" />
</svg>
