<svg xmlns="http://www.w3.org/2000/svg" viewBox="0 0 16 16" id="svg6">
  <defs id="defs3051">
    <style id="current-color-scheme">
      .ColorScheme-Text {
        color:#f9f9f9;
      }
      .ColorScheme-Highlight {
        color:#E0DFD8;
	  </style>
	</defs>
  <path style="fill:currentColor;fill-opacity:1;stroke:none" 
     d="M 8,2.182 A 5.818,5.818 0 0 0 2.182,8 5.818,5.818 0 0 0 8,13.818 5.818,5.818 0 0 0 11.191,12.859 l -0.468,-0.468 v -0.002 l -0.059,-0.057 -5.6,-5.6 -0.513,0.514 5.431,5.434 A 5.09,5.09 0 0 1 8,13.092 5.09,5.09 0 0 1 2.908,8 5.09,5.09 0 0 1 8,2.908 5.09,5.09 0 0 1 13.092,8 h 0.726 A 5.818,5.818 0 0 0 8,2.182 Z"
  	 class="ColorScheme-Text" />
</svg>
