<svg xmlns="http://www.w3.org/2000/svg" viewBox="0 0 16 16" id="svg6">
  <defs id="defs3051">
    <style id="current-color-scheme">
      .ColorScheme-Text {
        color:#f9f9f9;
      }
      .ColorScheme-Highlight {
        color:#E0DFD8;
	  </style>
	</defs>
  <path style="fill:currentColor;fill-opacity:1;stroke:none" 
     d="M 8,2.182 A 5.818,5.818 0 0 0 2.234,7.273 H 2.967 A 5.09,5.09 0 0 1 8,2.908 5.09,5.09 0 0 1 12.87,6.545 H 8 V 4.363 l -2.908,2.91 h 8.676 A 5.818,5.818 0 0 0 8,2.182 Z M 2.232,8.727 A 5.818,5.818 0 0 0 8,13.818 5.818,5.818 0 0 0 13.766,8.727 H 13.033 A 5.09,5.09 0 0 1 8,13.092 5.09,5.09 0 0 1 3.13,9.455 H 8 v 2.182 l 2.908,-2.91 z"
  	 class="ColorScheme-Text" />
</svg>
