<?xml version="1.0" encoding="UTF-8" standalone="no"?>
<svg
   xmlns:dc="http://purl.org/dc/elements/1.1/"
   xmlns:cc="http://creativecommons.org/ns#"
   xmlns:rdf="http://www.w3.org/1999/02/22-rdf-syntax-ns#"
   xmlns:svg="http://www.w3.org/2000/svg"
   xmlns="http://www.w3.org/2000/svg"
   xmlns:sodipodi="http://sodipodi.sourceforge.net/DTD/sodipodi-0.dtd"
   xmlns:inkscape="http://www.inkscape.org/namespaces/inkscape"
   viewBox="0 0 16 16"
   id="svg6"
   version="1.1"
   sodipodi:docname="system-file-manager.svg"
   inkscape:version="0.92.4 (5da689c313, 2019-01-14)">
  <metadata
     id="metadata9">
    <rdf:RDF>
      <cc:Work
         rdf:about="">
        <dc:format>image/svg+xml</dc:format>
        <dc:type
           rdf:resource="http://purl.org/dc/dcmitype/StillImage" />
        <dc:title></dc:title>
      </cc:Work>
    </rdf:RDF>
  </metadata>
  <sodipodi:namedview
     pagecolor="#ffffff"
     bordercolor="#666666"
     borderopacity="1"
     objecttolerance="10"
     gridtolerance="10"
     guidetolerance="10"
     inkscape:pageopacity="0"
     inkscape:pageshadow="2"
     inkscape:window-width="1160"
     inkscape:window-height="480"
     id="namedview7"
     showgrid="false"
     inkscape:zoom="14.75"
     inkscape:cx="0.71186441"
     inkscape:cy="8"
     inkscape:window-x="0"
     inkscape:window-y="25"
     inkscape:window-maximized="0"
     inkscape:current-layer="svg6" />
  <defs
     id="defs3051">
    <style
       id="current-color-scheme" />
  </defs>
  <path
     id="path5603-3"
     d="m 3.094,1.867 c 0,0 -1.228,-0.025 -1.228,1.201 L 1.923,7.033 C 3.236,6.286 4.643,6.588 6.035,6.717 l 1.809,-2.065 5.471,0.288 0.79,0.628 0.028,-0.839 C 14.175,3.503 12.907,3.503 12.907,3.503 H 8.409 L 6.774,1.867 Z"
     style="fill:#7f0200;stroke-width:0.81800002;marker:none"
     inkscape:connector-curvature="0" />
  <path
     style="fill:#ff0400;marker:none"
     d="M 7.59,4.32 5.956,5.956 H 3.093 c 0,0 -1.226,0 -1.226,1.226 v 6.95 h 11.039 c 0,0 1.226,0 1.226,-1.226 l 0.002,-7.385 c 0,-1.226 -1.228,-1.2 -1.228,-1.2 z"
     id="path821"
     inkscape:connector-curvature="0" />
</svg>
