<svg xmlns="http://www.w3.org/2000/svg" viewBox="0 0 24 24" id="svg6">
  <defs id="defs3051">
    <style id="current-color-scheme">
      .ColorScheme-Text {
        color:#f9f9f9;
      }
      .ColorScheme-Highlight {
        color:#E0DFD8;
	  </style>
	</defs>
  <path style="fill:currentColor;fill-opacity:1;stroke:none" 
     d="m 11,3 a 8,8 0 0 0 -8,8 8,8 0 0 0 8,8 8,8 0 0 0 4.388,-1.319 l -0.644,-0.643 v -0.003 l -0.081,-0.079 -7.7,-7.7 -0.705,0.707 7.467,7.472 A 6.999,6.999 0 0 1 11,18.002 6.999,6.999 0 0 1 3.998,11 6.999,6.999 0 0 1 11,3.998 6.999,6.999 0 0 1 18.002,11 H 19 A 8,8 0 0 0 11,3 Z"
  	 class="ColorScheme-Text" />
</svg>
