<?xml version="1.0" encoding="UTF-8" standalone="no"?>
<svg
   xmlns:dc="http://purl.org/dc/elements/1.1/"
   xmlns:cc="http://creativecommons.org/ns#"
   xmlns:rdf="http://www.w3.org/1999/02/22-rdf-syntax-ns#"
   xmlns:svg="http://www.w3.org/2000/svg"
   xmlns="http://www.w3.org/2000/svg"
   xmlns:sodipodi="http://sodipodi.sourceforge.net/DTD/sodipodi-0.dtd"
   xmlns:inkscape="http://www.inkscape.org/namespaces/inkscape"
   viewBox="0 0 22 22"
   id="svg6"
   version="1.1"
   sodipodi:docname="plasmavault.svg"
   inkscape:version="0.92.4 (5da689c313, 2019-01-14)">
  <metadata
     id="metadata9">
    <rdf:RDF>
      <cc:Work
         rdf:about="">
        <dc:format>image/svg+xml</dc:format>
        <dc:type
           rdf:resource="http://purl.org/dc/dcmitype/StillImage" />
        <dc:title></dc:title>
      </cc:Work>
    </rdf:RDF>
  </metadata>
  <sodipodi:namedview
     pagecolor="#ffffff"
     bordercolor="#666666"
     borderopacity="1"
     objecttolerance="10"
     gridtolerance="10"
     guidetolerance="10"
     inkscape:pageopacity="0"
     inkscape:pageshadow="2"
     inkscape:window-width="1160"
     inkscape:window-height="480"
     id="namedview7"
     showgrid="false"
     inkscape:zoom="10.727273"
     inkscape:cx="0.97881356"
     inkscape:cy="11"
     inkscape:window-x="0"
     inkscape:window-y="25"
     inkscape:window-maximized="0"
     inkscape:current-layer="svg6" />
  <defs
     id="defs1">
    <style
       id="current-color-scheme" />
  </defs>
  <path
     style="fill:#ff0400;stroke-width:1.48899996;marker:none"
     d="m 3.695,1.868 c 0,0 -1.83,-0.037 -1.83,1.789 L 1.947,9.179 A 2.18,2.18 0 0 0 1.868,9.781 v 10.35 h 16.437 c 0,0 1.827,0 1.827,-1.825 L 20.135,7.309 c 0,-0.095 -0.023,-0.167 -0.032,-0.253 L 20.132,6.129 C 20.194,4.303 18.306,4.305 18.306,4.305 H 11.608 L 9.174,1.868 Z"
     id="path822-6"
     inkscape:connector-curvature="0" />
  <path
     style="fill:#7f0200;stroke-width:1.21599996;marker:none"
     d="m 13.486,6.738 a 2.754,2.754 0 0 0 -2.752,2.75 v 1.05 H 9.653 a 0.294,0.294 0 0 0 -0.292,0.297 v 6.49 a 0.29,0.29 0 0 0 0.292,0.291 h 7.67 a 0.294,0.294 0 0 0 0.294,-0.292 v -1.18 A 0.29,0.29 0 0 0 17.6,16.041 h 0.017 V 10.835 A 0.294,0.294 0 0 0 17.322,10.538 H 16.24 v -1.05 a 2.754,2.754 0 0 0 -2.753,-2.75 z m 0,0.686 v 0.003 a 2.053,2.053 0 0 1 2.065,2.061 v 1.05 h -4.129 v -1.05 a 2.053,2.053 0 0 1 2.064,-2.064 z m 0,5.641 a 0.687,0.687 0 0 1 0.69,0.69 0.67,0.67 0 0 1 -0.105,0.344 c 0.06,0.102 0.104,0.216 0.104,0.344 a 0.687,0.687 0 0 1 -0.689,0.686 0.686,0.686 0 0 1 -0.688,-0.686 c 0,-0.128 0.046,-0.242 0.107,-0.344 a 0.673,0.673 0 0 1 -0.107,-0.345 0.687,0.687 0 0 1 0.688,-0.689 z"
     id="path820"
     inkscape:connector-curvature="0" />
</svg>
