<?xml version="1.0" encoding="UTF-8" standalone="no"?>
<svg
   xmlns:dc="http://purl.org/dc/elements/1.1/"
   xmlns:cc="http://creativecommons.org/ns#"
   xmlns:rdf="http://www.w3.org/1999/02/22-rdf-syntax-ns#"
   xmlns:svg="http://www.w3.org/2000/svg"
   xmlns="http://www.w3.org/2000/svg"
   xmlns:sodipodi="http://sodipodi.sourceforge.net/DTD/sodipodi-0.dtd"
   xmlns:inkscape="http://www.inkscape.org/namespaces/inkscape"
   width="22"
   height="22"
   version="1.1"
   id="svg8"
   sodipodi:docname="system-file-manager.svg"
   inkscape:version="0.92.4 (5da689c313, 2019-01-14)">
  <metadata
     id="metadata14">
    <rdf:RDF>
      <cc:Work
         rdf:about="">
        <dc:format>image/svg+xml</dc:format>
        <dc:type
           rdf:resource="http://purl.org/dc/dcmitype/StillImage" />
        <dc:title></dc:title>
      </cc:Work>
    </rdf:RDF>
  </metadata>
  <defs
     id="defs12" />
  <sodipodi:namedview
     pagecolor="#ffffff"
     bordercolor="#666666"
     borderopacity="1"
     objecttolerance="10"
     gridtolerance="10"
     guidetolerance="10"
     inkscape:pageopacity="0"
     inkscape:pageshadow="2"
     inkscape:window-width="1160"
     inkscape:window-height="480"
     id="namedview10"
     showgrid="false"
     inkscape:zoom="10.727273"
     inkscape:cx="0.97881356"
     inkscape:cy="11"
     inkscape:window-x="0"
     inkscape:window-y="25"
     inkscape:window-maximized="0"
     inkscape:current-layer="svg8" />
  <path
     style="fill:#7f0200;stroke-width:1.21800005;marker:none"
     d="m 3.693,1.868 c 0,0 -1.83,-0.037 -1.83,1.789 L 1.871,4.19 1.85,4.185 v 7.657 H 20.073 V 7.364 L 20.091,7.379 20.133,6.13 C 20.196,4.305 18.307,4.305 18.307,4.305 H 11.608 L 9.174,1.868 Z"
     id="path2"
     inkscape:connector-curvature="0" />
  <rect
     width="16.271"
     height="9.3830004"
     x="2.8640001"
     y="5.3520002"
     ry="0.89899999"
     id="rect4"
     style="fill:#ffffff;stroke-width:0.55400002" />
  <path
     style="fill:#ff0400;stroke-width:1.48899996;marker:none"
     d="M 10.388,7.324 7.955,9.759 H 3.691 c 0,0 -1.826,10e-4 -1.826,1.827 v 8.546 h 16.44 c 0,0 1.826,0 1.826,-1.826 l 0.002,-4.662 v -1.802 l 0.002,-2.73 c 0,-1.825 -1.83,-1.788 -1.83,-1.788 z"
     id="path6"
     inkscape:connector-curvature="0" />
</svg>
