<svg xmlns="http://www.w3.org/2000/svg" viewBox="0 0 22 22" id="svg6">
  <defs id="defs3051">
    <style id="current-color-scheme">
      .ColorScheme-Text {
        color:#f9f9f9;
      }
      .ColorScheme-Highlight {
        color:#E0DFD8;
	  </style>
	</defs>
  <path style="fill:currentColor;fill-opacity:1;stroke:none" 
     d="m 11,3.08 a 8,8 0 0 0 -8,8.002 8,8 0 0 0 8,7.999 8,8 0 0 0 8,-8 8,8 0 0 0 -8,-8.001 z m 0,1 A 6.999,6.999 0 0 1 18.002,11.081 6.999,6.999 0 0 1 11,18.08 6.999,6.999 0 0 1 3.998,11.081 6.999,6.999 0 0 1 11,4.08 Z m -1,2 v 6 h 4.998 V 11.082 H 11 V 6.08 Z"
  	 class="ColorScheme-Text" />
</svg>
