<svg xmlns="http://www.w3.org/2000/svg" viewBox="0 0 32 32" id="svg6">
  <defs id="defs3051">
    <style id="current-color-scheme">
      .ColorScheme-Text {
        color:#f9f9f9;
      }
      .ColorScheme-Highlight {
        color:#E0DFD8;
	  </style>
	</defs>
  <path style="fill:currentColor;fill-opacity:1;stroke:none" 
     d="M 17,4.047 V 16 h 1 V 5.193 A 11,11 0 0 1 27,16 11,11 0 0 1 16,27 11,11 0 0 1 5,16 11,11 0 0 1 14,5.19 V 4.181 A 12,12 0 0 0 4,16 12,12 0 0 0 16,28 12,12 0 0 0 28,16 12,12 0 0 0 17,4.047 Z"
  	 class="ColorScheme-Text" />
</svg>
