<svg xmlns="http://www.w3.org/2000/svg" viewBox="0 0 32 32" id="svg6">
  <defs id="defs3051">
    <style id="current-color-scheme">
      .ColorScheme-Text {
        color:#f9f9f9;
      }
      .ColorScheme-Highlight {
        color:#E0DFD8;
	  </style>
	</defs>
  <path style="fill:currentColor;fill-opacity:1;stroke:none" 
     d="M 16,4 A 12,12 0 0 0 4,16 12,12 0 0 0 16,28 12,12 0 0 0 23.533,25.326 L 22.923,24.716 22.83,24.623 8.783,10.576 8.076,11.283 22.006,25.213 A 11,11 0 0 1 16,27 11,11 0 0 1 5,16 11,11 0 0 1 16,5 11,11 0 0 1 27,16 h 1 A 12,12 0 0 0 16,4 Z"
  	 class="ColorScheme-Text" />
</svg>
