<svg xmlns="http://www.w3.org/2000/svg" viewBox="0 0 32 32" id="svg6">
  <defs id="defs3051">
    <style id="current-color-scheme">
      .ColorScheme-Text {
        color:#f9f9f9;
      }
      .ColorScheme-Highlight {
        color:#E0DFD8;
	  </style>
	</defs>
  <path style="fill:currentColor;fill-opacity:1;stroke:none" 
     d="M 16,4 A 12,12 0 0 0 4.17,14 H 5.19 A 11,11 0 0 1 16,5 11,11 0 0 1 26.572,13 H 14 v -3 l -4,4 H 27.818 A 12,12 0 0 0 16,4 Z M 4.182,18 A 12,12 0 0 0 16,28 12,12 0 0 0 27.83,18 H 26.81 A 11,11 0 0 1 16,27 11,11 0 0 1 5.428,19 H 18 v 3 l 4,-4 z"
  	 class="ColorScheme-Text" />
</svg>
