<?xml version="1.0" encoding="UTF-8" standalone="no"?>
<svg
   xmlns:dc="http://purl.org/dc/elements/1.1/"
   xmlns:cc="http://creativecommons.org/ns#"
   xmlns:rdf="http://www.w3.org/1999/02/22-rdf-syntax-ns#"
   xmlns:svg="http://www.w3.org/2000/svg"
   xmlns="http://www.w3.org/2000/svg"
   xmlns:xlink="http://www.w3.org/1999/xlink"
   xmlns:sodipodi="http://sodipodi.sourceforge.net/DTD/sodipodi-0.dtd"
   xmlns:inkscape="http://www.inkscape.org/namespaces/inkscape"
   width="64"
   height="64"
   version="1.1"
   id="svg32"
   sodipodi:docname="plasmavault.svg"
   inkscape:version="0.92.4 (5da689c313, 2019-01-14)">
  <metadata
     id="metadata36">
    <rdf:RDF>
      <cc:Work
         rdf:about="">
        <dc:format>image/svg+xml</dc:format>
        <dc:type
           rdf:resource="http://purl.org/dc/dcmitype/StillImage" />
        <dc:title></dc:title>
      </cc:Work>
    </rdf:RDF>
  </metadata>
  <sodipodi:namedview
     pagecolor="#ffffff"
     bordercolor="#666666"
     borderopacity="1"
     objecttolerance="10"
     gridtolerance="10"
     guidetolerance="10"
     inkscape:pageopacity="0"
     inkscape:pageshadow="2"
     inkscape:window-width="1160"
     inkscape:window-height="480"
     id="namedview34"
     showgrid="false"
     inkscape:zoom="3.6875"
     inkscape:cx="2.8474576"
     inkscape:cy="32"
     inkscape:window-x="0"
     inkscape:window-y="25"
     inkscape:window-maximized="0"
     inkscape:current-layer="svg32" />
  <defs
     id="defs14">
    <linearGradient
       id="a">
      <stop
         offset="0"
         stop-color="#2d2d2d"
         id="stop2" />
      <stop
         offset="1"
         stop-color="#ff0400"
         id="stop4" />
    </linearGradient>
    <clipPath
       id="b">
      <path
         d="M192-164H88s-40 0-40 40V4h416v-96s0-40-40-40H224z"
         style="marker:none"
         fill="#c9b8a7"
         stroke-width="26.067"
         enable-background="new"
         id="path7" />
    </clipPath>
    <filter
       id="c"
       x="-.108"
       width="1.217"
       y="-.134"
       height="1.269"
       color-interpolation-filters="sRGB">
      <feGaussianBlur
         stdDeviation="18.8"
         id="feGaussianBlur10" />
    </filter>
    <linearGradient
       xlink:href="#a"
       id="d"
       x1="4.056"
       y1="59.889"
       x2="4.083"
       y2="14.538"
       gradientUnits="userSpaceOnUse" />
  </defs>
  <path
     d="M 23.401,4.099 H 9.43 c 0,0 -5.374,0 -5.374,5.374 V 26.67 h 55.89 V 13.772 c 0,0 0,-5.374 -5.373,-5.374 H 27.7 Z"
     style="fill:#7f0200;marker:none;enable-background:new"
     id="path16"
     inkscape:connector-curvature="0" />
  <path
     clip-path="url(#b)"
     style="opacity:0.1;marker:none;filter:url(#c);enable-background:new"
     d="m 256,-80 -32,32 H 88 c 0,0 -40,0 -40,40 v 264 h 376 c 40,0 40,-40 40,-40 V -40 c 0,-40 -40,-40 -40,-40 z"
     transform="matrix(0.13435,0,0,0.13435,-2.394,26.031)"
     id="path18"
     inkscape:connector-curvature="0" />
  <path
     d="m 32,14.746 -4.3,4.299 H 9.43 c 0,0 -5.374,0 -5.374,5.374 v 35.47 h 50.517 c 5.374,0 5.374,-5.375 5.374,-5.375 V 20.12 c 0,-5.374 -5.374,-5.374 -5.374,-5.374 z"
     style="fill:url(#d);marker:none;enable-background:new"
     id="path20"
     inkscape:connector-curvature="0" />
  <path
     style="fill:#ffffff;fill-opacity:0.23500001;marker:none;enable-background:new"
     d="m 9.428,3.998 c 0,0 -5.373,-0.001 -5.373,5.373 v 1.127 c 0,-0.672 0.083,-1.26 0.23,-1.773 C 4.432,8.21 4.643,7.768 4.895,7.391 5.398,6.635 6.07,6.133 6.742,5.797 8.086,5.125 9.428,5.125 9.428,5.125 h 13.476 l 4.3,4.299 h 27.367 c 0.672,0 1.26,0.083 1.774,0.23 a 4.72,4.72 0 0 1 1.332,0.61 c 0.755,0.503 1.26,1.176 1.595,1.847 0.672,1.344 0.672,2.686 0.672,2.686 V 13.67 c 0,0 10e-4,-5.373 -5.373,-5.373 h -26.87 l -4.3,-4.299 z"
     id="path22"
     inkscape:connector-curvature="0" />
  <path
     style="fill-opacity:0.23500001;marker:none;enable-background:new"
     d="m 59.945,53.285 c 0,0 0,1.344 -0.672,2.688 -0.335,0.671 -0.838,1.343 -1.593,1.847 -0.378,0.252 -0.82,0.463 -1.334,0.61 a 6.432,6.432 0 0 1 -1.774,0.23 H 4.055 v 1.229 h 50.517 c 5.374,0 5.373,-5.375 5.373,-5.375 z"
     id="path24"
     inkscape:connector-curvature="0" />
  <path
     d="m 34.23,14.746 v 4.29 h 4.461 v -4.29 h -4.46 z m 4.461,4.29 v 4.46 h 4.463 v -4.46 z m 4.463,0 h 4.461 v -4.29 h -4.46 v 4.29 z m 4.461,0 v 4.46 h 4.461 v -4.46 h -4.46 z m 4.461,0 h 4.461 v -3.798 c -0.911,-0.262 -1.965,-0.492 -1.965,-0.492 h -2.496 z m 4.461,0 v 4.46 h 3.41 v -3.625 c 0,-0.317 -0.074,-0.555 -0.11,-0.836 h -3.3 z m 0,4.46 h -4.46 v 4.463 h 4.46 z m 0,4.463 v 4.46 h 3.41 v -4.46 z m 0,4.46 h -4.46 v 4.462 h 4.46 V 32.42 Z m 0,4.462 v 4.46 h 3.41 v -4.46 z m 0,4.46 h -4.46 v 4.464 h 4.46 v -4.463 z m 0,4.464 v 4.46 h 3.41 v -4.46 z m -4.46,-4.463 V 36.88 h -4.462 v 4.46 h 4.461 z M 47.615,36.881 V 32.42 h -4.46 v 4.46 h 4.46 z m -4.46,0 H 38.69 v 4.46 h 4.463 v -4.46 z m -4.464,4.46 h -4.46 v 4.464 h 4.46 v -4.463 z m -4.46,4.464 H 29.77 v 4.46 h 4.46 v -4.46 z m -4.461,0 v -4.463 h -4.463 v 4.463 z M 25.307,41.342 V 36.88 h -4.461 v 4.46 h 4.46 z M 20.846,36.881 V 32.42 h -4.461 v 4.46 h 4.46 z M 16.385,32.42 v -4.461 h -4.463 v 4.46 h 4.463 z m -4.463,0 H 7.46 v 4.46 h 4.46 V 32.42 Z M 7.46,36.88 H 4.057 v 4.462 H 7.46 Z m 0,4.462 v 4.463 h 4.46 v -4.463 z m 4.46,4.463 v 4.46 h 4.464 v -4.46 h -4.463 z m -4.46,0 H 4.057 v 4.46 H 7.46 Z m 0,-13.385 V 27.959 H 4.057 v 4.46 H 7.46 Z m 0,-4.461 h 4.46 V 23.496 H 7.46 Z m 0,-4.463 v -3.959 c -0.334,0.097 -0.36,0 -0.719,0.18 -0.672,0.336 -1.342,0.84 -1.846,1.596 a 4.72,4.72 0 0 0 -0.609,1.332 c -0.07,0.246 -0.072,0.57 -0.111,0.851 z m 4.46,0 h 4.464 v -4.451 h -4.463 v 4.451 z m 4.464,0 v 4.463 h 4.46 v -4.463 z m 4.46,0 h 4.462 v -4.451 h -4.461 v 4.451 z m 4.462,0 v 4.463 h 4.463 v -4.463 z m 4.463,0 h 4.46 v -4.46 h -4.46 z m 0,-4.46 v -2.061 l -2.061,2.06 h 2.06 z m 4.46,4.46 v 4.463 h 4.461 v -4.463 h -4.46 z m 4.461,4.463 v 4.46 h 4.463 v -4.46 z m 4.463,0 h 4.461 v -4.463 h -4.46 v 4.463 z m 4.461,0 v 4.46 h 4.461 v -4.46 h -4.46 z m -8.924,4.46 h -4.46 v 4.462 h 4.46 V 32.42 Z m -4.46,4.462 h -4.46 v 4.46 h 4.46 z m -4.461,0 V 32.42 h -4.463 v 4.46 h 4.463 z M 25.306,32.42 v -4.461 h -4.461 v 4.46 h 4.46 z m 4.463,0 h 4.46 v -4.461 h -4.46 v 4.46 z"
     id="path26"
     inkscape:connector-curvature="0"
     style="opacity:0.6;fill:#1a1a1a;stroke-width:1.11500001" />
  <path
     style="fill-opacity:0.23500001;marker:none;enable-background:new"
     d="m 32,14.746 -4.299,4.299 H 9.428 c 0,0 -5.373,0 -5.373,5.375 v 1.228 c 0,-0.671 0.083,-1.26 0.23,-1.775 a 4.72,4.72 0 0 1 0.61,-1.332 c 0.503,-0.756 1.175,-1.26 1.847,-1.596 a 6.69,6.69 0 0 1 2.686,-0.672 h 18.707 l 4.299,-4.298 h 22.138 c 0,0 1.342,0 2.686,0.671 0.672,0.336 1.344,0.84 1.847,1.596 0.252,0.378 0.463,0.818 0.61,1.332 0.147,0.515 0.23,1.102 0.23,1.774 v -1.229 c 0,-5.374 -5.373,-5.373 -5.373,-5.373 z"
     id="path28"
     inkscape:connector-curvature="0" />
  <path
     d="m 31.998,27.145 a 5.496,5.496 0 0 0 -5.494,5.492 v 2.095 H 24.348 A 0.587,0.587 0 0 0 23.76,35.32 v 12.948 c 0,0.325 0.263,0.587 0.588,0.587 H 39.652 A 0.587,0.587 0 0 0 40.24,48.268 V 45.914 A 0.58,0.58 0 0 0 40.205,45.713 H 40.24 V 35.32 a 0.587,0.587 0 0 0 -0.588,-0.588 h -2.16 v -2.095 a 5.496,5.496 0 0 0 -5.494,-5.492 z m 0,1.373 a 4.096,4.096 0 0 1 4.121,4.119 v 2.095 h -8.242 v -2.095 a 4.096,4.096 0 0 1 4.121,-4.12 z m -7.06,7.388 H 39.063 V 47.641 H 24.937 V 35.907 Z m 7.06,3.867 a 1.37,1.37 0 0 0 -1.373,1.373 c 0,0.257 0.088,0.483 0.209,0.688 -0.121,0.205 -0.209,0.43 -0.209,0.686 0,0.76 0.612,1.373 1.373,1.373 a 1.37,1.37 0 0 0 1.373,-1.373 c 0,-0.256 -0.088,-0.481 -0.209,-0.686 0.121,-0.205 0.21,-0.431 0.21,-0.688 a 1.37,1.37 0 0 0 -1.374,-1.373 z"
     id="path30"
     inkscape:connector-curvature="0"
     style="color:#ffffff;fill:#e6e6e6" />
</svg>
