<svg xmlns="http://www.w3.org/2000/svg" viewBox="0 0 32 32" id="svg6">
  <defs id="defs3051">
    <style id="current-color-scheme">
      .ColorScheme-Text {
        color:#f9f9f9;
      }
      .ColorScheme-Highlight {
        color:#E0DFD8;
	  </style>
	</defs>
  <path style="fill:currentColor;fill-opacity:1;stroke:none" 
     d="M 16,4 A 12,12 0 0 0 4,16 12,12 0 0 0 16,28 12,12 0 0 0 26.893,21 H 25.785 A 11,11 0 0 1 16,27 11,11 0 0 1 5,16 11,11 0 0 1 16,5 11,11 0 0 1 25.787,11 H 21 l 7,5 -0.05,-1 A 12,12 0 0 0 16,4 Z"
  	 class="ColorScheme-Text" />
</svg>
