<?xml version="1.0" encoding="UTF-8" standalone="no"?>
<svg
   xmlns:dc="http://purl.org/dc/elements/1.1/"
   xmlns:cc="http://creativecommons.org/ns#"
   xmlns:rdf="http://www.w3.org/1999/02/22-rdf-syntax-ns#"
   xmlns:svg="http://www.w3.org/2000/svg"
   xmlns="http://www.w3.org/2000/svg"
   xmlns:xlink="http://www.w3.org/1999/xlink"
   xmlns:sodipodi="http://sodipodi.sourceforge.net/DTD/sodipodi-0.dtd"
   xmlns:inkscape="http://www.inkscape.org/namespaces/inkscape"
   width="64"
   height="64"
   version="1.1"
   id="svg28"
   sodipodi:docname="system-file-manager.svg"
   inkscape:version="0.92.4 (5da689c313, 2019-01-14)">
  <metadata
     id="metadata32">
    <rdf:RDF>
      <cc:Work
         rdf:about="">
        <dc:format>image/svg+xml</dc:format>
        <dc:type
           rdf:resource="http://purl.org/dc/dcmitype/StillImage" />
        <dc:title></dc:title>
      </cc:Work>
    </rdf:RDF>
  </metadata>
  <sodipodi:namedview
     pagecolor="#ffffff"
     bordercolor="#666666"
     borderopacity="1"
     objecttolerance="10"
     gridtolerance="10"
     guidetolerance="10"
     inkscape:pageopacity="0"
     inkscape:pageshadow="2"
     inkscape:window-width="1160"
     inkscape:window-height="480"
     id="namedview30"
     showgrid="false"
     inkscape:zoom="3.6875"
     inkscape:cx="2.8474576"
     inkscape:cy="32"
     inkscape:window-x="0"
     inkscape:window-y="25"
     inkscape:window-maximized="0"
     inkscape:current-layer="svg28" />
  <defs
     id="defs14">
    <linearGradient
       id="a">
      <stop
         offset="0"
         stop-color="#7f0200"
         id="stop2" />
      <stop
         offset="1"
         stop-color="#ff0400"
         stop-opacity=".996"
         id="stop4" />
    </linearGradient>
    <clipPath
       id="b">
      <path
         d="M192-164H88s-40 0-40 40V4h416v-96s0-40-40-40H224z"
         style="marker:none"
         fill="#c9b8a7"
         stroke-width="26.067"
         enable-background="new"
         id="path7" />
    </clipPath>
    <filter
       id="c"
       x="-.108"
       width="1.217"
       y="-.134"
       height="1.269"
       color-interpolation-filters="sRGB">
      <feGaussianBlur
         stdDeviation="18.8"
         id="feGaussianBlur10" />
    </filter>
    <linearGradient
       xlink:href="#a"
       id="d"
       x1="-1.112"
       y1="55.564"
       x2="-1.112"
       y2="20.425"
       gradientUnits="userSpaceOnUse" />
  </defs>
  <path
     style="fill:#7f0200;marker:none"
     d="m 9.43,4.1 c 0,0 -5.373,-10e-4 -5.373,5.373 V 34.084 H 59.945 V 13.771 c 0,0 0,-5.373 -5.373,-5.373 H 27.7 L 23.4,4.1 Z"
     id="path16"
     inkscape:connector-curvature="0" />
  <rect
     width="46.208"
     height="26.811001"
     x="8.8959999"
     y="13.954"
     ry="2.842"
     id="rect18"
     style="fill:#ffffff" />
  <path
     clip-path="url(#b)"
     style="opacity:0.1;marker:none;filter:url(#c);enable-background:new"
     d="m 256,-80 -32,32 H 88 c 0,0 -40,0 -40,40 v 264 h 376 c 40,0 40,-40 40,-40 V -40 c 0,-40 -40,-40 -40,-40 z"
     transform="matrix(0.13435,0,0,0.1966,-2.393,35.813)"
     id="path20"
     inkscape:connector-curvature="0" />
  <path
     style="fill:url(#d);marker:none"
     d="m 32,20.746 -4.3,4.299 H 9.43 c 0,0 -5.373,0 -5.373,5.375 v 29.469 h 50.515 c 5.374,0 5.375,-5.375 5.375,-5.375 V 26.119 c 0,-5.374 -5.375,-5.373 -5.375,-5.373 z"
     id="path22"
     inkscape:connector-curvature="0" />
  <path
     style="fill-opacity:0.23500001;marker:none;enable-background:new"
     d="m 32,20.746 -4.299,4.299 H 9.428 c 0,0 -5.373,0 -5.373,5.375 v 1.228 c 0,-0.671 0.083,-1.26 0.23,-1.775 a 4.72,4.72 0 0 1 0.61,-1.332 c 0.503,-0.756 1.175,-1.26 1.847,-1.596 a 6.69,6.69 0 0 1 2.686,-0.672 h 18.707 l 4.299,-4.298 h 22.138 c 0,0 1.342,0 2.686,0.671 0.672,0.336 1.344,0.84 1.847,1.596 0.252,0.378 0.463,0.818 0.61,1.332 0.147,0.515 0.23,1.102 0.23,1.774 v -1.229 c 0,-5.374 -5.373,-5.373 -5.373,-5.373 z"
     id="path24"
     inkscape:connector-curvature="0" />
  <path
     style="fill:#ffffff;fill-opacity:0.23500001;marker:none;enable-background:new"
     d="m 9.428,3.998 c 0,0 -5.373,-0.001 -5.373,5.373 v 1.127 c 0,-0.672 0.083,-1.26 0.23,-1.773 C 4.432,8.21 4.643,7.768 4.895,7.391 5.398,6.635 6.07,6.133 6.742,5.797 8.086,5.125 9.428,5.125 9.428,5.125 h 13.476 l 4.3,4.299 h 27.367 c 0.672,0 1.26,0.083 1.774,0.23 a 4.72,4.72 0 0 1 1.332,0.61 c 0.755,0.503 1.26,1.176 1.595,1.847 0.672,1.344 0.672,2.686 0.672,2.686 V 13.67 c 0,0 10e-4,-5.373 -5.373,-5.373 h -26.87 l -4.3,-4.299 z"
     id="path26"
     inkscape:connector-curvature="0" />
</svg>
