<svg xmlns="http://www.w3.org/2000/svg" viewBox="0 0 24 24" id="svg6">
  <defs id="defs3051">
    <style id="current-color-scheme">
      .ColorScheme-Text {
        color:#f9f9f9;
      }
      .ColorScheme-Highlight {
        color:#E0DFD8;
	  </style>
	</defs>
  <path style="fill:currentColor;fill-opacity:1;stroke:none"
     d="m 13.617,3.746 a 0.073,0.073 0 0 0 -0.013,0.013 0.073,0.073 0 0 0 -0.013,0.014 0.073,0.073 0 0 0 -0.013,0.013 0.073,0.073 0 0 0 -0.012,0.026 0.073,0.073 0 0 0 0,0.013 0.073,0.073 0 0 0 0,0.014 c 0.169,0.662 0.116,1.197 -0.093,1.665 -0.206,0.47 -0.567,0.871 -0.982,1.242 -0.824,0.743 -1.892,1.373 -2.468,2.237 -0.398,0.598 -0.3,1.242 0.091,1.887 0.391,0.643 1.07,1.3 1.848,2.004 a 0.073,0.073 0 0 0 0.013,0 0.073,0.073 0 0 0 0.014,0.012 0.073,0.073 0 0 0 0.013,0 0.073,0.073 0 0 0 0.013,0 0.073,0.073 0 0 0 0.012,0 0.073,0.073 0 0 0 0.026,0 0.073,0.073 0 0 0 0.013,-0.014 0.073,0.073 0 0 0 0.014,-0.013 0.073,0.073 0 0 0 0,-0.012 0.073,0.073 0 0 0 0.013,-0.013 0.073,0.073 0 0 0 0,-0.026 0.073,0.073 0 0 0 0,-0.012 0.073,0.073 0 0 0 -0.013,-0.013 c -0.313,-0.705 -0.968,-1.34 -1.217,-2.055 a 1.581,1.581 0 0 1 0.013,-1.15 c 0.165,-0.415 0.53,-0.876 1.19,-1.397 1.671,-1.32 2.091,-2.417 2.08,-3.194 -0.009,-0.776 -0.45,-1.214 -0.45,-1.214 a 0.073,0.073 0 0 0 -0.014,-0.014 0.073,0.073 0 0 0 -0.013,0 0.073,0.073 0 0 0 -0.014,-0.013 0.073,0.073 0 0 0 -0.011,0 0.073,0.073 0 0 0 -0.014,0 0.073,0.073 0 0 0 -0.013,0 z m 2.06,3.348 a 0.073,0.073 0 0 0 -0.005,0 c 0,0 -1.395,0.35 -2.481,1.1 -0.542,0.375 -1.02,0.856 -1.176,1.448 -0.157,0.59 0.017,1.282 0.698,2.066 0.379,0.436 0.32,0.827 0.181,1.128 -0.141,0.3 -0.375,0.501 -0.375,0.501 a 0.073,0.073 0 0 0 -0.013,0.016 0.073,0.073 0 0 0 -0.013,0.013 0.073,0.073 0 0 0 -0.013,0.012 0.073,0.073 0 0 0 0,0.013 0.073,0.073 0 0 0 0,0.012 0.073,0.073 0 0 0 0.013,0.013 0.073,0.073 0 0 0 0,0.013 0.073,0.073 0 0 0 0.013,0.014 0.073,0.073 0 0 0 0.013,0.013 0.073,0.073 0 0 0 0.037,0.012 0.073,0.073 0 0 0 0.013,0 0.073,0.073 0 0 0 0.014,-0.013 0.073,0.073 0 0 0 0.013,0 c 0,0 0.508,-0.263 0.905,-0.699 0.198,-0.217 0.364,-0.476 0.426,-0.774 A 1.227,1.227 0 0 0 13.708,10.998 C 13.492,10.695 13.286,10.434 13.165,10.184 13.042,9.936 12.993,9.722 13.073,9.461 c 0.163,-0.52 0.88,-1.2 2.664,-2.236 a 0.073,0.073 0 0 0 0.013,0 0.073,0.073 0 0 0 0,-0.014 0.073,0.073 0 0 0 0.013,0 0.073,0.073 0 0 0 0,-0.014 0.073,0.073 0 0 0 0.013,-0.025 0.073,0.073 0 0 0 0,-0.013 0.073,0.073 0 0 0 0,-0.013 0.073,0.073 0 0 0 -0.013,-0.013 0.073,0.073 0 0 0 0,-0.012 0.073,0.073 0 0 0 -0.013,-0.013 0.073,0.073 0 0 0 -0.013,-0.014 0.073,0.073 0 0 0 -0.013,0 0.073,0.073 0 0 0 -0.014,0 0.073,0.073 0 0 0 -0.013,0 0.073,0.073 0 0 0 -0.013,0 0.073,0.073 0 0 0 -0.008,0 z m 1.108,5.56 a 1.9,1.9 0 0 0 -0.725,0.102 0.615,0.615 0 0 0 -0.284,0.24 0.033,0.033 0 0 0 0,0.014 0.033,0.033 0 0 0 0,0.013 0.033,0.033 0 0 0 0,0.013 0.033,0.033 0 0 0 0.011,0 0.033,0.033 0 0 0 0,0.01 0.033,0.033 0 0 0 0.014,0 0.033,0.033 0 0 0 0.014,0 c 0,0 0.118,-0.039 0.361,-0.088 0.478,-0.098 1.061,0.214 1.151,0.75 0.046,0.267 -0.03,0.597 -0.31,0.957 -0.281,0.36 -0.758,0.752 -1.524,1.15 a 0.033,0.033 0 0 0 -0.014,0 0.033,0.033 0 0 0 -0.008,0.005 0.033,0.033 0 0 0 -0.006,0.01 0.25,0.25 0 0 1 -0.027,0.05 c -0.006,0.008 -0.02,0.02 -0.023,0.027 -0.006,0.004 0,0.013 0,0.013 l 0.023,0.013 v 0.037 c 1.806,-0.475 2.542,-1.267 2.627,-1.966 0.082,-0.698 -0.49,-1.29 -1.28,-1.33 z m -6.838,0.154 c -0.396,0.01 -1.32,0.103 -2.393,0.621 a 0.989,0.989 0 0 0 -0.247,0.155 c -0.052,0.053 -0.079,0.1 -0.078,0.156 a 0.227,0.227 0 0 0 0.091,0.155 0.85,0.85 0 0 0 0.24,0.115 c 0.368,0.14 1.032,0.238 1.849,0.285 1.634,0.097 3.859,-0.014 5.378,-0.414 a 0.033,0.033 0 0 0 0.013,0 c 0.31,-0.29 0.736,-0.4 0.736,-0.4 a 0.033,0.033 0 0 0 0.014,-0.015 0.033,0.033 0 0 0 0.008,-0.004 0.033,0.033 0 0 0 0.005,-0.006 0.033,0.033 0 0 0 0,-0.013 0.033,0.033 0 0 0 0,-0.014 0.033,0.033 0 0 0 -0.013,0 0.033,0.033 0 0 0 0,-0.013 0.033,0.033 0 0 0 -0.014,0 0.033,0.033 0 0 0 -0.013,0 c 0,0 -1.236,0.206 -2.468,0.31 -1.508,0.127 -3.122,0.16 -3.929,0.052 A 2.084,2.084 0 0 1 8.621,13.662 0.244,0.244 0 0 1 8.531,13.597 C 8.512,13.579 8.501,13.56 8.505,13.544 c 0,-0.03 0.04,-0.076 0.116,-0.128 a 1.88,1.88 0 0 1 0.324,-0.169 c 0.498,-0.207 1.241,-0.373 1.241,-0.373 a 0.033,0.033 0 0 0 0,-0.013 0.033,0.033 0 0 0 0.013,0 0.033,0.033 0 0 0 0,-0.014 0.033,0.033 0 0 0 0,-0.013 0.033,0.033 0 0 0 0,-0.013 0.033,0.033 0 0 0 -0.013,-0.013 0.033,0.033 0 0 0 -0.013,0 c 0,0 -0.075,-0.004 -0.206,0 z m -0.502,1.86 A 0.033,0.033 0 0 0 9.441,14.67 c -0.35,0.116 -0.59,0.23 -0.737,0.35 a 0.475,0.475 0 0 0 -0.143,0.181 0.238,0.238 0 0 0 -0.013,0.18 c 0.045,0.12 0.174,0.24 0.364,0.31 0.19,0.088 0.442,0.16 0.748,0.24 1.228,0.237 3.29,0.24 5.236,-0.35 a 0.033,0.033 0 0 0 0.013,0 0.033,0.033 0 0 0 0,-0.013 0.033,0.033 0 0 0 0,-0.013 0.033,0.033 0 0 0 0,-0.012 0.033,0.033 0 0 0 0,-0.014 0.033,0.033 0 0 0 -0.013,0 0.033,0.033 0 0 0 0,-0.013 2.034,2.034 0 0 1 -0.673,-0.4 0.033,0.033 0 0 0 -0.013,-0.014 0.033,0.033 0 0 0 -0.012,0 c -1.895,0.367 -2.996,0.364 -4.382,0.24 C 9.55,15.316 9.414,15.259 9.337,15.202 9.261,15.143 9.255,15.082 9.272,15.019 a 0.451,0.451 0 0 1 0.103,-0.18 c 0.048,-0.05 0.091,-0.08 0.091,-0.08 a 0.033,0.033 0 0 0 0.014,-0.01 0.033,0.033 0 0 0 0,-0.014 0.033,0.033 0 0 0 0,-0.013 0.033,0.033 0 0 0 -0.014,-0.013 0.033,0.033 0 0 0 -0.013,0 0.033,0.033 0 0 0 -0.009,-0.002 z m 0.4,1.797 a 0.033,0.033 0 0 0 -0.004,0.003 c -0.316,0.088 -0.528,0.187 -0.66,0.296 -0.129,0.11 -0.17,0.242 -0.128,0.362 0.043,0.12 0.161,0.226 0.336,0.323 0.174,0.098 0.396,0.188 0.673,0.258 1.107,0.282 2.935,0.303 4.549,-0.387 a 0.033,0.033 0 0 0 0,-0.013 0.033,0.033 0 0 0 0.013,0 0.033,0.033 0 0 0 0,-0.013 0.033,0.033 0 0 0 0,-0.013 0.033,0.033 0 0 0 0,-0.014 0.033,0.033 0 0 0 -0.013,0 0.033,0.033 0 0 0 0,-0.013 c -0.523,-0.203 -0.89,-0.453 -0.89,-0.453 a 0.033,0.033 0 0 0 -0.014,0 0.033,0.033 0 0 0 -0.013,0 0.033,0.033 0 0 0 -0.013,0 C 12.25,17.072 11.593,17.105 10.294,16.958 10.029,16.928 9.861,16.878 9.778,16.829 9.736,16.805 9.712,16.786 9.7,16.764 9.688,16.744 9.695,16.721 9.7,16.7 c 0.01,-0.04 0.05,-0.083 0.09,-0.118 0.04,-0.033 0.092,-0.05 0.092,-0.05 a 0.033,0.033 0 0 0 0,-0.014 0.033,0.033 0 0 0 0,-0.014 0.033,0.033 0 0 0 0,-0.013 0.033,0.033 0 0 0 0,-0.013 0.033,0.033 0 0 0 0,-0.013 0.033,0.033 0 0 0 -0.013,0 0.033,0.033 0 0 0 -0.013,0 0.033,0.033 0 0 0 -0.01,0 z m -1.684,1.19 c -0.062,0 -0.126,0.01 -0.194,0.015 -0.588,0.053 -1.379,0.307 -1.783,0.607 a 0.797,0.797 0 0 0 -0.219,0.245 c -0.045,0.08 -0.055,0.155 -0.013,0.233 0.04,0.08 0.123,0.148 0.256,0.206 0.135,0.058 0.325,0.104 0.571,0.144 3.277,0.531 6.263,0.413 8.24,0.064 0.98,-0.174 1.692,-0.406 2.07,-0.647 0.187,-0.118 0.298,-0.23 0.295,-0.362 a 0.293,0.293 0 0 0 -0.09,-0.193 0.8,0.8 0 0 0 -0.244,-0.155 0.033,0.033 0 0 0 -0.013,0 0.033,0.033 0 0 0 -0.013,0 0.033,0.033 0 0 0 -0.013,0 0.033,0.033 0 0 0 0,0.012 0.033,0.033 0 0 0 -0.014,0 0.033,0.033 0 0 0 0,0.014 0.033,0.033 0 0 0 0,0.013 0.033,0.033 0 0 0 0.014,0 0.033,0.033 0 0 0 0,0.013 c 0,0 0.108,0.08 0.103,0.194 -0.003,0.055 -0.03,0.132 -0.118,0.206 a 1.38,1.38 0 0 1 -0.476,0.22 c -0.919,0.28 -2.856,0.457 -4.758,0.478 A 26.83,26.83 0 0 1 9.06,18.872 C 8.254,18.796 7.574,18.672 7.173,18.496 A 0.256,0.256 0 0 1 7.057,18.406 C 7.037,18.38 7.033,18.366 7.044,18.34 c 0.02,-0.052 0.11,-0.129 0.232,-0.192 0.241,-0.126 0.607,-0.234 0.776,-0.27 0.356,-0.079 0.544,-0.066 0.544,-0.066 a 0.033,0.033 0 0 0 0.013,0 0.033,0.033 0 0 0 0.013,0 0.033,0.033 0 0 0 0,-0.013 0.033,0.033 0 0 0 0.013,0 0.033,0.033 0 0 0 0,-0.013 0.033,0.033 0 0 0 0,-0.013 0.033,0.033 0 0 0 -0.013,-0.013 0.033,0.033 0 0 0 0,-0.014 c -0.103,-0.07 -0.255,-0.09 -0.44,-0.09 z m 9.85,0.982 a 0.033,0.033 0 0 0 0,0.014 c 0,0 -0.003,0.013 -0.013,0.026 -0.008,0.013 -0.014,0.026 -0.04,0.053 a 1.346,1.346 0 0 1 -0.309,0.217 c -0.323,0.185 -0.928,0.425 -2.043,0.635 -2.515,0.475 -5.62,0.42 -7.458,0.116 l -0.013,0.027 0.026,0.024 c 0,0 -0.04,0.005 -0.026,0.014 0.014,0.01 0.043,0.034 0.078,0.05 0.066,0.033 0.178,0.07 0.348,0.12 0.338,0.094 0.916,0.206 1.887,0.268 1.48,0.095 3.355,0.073 4.874,-0.154 0.76,-0.114 1.422,-0.28 1.914,-0.504 0.491,-0.225 0.81,-0.51 0.838,-0.878 a 0.033,0.033 0 0 0 0,-0.013 0.033,0.033 0 0 0 0,-0.013 0.033,0.033 0 0 0 -0.01,0 0.033,0.033 0 0 0 -0.014,0 0.033,0.033 0 0 0 -0.013,0 0.033,0.033 0 0 0 -0.013,0 0.033,0.033 0 0 0 -0.013,0 z"
  	 class="ColorScheme-Text" />
</svg>
