<svg xmlns="http://www.w3.org/2000/svg" viewBox="0 0 24 24" id="svg6">
  <defs id="defs3051">
    <style id="current-color-scheme">
      .ColorScheme-Text {
        color:#f9f9f9;
      }
      .ColorScheme-Highlight {
        color:#E0DFD8;
	  </style>
	</defs>
  <path style="fill:currentColor;fill-opacity:1;stroke:none"
     d="m 10.391,5.562 c -2.49,0 -4.5,1.635 -4.896,4.024 -1.32,0.909 -2.078,2.312 -2.078,4.024 0,2.311 1.389,4.245 3.52,4.828 h 10.126 c 2.131,-0.583 3.52,-2.517 3.52,-4.828 0,-2.543 -1.734,-4.564 -4.19,-4.896 C 15.791,7.862 14.966,7.246 13.945,6.971 13.045,6.034 11.82,5.562 10.391,5.562 Z m 0,1.073 c 1.176,0 2.194,0.562 2.883,1.409 a 3.205,3.205 0 0 1 2.447,1.81 h 0.034 a 3.755,3.755 0 1 1 0,7.51 H 8.245 A 3.755,3.755 0 0 1 4.49,13.61 3.73,3.73 0 0 1 6.635,10.224 3.758,3.758 0 0 1 10.39,6.635 Z"
  	 class="ColorScheme-Text" />
</svg>
