<svg xmlns="http://www.w3.org/2000/svg" viewBox="0 0 24 24" id="svg6">
  <defs id="defs3051">
    <style id="current-color-scheme">
      .ColorScheme-Text {
        color:#f9f9f9;
      }
      .ColorScheme-Highlight {
        color:#E0DFD8;
	  </style>
	</defs>
  <path style="fill:currentColor;fill-opacity:1;stroke:none"
     d="M 6.15,3.492 A 1.604,1.604 0 0 0 4.554,5.087 v 13.826 a 1.604,1.604 0 0 0 1.596,1.595 h 11.7 a 1.604,1.604 0 0 0 1.595,-1.595 V 5.087 c 0,-0.438 -0.182,-0.837 -0.472,-1.124 A 1.624,1.624 0 0 0 18.738,3.767 1.575,1.575 0 0 0 17.848,3.492 h -1.142 z m 0,1.063 h 6.63 V 4.799 H 10.83 A 0.392,0.392 0 0 0 10.438,5.19 v 1.565 a 0.392,0.392 0 0 0 0.39,0.39 h 1.956 v 0.783 h -1.955 a 0.392,0.392 0 0 0 -0.39,0.39 v 1.564 a 0.392,0.392 0 0 0 0.39,0.392 h 1.954 v 0.78 H 10.83 a 0.392,0.392 0 0 0 -0.392,0.393 v 1.56 a 0.392,0.392 0 0 0 0.39,0.39 h 0.509 l -1.632,2.937 a 0.392,0.392 0 0 0 -0.03,0.314 l 0.392,1.17 a 0.392,0.392 0 0 0 0.372,0.268 h 3.126 a 0.392,0.392 0 0 0 0.372,-0.267 l 0.39,-1.17 a 0.392,0.392 0 0 0 -0.032,-0.32 l -1.144,-1.982 -0.678,0.388 1.054,1.834 -0.245,0.737 h -2.563 l -0.248,-0.742 1.87,-3.367 a 0.392,0.392 0 0 0 -0.34,-0.58 h -0.782 v -0.782 h 1.955 a 0.392,0.392 0 0 0 0.392,-0.39 V 9.881 A 0.392,0.392 0 0 0 13.173,9.491 H 11.22 V 8.708 h 1.955 a 0.392,0.392 0 0 0 0.392,-0.39 V 6.755 A 0.392,0.392 0 0 0 13.174,6.363 H 11.22 V 5.58 h 1.955 A 0.392,0.392 0 0 0 13.567,5.188 V 4.553 h 4.283 c 0.076,0 0.146,0.014 0.288,0.04 0.185,0.079 0.304,0.264 0.322,0.492 v 13.826 a 0.52,0.52 0 0 1 -0.532,0.532 H 6.152 A 0.519,0.519 0 0 1 5.62,18.911 V 5.087 A 0.52,0.52 0 0 1 6.152,4.555 Z"
  	 class="ColorScheme-Text" />
</svg>
