<svg xmlns="http://www.w3.org/2000/svg" viewBox="0 0 24 24" id="svg6">
  <defs id="defs3051">
    <style id="current-color-scheme">
      .ColorScheme-Text {
        color:#f9f9f9;
      }
      .ColorScheme-Highlight {
        color:#E0DFD8;
	  </style>
	</defs>
  <path style="fill:currentColor;fill-opacity:1;stroke:none" 
     d="M 17.1,3.5 A 2.832,2.832 0 0 0 14.266,6.334 2.832,2.832 0 0 0 17.1,9.166 2.832,2.832 0 0 0 19.934,6.334 2.832,2.832 0 0 0 17.1,3.5 Z m 0,0.905 A 1.934,1.934 0 0 1 19.035,6.338 1.934,1.934 0 0 1 17.1,8.273 1.934,1.934 0 0 1 15.167,6.338 1.934,1.934 0 0 1 17.1,4.405 Z M 13.373,7.822 A 0.594,0.594 0 0 0 13.138,7.899 L 10.25,9.481 c -0.656,0.347 -0.117,1.326 0.527,0.962 L 13.665,8.862 C 14.239,8.559 13.9,7.771 13.373,7.823 Z M 6.9,9.166 A 2.832,2.832 0 0 0 4.066,12 2.832,2.832 0 0 0 6.9,14.832 2.832,2.832 0 0 0 9.732,12 2.832,2.832 0 0 0 6.9,9.166 Z m 0,0.905 A 1.934,1.934 0 0 1 8.832,12.004 1.934,1.934 0 0 1 6.9,13.939 1.934,1.934 0 0 1 4.967,12.004 1.934,1.934 0 0 1 6.9,10.07 Z m 3.644,3.407 c -0.527,-0.053 -0.865,0.736 -0.291,1.04 L 13.14,16.1 c 0.646,0.363 1.182,-0.615 0.527,-0.963 l -2.887,-1.58 a 0.598,0.598 0 0 0 -0.236,-0.078 z m 6.558,1.356 A 2.832,2.832 0 0 0 14.269,17.668 2.832,2.832 0 0 0 17.1,20.5 2.832,2.832 0 0 0 19.934,17.668 2.832,2.832 0 0 0 17.1,14.834 Z m 0,0.905 a 1.934,1.934 0 0 1 1.933,1.932 1.934,1.934 0 0 1 -1.934,1.936 1.934,1.934 0 0 1 -1.933,-1.936 1.934,1.934 0 0 1 1.932,-1.931 z"
  	 class="ColorScheme-Text" />
</svg>
