<svg xmlns="http://www.w3.org/2000/svg" viewBox="0 0 24 24" id="svg6">
  <defs id="defs3051">
    <style id="current-color-scheme">
      .ColorScheme-Text {
        color:#f9f9f9;
      }
      .ColorScheme-Highlight {
        color:#E0DFD8;
	  </style>
	</defs>
  <path style="fill:currentColor;fill-opacity:1;stroke:none"
     d="m 7,8.949 a 3.074,3.074 0 0 0 -2.156,0.905 3.075,3.075 0 0 0 0,4.313 3.072,3.072 0 0 0 4.313,0 c 0.23,-0.23 0.203,-0.566 0.343,-0.843 0.14,0.277 0.113,0.613 0.344,0.843 a 3.072,3.072 0 0 0 4.312,0 c 0.23,-0.23 0.204,-0.566 0.344,-0.843 0.14,0.277 0.113,0.613 0.343,0.843 a 3.072,3.072 0 0 0 4.313,0 3.075,3.075 0 0 0 0,-4.313 A 3.074,3.074 0 0 0 17,8.95 3.074,3.074 0 0 0 14.843,9.855 C 14.613,10.087 14.64,10.422 14.5,10.7 14.36,10.422 14.387,10.087 14.156,9.856 A 3.074,3.074 0 0 0 12,8.95 3.074,3.074 0 0 0 9.844,9.855 C 9.614,10.085 9.64,10.421 9.5,10.699 9.36,10.421 9.387,10.086 9.157,9.855 A 3.074,3.074 0 0 0 7,8.95 Z m 0,1.06 a 1.98,1.98 0 0 1 1.406,0.596 1.98,1.98 0 0 1 0,2.812 1.98,1.98 0 0 1 -2.813,0 1.98,1.98 0 0 1 0,-2.813 A 1.983,1.983 0 0 1 7,10.01 Z m 5,0 c 0.512,0 1.016,0.205 1.406,0.596 a 1.98,1.98 0 0 1 0,2.812 1.98,1.98 0 0 1 -2.812,0 1.98,1.98 0 0 1 0,-2.813 A 1.983,1.983 0 0 1 12,10.01 Z m 5,0 c 0.511,0 1.016,0.205 1.407,0.596 a 1.98,1.98 0 0 1 0,2.812 1.98,1.98 0 0 1 -2.813,0 1.98,1.98 0 0 1 0,-2.813 A 1.983,1.983 0 0 1 17,10.01 Z"
  	 class="ColorScheme-Text" />
</svg>
