<svg xmlns="http://www.w3.org/2000/svg" viewBox="0 0 24 24" id="svg6">
  <defs id="defs3051">
    <style id="current-color-scheme">
      .ColorScheme-Text {
        color:#f9f9f9;
      }
      .ColorScheme-Highlight {
        color:#E0DFD8;
	  </style>
	</defs>
  <path style="fill:currentColor;fill-opacity:1;stroke:none" 
     d="m 13.908,3.494 c -0.455,0 -0.653,0.337 -0.629,0.785 l 0.004,11.68 c 0,0.227 -0.028,0.449 -0.07,0.664 -0.01,0.05 -0.025,0.1 -0.035,0.148 a 3.503,3.503 0 0 1 -0.16,0.5 c -0.016,0.041 -0.031,0.084 -0.051,0.125 a 3.51,3.51 0 0 1 -0.27,0.49 l -0.043,0.071 a 3.522,3.522 0 0 1 -1.52,1.25 c -0.03,0.013 -0.061,0.02 -0.091,0.033 -0.125,0.05 -0.252,0.101 -0.385,0.137 -0.044,0.013 -0.086,0.012 -0.129,0.021 a 1.836,1.836 0 0 1 -0.289,0.04 3.537,3.537 0 0 1 -0.449,0.042 c -0.042,0.003 -0.082,0.016 -0.125,0.016 -0.033,0 -0.065,-0.008 -0.1,-0.01 A 3.512,3.512 0 0 1 9.045,19.432 C 9.007,19.425 8.97,19.423 8.932,19.414 A 3.525,3.525 0 0 1 7.697,18.893 L 7.686,18.883 A 3.514,3.514 0 0 1 7.131,18.408 3.53,3.53 0 0 1 6.711,17.883 C 6.677,17.831 6.633,17.785 6.601,17.729 6.541,17.627 6.501,17.44 6.451,17.414 6.433,17.372 6.412,17.334 6.396,17.294 A 3.537,3.537 0 0 1 6.199,16.666 3.54,3.54 0 0 1 6.131,15.992 L 6.129,15.957 c 0,-0.037 0.01,-0.07 0.012,-0.107 0.005,-0.173 0.02,-0.348 0.05,-0.52 A 3.5,3.5 0 0 1 6.383,14.666 L 6.43,14.543 c 0.085,-0.194 0.182,-0.38 0.304,-0.557 a 3.53,3.53 0 0 1 0.428,-0.53 c 0.165,-0.165 0.343,-0.303 0.53,-0.427 a 3.43,3.43 0 0 1 0.56,-0.306 l 0.121,-0.047 a 3.522,3.522 0 0 1 0.666,-0.192 3.556,3.556 0 0 1 0.52,-0.05 C 9.595,12.432 9.63,12.42 9.666,12.42 c 0.013,0 0.021,0.004 0.033,0.004 0.226,0.002 0.457,0.026 0.682,0.072 h 0.004 c 0.01,10e-4 0.018,0.006 0.025,0.008 0.207,0.045 0.411,0.11 0.611,0.193 l 0.098,0.05 c 0.106,0.046 0.214,0.089 0.315,0.148 l 0.505,-0.877 A 4.545,4.545 0 0 0 9.07,11.449 4.542,4.542 0 0 0 6.447,12.74 a 4.551,4.551 0 0 0 -0.72,5.492 4.551,4.551 0 0 0 5.115,2.118 4.553,4.553 0 0 0 3.373,-4.393 V 5.086 l 4.039,3.24 0.63,-0.789 z M 9.744,13.791 a 2.166,2.166 0 1 0 2.166,2.166 2.166,2.166 0 0 0 -2.166,-2.166 z"
  	 class="ColorScheme-Text" />
</svg>
