<svg xmlns="http://www.w3.org/2000/svg" viewBox="0 0 24 24" id="svg6">
  <defs id="defs3051">
    <style id="current-color-scheme">
      .ColorScheme-Text {
        color:#f9f9f9;
      }
      .ColorScheme-Highlight {
        color:#E0DFD8;
	  </style>
	</defs>
  <path style="fill:currentColor;fill-opacity:1;stroke:none"
     d="m 9.375,3.713 c -1.158,0 -2.03,0.721 -2.366,1.373 -0.334,0.654 -0.32,1.28 -0.32,1.28 v 13.921 l 5.307,-2.653 5.303,2.653 0.013,-8.084 H 17.307 L 17.302,6.366 c 0,0 0.016,-0.62 -0.311,-1.27 C 16.665,4.445 15.798,3.713 14.648,3.713 Z M 8.448,4.707 h 7.139 c 0.598,0 0.5,0.079 0.6,0.263 a 1.373,1.286 0 0 1 0.117,0.41 l 0.008,10.095 -0.003,3.207 -4.314,-2.02 -4.31,2.02 V 5.379 c 0,0 0.02,-0.215 0.12,-0.397 0.097,-0.18 0.016,-0.275 0.643,-0.276 z"
  	 class="ColorScheme-Text" />
</svg>
