<svg xmlns="http://www.w3.org/2000/svg" viewBox="0 0 24 24" id="svg6">
  <defs id="defs3051">
    <style id="current-color-scheme">
      .ColorScheme-Text {
        color:#f9f9f9;
      }
      .ColorScheme-Highlight {
        color:#E0DFD8;
	  </style>
	</defs>
  <path style="fill:currentColor;fill-opacity:1;stroke:none"
     d="m 11.953,3.352 a 0.509,0.509 0 0 0 -0.065,0.016 0.507,0.507 0 0 0 -0.395,0.51 v 10.164 c -0.01,0.688 1.025,0.688 1.014,0 V 3.877 A 0.507,0.507 0 0 0 11.952,3.352 Z M 12,16.582 A 2.042,2.042 0 0 0 9.967,18.616 2.042,2.042 0 0 0 12,20.65 2.042,2.042 0 0 0 14.033,18.617 2.042,2.042 0 0 0 12,16.582 Z M 12,17.6 A 1.01,1.01 0 0 1 13.017,18.616 1.01,1.01 0 0 1 12,19.633 1.01,1.01 0 0 1 10.983,18.616 c 0,-0.568 0.45,-1.016 1.017,-1.016 z"
  	 class="ColorScheme-Text" />
</svg>
