<svg xmlns="http://www.w3.org/2000/svg" viewBox="0 0 24 24" id="svg6">
  <defs id="defs3051">
    <style id="current-color-scheme">
      .ColorScheme-Text {
        color:#f9f9f9;
      }
      .ColorScheme-Highlight {
        color:#E0DFD8;
	  </style>
	</defs>
  <path style="fill:currentColor;fill-opacity:1;stroke:none"
     d="M 7.117,20.24 H 8.213 C 8.206,20.225 8.168,20.17 8.163,20.158 7.709,19.345 5.575,14.902 6.028,14.09 c 0.453,-0.813 5.056,-1.016 5.962,-1.016 0.906,0 5.51,0.203 5.962,1.016 0.453,0.814 -1.68,5.255 -2.134,6.068 l -0.053,0.082 h 1.097 a 29.284,29.284 0 0 0 1.24,-2.628 c 0.26,-0.638 0.494,-1.278 0.653,-1.878 a 5,5 0 0 0 0.165,-0.9 c 0.026,-0.314 0.071,-0.676 -0.222,-1.202 -0.286,-0.514 -0.634,-0.68 -0.92,-0.819 a 4.42,4.42 0 0 0 -0.845,-0.3 13.654,13.654 0 0 0 -1.864,-0.322 h -0.017 c 1.051,-0.884 1.762,-2.159 1.762,-3.627 A 4.824,4.824 0 0 0 11.99,3.76 4.824,4.824 0 0 0 7.186,8.564 c 0,1.468 0.71,2.743 1.761,3.627 H 8.93 c -0.643,0.074 -1.283,0.17 -1.862,0.321 a 4.42,4.42 0 0 0 -0.846,0.3 c -0.287,0.14 -0.634,0.306 -0.92,0.821 -0.294,0.525 -0.248,0.885 -0.223,1.202 0.024,0.313 0.086,0.6 0.166,0.9 0.158,0.599 0.393,1.24 0.65,1.876 a 29.292,29.292 0 0 0 1.24,2.628 z M 11.99,4.655 a 3.909,3.909 0 1 1 0,7.818 3.909,3.909 0 0 1 0,-7.818 z"
  	 class="ColorScheme-Text" />
</svg>
