<svg xmlns="http://www.w3.org/2000/svg" viewBox="0 0 24 24" id="svg6">
  <defs id="defs3051">
    <style id="current-color-scheme">
      .ColorScheme-Text {
        color:#f9f9f9;
      }
      .ColorScheme-Highlight {
        color:#E0DFD8;
	  </style>
	</defs>
  <path style="fill:currentColor;fill-opacity:1;stroke:none"
     d="M 11.999,3.452 A 4.328,4.328 0 0 0 7.672,7.777 v 1.65 H 5.975 A 0.462,0.462 0 0 0 5.512,9.889 v 10.196 c 0,0.257 0.206,0.463 0.462,0.463 h 12.052 a 0.462,0.462 0 0 0 0.462,-0.462 v -1.854 a 0.457,0.457 0 0 0 -0.026,-0.158 h 0.026 V 9.89 A 0.462,0.462 0 0 0 18.026,9.428 H 16.325 V 7.778 A 4.328,4.328 0 0 0 11.999,3.453 Z m 0,1.08 a 3.224,3.224 0 0 1 3.245,3.245 v 1.65 h -6.49 v -1.65 a 3.224,3.224 0 0 1 3.245,-3.244 z m -5.56,5.82 H 17.56 v 9.24 H 6.44 Z M 12,13.396 a 1.078,1.078 0 0 0 -1.08,1.08 c 0,0.203 0.068,0.38 0.164,0.542 A 1.052,1.052 0 0 0 10.919,15.558 1.08,1.08 0 0 0 12,16.64 1.078,1.078 0 0 0 13.08,15.559 1.052,1.052 0 0 0 12.916,15.019 1.057,1.057 0 0 0 13.082,14.477 1.078,1.078 0 0 0 12,13.397 Z"
  	 class="ColorScheme-Text" />
</svg>
