<svg xmlns="http://www.w3.org/2000/svg" viewBox="0 0 24 24" id="svg6">
  <defs id="defs3051">
    <style id="current-color-scheme">
      .ColorScheme-Text {
        color:#f9f9f9;
      }
      .ColorScheme-Highlight {
        color:#E0DFD8;
	  </style>
	</defs>
  <path style="fill:currentColor;fill-opacity:1;stroke:none"
     d="m 6.3,3.707 c -0.854,0 -1.556,0.702 -1.556,1.554 V 7.415 H 5.78 v 1.09 H 4.741 v 2.155 h 1.04 v 1.093 h -1.04 v 2.152 h 1.04 v 1.092 h -1.04 v 3.743 c 0,0.853 0.704,1.554 1.557,1.554 h 6.738 V 20.286 A 1.01,1.01 0 0 0 13.77,19.99 l 5.184,-5.181 c 0.652,-0.653 0.188,-1.77 -0.736,-1.772 h -5.182 a 1.037,1.037 0 0 0 -1.038,1.038 v 4.148 h 1.038 v -4.148 h 5.182 l -5.182,5.184 H 6.3 A 0.506,0.506 0 0 1 5.782,18.741 V 5.26 C 5.782,4.965 6.003,4.743 6.3,4.743 H 6.877 V 3.706 Z m 1.67,0 v 1.037 h 2.15 V 3.706 Z m 3.243,0 v 1.037 h 2.152 V 3.706 Z m 3.244,0 v 1.037 h 2.152 V 3.706 Z m 3.245,0 v 1.037 c 0.296,0 0.496,0.224 0.52,0.519 h 1.035 A 1.563,1.563 0 0 0 17.701,3.708 Z m 0.52,2.648 v 2.15 h 1.035 v -2.15 z m 0,3.243 v 2.403 h 1.035 V 9.598 Z"
  	 class="ColorScheme-Text" />
</svg>
