<svg xmlns="http://www.w3.org/2000/svg" viewBox="0 0 24 24" id="svg6">
  <defs id="defs3051">
    <style id="current-color-scheme">
      .ColorScheme-Text {
        color:#f9f9f9;
      }
      .ColorScheme-Highlight {
        color:#E0DFD8;
	  </style>
	</defs>
  <path style="fill:currentColor;fill-opacity:1;stroke:none" 
     d="M 3.983,4.602 A 0.616,0.616 0 0 0 3.368,5.217 v 13.566 c 0,0.34 0.275,0.615 0.616,0.615 h 16.03 a 0.616,0.616 0 0 0 0.616,-0.615 v -2.467 a 0.613,0.613 0 0 0 -0.038,-0.212 h 0.04 V 5.217 A 0.616,0.616 0 0 0 20.014,4.602 Z M 4.6,5.834 h 14.798 v 12.29 H 4.599 Z m 12.33,1.234 a 1.242,1.242 0 0 0 -1.232,1.233 c 0,0.673 0.56,1.232 1.233,1.232 0.674,0 1.234,-0.56 1.234,-1.232 A 1.242,1.242 0 0 0 16.931,7.068 Z M 8.454,11.632 A 3.306,3.306 0 0 0 8.04,11.65 c -0.811,0.088 -1.587,0.484 -2.41,1.223 v 4.143 h 12.703 v -1.713 c -3.38,-0.16 -5.41,-1.666 -7.236,-2.74 -0.843,-0.495 -1.692,-0.916 -2.642,-0.931 z"
  	 class="ColorScheme-Text" />
</svg>
