<svg xmlns="http://www.w3.org/2000/svg" viewBox="0 0 24 24" id="svg6">
  <defs id="defs3051">
    <style id="current-color-scheme">
      .ColorScheme-Text {
        color:#f9f9f9;
      }
      .ColorScheme-Highlight {
        color:#E0DFD8;
	  </style>
	</defs>
  <path style="fill:currentColor;fill-opacity:1;stroke:none" 
     d="m 6.76,4.865 c -0.564,0 -1.08,0.3 -1.387,0.673 a 2.319,2.319 0 0 0 -0.5,1.264 l -1.02,10.193 c -0.074,0.73 0.364,1.33 0.822,1.653 a 2.676,2.676 0 0 0 1.57,0.487 c 0.615,0 1.146,-0.314 1.496,-0.66 0.348,-0.345 0.587,-0.732 0.808,-1.122 0.44,-0.782 0.819,-1.606 1.19,-2.077 0.287,-0.361 0.384,-0.42 0.645,-0.498 0.26,-0.075 0.77,-0.111 1.617,-0.111 0.845,0 1.355,0.036 1.616,0.11 0.26,0.078 0.358,0.138 0.645,0.499 0.37,0.47 0.749,1.296 1.19,2.077 0.22,0.39 0.46,0.777 0.81,1.122 0.35,0.344 0.88,0.66 1.494,0.66 a 2.676,2.676 0 0 0 1.57,-0.487 c 0.458,-0.323 0.896,-0.923 0.82,-1.653 L 19.13,6.802 A 2.319,2.319 0 0 0 18.629,5.538 1.844,1.844 0 0 0 17.243,4.867 h -1.566 c -0.85,0 -1.528,0.644 -1.738,0.948 -0.043,0.06 -0.026,0.04 -0.048,0.07 H 10.11 C 10.086,5.854 10.1,5.875 10.063,5.815 9.852,5.511 9.175,4.867 8.323,4.867 H 6.76 Z m 0,1.02 h 1.565 c 1.028,0 0.839,1.02 1.595,1.02 h 4.16 c 0.756,0 0.569,-1.02 1.596,-1.02 h 1.566 c 0.483,0 0.817,0.458 0.874,1.02 l 1.02,10.192 c 0.055,0.56 -0.654,1.02 -1.38,1.02 -1.18,0 -1.7,-2.213 -2.696,-3.474 -0.73,-0.92 -1.338,-0.994 -3.06,-0.994 -1.72,0 -2.331,0.075 -3.06,0.994 -0.996,1.26 -1.516,3.473 -2.695,3.473 -0.726,0 -1.435,-0.46 -1.38,-1.02 L 5.887,6.903 C 5.941,6.342 6.277,5.883 6.76,5.883 Z m 1.674,3.057 a 0.509,0.509 0 0 0 -0.51,0.51 v 0.51 H 7.416 a 0.509,0.509 0 0 0 -0.51,0.509 c 0,0.283 0.227,0.51 0.51,0.51 h 0.51 v 0.51 a 0.51,0.51 0 1 0 1.02,0 V 10.98 H 9.454 A 0.509,0.509 0 0 0 9.963,10.47 0.509,0.509 0 0 0 9.453,9.96 H 8.943 V 9.45 A 0.509,0.509 0 0 0 8.433,8.94 Z m 7.134,0 a 0.51,0.51 0 0 0 -0.13,0.017 0.51,0.51 0 0 0 -0.006,0.002 0.51,0.51 0 0 0 -0.001,0 A 0.51,0.51 0 0 0 15.396,8.974 0.51,0.51 0 0 0 15.374,8.98 0.51,0.51 0 0 0 15.37,8.983 0.51,0.51 0 0 0 15.337,8.999 0.51,0.51 0 0 0 15.264,9.044 0.51,0.51 0 0 0 15.244,9.057 0.51,0.51 0 0 0 15.224,9.076 0.51,0.51 0 0 0 15.207,9.092 0.51,0.51 0 0 0 15.192,9.11 0.51,0.51 0 0 0 15.174,9.13 0.51,0.51 0 0 0 15.16,9.147 0.51,0.51 0 0 0 15.148,9.163 0.51,0.51 0 0 0 15.14,9.177 0.51,0.51 0 0 0 15.097,9.259 0.51,0.51 0 0 0 15.089,9.281 0.51,0.51 0 0 0 15.077,9.316 0.51,0.51 0 0 0 15.075,9.322 0.51,0.51 0 0 0 15.07,9.35 a 0.51,0.51 0 0 0 -0.002,0.013 0.51,0.51 0 0 0 -0.008,0.09 0.51,0.51 0 0 0 0.002,0.035 0.51,0.51 0 0 0 0.013,0.093 0.51,0.51 0 0 0 0.002,0.009 0.51,0.51 0 0 0 0.013,0.033 0.51,0.51 0 0 0 0.007,0.023 0.51,0.51 0 0 0 0.002,0.006 0.51,0.51 0 0 0 0.016,0.03 0.51,0.51 0 0 0 0.045,0.075 0.51,0.51 0 0 0 0.013,0.018 0.51,0.51 0 0 0 0.019,0.019 0.51,0.51 0 0 0 0.016,0.018 0.51,0.51 0 0 0 0.018,0.016 0.51,0.51 0 0 0 0.02,0.018 0.51,0.51 0 0 0 0.018,0.013 0.51,0.51 0 0 0 0.015,0.013 0.51,0.51 0 0 0 0.014,0.008 0.51,0.51 0 0 0 0.082,0.044 0.51,0.51 0 0 0 0.022,0.008 0.51,0.51 0 0 0 0.036,0.013 0.51,0.51 0 0 0 0.007,0 0.51,0.51 0 0 0 0.026,0.007 0.51,0.51 0 0 0 0.014,0 0.51,0.51 0 0 0 0.088,0.01 0.51,0.51 0 0 0 0.086,-0.01 0.51,0.51 0 0 0 0.045,-0.008 0.51,0.51 0 0 0 0.004,0 0.51,0.51 0 0 1 0.003,0 0.51,0.51 0 0 0 0.034,-0.012 0.51,0.51 0 0 0 0.022,-0.008 0.51,0.51 0 0 0 0.037,-0.018 0.51,0.51 0 0 0 0.043,-0.026 0.51,0.51 0 0 0 0.03,-0.02 0.51,0.51 0 0 0 0.018,-0.013 0.51,0.51 0 0 0 0.02,-0.02 0.51,0.51 0 0 0 0.019,-0.015 0.51,0.51 0 0 0 0.016,-0.018 0.51,0.51 0 0 0 0.017,-0.02 0.51,0.51 0 0 0 0.014,-0.017 0.51,0.51 0 0 0 0.02,-0.03 0.51,0.51 0 0 0 0.027,-0.044 0.51,0.51 0 0 0 0.017,-0.038 0.51,0.51 0 0 0 0.008,-0.022 0.51,0.51 0 0 0 0.012,-0.033 0.51,0.51 0 0 1 0,-0.003 0.51,0.51 0 0 0 0,-0.006 0.51,0.51 0 0 0 0.009,-0.04 0.51,0.51 0 0 0 0.007,-0.053 0.51,0.51 0 0 0 0,-0.036 0.51,0.51 0 0 0 0,-0.036 A 0.51,0.51 0 0 0 16.069,9.363 0.51,0.51 0 0 0 16.068,9.35 0.51,0.51 0 0 0 16.06,9.317 0.51,0.51 0 0 1 16.06,9.314 0.51,0.51 0 0 0 16.047,9.281 0.51,0.51 0 0 0 16.044,9.268 0.51,0.51 0 0 0 16.037,9.255 0.51,0.51 0 0 0 15.997,9.178 0.51,0.51 0 0 0 15.987,9.165 0.51,0.51 0 0 0 15.967,9.135 0.51,0.51 0 0 0 15.959,9.124 0.51,0.51 0 0 0 15.936,9.097 0.51,0.51 0 0 0 15.924,9.087 0.51,0.51 0 0 0 15.897,9.063 0.51,0.51 0 0 0 15.887,9.052 0.51,0.51 0 0 0 15.86,9.031 0.51,0.51 0 0 0 15.8,8.998 0.51,0.51 0 0 0 15.769,8.983 0.51,0.51 0 0 0 15.755,8.976 0.51,0.51 0 0 0 15.721,8.963 0.51,0.51 0 0 0 15.705,8.961 0.51,0.51 0 0 0 15.672,8.953 0.51,0.51 0 0 0 15.606,8.945 0.51,0.51 0 0 0 15.57,8.942 Z m -1.02,1.02 a 0.51,0.51 0 0 0 -0.128,0.016 0.51,0.51 0 0 0 -0.007,0 0.51,0.51 0 0 0 -10e-4,0 0.51,0.51 0 0 0 -0.035,0.015 0.51,0.51 0 0 0 -0.02,0.006 0.51,0.51 0 0 0 -0.01,0.003 0.51,0.51 0 0 0 -0.03,0.016 0.51,0.51 0 0 0 -0.074,0.046 0.51,0.51 0 0 0 -0.018,0.013 0.51,0.51 0 0 0 -0.02,0.019 0.51,0.51 0 0 0 -0.017,0.015 0.51,0.51 0 0 0 -0.016,0.018 0.51,0.51 0 0 0 -0.017,0.02 0.51,0.51 0 0 0 -0.014,0.017 0.51,0.51 0 0 0 -0.013,0.017 0.51,0.51 0 0 0 -0.008,0.014 0.51,0.51 0 0 0 -0.043,0.082 0.51,0.51 0 0 0 -0.008,0.02 0.51,0.51 0 0 0 -0.014,0.035 0.51,0.51 0 0 0 0,0.002 0.51,0.51 0 0 0 0,0.006 0.51,0.51 0 0 0 -0.006,0.027 0.51,0.51 0 0 0 -0.002,0.014 0.51,0.51 0 0 0 -0.01,0.09 0.51,0.51 0 0 0 0.004,0.034 0.51,0.51 0 0 0 0.013,0.094 0.51,0.51 0 0 0 0.003,0.008 0.51,0.51 0 0 0 0.013,0.033 0.51,0.51 0 0 0 0.006,0.022 0.51,0.51 0 0 0 0.003,0.007 0.51,0.51 0 0 0 0.016,0.032 0.51,0.51 0 0 0 0.045,0.073 0.51,0.51 0 0 0 0.013,0.018 0.51,0.51 0 0 0 0.019,0.02 0.51,0.51 0 0 0 0.016,0.017 0.51,0.51 0 0 0 0.018,0.016 0.51,0.51 0 0 0 0.02,0.019 0.51,0.51 0 0 0 0.019,0.013 0.51,0.51 0 0 0 0.014,0.013 0.51,0.51 0 0 0 0.013,0.007 0.51,0.51 0 0 0 0.082,0.044 0.51,0.51 0 0 0 0.023,0.008 0.51,0.51 0 0 0 0.036,0.013 0.51,0.51 0 0 0 0.006,0 0.51,0.51 0 0 0 0.027,0.006 0.51,0.51 0 0 0 0.014,0.003 0.51,0.51 0 0 0 0.088,0.008 0.51,0.51 0 0 0 0.086,-0.008 0.51,0.51 0 0 0 0.045,-0.01 0.51,0.51 0 0 0 0.004,0 0.51,0.51 0 0 1 0.003,0 0.51,0.51 0 0 0 0.047,-0.016 0.51,0.51 0 0 0 0.014,-0.006 0.51,0.51 0 0 0 0.033,-0.016 0.51,0.51 0 0 0 0.042,-0.026 0.51,0.51 0 0 0 0.03,-0.02 0.51,0.51 0 0 0 0.018,-0.013 0.51,0.51 0 0 0 0.032,-0.028 0.51,0.51 0 0 0 0.006,-0.007 0.51,0.51 0 0 0 0.016,-0.017 0.51,0.51 0 0 0 0.024,-0.026 0.51,0.51 0 0 0 0.008,-0.012 0.51,0.51 0 0 0 0.012,-0.016 0.51,0.51 0 0 0 0.033,-0.057 0.51,0.51 0 0 0 0.016,-0.032 0.51,0.51 0 0 0 0.007,-0.013 0.51,0.51 0 0 0 0.004,-0.015 0.51,0.51 0 0 0 0.01,-0.037 0.51,0.51 0 0 0 0.003,-0.005 0.51,0.51 0 0 0 0.013,-0.093 0.51,0.51 0 0 0 0.003,-0.037 0.51,0.51 0 0 0 -0.002,-0.036 0.51,0.51 0 0 0 -0.006,-0.052 0.51,0.51 0 0 0 -0.002,-0.013 0.51,0.51 0 0 0 -0.008,-0.034 0.51,0.51 0 0 1 0,-0.002 0.51,0.51 0 0 0 -0.004,-0.013 0.51,0.51 0 0 0 -0.012,-0.034 0.51,0.51 0 0 0 -0.004,-0.008 0.51,0.51 0 0 0 -0.043,-0.082 0.51,0.51 0 0 0 -0.008,-0.014 0.51,0.51 0 0 0 -0.027,-0.034 0.51,0.51 0 0 0 -0.017,-0.02 0.51,0.51 0 0 0 -0.021,-0.024 0.51,0.51 0 0 0 -0.012,-0.01 0.51,0.51 0 0 0 -0.027,-0.024 0.51,0.51 0 0 0 -0.01,-0.007 0.51,0.51 0 0 0 -0.03,-0.021 A 0.51,0.51 0 0 0 14.779,10.017 0.51,0.51 0 0 0 14.741,9.999 0.51,0.51 0 0 0 14.72,9.991 0.51,0.51 0 0 0 14.684,9.978 0.51,0.51 0 0 0 14.65,9.973 0.51,0.51 0 0 0 14.636,9.971 0.51,0.51 0 0 0 14.583,9.965 0.51,0.51 0 0 0 14.549,9.964 Z m 2.04,0 a 0.51,0.51 0 0 0 -0.13,0.016 0.51,0.51 0 0 0 -0.007,0 0.51,0.51 0 0 0 -0.035,0.015 0.51,0.51 0 0 0 -0.022,0.006 0.51,0.51 0 0 0 -0.111,0.065 0.51,0.51 0 0 0 -0.02,0.013 0.51,0.51 0 0 0 -0.017,0.019 0.51,0.51 0 0 0 -0.02,0.015 0.51,0.51 0 0 0 -0.015,0.018 0.51,0.51 0 0 0 -0.017,0.02 0.51,0.51 0 0 0 -0.013,0.017 0.51,0.51 0 0 0 -0.014,0.017 0.51,0.51 0 0 0 -0.008,0.014 0.51,0.51 0 0 0 -0.043,0.082 0.51,0.51 0 0 0 -0.008,0.022 0.51,0.51 0 0 0 -0.012,0.033 0.51,0.51 0 0 0 0,0.002 0.51,0.51 0 0 0 -0.002,0.006 0.51,0.51 0 0 0 -0.006,0.027 0.51,0.51 0 0 0 -0.002,0.014 0.51,0.51 0 0 0 -0.008,0.09 0.51,0.51 0 0 0 0.016,0.128 0.51,0.51 0 0 0 0.003,0.008 0.51,0.51 0 0 0 0.01,0.034 0.51,0.51 0 0 0 0.008,0.02 0.51,0.51 0 0 0 0.064,0.113 0.51,0.51 0 0 0 0.013,0.018 0.51,0.51 0 0 0 0.019,0.02 0.51,0.51 0 0 0 0.016,0.019 0.51,0.51 0 0 0 0.018,0.014 0.51,0.51 0 0 0 0.02,0.019 0.51,0.51 0 0 0 0.017,0.013 0.51,0.51 0 0 0 0.016,0.013 0.51,0.51 0 0 0 0.014,0.007 0.51,0.51 0 0 0 0.082,0.045 0.51,0.51 0 0 0 0.022,0.008 0.51,0.51 0 0 0 0.036,0.012 0.51,0.51 0 0 0 0.007,0 0.51,0.51 0 0 0 0.026,0.008 0.51,0.51 0 0 0 0.013,0 0.51,0.51 0 0 0 0.09,0.009 0.51,0.51 0 0 0 0.085,-0.008 0.51,0.51 0 0 0 0.045,-0.01 0.51,0.51 0 0 0 0.004,0 0.51,0.51 0 0 1 0.002,0 0.51,0.51 0 0 0 0.034,-0.012 0.51,0.51 0 0 0 0.023,-0.008 0.51,0.51 0 0 0 0.037,-0.018 0.51,0.51 0 0 0 0.043,-0.026 0.51,0.51 0 0 0 0.03,-0.02 0.51,0.51 0 0 0 0.018,-0.013 0.51,0.51 0 0 0 0.02,-0.02 0.51,0.51 0 0 0 0.019,-0.015 0.51,0.51 0 0 0 0.015,-0.017 0.51,0.51 0 0 0 0.018,-0.021 0.51,0.51 0 0 0 0.013,-0.017 0.51,0.51 0 0 0 0.013,-0.016 0.51,0.51 0 0 0 0.033,-0.057 0.51,0.51 0 0 0 0.016,-0.033 0.51,0.51 0 0 0 0.007,-0.014 0.51,0.51 0 0 0 0.012,-0.033 0.51,0.51 0 0 0 0.004,-0.017 0.51,0.51 0 0 0 0.009,-0.048 0.51,0.51 0 0 0 0.005,-0.051 0.51,0.51 0 0 0 0.003,-0.036 0.51,0.51 0 0 0 -0.003,-0.036 0.51,0.51 0 0 0 -0.005,-0.052 0.51,0.51 0 0 0 -0.008,-0.042 0.51,0.51 0 0 0 -0.003,-0.005 0.51,0.51 0 0 1 0,-0.002 0.51,0.51 0 0 0 -0.004,-0.013 0.51,0.51 0 0 0 -0.012,-0.034 0.51,0.51 0 0 0 -0.005,-0.013 0.51,0.51 0 0 0 -0.042,-0.077 0.51,0.51 0 0 0 -0.008,-0.014 0.51,0.51 0 0 0 -0.025,-0.034 0.51,0.51 0 0 0 -0.02,-0.02 0.51,0.51 0 0 0 -0.015,-0.018 0.51,0.51 0 0 0 -0.017,-0.016 0.51,0.51 0 0 0 -0.02,-0.018 0.51,0.51 0 0 0 -0.018,-0.013 0.51,0.51 0 0 0 -0.03,-0.021 0.51,0.51 0 0 0 -0.075,-0.041 0.51,0.51 0 0 0 -0.007,-0.003 0.51,0.51 0 0 0 -0.02,-0.008 0.51,0.51 0 0 0 -0.037,-0.013 0.51,0.51 0 0 0 -0.006,0 0.51,0.51 0 0 0 -0.041,-0.01 0.51,0.51 0 0 0 -0.053,-0.005 0.51,0.51 0 0 0 -0.035,-0.002 z m -5.098,1.02 a 0.509,0.509 0 0 0 -0.508,0.51 c 0,0.28 0.228,0.508 0.508,0.508 h 1.02 a 0.507,0.507 0 0 0 0.51,-0.51 0.509,0.509 0 0 0 -0.51,-0.51 z m 4.078,0 a 0.51,0.51 0 0 0 -0.037,0 0.51,0.51 0 0 0 -0.051,0.007 0.51,0.51 0 0 0 -0.041,0.008 0.51,0.51 0 0 0 -0.006,0 0.51,0.51 0 0 0 -0.035,0.015 0.51,0.51 0 0 0 -0.023,0.008 0.51,0.51 0 0 0 -0.005,0 0.51,0.51 0 0 0 -0.032,0.017 0.51,0.51 0 0 0 -0.044,0.026 0.51,0.51 0 0 0 -0.03,0.02 0.51,0.51 0 0 0 -0.02,0.014 0.51,0.51 0 0 0 -0.02,0.017 0.51,0.51 0 0 0 -0.016,0.017 0.51,0.51 0 0 0 -0.016,0.017 0.51,0.51 0 0 0 -0.018,0.02 0.51,0.51 0 0 0 -0.013,0.019 0.51,0.51 0 0 0 -0.012,0.016 0.51,0.51 0 0 0 -0.008,0.013 0.51,0.51 0 0 0 -0.027,0.044 0.51,0.51 0 0 0 -0.017,0.038 0.51,0.51 0 0 0 -0.008,0.02 0.51,0.51 0 0 0 -0.012,0.036 0.51,0.51 0 0 0 0,0.008 0.51,0.51 0 0 0 -0.008,0.026 0.51,0.51 0 0 0 0,0.015 0.51,0.51 0 0 0 -0.007,0.053 0.51,0.51 0 0 0 0,0.035 0.51,0.51 0 0 0 0,0.036 0.51,0.51 0 0 0 0.006,0.052 0.51,0.51 0 0 0 0.008,0.042 0.51,0.51 0 0 0 0.002,0.007 0.51,0.51 0 0 0 0.01,0.034 0.51,0.51 0 0 0 0.009,0.022 0.51,0.51 0 0 0 0.002,0.006 0.51,0.51 0 0 0 0.016,0.032 0.51,0.51 0 0 0 0.027,0.044 0.51,0.51 0 0 0 0.02,0.029 0.51,0.51 0 0 0 0.013,0.018 0.51,0.51 0 0 0 0.017,0.02 0.51,0.51 0 0 0 0.017,0.017 0.51,0.51 0 0 0 0.018,0.018 0.51,0.51 0 0 0 0.02,0.017 0.51,0.51 0 0 0 0.018,0.013 0.51,0.51 0 0 0 0.015,0.013 0.51,0.51 0 0 0 0.013,0.008 0.51,0.51 0 0 0 0.045,0.027 0.51,0.51 0 0 0 0.038,0.017 0.51,0.51 0 0 0 0.008,0.004 0.51,0.51 0 0 0 0.05,0.016 0.51,0.51 0 0 0 0.006,0 0.51,0.51 0 0 0 0.026,0.008 0.51,0.51 0 0 0 0.015,0 0.51,0.51 0 0 0 0.052,0.008 0.51,0.51 0 0 0 0.035,0 0.51,0.51 0 0 0 0.036,0 0.51,0.51 0 0 0 0.05,-0.005 0.51,0.51 0 0 0 0.017,-0.002 0.51,0.51 0 0 0 0.033,-0.008 0.51,0.51 0 0 0 0.017,-0.004 0.51,0.51 0 0 0 0.033,-0.013 0.51,0.51 0 0 0 0.013,-0.005 0.51,0.51 0 0 0 0.033,-0.016 0.51,0.51 0 0 0 0.043,-0.026 0.51,0.51 0 0 0 0.013,-0.007 0.51,0.51 0 0 0 0.03,-0.021 0.51,0.51 0 0 0 0.01,-0.01 0.51,0.51 0 0 0 0.028,-0.023 0.51,0.51 0 0 0 0.01,-0.014 0.51,0.51 0 0 0 0.024,-0.025 0.51,0.51 0 0 0 0.01,-0.01 0.51,0.51 0 0 0 0.02,-0.028 0.51,0.51 0 0 0 0.008,-0.013 0.51,0.51 0 0 0 0.027,-0.045 0.51,0.51 0 0 0 0.013,-0.032 0.51,0.51 0 0 0 0.008,-0.013 0.51,0.51 0 0 0 0.016,-0.048 0.51,0.51 0 0 0 0,-0.003 0.51,0.51 0 0 0 0.007,-0.034 0.51,0.51 0 0 0 0.004,-0.013 0.51,0.51 0 0 0 0.004,-0.053 0.51,0.51 0 0 0 0.002,-0.035 0.51,0.51 0 0 0 -0.002,-0.037 0.51,0.51 0 0 0 -0.004,-0.052 0.51,0.51 0 0 0 -0.008,-0.04 A 0.51,0.51 0 0 0 16.06,11.354 0.51,0.51 0 0 0 16.048,11.321 0.51,0.51 0 0 0 16.04,11.3 0.51,0.51 0 0 0 16.023,11.26 0.51,0.51 0 0 0 15.996,11.218 0.51,0.51 0 0 0 15.976,11.188 0.51,0.51 0 0 0 15.963,11.17 0.51,0.51 0 0 0 15.945,11.15 0.51,0.51 0 0 0 15.922,11.126 0.51,0.51 0 0 0 15.912,11.116 0.51,0.51 0 0 0 15.89,11.098 0.51,0.51 0 0 0 15.873,11.085 0.51,0.51 0 0 0 15.843,11.064 0.51,0.51 0 0 0 15.8,11.037 0.51,0.51 0 0 0 15.762,11.022 0.51,0.51 0 0 0 15.741,11.012 0.51,0.51 0 0 0 15.704,11 a 0.51,0.51 0 0 0 -0.006,0 0.51,0.51 0 0 0 -0.04,-0.01 0.51,0.51 0 0 0 -0.054,-0.006 0.51,0.51 0 0 0 -0.035,0 z"
  	 class="ColorScheme-Text" />
</svg>
