<svg xmlns="http://www.w3.org/2000/svg" viewBox="0 0 24 24" id="svg6">
  <defs id="defs3051">
    <style id="current-color-scheme">
      .ColorScheme-Text {
        color:#f9f9f9;
      }
      .ColorScheme-Highlight {
        color:#E0DFD8;
	  </style>
	</defs>
  <path style="fill:currentColor;fill-opacity:1;stroke:none" 
     d="M 12,3.602 2.832,12.77 h 1.54 L 12,5.143 19.629,12.77 h 1.539 z M 6.55,12.77 5.463,13.86 v 6.538 h 3.812 c 0.908,0 1.59,-0.592 1.862,-0.865 0.272,-0.272 0.136,-0.224 0.318,-0.224 h 1.09 c 0.18,0 0.047,-0.048 0.32,0.224 0.272,0.273 0.95,0.865 1.86,0.865 h 3.812 V 13.86 l -1.088,-1.09 v 6.54 h -2.724 c -1.09,0 -1.09,-1.09 -2.18,-1.09 h -1.09 c -1.09,0 -1.09,1.09 -2.18,1.09 H 6.553 L 6.551,12.77 Z"
  	 class="ColorScheme-Text" />
</svg>
