<svg xmlns="http://www.w3.org/2000/svg" viewBox="0 0 24 24" id="svg6">
  <defs id="defs3051">
    <style id="current-color-scheme">
      .ColorScheme-Text {
        color:#f9f9f9;
      }
      .ColorScheme-Highlight {
        color:#E0DFD8;
	  </style>
	</defs>
  <path style="fill:#ff0400;fill-opacity:1;stroke:none"
     d="m 5.47,3.838 c 0,0 -1.635,-0.036 -1.635,1.598 l 0.077,5.277 c 1.748,-0.994 3.62,-0.592 5.472,-0.42 l 2.408,-2.75 7.283,0.384 1.05,0.835 0.039,-1.115 C 20.219,6.014 18.529,6.014 18.529,6.014 H 12.543 L 10.368,3.838 Z"
  	 class="ColorScheme-Highlight" />
  <path style="fill:currentColor;fill-opacity:1;stroke:none" 
     d="M 11.456,7.102 9.278,9.28 H 5.47 c 0,0 -1.633,0 -1.633,1.631 v 9.251 H 13.895 V 19.169 H 4.89 L 4.887,11.624 c 0,-1.331 1.42,-1.331 1.42,-1.331 h 3.308 l 0.57,-0.535 1.888,-1.775 h 5.622 c 0,0 1.375,-0.028 1.375,1.303 v 4.644 h 1.09 L 20.164,8.7 c 0,-1.632 -1.636,-1.598 -1.636,-1.598 z m 4.926,6.793 v 2.488 h -2.488 v 1.244 h 2.488 v 2.488 h 1.244 v -2.489 h 2.487 v -1.243 h -2.487 v -2.488 z"
  	 class="ColorScheme-Text" />
</svg>
