<svg xmlns="http://www.w3.org/2000/svg" viewBox="0 0 24 24" id="svg6">
  <defs id="defs3051">
    <style id="current-color-scheme">
      .ColorScheme-Text {
        color:#f9f9f9;
      }
      .ColorScheme-Highlight {
        color:#E0DFD8;
	  </style>
	</defs>
  <path style="fill:currentColor;fill-opacity:1;stroke:none"
     d="M 10.707,4.25 V 7.034 A 5.122,5.122 0 0 0 9.417,7.56 L 7.438,5.622 5.622,7.44 7.56,9.418 a 5.122,5.122 0 0 0 -0.526,1.29 H 4.25 v 2.585 h 2.784 c 0.12,0.459 0.293,0.89 0.526,1.29 l -1.938,1.98 1.816,1.816 1.979,-1.939 a 5.122,5.122 0 0 0 1.29,0.526 v 2.784 h 2.586 v -2.784 a 5.122,5.122 0 0 0 1.29,-0.526 l 1.979,1.938 1.816,-1.816 -1.938,-1.979 a 5.122,5.122 0 0 0 0.526,-1.29 H 19.75 V 10.706 H 16.966 A 5.122,5.122 0 0 0 16.44,9.416 L 18.378,7.438 16.562,5.621 14.583,7.559 A 5.122,5.122 0 0 0 13.293,7.034 V 4.25 Z m 1.292,4.372 a 3.378,3.378 0 1 1 0,6.755 3.378,3.378 0 0 1 0,-6.755 z"
  	 class="ColorScheme-Text" />
</svg>
