<svg xmlns="http://www.w3.org/2000/svg" viewBox="0 0 24 24" id="svg6">
  <defs id="defs3051">
    <style id="current-color-scheme">
      .ColorScheme-Text {
        color:#f9f9f9;
      }
      .ColorScheme-Highlight {
        color:#E0DFD8;
	  </style>
	</defs>
  <path style="fill:currentColor;fill-opacity:1;stroke:none" 
     d="M 9.19,3.785 C 7.803,3.887 6.63,4.771 5.696,5.705 4.949,6.452 4.26,7.355 3.936,8.393 3.613,9.43 3.809,10.756 4.828,11.569 c 0.312,0.249 0.67,0.317 1.014,0.44 -0.344,0.126 -0.702,0.194 -1.015,0.444 a 3.235,3.235 0 0 0 -0.35,0.327 c -0.8,0.872 -0.824,2.086 -0.476,3.04 0.349,0.956 0.996,1.796 1.695,2.497 0.747,0.746 1.652,1.436 2.69,1.76 1.037,0.324 2.362,0.128 3.175,-0.892 0.249,-0.312 0.317,-0.67 0.441,-1.014 0.126,0.345 0.193,0.702 0.443,1.015 0.812,1.018 2.138,1.215 3.176,0.89 1.036,-0.323 1.941,-1.013 2.688,-1.76 0.746,-0.746 1.436,-1.651 1.76,-2.69 0.324,-1.036 0.127,-2.361 -0.89,-3.174 -0.312,-0.25 -0.67,-0.317 -1.016,-0.442 0.344,-0.125 0.704,-0.192 1.015,-0.442 C 20.196,10.756 20.393,9.43 20.07,8.393 19.745,7.356 19.055,6.451 18.309,5.703 17.609,5.003 16.768,4.356 15.812,4.009 14.858,3.661 13.642,3.684 12.772,4.484 A 3.107,3.107 0 0 0 12.445,4.836 C 12.195,5.146 12.128,5.505 12.002,5.85 11.878,5.506 11.81,5.146 11.562,4.836 A 2.806,2.806 0 0 0 9.19,3.786 Z m 0.068,0.913 c 0.59,-0.043 1.145,0.152 1.588,0.707 1.179,1.48 0.24,4.2 1.156,6.605 0.916,-2.405 -0.02,-5.126 1.158,-6.605 0.074,-0.092 0.15,-0.173 0.23,-0.247 1.193,-1.096 3.005,-0.072 4.271,1.194 1.35,1.35 2.425,3.322 0.946,4.5 -1.48,1.18 -4.2,0.243 -6.605,1.158 2.406,0.918 5.127,-0.022 6.605,1.158 1.48,1.179 0.405,3.15 -0.946,4.5 -1.35,1.35 -3.322,2.426 -4.5,0.947 -1.18,-1.48 -0.243,-4.2 -1.159,-6.605 -0.915,2.406 0.023,5.125 -1.156,6.605 -1.18,1.48 -3.15,0.405 -4.502,-0.946 -1.266,-1.266 -2.29,-3.076 -1.192,-4.27 0.072,-0.08 0.154,-0.158 0.247,-0.23 1.479,-1.181 4.198,-0.241 6.603,-1.16 C 9.597,11.095 6.878,12.033 5.397,10.853 3.919,9.673 4.993,7.703 6.345,6.352 7.188,5.507 8.275,4.772 9.258,4.7 Z"
  	 class="ColorScheme-Text" />
</svg>
