<svg xmlns="http://www.w3.org/2000/svg" viewBox="0 0 24 24" id="svg6">
  <defs id="defs3051">
    <style id="current-color-scheme">
      .ColorScheme-Text {
        color:#f9f9f9;
      }
      .ColorScheme-Highlight {
        color:#E0DFD8;
	  </style>
	</defs>
  <path style="fill:currentColor;fill-opacity:1;stroke:none" 
     d="m 10.99,4.538 v 0.76 h 2.179 v -0.76 z m 4.235,0 v 0.807 c 0.277,0.022 0.984,0.125 0.984,1.078 V 6.481 H 17.15 V 5.917 C 17.15,4.51 15.743,4.538 15.743,4.538 Z M 8.931,5.252 7.77,6.417 H 6.757 V 7.291 H 8.059 L 8.551,6.83 8.931,6.473 Z M 4.483,6.417 c 0,0 -1.407,0 -1.407,1.408 V 8.202 H 4.129 C 4.083,7.712 4.217,7.445 4.776,7.39 V 6.417 Z M 13.415,8.202 11.54,10.08 H 8.257 c 0,0 -1.407,0 -1.407,1.408 v 3.454 H 6.757 v 0.857 H 6.85 v 3.663 h 12.664 c 0,0 1.407,0 1.407,-1.408 l 0.003,-8.473 c 0,-1.407 -1.41,-1.379 -1.41,-1.379 h -5.315 z m 0.534,0.76 h 4.846 c 0,0 1.186,-0.025 1.186,1.122 v 7.372 c 0,1.147 -1.222,1.149 -1.222,1.149 h -11 L 7.757,12.102 c 0,-1.147 1.225,-1.147 1.225,-1.147 h 2.85 l 0.492,-0.461 z M 3.076,10.043 v 1.938 h 0.909 v -1.939 z m 0,3.72 V 15.8 h 1.7 V 14.942 H 3.983 v -1.178 z"
  	 class="ColorScheme-Text" />
</svg>
