<svg xmlns="http://www.w3.org/2000/svg" viewBox="0 0 24 24" id="svg6">
  <defs id="defs3051">
    <style id="current-color-scheme">
      .ColorScheme-Text {
        color:#f9f9f9;
      }
      .ColorScheme-Highlight {
        color:#E0DFD8;
	  </style>
	</defs>
  <path style="fill:currentColor;fill-opacity:1;stroke:none" 
     d="m 12.02,3.741 c -0.244,0 -0.326,0.111 -0.378,0.162 a 0.693,0.693 0 0 0 -0.1,0.125 1.836,1.836 0 0 0 -0.127,0.23 c -0.082,0.17 -0.17,0.386 -0.274,0.645 A 72.3,72.3 0 0 0 10.435,6.785 C 10.188,7.47 9.943,8.158 9.749,8.679 9.652,8.939 9.566,9.159 9.505,9.309 9.503,9.315 9.499,9.317 9.495,9.324 L 9.478,9.326 C 9.318,9.339 9.082,9.352 8.803,9.366 8.25,9.391 7.521,9.413 6.793,9.438 a 69.48,69.48 0 0 0 -2.009,0.09 10.326,10.326 0 0 0 -0.7,0.065 1.9,1.9 0 0 0 -0.256,0.048 0.72,0.72 0 0 0 -0.15,0.056 c -0.066,0.034 -0.193,0.078 -0.268,0.31 -0.075,0.231 0.002,0.345 0.034,0.41 0.033,0.065 0.063,0.1 0.09,0.135 0.056,0.07 0.11,0.124 0.177,0.188 0.136,0.13 0.314,0.286 0.53,0.463 a 71.582,71.582 0 0 0 1.574,1.252 c 0.573,0.447 1.153,0.894 1.588,1.24 0.216,0.171 0.4,0.32 0.522,0.426 l 0.013,0.012 -0.004,0.018 c -0.038,0.158 -0.098,0.385 -0.172,0.651 -0.147,0.537 -0.352,1.238 -0.55,1.94 a 71.573,71.573 0 0 0 -0.536,1.938 9.755,9.755 0 0 0 -0.156,0.683 1.888,1.888 0 0 0 -0.034,0.26 0.694,0.694 0 0 0 0.01,0.16 c 0.011,0.072 0.016,0.287 0.213,0.352 0.196,0.142 0.325,0.104 0.397,0.091 0.073,-0.01 0.113,-0.027 0.156,-0.043 0.082,-0.03 0.154,-0.065 0.237,-0.109 0.165,-0.09 0.364,-0.212 0.601,-0.362 a 71.344,71.344 0 0 0 1.676,-1.11 c 0.603,-0.41 1.207,-0.818 1.67,-1.126 0.24,-0.145 0.403,-0.265 0.538,-0.348 h 0.003 c 0.14,0.084 0.336,0.214 0.568,0.368 0.462,0.306 1.065,0.716 1.67,1.124 a 71.612,71.612 0 0 0 1.675,1.112 c 0.237,0.148 0.436,0.27 0.601,0.36 0.083,0.045 0.156,0.08 0.237,0.11 0.042,0.015 0.085,0.032 0.156,0.044 0.072,0.01 0.2,0.05 0.397,-0.094 0.196,-0.142 0.202,-0.278 0.214,-0.35 a 0.693,0.693 0 0 0 0.01,-0.16 1.911,1.911 0 0 0 -0.035,-0.26 10.395,10.395 0 0 0 -0.156,-0.684 71.776,71.776 0 0 0 -0.534,-1.939 c -0.2,-0.7 -0.405,-1.402 -0.553,-1.937 a 19.953,19.953 0 0 1 -0.17,-0.65 l -0.006,-0.02 0.013,-0.014 c 0.124,-0.104 0.306,-0.254 0.523,-0.426 0.435,-0.345 1.013,-0.79 1.59,-1.24 a 71.583,71.583 0 0 0 1.573,-1.25 c 0.215,-0.178 0.393,-0.332 0.53,-0.463 0.065,-0.065 0.12,-0.12 0.176,-0.188 0.026,-0.034 0.056,-0.07 0.09,-0.135 0.032,-0.065 0.11,-0.178 0.033,-0.41 C 20.515,9.796 20.386,9.75 20.323,9.716 20.257,9.683 20.213,9.672 20.17,9.659 A 1.9,1.9 0 0 0 19.915,9.609 10.29,10.29 0 0 0 19.215,9.546 71.025,71.025 0 0 0 17.207,9.457 C 16.479,9.431 15.75,9.409 15.197,9.384 A 22.07,24.07 0 0 1 14.522,9.345 H 14.505 C 14.501,9.336 14.497,9.335 14.495,9.326 A 19.81,19.81 0 0 1 14.251,8.698 C 14.056,8.178 13.811,7.49 13.564,6.805 A 70.968,70.968 0 0 0 12.861,4.921 10.29,10.29 0 0 0 12.585,4.276 1.924,1.924 0 0 0 12.458,4.046 0.693,0.693 0 0 0 12.358,3.922 C 12.309,3.874 12.229,3.778 12.021,3.766 V 3.743 h -0.002 z m -0.024,1.723 c 0.188,0.478 0.406,1.062 0.63,1.682 0.248,0.681 0.492,1.371 0.69,1.901 0.1,0.266 0.185,0.492 0.257,0.664 0.035,0.087 0.07,0.16 0.101,0.225 0.017,0.033 0.032,0.064 0.055,0.1 0.022,0.037 0.03,0.076 0.152,0.165 0.124,0.09 0.163,0.084 0.205,0.095 0.042,0.01 0.075,0.013 0.11,0.018 0.073,0.012 0.152,0.02 0.245,0.027 0.185,0.016 0.426,0.032 0.71,0.045 0.566,0.026 1.297,0.044 2.02,0.07 0.676,0.022 1.325,0.051 1.846,0.083 -0.404,0.331 -0.912,0.732 -1.447,1.147 -0.57,0.446 -1.15,0.892 -1.594,1.245 -0.24,0.176 -0.408,0.33 -0.55,0.45 a 3.574,3.574 0 0 0 -0.18,0.167 c -0.027,0.026 -0.052,0.048 -0.079,0.081 -0.028,0.034 -0.066,0.052 -0.112,0.195 -0.047,0.146 -0.026,0.183 -0.024,0.226 a 1.3,1.3 0 0 0 0.013,0.11 c 0.01,0.072 0.03,0.15 0.05,0.24 0.044,0.182 0.105,0.42 0.182,0.691 0.15,0.547 0.354,1.248 0.555,1.944 0.184,0.65 0.36,1.273 0.49,1.777 a 73.81,73.81 0 0 1 -1.537,-1.015 c -0.602,-0.409 -1.203,-0.82 -1.676,-1.133 a 19.449,19.449 0 0 0 -0.6,-0.384 4.225,4.225 0 0 0 -0.212,-0.124 1.247,1.247 0 0 0 -0.102,-0.05 C 12.16,16.094 12.118,16.074 12.021,16.068 v -0.022 c -0.143,0 -0.176,0.026 -0.215,0.043 -0.04,0.015 -0.07,0.032 -0.103,0.05 -0.065,0.032 -0.13,0.073 -0.21,0.121 -0.16,0.097 -0.365,0.228 -0.6,0.384 -0.474,0.313 -1.075,0.726 -1.675,1.133 -0.56,0.378 -1.098,0.736 -1.537,1.016 a 66.52,66.52 0 0 1 0.488,-1.777 c 0.2,-0.698 0.404,-1.396 0.555,-1.943 a 24.1,24.1 0 0 0 0.182,-0.69 c 0.021,-0.09 0.04,-0.17 0.05,-0.242 a 1.068,1.068 0 0 0 0.013,-0.11 C 8.973,13.988 8.992,13.951 8.945,13.806 8.897,13.662 8.861,13.643 8.833,13.611 8.806,13.578 8.781,13.555 8.755,13.531 A 3.574,3.574 0 0 0 8.573,13.363 C 8.433,13.241 8.245,13.089 8.023,12.913 7.58,12.56 7,12.113 6.43,11.667 A 75.151,75.151 0 0 1 4.983,10.52 73.74,73.74 0 0 1 6.828,10.435 c 0.724,-0.026 1.455,-0.045 2.021,-0.069 0.283,-0.013 0.523,-0.028 0.71,-0.044 0.093,-0.008 0.172,-0.017 0.243,-0.027 0.037,-0.005 0.07,-0.008 0.112,-0.02 0.042,-0.01 0.08,-0.004 0.205,-0.094 0.123,-0.09 0.13,-0.128 0.152,-0.165 a 3.685,3.685 0 0 0 0.156,-0.325 c 0.072,-0.172 0.156,-0.398 0.257,-0.663 0.198,-0.53 0.442,-1.24 0.69,-1.902 a 78.88,78.88 0 0 1 0.622,-1.664 z"
  	 class="ColorScheme-Text" />
</svg>
