<svg xmlns="http://www.w3.org/2000/svg" viewBox="0 0 24 24" id="svg6">
  <defs id="defs3051">
    <style id="current-color-scheme">
      .ColorScheme-Text {
        color:#f9f9f9;
      }
      .ColorScheme-Highlight {
        color:#E0DFD8;
	  </style>
	</defs>
  <path style="fill:currentColor;fill-opacity:1;stroke:none"
     d="M 9.643,4.54 7.766,6.417 H 4.484 c 0,0 -1.407,0 -1.407,1.406 v 7.974 h 3.771 v 3.663 h 12.666 c 0,0 1.406,0 1.406,-1.407 l 0.003,-8.472 c 0,-1.408 -1.409,-1.38 -1.409,-1.38 H 17.152 V 5.92 c 0,-1.407 -1.41,-1.38 -1.41,-1.38 z m 0.533,0.76 h 4.846 c 0,0 1.186,-0.025 1.186,1.122 v 1.782 h -2.794 l -1.875,1.874 H 8.254 c 0,0 -1.407,0 -1.407,1.408 v 3.455 H 3.986 L 3.982,8.438 C 3.982,7.29 5.206,7.29 5.206,7.29 H 8.057 L 8.55,6.829 Z m 3.773,3.662 h 4.846 c 0,0 1.185,-0.026 1.185,1.123 v 7.37 c 0,1.148 -1.221,1.148 -1.221,1.148 H 7.756 L 7.754,12.099 c 0,-1.147 1.224,-1.147 1.224,-1.147 h 2.85 l 0.493,-0.461 z"
  	 class="ColorScheme-Text" />
</svg>
