<svg xmlns="http://www.w3.org/2000/svg" viewBox="0 0 24 24" id="svg6">
  <defs id="defs3051">
    <style id="current-color-scheme">
      .ColorScheme-Text {
        color:#f9f9f9;
      }
      .ColorScheme-Highlight {
        color:#E0DFD8;
	  </style>
	</defs>
  <path style="fill:currentColor;fill-opacity:1;stroke:none" 
     d="m 12,4.013 a 8.184,8.184 0 0 0 -8.184,8.184 8.205,8.205 0 0 0 5.598,7.775 c 0.41,0.067 0.54,-0.19 0.54,-0.41 V 18.18 c -2.267,0.49 -2.75,-1.1 -2.75,-1.1 -0.377,-0.948 -0.91,-1.201 -0.91,-1.201 -0.743,-0.506 0.059,-0.49 0.059,-0.49 0.818,0.056 1.252,0.843 1.252,0.843 0.712,1.244 1.915,0.876 2.382,0.678 0.073,-0.532 0.286,-0.892 0.516,-1.097 C 8.685,15.61 6.779,14.905 6.779,11.786 6.779,10.878 7.089,10.15 7.621,9.569 7.539,9.364 7.253,8.513 7.703,7.409 c 0,0 0.688,-0.222 2.251,0.833 A 7.746,7.746 0 0 1 12,7.976 a 7.729,7.729 0 0 1 2.046,0.27 c 1.562,-1.056 2.25,-0.834 2.25,-0.834 0.45,1.104 0.164,1.955 0.082,2.16 0.533,0.582 0.843,1.31 0.843,2.216 0,3.128 -1.915,3.815 -3.74,4.02 0.295,0.254 0.565,0.754 0.565,1.514 v 2.243 c 0,0.24 0.13,0.483 0.548,0.409 A 8.208,8.208 0 0 0 20.184,12.199 8.185,8.185 0 0 0 12,4.013 Z m 0,0"
  	 class="ColorScheme-Text" />
</svg>
