<svg xmlns="http://www.w3.org/2000/svg" viewBox="0 0 24 24" id="svg6">
  <defs id="defs3051">
    <style id="current-color-scheme">
      .ColorScheme-Text {
        color:#f9f9f9;
      }
      .ColorScheme-Highlight {
        color:#E0DFD8;
	  </style>
	</defs>
  <path style="fill:currentColor;fill-opacity:1;stroke:none"
     d="m 12,3.576 a 6.344,6.344 0 1 0 0,12.687 6.344,6.344 0 0 0 0,-12.687 z m 0,0.706 a 5.639,5.639 0 0 1 0,11.277 5.639,5.639 0 0 1 0,-11.277 z m -0.538,0.713 a 5.035,5.035 0 0 0 -0.497,0.08 c -0.327,0.067 -0.64,0.16 -0.94,0.287 A 5.068,5.068 0 0 0 7.097,8.785 l 0.026,0.026 c 0.27,0.29 1.016,0.7 1.542,0.89 0.287,0.104 0.824,0.262 1.203,0.34 0.38,0.078 0.638,0.152 0.602,0.156 -0.038,0.003 -0.197,0.11 -0.367,0.261 -0.322,0.29 -0.488,0.561 -0.627,1.02 -0.076,0.25 -0.074,0.31 0.026,0.445 0.06,0.081 0.334,0.278 0.6,0.443 a 4.9,4.9 0 0 1 0.681,0.522 c 0.413,0.403 0.678,1.107 0.678,1.806 0,0.178 0.014,0.297 0.026,0.338 0.036,0.004 0.071,-0.003 0.105,0 0.078,-0.029 0.184,-0.065 0.367,-0.157 1.533,-0.766 2.265,-1.794 2.196,-3.108 C 14.099,10.717 13.587,10.359 11.593,9.935 10.125,9.623 9.345,9.11 9.345,8.445 9.345,8.27 9.388,8.167 9.581,7.975 9.786,7.769 9.839,7.76 9.999,7.792 c 0.1,0.02 0.346,0.155 0.548,0.315 0.454,0.358 0.68,0.496 0.914,0.496 0.101,0 0.184,-0.012 0.184,-0.027 0,-0.013 -0.075,-0.14 -0.158,-0.262 -0.45,-0.667 -0.408,-1.94 0.079,-3.004 0.077,-0.167 0.113,-0.283 0.105,-0.315 -0.068,0.004 -0.142,-0.006 -0.289,0 z m 4.704,2.38 c -0.092,-0.057 -0.82,0.73 -0.991,1.072 -0.339,0.68 -0.209,1.108 0.599,1.96 0.28,0.294 0.602,0.702 0.707,0.888 0.105,0.186 0.288,0.315 0.236,0.288 0.023,-0.027 0.072,-0.24 0.131,-0.47 0.15,-0.604 0.163,-1.642 0,-2.248 -0.129,-0.47 -0.564,-1.418 -0.682,-1.49 z m -5.513,9.637 c -0.246,0 -0.447,0.256 -0.447,0.57 0,0.315 0.2,0.568 0.447,0.568 H 4.375 c -0.248,0 -0.449,0.254 -0.449,0.57 0,0.316 0.2,0.57 0.449,0.57 h 6.728 v 1.134 h 1.794 V 19.29 h 6.728 c 0.248,0 0.449,-0.255 0.449,-0.568 0,-0.316 -0.2,-0.57 -0.449,-0.57 h -6.278 c 0.246,0 0.447,-0.254 0.447,-0.568 0,-0.315 -0.2,-0.57 -0.447,-0.57 z"
  	 class="ColorScheme-Text" />
</svg>
