<svg xmlns="http://www.w3.org/2000/svg" viewBox="0 0 24 24" id="svg6">
  <defs id="defs3051">
    <style id="current-color-scheme">
      .ColorScheme-Text {
        color:#f9f9f9;
      }
      .ColorScheme-Highlight {
        color:#E0DFD8;
	  </style>
	</defs>
  <path style="fill:#ff0400;fill-opacity:1;stroke:none"
     d="m 5.707,4.133 c 0,0 -1.577,-0.032 -1.577,1.542 l 0.075,5.084 c 0.3,-0.17 0.618,-0.127 0.925,-0.221 L 5.071,6.496 C 5.071,5.829 5.406,5.504 5.741,5.344 6.075,5.184 6.409,5.19 6.409,5.19 h 3.567 l 2.466,2.467 5.829,0.389 0.547,0.028 1.014,0.806 0.035,-1.076 C 19.921,6.233 18.293,6.232 18.293,6.232 H 12.524 L 10.426,4.133 Z"
  	 class="ColorScheme-Highlight" />
  <path style="fill:currentColor;fill-opacity:1;stroke:none" 
     d="M 11.476,7.281 9.378,9.377 H 5.707 c 0,0 -1.574,0 -1.574,1.574 v 8.916 h 14.16 c 0,0 1.574,0 1.574,-1.574 L 19.87,8.819 c 0,-1.572 -1.577,-1.54 -1.577,-1.54 z m 0.596,0.849 h 5.418 c 0,0 1.326,-0.027 1.326,1.255 v 8.243 c 0,1.281 -1.365,1.283 -1.365,1.283 H 5.15 L 5.147,11.637 c 0,-1.283 1.368,-1.283 1.368,-1.283 h 3.19 l 0.549,-0.515 z"
  	 class="ColorScheme-Text" />
</svg>
