<svg xmlns="http://www.w3.org/2000/svg" viewBox="0 0 24 24" id="svg6">
  <defs id="defs3051">
    <style id="current-color-scheme">
      .ColorScheme-Text {
        color:#f9f9f9;
      }
      .ColorScheme-Highlight {
        color:#E0DFD8;
	  </style>
	</defs>
  <path style="fill:currentColor;fill-opacity:1;stroke:none" 
     d="M 4.286,4.286 C 3.573,4.286 3,4.859 3,5.57 v 12.86 c 0,0.712 0.573,1.285 1.286,1.285 H 19.714 C 20.427,19.715 21,19.142 21,18.43 V 5.57 C 21,4.858 20.427,4.285 19.714,4.285 Z m 0.838,1.285 h 13.752 c 0.464,0 0.838,0.375 0.838,0.84 V 17.59 a 0.838,0.838 0 0 1 -0.838,0.839 H 5.124 A 0.838,0.838 0 0 1 4.286,17.589 V 6.41 C 4.286,5.946 4.66,5.571 5.124,5.571 Z M 5.571,6.857 V 8.143 H 18.43 V 6.857 Z m 3.858,9 v 1.286 h 5.142 v -1.286 z"
  	 class="ColorScheme-Text" />
</svg>
