<?xml version="1.0" encoding="UTF-8" standalone="no"?>
<svg
   xmlns:dc="http://purl.org/dc/elements/1.1/"
   xmlns:cc="http://creativecommons.org/ns#"
   xmlns:rdf="http://www.w3.org/1999/02/22-rdf-syntax-ns#"
   xmlns:svg="http://www.w3.org/2000/svg"
   xmlns="http://www.w3.org/2000/svg"
   xmlns:sodipodi="http://sodipodi.sourceforge.net/DTD/sodipodi-0.dtd"
   xmlns:inkscape="http://www.inkscape.org/namespaces/inkscape"
   width="24"
   height="24"
   version="1.1"
   id="svg4"
   sodipodi:docname="network-wireless-acquiring.svg"
   inkscape:version="0.92.4 (5da689c313, 2019-01-14)">
  <metadata
     id="metadata10">
    <rdf:RDF>
      <cc:Work
         rdf:about="">
        <dc:format>image/svg+xml</dc:format>
        <dc:type
           rdf:resource="http://purl.org/dc/dcmitype/StillImage" />
        <dc:title></dc:title>
      </cc:Work>
    </rdf:RDF>
  </metadata>
  <defs
     id="defs8" />
  <sodipodi:namedview
     pagecolor="#ffffff"
     bordercolor="#666666"
     borderopacity="1"
     objecttolerance="10"
     gridtolerance="10"
     guidetolerance="10"
     inkscape:pageopacity="0"
     inkscape:pageshadow="2"
     inkscape:window-width="1158"
     inkscape:window-height="480"
     id="namedview6"
     showgrid="false"
     inkscape:zoom="9.8333333"
     inkscape:cx="1.0677966"
     inkscape:cy="12"
     inkscape:window-x="0"
     inkscape:window-y="25"
     inkscape:window-maximized="0"
     inkscape:current-layer="svg4" />
  <path
     d="M 12,3.273 A 16.313,16.313 0 0 0 0.418,8.055 L 1.191,8.828 A 15.224,15.224 0 0 1 12,4.363 c 4.23,0 8.048,1.705 10.809,4.465 L 23.582,8.055 A 16.313,16.313 0 0 0 12,3.273 Z M 8.79,11.008 A 1.003,0.981 0 0 0 7.787,11.99 1.003,0.981 0 0 0 8.789,12.97 1.003,0.981 0 0 0 9.791,11.99 1.003,0.981 0 0 0 8.789,11.008 Z m 6.4,0 a 1.003,0.981 0 0 0 -1.002,0.982 1.003,0.981 0 0 0 1.001,0.98 1.003,0.981 0 0 0 1.004,-0.98 1.003,0.981 0 0 0 -1.004,-0.982 z M 5.6,11.029 A 1.003,0.981 0 0 0 4.596,12.009 1.003,0.981 0 0 0 5.6,12.992 1.003,0.981 0 0 0 6.602,12.01 1.003,0.981 0 0 0 5.6,11.03 Z m 6.4,0 A 1.003,0.981 0 0 0 10.998,12.009 1.003,0.981 0 0 0 12,12.992 1.003,0.981 0 0 0 13.002,12.01 1.003,0.981 0 0 0 12,11.03 Z m 6.4,0 A 1.003,0.981 0 0 0 17.398,12.009 1.003,0.981 0 0 0 18.4,12.992 1.003,0.981 0 0 0 19.404,12.01 1.003,0.981 0 0 0 18.4,11.03 Z M 12,16.363 a 2.177,2.177 0 0 0 -2.182,2.182 c 0,1.209 0.973,2.182 2.182,2.182 A 2.177,2.177 0 0 0 14.182,18.545 2.177,2.177 0 0 0 12,16.363 Z m 0,1.092 a 1.091,1.091 0 1 1 0,2.182 1.091,1.091 0 1 1 0,-2.182 z"
     id="path2"
     inkscape:connector-curvature="0"
     style="fill:#f9f9f9;fill-opacity:0.94100001" />
</svg>
