<?xml version="1.0" encoding="UTF-8" standalone="no"?>
<svg
   xmlns:dc="http://purl.org/dc/elements/1.1/"
   xmlns:cc="http://creativecommons.org/ns#"
   xmlns:rdf="http://www.w3.org/1999/02/22-rdf-syntax-ns#"
   xmlns:svg="http://www.w3.org/2000/svg"
   xmlns="http://www.w3.org/2000/svg"
   xmlns:sodipodi="http://sodipodi.sourceforge.net/DTD/sodipodi-0.dtd"
   xmlns:inkscape="http://www.inkscape.org/namespaces/inkscape"
   width="24"
   height="24"
   version="1.1"
   id="svg16"
   sodipodi:docname="network-wireless-no-route.svg"
   inkscape:version="0.92.4 (5da689c313, 2019-01-14)">
  <metadata
     id="metadata22">
    <rdf:RDF>
      <cc:Work
         rdf:about="">
        <dc:format>image/svg+xml</dc:format>
        <dc:type
           rdf:resource="http://purl.org/dc/dcmitype/StillImage" />
        <dc:title></dc:title>
      </cc:Work>
    </rdf:RDF>
  </metadata>
  <defs
     id="defs20" />
  <sodipodi:namedview
     pagecolor="#ffffff"
     bordercolor="#666666"
     borderopacity="1"
     objecttolerance="10"
     gridtolerance="10"
     guidetolerance="10"
     inkscape:pageopacity="0"
     inkscape:pageshadow="2"
     inkscape:window-width="1158"
     inkscape:window-height="480"
     id="namedview18"
     showgrid="false"
     inkscape:zoom="9.8333333"
     inkscape:cx="1.0677966"
     inkscape:cy="12"
     inkscape:window-x="0"
     inkscape:window-y="25"
     inkscape:window-maximized="0"
     inkscape:current-layer="svg16" />
  <path
     d="M 0,0 H 24 V 24 H 0 Z"
     id="path2"
     inkscape:connector-curvature="0"
     style="opacity:0.55;fill:none" />
  <path
     d="M 12,3.273 A 16.313,16.313 0 0 0 0.418,8.055 L 1.191,8.828 A 15.224,15.224 0 0 1 12,4.363 c 4.23,0 8.048,1.705 10.809,4.465 L 23.582,8.055 A 16.313,16.313 0 0 0 12,3.273 Z"
     id="path4"
     inkscape:connector-curvature="0"
     style="color:#31363b;fill:#f9f9f9;fill-opacity:0.30199998" />
  <path
     d="m 12,7.637 a 11.96,11.96 0 0 0 -8.492,3.506 l 0.771,0.771 A 10.874,10.874 0 0 1 12,8.727 c 3.022,0 5.749,1.215 7.72,3.187 l 0.772,-0.771 A 11.96,11.96 0 0 0 12,7.637 Z M 12,12 c -2.115,0 -4.026,0.85 -5.406,2.23 l 0.773,0.774 A 6.525,6.525 0 0 1 12,13.092 c 1.813,0 3.45,0.729 4.633,1.912 L 17.406,14.23 A 7.615,7.615 0 0 0 12,12 Z"
     id="path6"
     inkscape:connector-curvature="0"
     style="color:#31363b;fill:#f9f9f9;fill-opacity:0.30199998" />
  <path
     d="m 20.47,14.197 a 2.182,2.182 0 0 0 -1.927,2.069 2.182,2.182 0 0 0 0,0.097 h 1.092 a 1.09,1.09 0 0 1 0.963,-1.084 h 0.125 v -1.082 z"
     id="path8"
     inkscape:connector-curvature="0"
     style="color:#31363b;fill:#f9f9f9" />
  <path
     d="m 20.725,14.2 v 1.09 a 1.09,1.09 0 0 1 1.086,0.962 v 0.127 h 0.005 a 1.09,1.09 0 0 1 -0.962,1.084 h -0.127 v -0.008 a 2.182,2.182 0 0 0 -0.217,0.002 2.182,2.182 0 0 0 -0.873,0.238 v -0.226 h -0.002 v 2.181 h 1.09 v -1.105 h 0.254 a 2.182,2.182 0 0 0 1.927,-2.068 2.182,2.182 0 0 0 0,-0.098 h -0.013 v -0.252 a 2.182,2.182 0 0 0 -2.07,-1.928 2.182,2.182 0 0 0 -0.098,0 z"
     id="path10"
     inkscape:connector-curvature="0"
     style="color:#31363b;fill:#f9f9f9" />
  <path
     d="m 12,16.363 a 2.177,2.177 0 0 0 -2.182,2.182 c 0,1.209 0.973,2.182 2.182,2.182 A 2.177,2.177 0 0 0 14.182,18.545 2.177,2.177 0 0 0 12,16.363 Z m 0,1.092 a 1.091,1.091 0 1 1 0,2.182 1.091,1.091 0 1 1 0,-2.182 z"
     id="path12"
     inkscape:connector-curvature="0"
     style="color:#31363b;fill:#f9f9f9;fill-opacity:0.30199998" />
  <path
     d="m 19.637,20.727 v 1.091 h 1.09 v -1.091 z"
     id="path14"
     inkscape:connector-curvature="0"
     style="color:#31363b;fill:#f9f9f9" />
</svg>
