<?xml version="1.0" encoding="UTF-8" standalone="no"?>
<svg
   xmlns:dc="http://purl.org/dc/elements/1.1/"
   xmlns:cc="http://creativecommons.org/ns#"
   xmlns:rdf="http://www.w3.org/1999/02/22-rdf-syntax-ns#"
   xmlns:svg="http://www.w3.org/2000/svg"
   xmlns="http://www.w3.org/2000/svg"
   xmlns:sodipodi="http://sodipodi.sourceforge.net/DTD/sodipodi-0.dtd"
   xmlns:inkscape="http://www.inkscape.org/namespaces/inkscape"
   width="24"
   height="24"
   version="1.1"
   id="svg16"
   sodipodi:docname="network-vpn-acquiring.svg"
   inkscape:version="0.92.4 (5da689c313, 2019-01-14)">
  <metadata
     id="metadata22">
    <rdf:RDF>
      <cc:Work
         rdf:about="">
        <dc:format>image/svg+xml</dc:format>
        <dc:type
           rdf:resource="http://purl.org/dc/dcmitype/StillImage" />
        <dc:title></dc:title>
      </cc:Work>
    </rdf:RDF>
  </metadata>
  <defs
     id="defs20" />
  <sodipodi:namedview
     pagecolor="#ffffff"
     bordercolor="#666666"
     borderopacity="1"
     objecttolerance="10"
     gridtolerance="10"
     guidetolerance="10"
     inkscape:pageopacity="0"
     inkscape:pageshadow="2"
     inkscape:window-width="1158"
     inkscape:window-height="480"
     id="namedview18"
     showgrid="false"
     inkscape:zoom="9.8333333"
     inkscape:cx="1.0677966"
     inkscape:cy="12"
     inkscape:window-x="0"
     inkscape:window-y="25"
     inkscape:window-maximized="0"
     inkscape:current-layer="svg16" />
  <path
     d="m 20.727,13.09 a 2.177,2.177 0 0 0 -2.182,2.183 v 2.182 h -1.09 v 3.272 H 24 v -3.272 h -1.09 v -2.182 a 2.177,2.177 0 0 0 -2.183,-2.182 z m 0,1.092 c 0.605,0 1.091,0.486 1.091,1.09 v 2.183 h -2.182 v -2.182 c 0,-0.605 0.487,-1.091 1.091,-1.091 z"
     class="ColorScheme-Text"
     id="path2"
     inkscape:connector-curvature="0"
     style="color:#31363b;fill:#f9f9f9" />
  <g
     transform="matrix(1.0668,0,0,1.0668,-0.898,-0.295)"
     id="g14"
     style="fill:#f9f9f9;fill-opacity:0.97000002">
    <ellipse
       ry="0.92000002"
       rx="0.94"
       cy="9.6599998"
       cx="6.0900002"
       id="ellipse4" />
    <ellipse
       ry="0.92000002"
       rx="0.94"
       cy="9.6400003"
       cx="9.0799999"
       id="ellipse6" />
    <ellipse
       ry="0.92000002"
       rx="0.94"
       cy="9.6599998"
       cx="12.09"
       id="ellipse8" />
    <ellipse
       ry="0.92000002"
       rx="0.94"
       cy="9.6400003"
       cx="15.08"
       id="ellipse10" />
    <ellipse
       ry="0.92000002"
       rx="0.94"
       cy="9.6599998"
       cx="18.09"
       id="ellipse12" />
  </g>
</svg>
