<?xml version="1.0" encoding="UTF-8" standalone="no"?>
<svg
   xmlns:dc="http://purl.org/dc/elements/1.1/"
   xmlns:cc="http://creativecommons.org/ns#"
   xmlns:rdf="http://www.w3.org/1999/02/22-rdf-syntax-ns#"
   xmlns:svg="http://www.w3.org/2000/svg"
   xmlns="http://www.w3.org/2000/svg"
   xmlns:sodipodi="http://sodipodi.sourceforge.net/DTD/sodipodi-0.dtd"
   xmlns:inkscape="http://www.inkscape.org/namespaces/inkscape"
   width="24"
   height="24"
   version="1.1"
   id="svg4"
   sodipodi:docname="network-wired-no-route.svg"
   inkscape:version="0.92.4 (5da689c313, 2019-01-14)">
  <metadata
     id="metadata10">
    <rdf:RDF>
      <cc:Work
         rdf:about="">
        <dc:format>image/svg+xml</dc:format>
        <dc:type
           rdf:resource="http://purl.org/dc/dcmitype/StillImage" />
        <dc:title></dc:title>
      </cc:Work>
    </rdf:RDF>
  </metadata>
  <defs
     id="defs8" />
  <sodipodi:namedview
     pagecolor="#ffffff"
     bordercolor="#666666"
     borderopacity="1"
     objecttolerance="10"
     gridtolerance="10"
     guidetolerance="10"
     inkscape:pageopacity="0"
     inkscape:pageshadow="2"
     inkscape:window-width="1158"
     inkscape:window-height="480"
     id="namedview6"
     showgrid="false"
     inkscape:zoom="9.8333333"
     inkscape:cx="1.0677966"
     inkscape:cy="12"
     inkscape:window-x="0"
     inkscape:window-y="25"
     inkscape:window-maximized="0"
     inkscape:current-layer="svg4" />
  <path
     d="m 4.363,3.273 v 12 h 9.819 V 14.182 H 5.455 V 4.363 h 13.09 V 12 h 1.092 V 3.273 Z m 12.846,9.823 a 2.182,2.182 0 0 0 -1.928,2.068 2.182,2.182 0 0 0 0,0.098 h 1.092 a 1.09,1.09 0 0 1 0.963,-1.084 h 0.125 v -1.082 z m 0.254,0.002 v 1.09 a 1.09,1.09 0 0 1 1.084,0.962 v 0.127 h 0.008 a 1.09,1.09 0 0 1 -0.963,1.084 h -0.127 v -0.007 a 2.182,2.182 0 0 0 -0.217,0.002 2.182,2.182 0 0 0 -0.873,0.238 v -0.227 h -0.002 v 2.182 h 1.09 v -1.106 h 0.254 a 2.182,2.182 0 0 0 1.928,-2.068 2.182,2.182 0 0 0 0,-0.098 h -0.014 v -0.252 a 2.182,2.182 0 0 0 -2.07,-1.927 2.182,2.182 0 0 0 -0.098,0 z m -6.555,3.265 v 2.182 H 3.273 v 1.092 h 7.635 v 1.09 h 2.184 v -4.364 z m 5.467,3.262 v 1.092 h 1.09 v -1.092 z"
     id="path2"
     inkscape:connector-curvature="0"
     style="fill:#f9f9f9" />
</svg>
