<?xml version="1.0" encoding="UTF-8" standalone="no"?>
<svg
   xmlns:dc="http://purl.org/dc/elements/1.1/"
   xmlns:cc="http://creativecommons.org/ns#"
   xmlns:rdf="http://www.w3.org/1999/02/22-rdf-syntax-ns#"
   xmlns:svg="http://www.w3.org/2000/svg"
   xmlns="http://www.w3.org/2000/svg"
   xmlns:sodipodi="http://sodipodi.sourceforge.net/DTD/sodipodi-0.dtd"
   xmlns:inkscape="http://www.inkscape.org/namespaces/inkscape"
   width="24"
   height="24"
   version="1.1"
   id="svg8"
   sodipodi:docname="network-wireless-secure-signal-low.svg"
   inkscape:version="0.92.4 (5da689c313, 2019-01-14)">
  <metadata
     id="metadata14">
    <rdf:RDF>
      <cc:Work
         rdf:about="">
        <dc:format>image/svg+xml</dc:format>
        <dc:type
           rdf:resource="http://purl.org/dc/dcmitype/StillImage" />
        <dc:title></dc:title>
      </cc:Work>
    </rdf:RDF>
  </metadata>
  <defs
     id="defs12" />
  <sodipodi:namedview
     pagecolor="#ffffff"
     bordercolor="#666666"
     borderopacity="1"
     objecttolerance="10"
     gridtolerance="10"
     guidetolerance="10"
     inkscape:pageopacity="0"
     inkscape:pageshadow="2"
     inkscape:window-width="1158"
     inkscape:window-height="480"
     id="namedview10"
     showgrid="false"
     inkscape:zoom="9.8333333"
     inkscape:cx="1.0677966"
     inkscape:cy="12"
     inkscape:window-x="0"
     inkscape:window-y="25"
     inkscape:window-maximized="0"
     inkscape:current-layer="svg8" />
  <path
     class="ColorScheme-Text"
     d="M 12,3.273 A 16.313,16.313 0 0 0 0.418,8.054 L 1.191,8.827 A 15.224,15.224 0 0 1 12,4.364 c 4.23,0 8.048,1.703 10.809,4.463 L 23.582,8.054 A 16.313,16.313 0 0 0 12,3.273 Z"
     id="path2"
     inkscape:connector-curvature="0"
     style="color:#31363b;fill:#f9f9f9;fill-opacity:0.30199998" />
  <path
     class="ColorScheme-Text"
     d="m 12,7.636 a 11.962,11.962 0 0 0 -8.493,3.507 l 0.771,0.772 A 10.876,10.876 0 0 1 12,8.727 c 3.022,0 5.75,1.216 7.722,3.188 l 0.77,-0.772 A 11.962,11.962 0 0 0 12,7.636 Z M 12,12 c -2.115,0 -4.025,0.85 -5.406,2.23 l 0.774,0.774 A 6.524,6.524 0 0 1 12,13.091 c 1.813,0 3.449,0.73 4.632,1.913 l 0.774,-0.773 A 7.614,7.614 0 0 0 12,12 Z"
     id="path4"
     inkscape:connector-curvature="0"
     style="color:#31363b;fill:#f9f9f9;fill-opacity:0.30199998" />
  <path
     class="ColorScheme-Text"
     d="m 12,16.364 a 2.177,2.177 0 0 0 -2.182,2.181 c 0,1.21 0.973,2.182 2.182,2.182 A 2.177,2.177 0 0 0 14.182,18.545 2.177,2.177 0 0 0 12,16.364 Z m 0,1.09 c 0.604,0 1.09,0.487 1.09,1.091 0,0.605 -0.486,1.091 -1.09,1.091 -0.604,0 -1.09,-0.486 -1.09,-1.09 0,-0.605 0.486,-1.091 1.09,-1.091 z m 8.727,-4.364 a 2.177,2.177 0 0 0 -2.182,2.183 v 2.182 h -1.09 v 3.272 H 24 v -3.272 h -1.09 v -2.182 a 2.177,2.177 0 0 0 -2.183,-2.182 z m 0,1.092 c 0.605,0 1.091,0.486 1.091,1.09 v 2.183 h -2.182 v -2.182 c 0,-0.605 0.487,-1.091 1.091,-1.091 z"
     id="path6"
     inkscape:connector-curvature="0"
     style="color:#31363b;fill:#f9f9f9" />
</svg>
