<svg xmlns="http://www.w3.org/2000/svg" viewBox="0 0 22 22" id="svg6">
  <defs id="defs3051">
    <style id="current-color-scheme">
      .ColorScheme-Text {
        color:#f9f9f9;
      }
      .ColorScheme-Highlight {
        color:#E0DFD8;
	  </style>
	</defs>
  <path style="fill:currentColor;fill-opacity:1;stroke:none" 
     d="M 2.984,3.602 A 0.616,0.616 0 0 0 2.369,4.217 v 13.566 c 0,0.34 0.274,0.615 0.615,0.615 h 16.03 a 0.616,0.616 0 0 0 0.616,-0.615 v -2.467 a 0.613,0.613 0 0 0 -0.038,-0.212 h 0.04 V 4.217 A 0.616,0.616 0 0 0 19.015,3.602 Z m 0.617,1.232 h 14.797 v 12.29 H 3.6 Z m 12.33,1.234 a 1.242,1.242 0 0 0 -1.233,1.233 c 0,0.673 0.56,1.232 1.233,1.232 0.674,0 1.234,-0.56 1.234,-1.232 A 1.242,1.242 0 0 0 15.931,6.068 Z M 7.454,10.632 A 3.306,3.306 0 0 0 7.041,10.65 c -0.812,0.088 -1.588,0.484 -2.41,1.223 v 4.143 h 12.703 v -1.713 c -3.381,-0.16 -5.41,-1.666 -7.237,-2.74 C 9.254,11.068 8.405,10.647 7.455,10.632 Z"
  	 class="ColorScheme-Text" />
</svg>
