<svg xmlns="http://www.w3.org/2000/svg" viewBox="0 0 22 22" id="svg6">
  <defs id="defs3051">
    <style id="current-color-scheme">
      .ColorScheme-Text {
        color:#f9f9f9;
      }
      .ColorScheme-Highlight {
        color:#E0DFD8;
	  </style>
	</defs>
  <path style="fill:currentColor;fill-opacity:1;stroke:none" 
     d="m 8.374,2.713 c -1.158,0 -2.03,0.721 -2.366,1.373 -0.334,0.654 -0.32,1.28 -0.32,1.28 v 13.921 l 5.307,-2.653 5.303,2.653 0.013,-8.084 H 16.306 L 16.301,5.366 c 0,0 0.016,-0.62 -0.311,-1.27 C 15.664,3.445 14.797,2.713 13.647,2.713 Z M 7.447,3.707 h 7.139 c 0.598,0 0.5,0.079 0.6,0.263 a 1.373,1.286 0 0 1 0.117,0.41 l 0.008,10.095 -0.003,3.207 -4.314,-2.02 -4.309,2.02 V 4.379 c 0,0 0.019,-0.215 0.119,-0.397 C 6.901,3.802 6.82,3.707 7.447,3.706 Z"
  	 class="ColorScheme-Text" />
</svg>
