<svg xmlns="http://www.w3.org/2000/svg" viewBox="0 0 22 22" id="svg6">
  <defs id="defs3051">
    <style id="current-color-scheme">
      .ColorScheme-Text {
        color:#f9f9f9;
      }
      .ColorScheme-Highlight {
        color:#E0DFD8;
	  </style>
	</defs>
  <path style="fill:currentColor;fill-opacity:1;stroke:none" 
     d="M 8.19,2.785 C 6.803,2.887 5.63,3.771 4.696,4.705 3.949,5.452 3.26,6.356 2.936,7.393 2.613,8.43 2.809,9.756 3.828,10.569 4.14,10.818 4.498,10.886 4.842,11.01 4.498,11.135 4.14,11.203 3.827,11.453 a 3.235,3.235 0 0 0 -0.35,0.327 c -0.8,0.872 -0.824,2.086 -0.476,3.04 0.349,0.956 0.996,1.796 1.695,2.497 0.747,0.746 1.652,1.436 2.69,1.76 1.037,0.324 2.362,0.128 3.175,-0.892 0.249,-0.312 0.317,-0.67 0.441,-1.014 0.126,0.345 0.193,0.702 0.443,1.015 0.812,1.018 2.138,1.215 3.176,0.891 1.036,-0.324 1.941,-1.014 2.688,-1.76 0.746,-0.747 1.436,-1.652 1.76,-2.69 0.324,-1.037 0.127,-2.362 -0.89,-3.175 -0.312,-0.249 -0.67,-0.317 -1.016,-0.442 0.344,-0.125 0.704,-0.192 1.015,-0.442 C 19.196,9.756 19.393,8.43 19.07,7.393 18.745,6.356 18.055,5.451 17.309,4.704 16.609,4.004 15.768,3.356 14.812,3.009 13.858,2.661 12.642,2.684 11.772,3.484 A 3.107,3.107 0 0 0 11.445,3.836 C 11.195,4.146 11.128,4.505 11.002,4.85 10.878,4.506 10.81,4.146 10.562,3.836 A 2.806,2.806 0 0 0 8.19,2.786 Z m 0.068,0.913 c 0.59,-0.043 1.145,0.152 1.588,0.707 1.179,1.48 0.24,4.2 1.156,6.605 0.916,-2.405 -0.02,-5.126 1.158,-6.605 0.074,-0.092 0.15,-0.173 0.23,-0.247 1.193,-1.096 3.005,-0.072 4.271,1.194 1.35,1.35 2.425,3.322 0.946,4.5 -1.48,1.18 -4.2,0.243 -6.605,1.158 2.406,0.918 5.127,-0.022 6.605,1.158 1.48,1.179 0.405,3.15 -0.946,4.501 -1.35,1.35 -3.322,2.425 -4.5,0.946 -1.18,-1.48 -0.243,-4.2 -1.159,-6.605 -0.915,2.406 0.023,5.125 -1.156,6.605 -1.18,1.48 -3.15,0.405 -4.502,-0.946 -1.266,-1.266 -2.29,-3.076 -1.192,-4.27 0.072,-0.08 0.154,-0.158 0.247,-0.23 C 5.878,10.988 8.597,11.928 11.002,11.01 8.597,10.095 5.878,11.033 4.397,9.853 2.919,8.674 3.993,6.703 5.345,5.352 6.188,4.507 7.275,3.772 8.258,3.7 Z"
  	 class="ColorScheme-Text" />
</svg>
