<svg xmlns="http://www.w3.org/2000/svg" viewBox="0 0 22 22" id="svg6">
  <defs id="defs3051">
    <style id="current-color-scheme">
      .ColorScheme-Text {
        color:#f9f9f9;
      }
      .ColorScheme-Highlight {
        color:#E0DFD8;
	  </style>
	</defs>
  <path style="fill:currentColor;fill-opacity:1;stroke:none" 
     d="m 12.617,2.746 a 0.073,0.073 0 0 0 -0.013,0.013 0.073,0.073 0 0 0 -0.013,0.014 0.073,0.073 0 0 0 -0.013,0.013 0.073,0.073 0 0 0 -0.012,0.026 0.073,0.073 0 0 0 0,0.013 0.073,0.073 0 0 0 0,0.014 c 0.169,0.662 0.116,1.197 -0.093,1.665 -0.206,0.469 -0.567,0.871 -0.982,1.242 -0.824,0.743 -1.892,1.373 -2.468,2.237 -0.398,0.598 -0.3,1.242 0.091,1.887 0.391,0.643 1.07,1.3 1.848,2.004 a 0.073,0.073 0 0 0 0.013,0 0.073,0.073 0 0 0 0.014,0.012 0.073,0.073 0 0 0 0.013,0 0.073,0.073 0 0 0 0.013,0 0.073,0.073 0 0 0 0.012,0 0.073,0.073 0 0 0 0.026,0 0.073,0.073 0 0 0 0.013,-0.014 0.073,0.073 0 0 0 0.014,-0.013 0.073,0.073 0 0 0 0,-0.012 0.073,0.073 0 0 0 0.013,-0.013 0.073,0.073 0 0 0 0,-0.026 0.073,0.073 0 0 0 0,-0.012 0.073,0.073 0 0 0 -0.013,-0.013 C 10.767,11.078 10.112,10.442 9.863,9.728 A 1.581,1.581 0 0 1 9.876,8.577 c 0.165,-0.414 0.53,-0.875 1.19,-1.396 1.671,-1.32 2.091,-2.417 2.08,-3.194 -0.009,-0.776 -0.45,-1.214 -0.45,-1.214 a 0.073,0.073 0 0 0 -0.014,-0.014 0.073,0.073 0 0 0 -0.013,0 0.073,0.073 0 0 0 -0.014,-0.013 0.073,0.073 0 0 0 -0.011,0 0.073,0.073 0 0 0 -0.014,0 0.073,0.073 0 0 0 -0.013,0 z m 2.06,3.348 a 0.073,0.073 0 0 0 -0.005,0 c 0,0 -1.395,0.35 -2.481,1.099 -0.542,0.376 -1.02,0.857 -1.176,1.449 -0.157,0.59 0.017,1.282 0.698,2.066 0.379,0.436 0.32,0.827 0.181,1.128 -0.141,0.3 -0.375,0.501 -0.375,0.501 a 0.073,0.073 0 0 0 -0.013,0.016 0.073,0.073 0 0 0 -0.013,0.013 0.073,0.073 0 0 0 -0.013,0.012 0.073,0.073 0 0 0 0,0.013 0.073,0.073 0 0 0 0,0.012 0.073,0.073 0 0 0 0.013,0.013 0.073,0.073 0 0 0 0,0.013 0.073,0.073 0 0 0 0.013,0.014 0.073,0.073 0 0 0 0.013,0.013 0.073,0.073 0 0 0 0.037,0.012 0.073,0.073 0 0 0 0.013,0 0.073,0.073 0 0 0 0.014,-0.013 0.073,0.073 0 0 0 0.013,0 c 0,0 0.508,-0.263 0.905,-0.699 0.198,-0.217 0.364,-0.476 0.426,-0.774 A 1.227,1.227 0 0 0 12.708,9.998 C 12.492,9.695 12.286,9.434 12.165,9.184 12.042,8.936 11.993,8.722 12.073,8.461 12.236,7.941 12.953,7.26 14.737,6.225 a 0.073,0.073 0 0 0 0.013,0 0.073,0.073 0 0 0 0,-0.014 0.073,0.073 0 0 0 0.013,0 0.073,0.073 0 0 0 0,-0.014 0.073,0.073 0 0 0 0.013,-0.025 0.073,0.073 0 0 0 0,-0.013 0.073,0.073 0 0 0 0,-0.013 0.073,0.073 0 0 0 -0.013,-0.013 0.073,0.073 0 0 0 0,-0.012 0.073,0.073 0 0 0 -0.013,-0.013 0.073,0.073 0 0 0 -0.013,-0.014 0.073,0.073 0 0 0 -0.013,0 0.073,0.073 0 0 0 -0.014,0 0.073,0.073 0 0 0 -0.013,0 0.073,0.073 0 0 0 -0.013,0 0.073,0.073 0 0 0 -0.008,0 z m 1.108,5.56 a 1.9,1.9 0 0 0 -0.725,0.102 0.615,0.615 0 0 0 -0.284,0.22 0.033,0.033 0 0 0 0,0.014 0.033,0.033 0 0 0 0,0.013 0.033,0.033 0 0 0 0,0.013 0.033,0.033 0 0 0 0.011,0 0.033,0.033 0 0 0 0,0.01 0.033,0.033 0 0 0 0.014,0 0.033,0.033 0 0 0 0.014,0 c 0,0 0.118,-0.039 0.361,-0.088 0.478,-0.098 1.061,0.214 1.151,0.75 0.046,0.267 -0.03,0.597 -0.31,0.957 -0.281,0.359 -0.758,0.752 -1.524,1.15 a 0.033,0.033 0 0 0 -0.014,0 0.033,0.033 0 0 0 -0.008,0.005 0.033,0.033 0 0 0 -0.006,0.009 0.25,0.25 0 0 1 -0.027,0.051 c -0.006,0.008 -0.02,0.02 -0.023,0.027 -0.006,0.004 0,0.013 0,0.013 l 0.023,0.013 v 0.037 c 1.806,-0.475 2.542,-1.267 2.627,-1.966 0.082,-0.698 -0.49,-1.291 -1.28,-1.33 z m -6.838,0.154 c -0.396,0.01 -1.32,0.103 -2.393,0.621 A 0.989,0.989 0 0 0 6.307,12.584 C 6.255,12.637 6.228,12.683 6.229,12.74 a 0.227,0.227 0 0 0 0.091,0.155 0.85,0.85 0 0 0 0.22,0.115 c 0.368,0.14 1.032,0.238 1.849,0.285 1.634,0.097 3.859,-0.014 5.378,-0.414 a 0.033,0.033 0 0 0 0.013,0 c 0.31,-0.29 0.736,-0.401 0.736,-0.401 a 0.033,0.033 0 0 0 0.014,-0.014 0.033,0.033 0 0 0 0.008,-0.004 0.033,0.033 0 0 0 0.005,-0.006 0.033,0.033 0 0 0 0,-0.013 0.033,0.033 0 0 0 0,-0.014 0.033,0.033 0 0 0 -0.013,0 0.033,0.033 0 0 0 0,-0.013 0.033,0.033 0 0 0 -0.014,0 0.033,0.033 0 0 0 -0.013,0 c 0,0 -1.236,0.206 -2.468,0.31 -1.508,0.127 -3.122,0.159 -3.929,0.052 A 2.084,2.084 0 0 1 7.601,12.662 0.244,0.244 0 0 1 7.511,12.597 C 7.492,12.579 7.481,12.56 7.485,12.544 c 0,-0.031 0.04,-0.076 0.116,-0.128 C 7.677,12.363 7.8,12.299 7.925,12.247 8.423,12.04 9.166,11.874 9.166,11.874 a 0.033,0.033 0 0 0 0,-0.013 0.033,0.033 0 0 0 0.013,0 0.033,0.033 0 0 0 0,-0.014 0.033,0.033 0 0 0 0,-0.013 0.033,0.033 0 0 0 0,-0.013 0.033,0.033 0 0 0 -0.013,-0.013 0.033,0.033 0 0 0 -0.013,0 c 0,0 -0.075,-0.004 -0.206,0 z m -0.502,1.86 A 0.033,0.033 0 0 0 8.441,13.67 c -0.35,0.116 -0.59,0.23 -0.737,0.349 a 0.475,0.475 0 0 0 -0.143,0.182 0.238,0.238 0 0 0 -0.013,0.18 c 0.045,0.12 0.174,0.22 0.364,0.31 0.19,0.088 0.442,0.16 0.748,0.22 1.228,0.237 3.29,0.22 5.236,-0.35 a 0.033,0.033 0 0 0 0.013,0 0.033,0.033 0 0 0 0,-0.013 0.033,0.033 0 0 0 0,-0.013 0.033,0.033 0 0 0 0,-0.012 0.033,0.033 0 0 0 0,-0.014 0.033,0.033 0 0 0 -0.013,0 0.033,0.033 0 0 0 0,-0.013 2.034,2.034 0 0 1 -0.673,-0.4 0.033,0.033 0 0 0 -0.013,-0.014 0.033,0.033 0 0 0 -0.012,0 c -1.895,0.367 -2.996,0.364 -4.382,0.22 C 8.55,14.276 8.414,14.219 8.337,14.162 8.261,14.103 8.255,14.042 8.272,13.979 a 0.451,0.451 0 0 1 0.103,-0.18 c 0.048,-0.05 0.091,-0.08 0.091,-0.08 a 0.033,0.033 0 0 0 0.014,-0.01 0.033,0.033 0 0 0 0,-0.014 0.033,0.033 0 0 0 0,-0.013 0.033,0.033 0 0 0 -0.014,-0.013 0.033,0.033 0 0 0 -0.013,0 0.033,0.033 0 0 0 -0.009,-0.002 z m 0.4,1.797 a 0.033,0.033 0 0 0 -0.004,0.003 c -0.316,0.088 -0.528,0.187 -0.66,0.296 -0.129,0.11 -0.17,0.242 -0.128,0.362 0.043,0.119 0.161,0.226 0.336,0.323 0.174,0.098 0.396,0.188 0.673,0.258 1.107,0.282 2.935,0.303 4.549,-0.387 a 0.033,0.033 0 0 0 0,-0.013 0.033,0.033 0 0 0 0.013,0 0.033,0.033 0 0 0 0,-0.013 0.033,0.033 0 0 0 0,-0.013 0.033,0.033 0 0 0 0,-0.014 0.033,0.033 0 0 0 -0.013,0 0.033,0.033 0 0 0 0,-0.013 c -0.523,-0.203 -0.89,-0.453 -0.89,-0.453 a 0.033,0.033 0 0 0 -0.014,0 0.033,0.033 0 0 0 -0.013,0 0.033,0.033 0 0 0 -0.013,0 C 11.25,16.072 10.593,16.105 9.294,15.958 9.029,15.927 8.861,15.877 8.778,15.829 8.736,15.805 8.712,15.786 8.7,15.764 8.688,15.744 8.695,15.721 8.7,15.7 8.71,15.66 8.75,15.617 8.79,15.582 8.83,15.549 8.882,15.531 8.882,15.531 a 0.033,0.033 0 0 0 0,-0.013 0.033,0.033 0 0 0 0,-0.014 0.033,0.033 0 0 0 0,-0.013 0.033,0.033 0 0 0 0,-0.013 0.033,0.033 0 0 0 0,-0.013 0.033,0.033 0 0 0 -0.013,0 0.033,0.033 0 0 0 -0.013,0 0.033,0.033 0 0 0 -0.01,0 z m -1.684,1.19 c -0.062,0 -0.126,0.01 -0.194,0.015 -0.588,0.053 -1.379,0.307 -1.783,0.607 a 0.797,0.797 0 0 0 -0.219,0.245 c -0.045,0.08 -0.055,0.155 -0.013,0.233 0.04,0.079 0.123,0.148 0.256,0.206 0.135,0.058 0.325,0.104 0.571,0.144 3.277,0.531 6.263,0.413 8.22,0.064 0.98,-0.174 1.692,-0.406 2.07,-0.647 0.187,-0.118 0.298,-0.23 0.295,-0.362 a 0.293,0.293 0 0 0 -0.09,-0.193 0.8,0.8 0 0 0 -0.244,-0.155 0.033,0.033 0 0 0 -0.013,0 0.033,0.033 0 0 0 -0.013,0 0.033,0.033 0 0 0 -0.013,0 0.033,0.033 0 0 0 0,0.012 0.033,0.033 0 0 0 -0.014,0 0.033,0.033 0 0 0 0,0.014 0.033,0.033 0 0 0 0,0.013 0.033,0.033 0 0 0 0.014,0 0.033,0.033 0 0 0 0,0.013 c 0,0 0.108,0.08 0.103,0.194 -0.003,0.055 -0.03,0.132 -0.118,0.206 a 1.38,1.38 0 0 1 -0.476,0.22 c -0.919,0.279 -2.856,0.457 -4.758,0.478 C 9.792,17.972 8.848,17.947 8.04,17.871 7.234,17.796 6.554,17.671 6.153,17.496 A 0.256,0.256 0 0 1 6.037,17.406 C 6.017,17.38 6.013,17.366 6.024,17.34 c 0.02,-0.052 0.11,-0.129 0.232,-0.192 0.241,-0.126 0.607,-0.234 0.776,-0.27 0.356,-0.079 0.544,-0.066 0.544,-0.066 a 0.033,0.033 0 0 0 0.013,0 0.033,0.033 0 0 0 0.013,0 0.033,0.033 0 0 0 0,-0.013 0.033,0.033 0 0 0 0.013,0 0.033,0.033 0 0 0 0,-0.013 0.033,0.033 0 0 0 0,-0.013 0.033,0.033 0 0 0 -0.013,-0.013 0.033,0.033 0 0 0 0,-0.014 c -0.103,-0.07 -0.255,-0.09 -0.44,-0.09 z m 9.85,0.982 a 0.033,0.033 0 0 0 0,0.014 c 0,0 -0.003,0.013 -0.013,0.026 -0.008,0.013 -0.014,0.026 -0.04,0.053 a 1.346,1.346 0 0 1 -0.309,0.217 c -0.323,0.185 -0.928,0.425 -2.043,0.635 -2.515,0.475 -5.62,0.42 -7.458,0.116 l -0.013,0.027 0.026,0.024 c 0,0 -0.04,0.005 -0.026,0.014 0.014,0.01 0.043,0.034 0.078,0.05 0.066,0.033 0.178,0.07 0.348,0.12 0.338,0.094 0.916,0.206 1.887,0.268 1.48,0.095 3.355,0.073 4.874,-0.154 0.76,-0.114 1.422,-0.28 1.914,-0.504 0.491,-0.225 0.81,-0.511 0.838,-0.878 a 0.033,0.033 0 0 0 0,-0.013 0.033,0.033 0 0 0 0,-0.013 0.033,0.033 0 0 0 -0.01,0 0.033,0.033 0 0 0 -0.014,0 0.033,0.033 0 0 0 -0.013,0 0.033,0.033 0 0 0 -0.013,0 0.033,0.033 0 0 0 -0.013,0 z"
  	 class="ColorScheme-Text" />
</svg>
