<svg xmlns="http://www.w3.org/2000/svg" viewBox="0 0 22 22" id="svg6">
  <defs id="defs3051">
    <style id="current-color-scheme">
      .ColorScheme-Text {
        color:#f9f9f9;
      }
      .ColorScheme-Highlight {
        color:#E0DFD8;
	  </style>
	</defs>
  <path style="fill:currentColor;fill-opacity:1;stroke:none" 
     d="M 12.908,2.495 C 12.453,2.494 12.254,2.831 12.279,3.279 l 0.003,11.679 c 0,0.228 -0.028,0.45 -0.07,0.666 -0.009,0.05 -0.026,0.099 -0.036,0.148 a 3.503,3.503 0 0 1 -0.159,0.5 C 12,16.313 11.985,16.355 11.965,16.396 a 3.51,3.51 0 0 1 -0.268,0.489 l -0.044,0.072 a 3.522,3.522 0 0 1 -1.52,1.25 c -0.03,0.013 -0.062,0.02 -0.092,0.034 -0.125,0.05 -0.25,0.1 -0.383,0.136 -0.044,0.013 -0.087,0.013 -0.13,0.022 A 1.836,1.836 0 0 1 9.24,18.437 3.537,3.537 0 0 1 8.79,18.481 c -0.042,0.003 -0.082,0.015 -0.125,0.015 -0.033,0 -0.065,-0.008 -0.1,-0.01 A 3.512,3.512 0 0 1 8.043,18.432 C 8.005,18.425 7.968,18.424 7.93,18.415 A 3.525,3.525 0 0 1 6.696,17.892 L 6.684,17.882 A 3.514,3.514 0 0 1 6.129,17.409 3.53,3.53 0 0 1 5.709,16.882 C 5.675,16.83 5.632,16.784 5.601,16.728 5.541,16.626 5.5,16.44 5.451,16.414 5.433,16.372 5.412,16.334 5.395,16.293 A 3.537,3.537 0 0 1 5.199,15.666 3.54,3.54 0 0 1 5.129,14.993 L 5.127,14.958 c 0,-0.037 0.01,-0.071 0.012,-0.108 0.005,-0.173 0.022,-0.347 0.052,-0.519 a 3.5,3.5 0 0 1 0.19,-0.665 l 0.048,-0.123 c 0.085,-0.194 0.183,-0.38 0.305,-0.557 0.125,-0.187 0.264,-0.366 0.427,-0.53 0.165,-0.164 0.344,-0.303 0.53,-0.427 a 3.43,3.43 0 0 1 0.56,-0.306 l 0.122,-0.048 a 3.522,3.522 0 0 1 0.665,-0.19 3.556,3.556 0 0 1 0.519,-0.052 c 0.036,-0.002 0.072,-0.013 0.108,-0.013 0.013,0 0.022,0.004 0.034,0.004 0.226,0.002 0.455,0.026 0.68,0.072 h 0.005 c 0.01,10e-4 0.019,0.005 0.026,0.007 0.207,0.045 0.411,0.111 0.611,0.194 l 0.098,0.05 c 0.106,0.047 0.213,0.088 0.314,0.147 l 0.506,-0.876 A 4.545,4.545 0 0 0 8.07,10.45 4.542,4.542 0 0 0 5.446,11.741 4.551,4.551 0 0 0 4.726,17.233 4.551,4.551 0 0 0 9.84,19.35 4.553,4.553 0 0 0 13.213,14.957 V 4.085 l 4.04,3.242 0.63,-0.79 z M 8.744,12.791 a 2.166,2.166 0 1 0 2.166,2.167 2.166,2.166 0 0 0 -2.166,-2.167 z"
  	 class="ColorScheme-Text" />
</svg>
