<svg xmlns="http://www.w3.org/2000/svg" viewBox="0 0 22 22" id="svg6">
  <defs id="defs3051">
    <style id="current-color-scheme">
      .ColorScheme-Text {
        color:#f9f9f9;
      }
      .ColorScheme-Highlight {
        color:#E0DFD8;
	  </style>
	</defs>
  <path style="fill:currentColor;fill-opacity:1;stroke:none" 
     d="M 10.995,2.831 A 8.178,8.178 0 0 0 2.826,11 c 0,0.352 0.028,0.695 0.072,1.035 0.025,0.106 0.025,0.089 0.006,0.18 0.05,0.12 -0.008,0.108 0.044,0.142 0.649,3.86 4.005,6.812 8.047,6.812 3.977,0 7.295,-2.94 8.018,-6.63 A 0.581,0.581 0 0 1 19.098,12.509 8.148,8.148 0 0 0 19.164,11 8.177,8.177 0 0 0 10.995,2.831 Z m 0,1.165 A 6.977,6.977 0 0 1 16.573,6.776 24.14,24.14 0 0 0 13.569,6.534 20.204,20.204 0 0 0 7.42,7.44 C 7.391,6.484 7.49,5.586 7.72,4.81 A 6.984,6.984 0 0 1 10.995,3.998 Z M 6.26,5.856 A 15.78,15.78 0 0 0 6.247,6.791 c 0,0.12 0,0.238 0.004,0.355 0,0.228 -0.004,0.454 0.01,0.687 A 24.705,24.705 0 0 0 4.42,8.61 6.977,6.977 0 0 1 6.26,5.855 Z M 13.411,7.7 c 1.228,0 2.534,0.115 3.932,0.357 A 6.981,6.981 0 0 1 17.998,11 c 0,0.39 -0.04,0.768 -0.101,1.143 -2.134,0.542 -5.6,1.015 -8.929,0.838 A 12.551,12.551 0 0 1 7.636,9.213 13.692,13.692 0 0 1 7.536,8.625 c 1.8,-0.583 3.723,-0.926 5.875,-0.926 z M 6.385,9.03 a 14.23,14.23 0 0 0 0.965,3.385 c 0.065,0.153 0.143,0.3 0.213,0.45 C 6.308,12.718 5.121,12.462 4.081,12.059 A 7.053,7.053 0 0 1 3.991,11 c 0,-0.314 0.03,-0.622 0.07,-0.923 A 25.34,25.34 0 0 1 6.385,9.031 Z m 11.304,4.027 a 6.997,6.997 0 0 1 -3.863,4.346 6.88,6.88 0 0 1 -1.61,-0.764 10.502,10.502 0 0 1 -2.51,-2.476 c 0.413,0.008 0.824,0.024 1.241,0.01 2.476,-0.075 4.961,-0.526 6.742,-1.114 z m -13.35,0.114 c 1.094,0.48 2.466,0.762 3.927,0.9 0.265,0.435 0.55,0.856 0.865,1.252 H 9.069 a 10.044,10.044 0 0 0 2.224,2.106 c 0.004,0.002 0.005,0.005 0.008,0.007 0.229,0.172 0.471,0.327 0.715,0.48 A 6.992,6.992 0 0 1 10.996,18.004 6.99,6.99 0 0 1 4.34,13.17 Z"
  	 class="ColorScheme-Text" />
</svg>
