<svg xmlns="http://www.w3.org/2000/svg" viewBox="0 0 22 22" id="svg6">
  <defs id="defs3051">
    <style id="current-color-scheme">
      .ColorScheme-Text {
        color:#f9f9f9;
      }
      .ColorScheme-Highlight {
        color:#E0DFD8;
	  </style>
	</defs>
  <path style="fill:currentColor;fill-opacity:1;stroke:none" 
     d="m 10.999,2.349 c -1.902,0 -3.476,1.24 -4.069,2.94 l 0.887,0.56 C 8.197,4.465 9.399,3.443 10.913,3.443 a 3.245,3.245 0 0 1 3.265,3.266 V 8.47 H 4.943 A 0.464,0.464 0 0 0 4.477,8.936 v 10.25 c 0,0.258 0.286,0.465 0.466,0.465 h 12.114 a 0.464,0.464 0 0 0 0.466,-0.464 V 17.32 a 0.46,0.46 0 0 0 -0.027,-0.158 h 0.027 V 8.936 A 0.464,0.464 0 0 0 17.057,8.47 H 15.353 V 6.704 A 4.357,4.357 0 0 0 11,2.349 Z m -5.59,7.05 h 11.183 v 9.29 H 5.407 V 9.4 Z M 11,12.46 a 1.085,1.085 0 0 0 -1.088,1.087 c 0,0.203 0.07,0.382 0.165,0.545 a 1.059,1.059 0 0 0 -0.165,0.542 c 0,0.603 0.485,1.088 1.088,1.088 A 1.085,1.085 0 0 0 12.086,14.634 1.059,1.059 0 0 0 11.921,14.092 1.063,1.063 0 0 0 12.087,13.547 1.085,1.085 0 0 0 11,12.461 Z"
  	 class="ColorScheme-Text" />
</svg>
