<svg xmlns="http://www.w3.org/2000/svg" viewBox="0 0 22 22" id="svg6">
  <defs id="defs3051">
    <style id="current-color-scheme">
      .ColorScheme-Text {
        color:#f9f9f9;
      }
      .ColorScheme-Highlight {
        color:#E0DFD8;
	  </style>
	</defs>
  <path style="fill:currentColor;fill-opacity:1;stroke:none" 
     d="m 5.298,2.707 c -0.853,0 -1.555,0.702 -1.555,1.554 v 2.154 h 1.036 v 1.09 H 3.74 V 9.66 h 1.04 v 1.093 H 3.74 v 2.152 h 1.04 v 1.092 H 3.74 v 3.743 c 0,0.853 0.704,1.554 1.557,1.554 h 6.738 v -0.008 a 1.01,1.01 0 0 0 0.734,-0.296 l 5.184,-5.181 c 0.652,-0.653 0.188,-1.77 -0.736,-1.772 h -5.182 a 1.037,1.037 0 0 0 -1.038,1.038 v 4.148 h 1.038 v -4.148 h 5.182 l -5.182,5.184 H 5.298 A 0.506,0.506 0 0 1 4.78,17.741 V 4.26 C 4.78,3.965 5.001,3.743 5.298,3.743 H 5.875 V 2.706 Z m 1.67,0 V 3.744 H 9.119 V 2.706 Z m 3.244,0 v 1.037 h 2.152 V 2.706 Z m 3.244,0 v 1.037 h 2.152 V 2.706 Z m 3.245,0 v 1.037 c 0.296,0 0.496,0.224 0.519,0.519 h 1.036 A 1.563,1.563 0 0 0 16.7,2.708 Z m 0.519,2.648 v 2.15 h 1.036 v -2.15 z m 0,3.243 v 2.403 h 1.036 V 8.598 Z"
  	 class="ColorScheme-Text" />
</svg>
