<svg xmlns="http://www.w3.org/2000/svg" viewBox="0 0 22 22" id="svg6">
  <defs id="defs3051">
    <style id="current-color-scheme">
      .ColorScheme-Text {
        color:#f9f9f9;
      }
      .ColorScheme-Highlight {
        color:#E0DFD8;
	  </style>
	</defs>
  <path style="fill:currentColor;fill-opacity:1;stroke:none" 
     d="M 4.804,4.803 A 2.074,2.074 0 0 0 2.737,6.87 v 8.262 c 0,1.137 0.933,2.066 2.067,2.066 h 12.393 a 2.071,2.071 0 0 0 2.066,-2.066 V 6.87 A 2.071,2.071 0 0 0 17.197,4.803 Z m 0,1.033 h 12.393 c 0.58,0 1.033,0.451 1.033,1.033 v 8.262 c 0,0.582 -0.451,1.033 -1.033,1.033 H 4.804 A 1.021,1.021 0 0 1 3.77,15.13 V 6.87 A 1.02,1.02 0 0 1 4.804,5.836 Z m 0.511,2.06 A 0.516,0.516 0 0 0 4.992,8.818 l 5.68,4.647 a 0.516,0.516 0 0 0 0.657,0 l 5.68,-4.647 a 0.517,0.517 0 1 0 -0.655,-0.8 L 11,12.398 5.649,8.018 A 0.516,0.516 0 0 0 5.315,7.897 Z"
  	 class="ColorScheme-Text" />
</svg>
