<svg xmlns="http://www.w3.org/2000/svg" viewBox="0 0 22 22" id="svg6">
  <defs id="defs3051">
    <style id="current-color-scheme">
      .ColorScheme-Text {
        color:#f9f9f9;
      }
      .ColorScheme-Highlight {
        color:#E0DFD8;
	  </style>
	</defs>
  <path style="fill:currentColor;fill-opacity:1;stroke:none" 
     d="m 6,7.949 a 3.074,3.074 0 0 0 -2.156,0.905 3.075,3.075 0 0 0 0,4.313 3.072,3.072 0 0 0 4.313,0 c 0.23,-0.23 0.203,-0.566 0.343,-0.843 0.14,0.277 0.113,0.613 0.344,0.843 a 3.072,3.072 0 0 0 4.312,0 c 0.23,-0.23 0.204,-0.566 0.344,-0.843 0.14,0.277 0.113,0.613 0.343,0.843 a 3.072,3.072 0 0 0 4.313,0 3.075,3.075 0 0 0 0,-4.313 A 3.074,3.074 0 0 0 16,7.95 3.074,3.074 0 0 0 13.843,8.855 C 13.613,9.087 13.64,9.422 13.5,9.7 13.36,9.422 13.387,9.087 13.156,8.856 A 3.074,3.074 0 0 0 11,7.95 3.074,3.074 0 0 0 8.844,8.855 C 8.614,9.085 8.64,9.421 8.5,9.699 8.36,9.421 8.387,9.086 8.157,8.855 A 3.074,3.074 0 0 0 6,7.95 Z M 6,9.01 c 0.513,0 1.016,0.204 1.406,0.595 a 1.98,1.98 0 0 1 0,2.812 1.98,1.98 0 0 1 -2.813,0 1.98,1.98 0 0 1 0,-2.813 A 1.983,1.983 0 0 1 6,9.01 Z m 5,0 c 0.512,0 1.016,0.204 1.406,0.595 a 1.98,1.98 0 0 1 0,2.812 1.98,1.98 0 0 1 -2.812,0 1.98,1.98 0 0 1 0,-2.813 A 1.983,1.983 0 0 1 11,9.01 Z m 5,0 c 0.511,0 1.016,0.204 1.407,0.595 a 1.98,1.98 0 0 1 0,2.812 1.98,1.98 0 0 1 -2.813,0 1.98,1.98 0 0 1 0,-2.813 A 1.983,1.983 0 0 1 16,9.01 Z"
  	 class="ColorScheme-Text" />
</svg>
