<svg xmlns="http://www.w3.org/2000/svg" viewBox="0 0 22 22" id="svg6">
  <defs id="defs3051">
    <style id="current-color-scheme">
      .ColorScheme-Text {
        color:#f9f9f9;
      }
      .ColorScheme-Highlight {
        color:#E0DFD8;
	  </style>
	</defs>
  <path style="fill:currentColor;fill-opacity:1;stroke:none" 
     d="m 9.391,4.562 c -2.49,0 -4.5,1.635 -4.896,4.024 -1.32,0.909 -2.078,2.312 -2.078,4.024 0,2.311 1.389,4.245 3.52,4.828 h 10.126 c 2.131,-0.583 3.52,-2.517 3.52,-4.828 0,-2.543 -1.734,-4.564 -4.19,-4.896 C 14.791,6.862 13.966,6.246 12.945,5.971 12.045,5.034 10.82,4.562 9.391,4.562 Z m 0,1.073 c 1.176,0 2.194,0.562 2.883,1.409 a 3.205,3.205 0 0 1 2.447,1.81 h 0.034 a 3.755,3.755 0 1 1 0,7.51 H 7.245 A 3.755,3.755 0 0 1 3.49,12.61 3.73,3.73 0 0 1 5.635,9.224 3.758,3.758 0 0 1 9.39,5.635 Z"
  	 class="ColorScheme-Text" />
</svg>
