<svg xmlns="http://www.w3.org/2000/svg" viewBox="0 0 22 22" id="svg6">
  <defs id="defs3051">
    <style id="current-color-scheme">
      .ColorScheme-Text {
        color:#f9f9f9;
      }
      .ColorScheme-Highlight {
        color:#E0DFD8;
	  </style>
	</defs>
  <path style="fill:currentColor;fill-opacity:1;stroke:none" 
     d="m 10.92,2.735 c -0.493,0 -0.99,0.195 -1.359,0.563 L 7.993,4.871 7.849,5.015 3.295,9.646 a 1.942,1.942 0 0 0 0,2.717 l 6.347,6.348 a 1.943,1.943 0 0 0 2.717,0 l 6.346,-6.348 a 1.942,1.942 0 0 0 0,-2.717 L 12.279,3.298 A 1.931,1.931 0 0 0 10.92,2.735 Z m 0,1.123 c 0.205,0 0.41,0.079 0.565,0.234 l 6.348,6.349 a 0.797,0.797 0 0 1 0,1.129 l -6.348,6.348 a 0.797,0.797 0 0 1 -1.13,0 L 4.008,11.57 a 0.797,0.797 0 0 1 0,-1.13 l 3.984,-3.982 0.731,-0.73 2.176,2.177 v 5.499 a 1.024,1.055 0 0 0 -0.504,0.907 1.024,1.055 0 0 0 1.024,1.056 1.024,1.055 0 0 0 1.023,-1.056 1.024,1.055 0 0 0 -0.501,-0.906 V 8.946 l 1.733,1.733 a 1.024,1.055 0 0 0 -0.044,0.313 1.024,1.055 0 0 0 1.023,1.055 1.024,1.055 0 0 0 1.024,-1.055 1.024,1.055 0 0 0 -1.024,-1.055 1.024,1.055 0 0 0 -0.258,0.035 l -4.96,-4.959 0.92,-0.92 a 0.792,0.792 0 0 1 0.566,-0.235 z"
  	 class="ColorScheme-Text" />
</svg>
