<svg xmlns="http://www.w3.org/2000/svg" viewBox="0 0 22 22" id="svg6">
  <defs id="defs3051">
    <style id="current-color-scheme">
      .ColorScheme-Text {
        color:#f9f9f9;
      }
      .ColorScheme-Highlight {
        color:#E0DFD8;
	  </style>
	</defs>
  <path style="fill:currentColor;fill-opacity:1;stroke:none" 
     d="m 4.62,3.555 c -1.162,0 -2.129,0.967 -2.129,2.127 v 10.636 c 0,1.16 0.967,2.127 2.128,2.127 h 12.762 c 1.16,0 2.128,-0.967 2.128,-2.127 V 5.682 c 0,-1.16 -0.967,-2.127 -2.128,-2.127 h -3.19 z m 0,1.064 h 12.76 c 0.59,0 1.065,0.473 1.065,1.063 v 10.636 c 0,0.588 -0.475,1.063 -1.064,1.063 H 4.62 A 1.062,1.062 0 0 1 3.555,16.318 V 5.682 C 3.555,5.094 4.03,4.619 4.62,4.619 Z M 5.682,5.682 V 7.81 H 7.81 V 5.682 Z m 4.254,0 V 7.81 h 2.128 V 5.682 Z m 4.255,0 V 7.81 h 2.127 V 5.682 Z m -8.509,8.509 v 2.127 H 7.81 V 14.19 Z m 4.254,0 v 2.127 h 2.128 V 14.19 Z m 4.255,0 v 2.127 h 2.127 V 14.19 Z"
  	 class="ColorScheme-Text" />
</svg>
