<svg xmlns="http://www.w3.org/2000/svg" viewBox="0 0 22 22" id="svg6">
  <defs id="defs3051">
    <style id="current-color-scheme">
      .ColorScheme-Text {
        color:#f9f9f9;
      }
      .ColorScheme-Highlight {
        color:#E0DFD8;
	  </style>
	</defs>
  <path style="fill:currentColor;fill-opacity:1;stroke:none" 
     d="m 5.76,3.865 c -0.564,0 -1.08,0.3 -1.387,0.673 a 2.319,2.319 0 0 0 -0.5,1.264 l -1.02,10.193 c -0.074,0.73 0.364,1.33 0.822,1.653 a 2.676,2.676 0 0 0 1.57,0.487 c 0.615,0 1.146,-0.314 1.496,-0.66 0.348,-0.345 0.587,-0.732 0.808,-1.122 0.441,-0.782 0.819,-1.606 1.19,-2.077 0.287,-0.361 0.384,-0.42 0.645,-0.498 0.261,-0.075 0.771,-0.111 1.617,-0.111 0.845,0 1.355,0.036 1.616,0.111 0.26,0.077 0.358,0.137 0.645,0.498 0.371,0.47 0.749,1.296 1.19,2.077 0.221,0.39 0.461,0.777 0.81,1.122 0.35,0.344 0.88,0.66 1.494,0.66 a 2.676,2.676 0 0 0 1.57,-0.487 c 0.458,-0.323 0.896,-0.923 0.821,-1.653 L 18.13,5.802 A 2.319,2.319 0 0 0 17.629,4.538 1.844,1.844 0 0 0 16.243,3.867 h -1.566 c -0.85,0 -1.528,0.644 -1.738,0.948 -0.043,0.061 -0.026,0.04 -0.048,0.07 H 9.11 C 9.086,4.854 9.1,4.876 9.063,4.815 8.852,4.511 8.175,3.867 7.324,3.867 H 5.76 Z m 0,1.02 h 1.565 c 1.028,0 0.839,1.02 1.595,1.02 h 4.16 c 0.756,0 0.569,-1.02 1.596,-1.02 h 1.566 c 0.483,0 0.817,0.458 0.874,1.02 l 1.02,10.192 c 0.055,0.56 -0.654,1.02 -1.38,1.02 -1.18,0 -1.7,-2.213 -2.696,-3.474 -0.729,-0.92 -1.338,-0.994 -3.06,-0.994 -1.72,0 -2.331,0.075 -3.059,0.994 -0.997,1.26 -1.517,3.473 -2.696,3.473 -0.726,0 -1.435,-0.459 -1.38,-1.02 L 4.887,5.903 C 4.941,5.342 5.277,4.883 5.76,4.883 Z m 1.674,3.057 a 0.509,0.509 0 0 0 -0.51,0.51 v 0.51 H 6.416 a 0.509,0.509 0 0 0 -0.51,0.509 c 0,0.283 0.227,0.51 0.51,0.51 h 0.51 v 0.51 a 0.51,0.51 0 1 0 1.02,0 V 9.98 H 8.454 A 0.509,0.509 0 0 0 8.963,9.47 0.509,0.509 0 0 0 8.454,8.96 H 7.944 V 8.45 A 0.509,0.509 0 0 0 7.434,7.94 Z m 7.134,0 a 0.51,0.51 0 0 0 -0.13,0.017 0.51,0.51 0 0 0 -0.006,0.002 0.51,0.51 0 0 0 -0.001,0 A 0.51,0.51 0 0 0 14.396,7.974 0.51,0.51 0 0 0 14.374,7.98 0.51,0.51 0 0 0 14.37,7.983 0.51,0.51 0 0 0 14.337,7.999 0.51,0.51 0 0 0 14.264,8.044 0.51,0.51 0 0 0 14.245,8.057 0.51,0.51 0 0 0 14.225,8.076 0.51,0.51 0 0 0 14.207,8.092 0.51,0.51 0 0 0 14.192,8.11 0.51,0.51 0 0 0 14.174,8.13 0.51,0.51 0 0 0 14.16,8.147 0.51,0.51 0 0 0 14.148,8.163 0.51,0.51 0 0 0 14.14,8.177 0.51,0.51 0 0 0 14.097,8.259 0.51,0.51 0 0 0 14.089,8.281 0.51,0.51 0 0 0 14.077,8.316 0.51,0.51 0 0 0 14.075,8.322 0.51,0.51 0 0 0 14.07,8.35 a 0.51,0.51 0 0 0 -0.002,0.013 0.51,0.51 0 0 0 -0.008,0.09 0.51,0.51 0 0 0 0.002,0.035 0.51,0.51 0 0 0 0.013,0.093 0.51,0.51 0 0 0 0.002,0.009 0.51,0.51 0 0 0 0.013,0.033 0.51,0.51 0 0 0 0.007,0.023 0.51,0.51 0 0 0 0.002,0.006 0.51,0.51 0 0 0 0.016,0.03 0.51,0.51 0 0 0 0.045,0.075 0.51,0.51 0 0 0 0.013,0.018 0.51,0.51 0 0 0 0.019,0.019 0.51,0.51 0 0 0 0.016,0.018 0.51,0.51 0 0 0 0.018,0.016 0.51,0.51 0 0 0 0.02,0.018 0.51,0.51 0 0 0 0.018,0.013 0.51,0.51 0 0 0 0.015,0.013 0.51,0.51 0 0 0 0.014,0.008 0.51,0.51 0 0 0 0.082,0.044 0.51,0.51 0 0 0 0.022,0.008 0.51,0.51 0 0 0 0.036,0.013 0.51,0.51 0 0 0 0.007,0 0.51,0.51 0 0 0 0.026,0.007 0.51,0.51 0 0 0 0.014,0 0.51,0.51 0 0 0 0.088,0.01 0.51,0.51 0 0 0 0.086,-0.01 0.51,0.51 0 0 0 0.045,-0.008 0.51,0.51 0 0 0 0.004,0 0.51,0.51 0 0 1 0.003,0 0.51,0.51 0 0 0 0.034,-0.012 0.51,0.51 0 0 0 0.022,-0.008 0.51,0.51 0 0 0 0.037,-0.018 0.51,0.51 0 0 0 0.043,-0.026 0.51,0.51 0 0 0 0.031,-0.02 0.51,0.51 0 0 0 0.017,-0.013 0.51,0.51 0 0 0 0.021,-0.019 0.51,0.51 0 0 0 0.018,-0.016 0.51,0.51 0 0 0 0.016,-0.018 0.51,0.51 0 0 0 0.017,-0.02 0.51,0.51 0 0 0 0.014,-0.017 0.51,0.51 0 0 0 0.02,-0.03 0.51,0.51 0 0 0 0.027,-0.044 0.51,0.51 0 0 0 0.017,-0.038 0.51,0.51 0 0 0 0.008,-0.022 0.51,0.51 0 0 0 0.012,-0.033 0.51,0.51 0 0 1 0,-0.003 0.51,0.51 0 0 0 10e-4,-0.006 0.51,0.51 0 0 0 0.008,-0.04 A 0.51,0.51 0 0 0 15.076,8.488 0.51,0.51 0 0 0 15.077,8.452 0.51,0.51 0 0 0 15.076,8.416 0.51,0.51 0 0 0 15.069,8.363 0.51,0.51 0 0 0 15.068,8.35 0.51,0.51 0 0 0 15.06,8.317 0.51,0.51 0 0 1 15.06,8.314 0.51,0.51 0 0 0 15.047,8.281 0.51,0.51 0 0 0 15.044,8.268 0.51,0.51 0 0 0 15.037,8.255 0.51,0.51 0 0 0 14.997,8.178 0.51,0.51 0 0 0 14.988,8.165 0.51,0.51 0 0 0 14.968,8.135 0.51,0.51 0 0 0 14.959,8.124 0.51,0.51 0 0 0 14.936,8.097 0.51,0.51 0 0 0 14.924,8.087 0.51,0.51 0 0 0 14.897,8.063 0.51,0.51 0 0 0 14.887,8.052 0.51,0.51 0 0 0 14.86,8.031 0.51,0.51 0 0 0 14.8,7.998 0.51,0.51 0 0 0 14.769,7.983 0.51,0.51 0 0 0 14.755,7.976 0.51,0.51 0 0 0 14.721,7.963 0.51,0.51 0 0 0 14.705,7.961 0.51,0.51 0 0 0 14.672,7.953 0.51,0.51 0 0 0 14.606,7.945 0.51,0.51 0 0 0 14.57,7.942 Z m -1.02,1.02 a 0.51,0.51 0 0 0 -0.128,0.016 0.51,0.51 0 0 0 -0.007,10e-4 0.51,0.51 0 0 0 -10e-4,0 0.51,0.51 0 0 0 -0.035,0.014 0.51,0.51 0 0 0 -0.02,0.006 0.51,0.51 0 0 0 -0.009,0.003 0.51,0.51 0 0 0 -0.03,0.016 0.51,0.51 0 0 0 -0.075,0.046 0.51,0.51 0 0 0 -0.018,0.013 0.51,0.51 0 0 0 -0.02,0.019 0.51,0.51 0 0 0 -0.017,0.015 0.51,0.51 0 0 0 -0.016,0.018 0.51,0.51 0 0 0 -0.017,0.02 0.51,0.51 0 0 0 -0.014,0.017 0.51,0.51 0 0 0 -0.013,0.017 0.51,0.51 0 0 0 -0.008,0.014 0.51,0.51 0 0 0 -0.043,0.082 0.51,0.51 0 0 0 -0.008,0.021 0.51,0.51 0 0 0 -0.014,0.034 0.51,0.51 0 0 0 0,0.002 0.51,0.51 0 0 0 0,0.006 0.51,0.51 0 0 0 -0.006,0.027 0.51,0.51 0 0 0 -0.002,0.014 0.51,0.51 0 0 0 -0.009,0.09 0.51,0.51 0 0 0 0.003,0.034 0.51,0.51 0 0 0 0.013,0.094 0.51,0.51 0 0 0 0.003,0.008 0.51,0.51 0 0 0 0.013,0.033 0.51,0.51 0 0 0 0.006,0.022 0.51,0.51 0 0 0 0.003,0.007 0.51,0.51 0 0 0 0.016,0.032 0.51,0.51 0 0 0 0.045,0.073 0.51,0.51 0 0 0 0.013,0.018 0.51,0.51 0 0 0 0.019,0.02 0.51,0.51 0 0 0 0.016,0.017 0.51,0.51 0 0 0 0.018,0.016 0.51,0.51 0 0 0 0.02,0.019 0.51,0.51 0 0 0 0.019,0.013 0.51,0.51 0 0 0 0.014,0.013 0.51,0.51 0 0 0 0.013,0.007 0.51,0.51 0 0 0 0.082,0.044 0.51,0.51 0 0 0 0.023,0.008 0.51,0.51 0 0 0 0.036,0.013 0.51,0.51 0 0 0 0.006,10e-4 0.51,0.51 0 0 0 0.027,0.005 0.51,0.51 0 0 0 0.014,0.003 0.51,0.51 0 0 0 0.088,0.008 0.51,0.51 0 0 0 0.086,-0.008 0.51,0.51 0 0 0 0.045,-0.01 0.51,0.51 0 0 0 0.004,0 0.51,0.51 0 0 1 0.003,0 0.51,0.51 0 0 0 0.047,-0.016 0.51,0.51 0 0 0 0.014,-0.006 0.51,0.51 0 0 0 0.033,-0.016 0.51,0.51 0 0 0 0.042,-0.026 0.51,0.51 0 0 0 0.03,-0.02 A 0.51,0.51 0 0 0 13.87,9.866 0.51,0.51 0 0 0 13.902,9.838 0.51,0.51 0 0 0 13.908,9.831 0.51,0.51 0 0 0 13.924,9.814 0.51,0.51 0 0 0 13.948,9.788 0.51,0.51 0 0 0 13.956,9.776 0.51,0.51 0 0 0 13.968,9.76 0.51,0.51 0 0 0 14.001,9.703 0.51,0.51 0 0 0 14.017,9.671 0.51,0.51 0 0 0 14.024,9.658 0.51,0.51 0 0 0 14.028,9.643 0.51,0.51 0 0 0 14.038,9.606 0.51,0.51 0 0 0 14.041,9.601 0.51,0.51 0 0 0 14.054,9.508 0.51,0.51 0 0 0 14.057,9.471 0.51,0.51 0 0 0 14.055,9.435 0.51,0.51 0 0 0 14.049,9.383 0.51,0.51 0 0 0 14.047,9.37 0.51,0.51 0 0 0 14.039,9.336 0.51,0.51 0 0 1 14.039,9.334 0.51,0.51 0 0 0 14.035,9.321 0.51,0.51 0 0 0 14.023,9.287 0.51,0.51 0 0 0 14.019,9.279 0.51,0.51 0 0 0 13.976,9.197 0.51,0.51 0 0 0 13.968,9.183 0.51,0.51 0 0 0 13.941,9.149 0.51,0.51 0 0 0 13.924,9.129 0.51,0.51 0 0 0 13.903,9.105 0.51,0.51 0 0 0 13.891,9.095 0.51,0.51 0 0 0 13.864,9.071 0.51,0.51 0 0 0 13.854,9.064 0.51,0.51 0 0 0 13.824,9.043 0.51,0.51 0 0 0 13.779,9.017 0.51,0.51 0 0 0 13.741,8.999 0.51,0.51 0 0 0 13.72,8.991 0.51,0.51 0 0 0 13.684,8.978 0.51,0.51 0 0 0 13.65,8.973 0.51,0.51 0 0 0 13.636,8.971 0.51,0.51 0 0 0 13.583,8.965 0.51,0.51 0 0 0 13.549,8.964 Z m 2.04,0 a 0.51,0.51 0 0 0 -0.13,0.016 0.51,0.51 0 0 0 -0.007,10e-4 0.51,0.51 0 0 0 -0.035,0.014 0.51,0.51 0 0 0 -0.022,0.006 0.51,0.51 0 0 0 -0.111,0.065 0.51,0.51 0 0 0 -0.019,0.013 0.51,0.51 0 0 0 -0.018,0.019 0.51,0.51 0 0 0 -0.019,0.015 0.51,0.51 0 0 0 -0.016,0.018 0.51,0.51 0 0 0 -0.017,0.02 0.51,0.51 0 0 0 -0.013,0.017 0.51,0.51 0 0 0 -0.014,0.017 0.51,0.51 0 0 0 -0.008,0.014 0.51,0.51 0 0 0 -0.043,0.082 0.51,0.51 0 0 0 -0.008,0.022 0.51,0.51 0 0 0 -0.012,0.033 0.51,0.51 0 0 0 0,0.002 0.51,0.51 0 0 0 -0.002,0.006 0.51,0.51 0 0 0 -0.006,0.027 0.51,0.51 0 0 0 -0.002,0.014 0.51,0.51 0 0 0 -0.008,0.09 0.51,0.51 0 0 0 0.016,0.128 0.51,0.51 0 0 0 0.003,0.008 0.51,0.51 0 0 0 0.01,0.034 0.51,0.51 0 0 0 0.008,0.021 0.51,0.51 0 0 0 0.064,0.112 0.51,0.51 0 0 0 0.013,0.018 0.51,0.51 0 0 0 0.019,0.02 0.51,0.51 0 0 0 0.016,0.019 0.51,0.51 0 0 0 0.018,0.014 0.51,0.51 0 0 0 0.02,0.019 0.51,0.51 0 0 0 0.017,0.013 0.51,0.51 0 0 0 0.016,0.013 0.51,0.51 0 0 0 0.014,0.007 0.51,0.51 0 0 0 0.082,0.045 0.51,0.51 0 0 0 0.022,0.008 0.51,0.51 0 0 0 0.036,0.012 0.51,0.51 0 0 0 0.007,10e-4 0.51,0.51 0 0 0 0.026,0.007 0.51,0.51 0 0 0 0.013,0 0.51,0.51 0 0 0 0.09,0.009 0.51,0.51 0 0 0 0.085,-0.008 0.51,0.51 0 0 0 0.045,-0.01 0.51,0.51 0 0 0 0.004,0 0.51,0.51 0 0 1 0.002,0 0.51,0.51 0 0 0 0.034,-0.012 0.51,0.51 0 0 0 0.023,-0.008 0.51,0.51 0 0 0 0.037,-0.018 0.51,0.51 0 0 0 0.043,-0.026 0.51,0.51 0 0 0 0.03,-0.02 0.51,0.51 0 0 0 0.018,-0.013 0.51,0.51 0 0 0 0.02,-0.019 A 0.51,0.51 0 0 0 15.948,9.831 0.51,0.51 0 0 0 15.963,9.814 0.51,0.51 0 0 0 15.981,9.793 0.51,0.51 0 0 0 15.994,9.776 0.51,0.51 0 0 0 16.007,9.76 0.51,0.51 0 0 0 16.04,9.703 0.51,0.51 0 0 0 16.056,9.67 0.51,0.51 0 0 0 16.063,9.656 0.51,0.51 0 0 0 16.075,9.623 0.51,0.51 0 0 0 16.079,9.606 0.51,0.51 0 0 0 16.088,9.558 0.51,0.51 0 0 0 16.093,9.507 0.51,0.51 0 0 0 16.096,9.471 0.51,0.51 0 0 0 16.093,9.435 0.51,0.51 0 0 0 16.088,9.383 0.51,0.51 0 0 0 16.08,9.341 0.51,0.51 0 0 0 16.077,9.336 0.51,0.51 0 0 1 16.077,9.334 0.51,0.51 0 0 0 16.073,9.321 0.51,0.51 0 0 0 16.061,9.287 0.51,0.51 0 0 0 16.056,9.274 0.51,0.51 0 0 0 16.014,9.197 0.51,0.51 0 0 0 16.006,9.183 0.51,0.51 0 0 0 15.981,9.149 0.51,0.51 0 0 0 15.962,9.129 0.51,0.51 0 0 0 15.946,9.111 0.51,0.51 0 0 0 15.929,9.095 0.51,0.51 0 0 0 15.909,9.077 0.51,0.51 0 0 0 15.891,9.064 0.51,0.51 0 0 0 15.861,9.043 0.51,0.51 0 0 0 15.786,9.002 0.51,0.51 0 0 0 15.779,8.999 0.51,0.51 0 0 0 15.759,8.991 0.51,0.51 0 0 0 15.722,8.978 a 0.51,0.51 0 0 0 -0.006,0 0.51,0.51 0 0 0 -0.041,-0.01 0.51,0.51 0 0 0 -0.053,-0.005 0.51,0.51 0 0 0 -0.035,-0.002 z m -5.098,1.02 a 0.509,0.509 0 0 0 -0.508,0.51 C 9.982,10.773 10.21,11 10.49,11 h 1.02 a 0.507,0.507 0 0 0 0.51,-0.509 0.509,0.509 0 0 0 -0.51,-0.51 z m 4.078,0 a 0.51,0.51 0 0 0 -0.037,0 0.51,0.51 0 0 0 -0.051,0.007 0.51,0.51 0 0 0 -0.041,0.008 0.51,0.51 0 0 0 -0.006,10e-4 0.51,0.51 0 0 0 -0.035,0.014 0.51,0.51 0 0 0 -0.023,0.008 0.51,0.51 0 0 0 -0.005,0.001 0.51,0.51 0 0 0 -0.032,0.016 0.51,0.51 0 0 0 -0.044,0.026 0.51,0.51 0 0 0 -0.03,0.02 0.51,0.51 0 0 0 -0.019,0.014 0.51,0.51 0 0 0 -0.02,0.017 0.51,0.51 0 0 0 -0.017,0.017 0.51,0.51 0 0 0 -0.016,0.017 0.51,0.51 0 0 0 -0.018,0.02 0.51,0.51 0 0 0 -0.013,0.019 0.51,0.51 0 0 0 -0.012,0.016 0.51,0.51 0 0 0 -0.008,0.013 0.51,0.51 0 0 0 -0.027,0.044 0.51,0.51 0 0 0 -0.017,0.038 0.51,0.51 0 0 0 -0.008,0.021 0.51,0.51 0 0 0 -0.012,0.035 0.51,0.51 0 0 0 0,0.008 0.51,0.51 0 0 0 -0.008,0.026 0.51,0.51 0 0 0 0,0.015 0.51,0.51 0 0 0 -0.007,0.053 0.51,0.51 0 0 0 0,0.035 0.51,0.51 0 0 0 0,0.036 0.51,0.51 0 0 0 0.006,0.052 0.51,0.51 0 0 0 0.008,0.042 0.51,0.51 0 0 0 0.002,0.007 0.51,0.51 0 0 0 0.01,0.034 0.51,0.51 0 0 0 0.009,0.022 0.51,0.51 0 0 0 0.002,0.006 0.51,0.51 0 0 0 0.016,0.032 0.51,0.51 0 0 0 0.027,0.044 0.51,0.51 0 0 0 0.02,0.029 0.51,0.51 0 0 0 0.013,0.018 0.51,0.51 0 0 0 0.017,0.02 0.51,0.51 0 0 0 0.017,0.017 0.51,0.51 0 0 0 0.018,0.018 0.51,0.51 0 0 0 0.02,0.017 0.51,0.51 0 0 0 0.018,0.013 0.51,0.51 0 0 0 0.015,0.013 0.51,0.51 0 0 0 0.013,0.008 0.51,0.51 0 0 0 0.045,0.027 0.51,0.51 0 0 0 0.038,0.017 0.51,0.51 0 0 0 0.008,0.004 0.51,0.51 0 0 0 0.05,0.016 0.51,0.51 0 0 0 0.006,10e-4 0.51,0.51 0 0 0 0.026,0.007 0.51,0.51 0 0 0 0.015,0.001 0.51,0.51 0 0 0 0.052,0.007 0.51,0.51 0 0 0 0.035,10e-4 0.51,0.51 0 0 0 0.036,0 0.51,0.51 0 0 0 0.05,-0.006 0.51,0.51 0 0 0 0.017,-0.002 0.51,0.51 0 0 0 0.033,-0.008 0.51,0.51 0 0 0 0.017,-0.004 0.51,0.51 0 0 0 0.033,-0.013 0.51,0.51 0 0 0 0.013,-0.005 0.51,0.51 0 0 0 0.033,-0.016 0.51,0.51 0 0 0 0.043,-0.026 0.51,0.51 0 0 0 0.013,-0.007 0.51,0.51 0 0 0 0.03,-0.021 0.51,0.51 0 0 0 0.011,-0.01 0.51,0.51 0 0 0 0.027,-0.023 0.51,0.51 0 0 0 0.01,-0.014 0.51,0.51 0 0 0 0.024,-0.025 0.51,0.51 0 0 0 0.01,-0.01 0.51,0.51 0 0 0 0.02,-0.028 0.51,0.51 0 0 0 0.008,-0.013 0.51,0.51 0 0 0 0.027,-0.045 0.51,0.51 0 0 0 0.013,-0.032 0.51,0.51 0 0 0 0.008,-0.013 0.51,0.51 0 0 0 0.016,-0.048 0.51,0.51 0 0 0 0,-0.003 0.51,0.51 0 0 0 0.007,-0.034 0.51,0.51 0 0 0 0.004,-0.013 0.51,0.51 0 0 0 0.004,-0.053 0.51,0.51 0 0 0 0.002,-0.035 0.51,0.51 0 0 0 -0.002,-0.037 0.51,0.51 0 0 0 -0.004,-0.052 0.51,0.51 0 0 0 -0.008,-0.04 A 0.51,0.51 0 0 0 15.06,10.355 0.51,0.51 0 0 0 15.048,10.321 0.51,0.51 0 0 0 15.04,10.3 0.51,0.51 0 0 0 15.023,10.261 0.51,0.51 0 0 0 14.996,10.218 0.51,0.51 0 0 0 14.976,10.188 0.51,0.51 0 0 0 14.963,10.17 0.51,0.51 0 0 0 14.945,10.15 0.51,0.51 0 0 0 14.922,10.126 0.51,0.51 0 0 0 14.912,10.116 0.51,0.51 0 0 0 14.89,10.098 0.51,0.51 0 0 0 14.873,10.085 0.51,0.51 0 0 0 14.843,10.064 0.51,0.51 0 0 0 14.8,10.037 0.51,0.51 0 0 0 14.762,10.022 0.51,0.51 0 0 0 14.741,10.012 0.51,0.51 0 0 0 14.704,10 a 0.51,0.51 0 0 0 -0.006,0 0.51,0.51 0 0 0 -0.04,-0.009 0.51,0.51 0 0 0 -0.054,-0.007 0.51,0.51 0 0 0 -0.035,0 z"
  	 class="ColorScheme-Text" />
</svg>
