<svg xmlns="http://www.w3.org/2000/svg" viewBox="0 0 22 22" id="svg6">
  <defs id="defs3051">
    <style id="current-color-scheme">
      .ColorScheme-Text {
        color:#f9f9f9;
      }
      .ColorScheme-Highlight {
        color:#E0DFD8;
	  </style>
	</defs>
  <path style="fill:currentColor;fill-opacity:1;stroke:none" 
     d="M 11,2.631 A 8.38,8.38 0 0 0 2.631,11 8.38,8.38 0 0 0 11,19.369 8.38,8.38 0 0 0 19.369,11 8.38,8.38 0 0 0 11,2.631 Z m 0,0.837 A 7.5315,7.5315 0 1 1 11,18.531 7.5315,7.5315 0 0 1 11,3.468 Z M 6.816,7.653 v 6.694 H 8.49 v -4.054 l 1.91,1.91 0.601,0.575 0.6,-0.576 1.911,-1.909 v 4.054 h 1.673 V 7.653 H 13.747 L 11,10.398 8.254,7.652 Z"
  	 class="ColorScheme-Text" />
</svg>
