<svg xmlns="http://www.w3.org/2000/svg" viewBox="0 0 22 22" id="svg6">
  <defs id="defs3051">
    <style id="current-color-scheme">
      .ColorScheme-Text {
        color:#f9f9f9;
      }
      .ColorScheme-Highlight {
        color:#E0DFD8;
	  </style>
	</defs>
  <path style="fill:currentColor;fill-opacity:1;stroke:none" 
     d="m 11,2.602 -9.168,9.167 h 1.54 L 11,4.142 18.628,11.77 h 1.54 z M 5.551,11.77 4.463,12.86 v 6.538 h 3.813 c 0.908,0 1.588,-0.592 1.86,-0.865 0.272,-0.272 0.138,-0.225 0.32,-0.225 h 1.089 c 0.181,0 0.047,-0.047 0.32,0.225 0.272,0.273 0.951,0.865 1.86,0.865 h 3.812 V 12.86 l -1.088,-1.09 v 6.538 h -2.725 c -1.09,0 -1.09,-1.09 -2.18,-1.09 h -1.089 c -1.09,0 -1.09,1.09 -2.18,1.09 H 5.552 Z"
  	 class="ColorScheme-Text" />
</svg>
