<svg xmlns="http://www.w3.org/2000/svg" viewBox="0 0 22 22" id="svg6">
  <defs id="defs3051">
    <style id="current-color-scheme">
      .ColorScheme-Text {
        color:#f9f9f9;
      }
      .ColorScheme-Highlight {
        color:#E0DFD8;
	  </style>
	</defs>
  <path style="fill:currentColor;fill-opacity:1;stroke:none" 
     d="m 17.415,4.05 c 1.166,0 2.138,0.973 2.138,2.138 v 8.553 a 2.158,2.158 0 0 1 -2.138,2.138 h -1.07 v -1.07 h 1.07 c 0.591,0 1.069,-0.475 1.069,-1.068 V 9.394 H 3.516 v 5.346 c 0,0.593 0.478,1.069 1.07,1.069 h 1.07 v 1.069 H 4.584 A 2.158,2.158 0 0 1 2.446,14.74 V 6.188 C 2.446,5.023 3.418,4.05 4.584,4.05 Z m 0,1.07 H 4.585 A 1.066,1.066 0 0 0 3.516,6.188 V 8.326 H 18.484 V 6.188 a 1.066,1.066 0 0 0 -1.07,-1.07 z m -2.14,6.413 v 5.881 a 0.522,0.522 0 0 1 -0.534,0.535 H 7.259 A 0.522,0.522 0 0 1 6.724,17.414 v -5.88 z"
  	 class="ColorScheme-Text" />
</svg>
