<svg xmlns="http://www.w3.org/2000/svg" viewBox="0 0 22 22" id="svg6">
  <defs id="defs3051">
    <style id="current-color-scheme">
      .ColorScheme-Text {
        color:#f9f9f9;
      }
      .ColorScheme-Highlight {
        color:#E0DFD8;
	  </style>
	</defs>
  <path style="fill:currentColor;fill-opacity:1;stroke:none" 
     d="M 6.122,2.71 C 4.92,4.804 3.2,9.057 3.83,11.414 a 5.014,5.014 0 0 0 2.111,2.92 c 0.958,0.638 2.327,0.959 3.873,1.202 0.362,0.058 1.04,0.044 1.04,2.053 0,0.36 -0.026,0.58 -1.04,0.58 -2.597,0 -2.969,0.451 -2.969,1.121 h 8.312 c 0,-0.67 -0.373,-1.12 -2.969,-1.12 -1.014,0 -1.04,-0.222 -1.04,-0.58 0,-2.01 0.678,-1.996 1.04,-2.054 1.546,-0.243 2.913,-0.564 3.873,-1.203 a 5.014,5.014 0 0 0 2.111,-2.92 C 18.802,9.057 17.082,4.804 15.879,2.71 l -0.554,0.025 c 1.648,3.41 2.301,6.57 1.806,8.423 -0.247,0.928 -0.857,1.605 -1.73,2.188 -0.872,0.581 -2.136,1.002 -3.866,1.177 l -0.534,0.053 -0.534,-0.053 C 8.737,14.346 7.473,13.927 6.6,13.346 5.727,12.763 5.118,12.086 4.87,11.158 4.376,9.305 5.03,6.146 6.675,2.735 Z m 4.985,0.83 a 0.3245,0.3245 0 1 0 0,0.649 0.3245,0.3245 0 0 0 0,-0.649 z M 9.321,3.58 c -0.187,0 -0.393,0.018 -0.606,0.075 -1.19,0.319 -1.803,1.753 -2.04,2.326 -1.937,4.705 -0.034,7.352 4.192,7.352 5,0 5.788,-3.183 4.74,-6.554 C 14.184,5.355 9.558,9.7 8.139,7.239 7.646,6.387 8.277,4.931 9.432,4.931 c 1.718,0 1.2,-1.329 -0.111,-1.351 z m 2.138,0.9 a 0.637,0.637 0 1 0 0.68,0.637 0.635,0.635 0 0 0 -0.68,-0.637 z"
     class="ColorScheme-Text" />
</svg>
