<svg xmlns="http://www.w3.org/2000/svg" viewBox="0 0 22 22" id="svg6">
  <defs id="defs3051">
    <style id="current-color-scheme">
      .ColorScheme-Text {
        color:#f9f9f9;
      }
      .ColorScheme-Highlight {
        color:#E0DFD8;
	  </style>
	</defs>
  <path style="fill:currentColor;fill-opacity:1;stroke:none" 
     d="M 8.643,3.54 6.766,5.417 H 3.484 c 0,0 -1.407,0 -1.407,1.406 v 7.974 h 3.771 v 3.663 h 12.666 c 0,0 1.406,0 1.406,-1.407 l 0.003,-8.472 c 0,-1.408 -1.409,-1.38 -1.409,-1.38 H 16.152 V 4.92 c 0,-1.407 -1.41,-1.38 -1.41,-1.38 z M 9.176,4.3 h 4.846 c 0,0 1.186,-0.025 1.186,1.122 V 7.204 H 12.414 L 10.539,9.078 H 7.254 c 0,0 -1.407,0 -1.407,1.408 v 3.455 H 2.986 L 2.982,7.438 C 2.982,6.29 4.206,6.29 4.206,6.29 H 7.057 L 7.55,5.829 Z m 3.773,3.662 h 4.846 c 0,0 1.185,-0.026 1.185,1.123 v 7.37 c 0,1.148 -1.221,1.148 -1.221,1.148 H 6.756 L 6.754,11.099 c 0,-1.147 1.224,-1.147 1.224,-1.147 h 2.85 l 0.493,-0.461 z"
  	 class="ColorScheme-Text" />
</svg>
