<svg xmlns="http://www.w3.org/2000/svg" viewBox="0 0 22 22" id="svg6">
  <defs id="defs3051">
    <style id="current-color-scheme">
      .ColorScheme-Text {
        color:#f9f9f9;
      }
      .ColorScheme-Highlight {
        color:#E0DFD8;
	  </style>
	</defs>
  <path style="fill:#ff0400;fill-opacity:1;stroke:none" 
     d="m 4.494,2.868 c 0,0 -1.628,-0.033 -1.628,1.593 l 0.076,5.257 c 1.74,-0.99 3.606,-0.59 5.452,-0.419 l 2.4,-2.738 7.254,0.382 1.048,0.833 0.037,-1.113 C 19.188,5.037 17.507,5.037 17.507,5.037 H 11.542 L 9.374,2.868 Z"
  	 class="ColorScheme-Highlight" />
  <path style="fill:currentColor;fill-opacity:1;stroke:none" 
     d="M 10.456,6.12 8.29,8.29 H 4.493 c 0,0 -1.626,0 -1.626,1.626 v 9.216 h 14.639 c 0,0 1.625,0 1.625,-1.626 l 0.003,-9.793 c 0,-1.625 -1.628,-1.59 -1.628,-1.59 z M 11.074,7 h 5.601 c 0,0 1.37,-0.03 1.37,1.297 v 8.52 c 0,1.326 -1.41,1.326 -1.41,1.326 H 3.917 L 3.914,10.625 C 3.915,9.3 5.328,9.3 5.328,9.3 h 3.298 l 0.57,-0.533 z"
  	 class="ColorScheme-Text" />
</svg>
