<svg xmlns="http://www.w3.org/2000/svg" viewBox="0 0 22 22" id="svg6">
  <defs id="defs3051">
    <style id="current-color-scheme">
      .ColorScheme-Text {
        color:#f9f9f9;
      }
      .ColorScheme-Highlight {
        color:#E0DFD8;
	  </style>
	</defs>
  <path style="fill:currentColor;fill-opacity:1;stroke:none" 
     d="M 9.707,3.25 V 6.034 A 5.122,5.122 0 0 0 8.417,6.56 L 6.438,4.622 4.622,6.438 6.56,8.417 A 5.122,5.122 0 0 0 6.034,9.707 H 3.25 v 2.586 h 2.784 c 0.12,0.458 0.293,0.89 0.526,1.29 l -1.938,1.979 1.816,1.816 1.979,-1.938 a 5.122,5.122 0 0 0 1.29,0.526 v 2.784 h 2.586 v -2.784 a 5.122,5.122 0 0 0 1.29,-0.526 l 1.979,1.938 1.816,-1.816 -1.938,-1.979 a 5.122,5.122 0 0 0 0.526,-1.29 H 18.75 V 9.705 H 15.966 A 5.122,5.122 0 0 0 15.44,8.415 L 17.378,6.437 15.562,4.62 13.583,6.558 A 5.122,5.122 0 0 0 12.293,6.033 V 3.249 Z m 1.292,4.372 a 3.378,3.378 0 1 1 0,6.755 3.378,3.378 0 0 1 0,-6.755 z"
  	 class="ColorScheme-Text" />
</svg>
