<svg xmlns="http://www.w3.org/2000/svg" viewBox="0 0 22 22" id="svg6">
  <defs id="defs3051">
    <style id="current-color-scheme">
      .ColorScheme-Text {
        color:#f9f9f9;
      }
      .ColorScheme-Highlight {
        color:#E0DFD8;
	  </style>
	</defs>
  <path style="fill:currentColor;fill-opacity:1;stroke:none" 
     d="M 5.748,3.36 A 1.44,1.44 0 0 0 4.315,4.793 v 12.414 a 1.44,1.44 0 0 0 1.433,1.433 h 6.207 v -0.008 a 0.927,0.927 0 0 0 0.676,-0.271 l 4.775,-4.776 a 0.955,0.955 0 0 0 -0.676,-1.63 h -4.775 a 0.954,0.954 0 0 0 -0.954,0.955 v 3.82 h 0.954 v -3.82 h 4.776 l -4.776,4.775 H 5.748 A 0.466,0.466 0 0 1 5.271,17.207 V 4.793 c 0,-0.273 0.204,-0.478 0.477,-0.478 h 10.505 c 0.272,0 0.457,0.206 0.478,0.478 V 11 h 0.954 V 4.793 A 1.44,1.44 0 0 0 16.253,3.36 Z m 1.91,2.865 c -0.646,-0.008 -0.646,0.964 0,0.955 h 2.865 c 0.646,0.01 0.646,-0.964 0,-0.955 z m 0,1.91 c -0.646,-0.01 -0.646,0.964 0,0.955 h 2.865 c 0.646,0.01 0.646,-0.964 0,-0.955 z"
  	 class="ColorScheme-Text" />
</svg>
