<svg xmlns="http://www.w3.org/2000/svg" viewBox="0 0 22 22" id="svg6">
  <defs id="defs3051">
    <style id="current-color-scheme">
      .ColorScheme-Text {
        color:#f9f9f9;
      }
      .ColorScheme-Highlight {
        color:#E0DFD8;
	  </style>
	</defs>
  <path style="fill:currentColor;fill-opacity:1;stroke:none" 
     d="m 9.99,3.538 v 0.76 h 2.179 v -0.76 z m 4.235,0 v 0.807 c 0.277,0.022 0.984,0.125 0.984,1.078 V 5.481 H 16.15 V 4.917 C 16.15,3.51 14.743,3.538 14.743,3.538 Z M 7.931,4.252 6.77,5.417 H 5.757 V 6.291 H 7.059 L 7.551,5.83 7.931,5.473 Z M 3.483,5.417 c 0,0 -1.407,0 -1.407,1.408 V 7.202 H 3.129 C 3.083,6.712 3.217,6.445 3.776,6.39 V 5.417 Z M 12.415,7.202 10.54,9.08 H 7.257 c 0,0 -1.407,0 -1.407,1.408 v 3.454 H 5.757 v 0.857 H 5.85 v 3.663 h 12.664 c 0,0 1.407,0 1.407,-1.408 l 0.003,-8.473 c 0,-1.407 -1.41,-1.379 -1.41,-1.379 h -5.315 z m 0.534,0.76 h 4.846 c 0,0 1.186,-0.025 1.186,1.122 v 7.372 c 0,1.147 -1.222,1.149 -1.222,1.149 h -11 L 6.757,11.102 c 0,-1.147 1.225,-1.147 1.225,-1.147 h 2.85 L 11.324,9.494 Z M 2.076,9.043 v 1.938 H 2.985 V 9.042 Z m 0,3.72 V 14.8 h 1.7 V 13.942 H 2.983 v -1.178 z"
  	 class="ColorScheme-Text" />
</svg>
