<svg xmlns="http://www.w3.org/2000/svg" viewBox="0 0 22 22" id="svg6">
  <defs id="defs3051">
    <style id="current-color-scheme">
      .ColorScheme-Text {
        color:#f9f9f9;
      }
      .ColorScheme-Highlight {
        color:#E0DFD8;
	  </style>
	</defs>
  <path style="fill:currentColor;fill-opacity:1;stroke:none" 
     d="M 16.1,2.5 A 2.832,2.832 0 0 0 13.266,5.334 2.832,2.832 0 0 0 16.1,8.166 2.832,2.832 0 0 0 18.934,5.334 2.832,2.832 0 0 0 16.1,2.5 Z m 0,0.905 A 1.934,1.934 0 0 1 18.035,5.338 1.934,1.934 0 0 1 16.1,7.273 1.934,1.934 0 0 1 14.167,5.338 1.934,1.934 0 0 1 16.1,3.405 Z M 12.373,6.822 A 0.594,0.594 0 0 0 12.138,6.899 L 9.25,8.481 C 8.594,8.828 9.133,9.807 9.777,9.443 L 12.665,7.862 C 13.239,7.559 12.9,6.771 12.373,6.823 Z M 5.9,8.166 A 2.832,2.832 0 0 0 3.066,11 2.832,2.832 0 0 0 5.9,13.832 2.832,2.832 0 0 0 8.732,11 2.832,2.832 0 0 0 5.9,8.166 Z m 0,0.905 A 1.934,1.934 0 0 1 7.832,11.004 1.934,1.934 0 0 1 5.9,12.939 1.934,1.934 0 0 1 3.967,11.004 1.934,1.934 0 0 1 5.9,9.07 Z m 3.644,3.407 C 9.017,12.425 8.679,13.214 9.253,13.518 L 12.14,15.1 c 0.646,0.363 1.182,-0.615 0.527,-0.963 L 9.78,12.557 A 0.598,0.598 0 0 0 9.544,12.479 Z m 6.558,1.356 A 2.832,2.832 0 0 0 13.269,16.668 2.832,2.832 0 0 0 16.1,19.5 2.832,2.832 0 0 0 18.934,16.668 2.832,2.832 0 0 0 16.1,13.834 Z m 0,0.905 a 1.934,1.934 0 0 1 1.933,1.932 1.934,1.934 0 0 1 -1.934,1.936 1.934,1.934 0 0 1 -1.933,-1.936 1.934,1.934 0 0 1 1.932,-1.931 z"
  	 class="ColorScheme-Text" />
</svg>
