<svg xmlns="http://www.w3.org/2000/svg" viewBox="0 0 22 22" id="svg6">
  <defs id="defs3051">
    <style id="current-color-scheme">
      .ColorScheme-Text {
        color:#f9f9f9;
      }
      .ColorScheme-Highlight {
        color:#E0DFD8;
	  </style>
	</defs>
  <path style="fill:currentColor;fill-opacity:1;stroke:none" 
     d="M 13.66,3.068 A 5.604,5.604 0 0 0 9.194,5.154 c -1.673,2.076 -1.61,5.014 0.043,7.04 l -0.405,0.404 -1.533,1.535 -4.451,4.45 c 0.401,0.402 1.073,0.533 1.6,-0.018 L 7.255,15.76 a 0.56,0.56 0 0 0 0.033,-0.033 l 3.024,-3.028 0.008,-0.004 a 0.56,0.56 0 0 0 0.232,-0.53 L 10.55,12.15 a 0.557,0.557 0 0 0 -0.023,-0.094 0.558,0.558 0 0 0 -0.169,-0.255 4.472,4.472 0 0 1 -0.297,-5.943 4.476,4.476 0 0 1 5.913,-0.961 4.475,4.475 0 0 1 1.589,5.773 4.473,4.473 0 0 1 -5.57,2.196 c -0.708,-0.278 -1.11,0.796 -0.393,1.05 A 5.61,5.61 0 0 0 18.563,11.17 5.605,5.605 0 0 0 16.58,3.955 5.576,5.576 0 0 0 13.66,3.07 Z"
  	 class="ColorScheme-Text" />
</svg>
