<svg xmlns="http://www.w3.org/2000/svg" viewBox="0 0 22 22" id="svg6">
  <defs id="defs3051">
    <style id="current-color-scheme">
      .ColorScheme-Text {
        color:#f9f9f9;
      }
      .ColorScheme-Highlight {
        color:#E0DFD8;
	  </style>
	</defs>
  <path style="fill:currentColor;fill-opacity:1;stroke:none" 
     d="M 5.435,2.935 A 1.075,1.075 0 0 0 4.561,4.011 v 8.602 a 1.075,1.075 0 0 0 1.076,1.076 H 9.23 a 0.54402413,0.54402413 0 1 0 0.168,1.075 h 3.226 a 0.54,0.54 0 1 0 0.1,-1.075 h 3.696 a 1.075,1.075 0 0 0 1.077,-1.076 V 4.011 A 1.075,1.075 0 0 0 16.42,2.935 H 5.635 a 1.075,1.075 0 0 0 -0.1,0 1.075,1.075 0 0 0 -0.101,0 z m 0.127,1.294 h 10.935 v 8.166 H 5.562 Z m 3.783,11.608 a 0.539,0.539 0 0 0 -0.046,0.003 0.54,0.54 0 0 0 -0.068,0 0.54,0.54 0 0 0 0,1.075 H 2.947 a 0.539,0.539 0 0 0 -0.1,0 0.54031842,0.54031842 0 1 0 0.1,1.076 h 6.991 v 1.076 h 2.15 V 17.99 h 6.99 a 0.539,0.539 0 1 0 0,-1.076 h -6.352 a 0.54,0.54 0 1 0 -0.1,-1.075 H 9.399 A 0.539,0.539 0 0 0 9.345,15.836 Z"
  	 class="ColorScheme-Text" />
</svg>
