<svg xmlns="http://www.w3.org/2000/svg" viewBox="0 0 22 22" id="svg6">
  <defs id="defs3051">
    <style id="current-color-scheme">
      .ColorScheme-Text {
        color:#f9f9f9;
      }
      .ColorScheme-Highlight {
        color:#E0DFD8;
	  </style>
	</defs>
  <path style="fill:currentColor;fill-opacity:1;stroke:none" 
     d="m 11,3.013 a 8.184,8.184 0 0 0 -8.184,8.184 8.205,8.205 0 0 0 5.598,7.775 c 0.41,0.067 0.54,-0.189 0.54,-0.41 V 17.181 C 6.687,17.671 6.204,16.082 6.204,16.082 5.827,15.133 5.294,14.88 5.294,14.88 4.551,14.374 5.353,14.39 5.353,14.39 c 0.818,0.056 1.252,0.843 1.252,0.843 0.712,1.244 1.915,0.876 2.382,0.678 C 9.06,15.379 9.273,15.019 9.503,14.814 7.685,14.611 5.779,13.906 5.779,10.787 5.779,9.879 6.089,9.151 6.621,8.57 6.539,8.365 6.253,7.514 6.703,6.41 c 0,0 0.688,-0.222 2.251,0.833 A 7.746,7.746 0 0 1 11,6.976 a 7.729,7.729 0 0 1 2.046,0.27 c 1.562,-1.056 2.25,-0.834 2.25,-0.834 0.45,1.104 0.164,1.955 0.082,2.16 0.533,0.582 0.843,1.31 0.843,2.216 0,3.128 -1.915,3.815 -3.74,4.02 0.295,0.254 0.565,0.754 0.565,1.514 v 2.243 c 0,0.22 0.13,0.483 0.548,0.409 A 8.208,8.208 0 0 0 19.184,11.199 8.185,8.185 0 0 0 11,3.013 Z m 0,0"
  	 class="ColorScheme-Text" />
</svg>
