<svg xmlns="http://www.w3.org/2000/svg" viewBox="0 0 22 22" id="svg6">
  <defs id="defs3051">
    <style id="current-color-scheme">
      .ColorScheme-Text {
        color:#f9f9f9;
      }
      .ColorScheme-Highlight {
        color:#E0DFD8;
	  </style>
	</defs>
  <path style="fill:currentColor;fill-opacity:1;stroke:none" 
     d="M 5.151,2.492 A 1.604,1.604 0 0 0 3.555,4.087 v 13.826 a 1.604,1.604 0 0 0 1.596,1.595 H 16.85 a 1.604,1.604 0 0 0 1.596,-1.595 V 4.087 c 0,-0.438 -0.182,-0.837 -0.472,-1.124 A 1.624,1.624 0 0 0 17.739,2.767 1.575,1.575 0 0 0 16.849,2.492 h -1.142 z m 0,1.063 h 6.63 V 3.799 H 9.83 A 0.392,0.392 0 0 0 9.439,4.19 v 1.565 a 0.392,0.392 0 0 0 0.39,0.39 h 1.955 V 6.928 H 9.83 a 0.392,0.392 0 0 0 -0.391,0.39 v 1.564 a 0.392,0.392 0 0 0 0.39,0.392 h 1.955 v 0.78 H 9.83 a 0.392,0.392 0 0 0 -0.391,0.393 v 1.56 a 0.392,0.392 0 0 0 0.39,0.39 h 0.508 l -1.632,2.937 a 0.392,0.392 0 0 0 -0.03,0.314 l 0.392,1.17 a 0.392,0.392 0 0 0 0.372,0.268 h 3.126 a 0.392,0.392 0 0 0 0.372,-0.267 l 0.39,-1.17 a 0.392,0.392 0 0 0 -0.032,-0.32 l -1.144,-1.982 -0.678,0.388 1.055,1.834 -0.246,0.737 H 9.72 l -0.249,-0.742 1.871,-3.367 a 0.392,0.392 0 0 0 -0.34,-0.58 h -0.783 v -0.782 h 1.955 a 0.392,0.392 0 0 0 0.392,-0.39 V 8.881 A 0.392,0.392 0 0 0 12.174,8.491 H 10.219 V 7.708 h 1.955 a 0.392,0.392 0 0 0 0.392,-0.39 V 5.755 A 0.392,0.392 0 0 0 12.174,5.363 H 10.219 V 4.58 h 1.955 A 0.392,0.392 0 0 0 12.566,4.188 V 3.553 h 4.284 c 0.076,0 0.146,0.014 0.288,0.04 0.185,0.079 0.304,0.264 0.322,0.492 v 13.826 a 0.52,0.52 0 0 1 -0.532,0.532 H 5.152 A 0.519,0.519 0 0 1 4.62,17.911 V 4.087 A 0.52,0.52 0 0 1 5.152,3.555 Z"
  	 class="ColorScheme-Text" />
</svg>
