<svg xmlns="http://www.w3.org/2000/svg" viewBox="0 0 22 22" id="svg6">
  <defs id="defs3051">
    <style id="current-color-scheme">
      .ColorScheme-Text {
        color:#f9f9f9;
      }
      .ColorScheme-Highlight {
        color:#E0DFD8;
	  </style>
	</defs>
  <path style="fill:currentColor;fill-opacity:1;stroke:none" 
     d="m 11.02,2.741 c -0.244,0 -0.326,0.111 -0.378,0.162 a 0.693,0.693 0 0 0 -0.1,0.125 1.836,1.836 0 0 0 -0.127,0.23 c -0.082,0.17 -0.171,0.386 -0.274,0.645 A 72.3,72.3 0 0 0 9.435,5.785 C 9.188,6.47 8.943,7.158 8.749,7.679 8.652,7.939 8.566,8.158 8.505,8.308 8.503,8.315 8.499,8.317 8.495,8.324 L 8.478,8.326 C 8.317,8.339 8.082,8.352 7.803,8.365 7.25,8.391 6.521,8.413 5.793,8.438 A 69.48,69.48 0 0 0 3.784,8.528 10.326,10.326 0 0 0 3.084,8.593 1.9,1.9 0 0 0 2.828,8.641 0.72,0.72 0 0 0 2.678,8.697 C 2.612,8.731 2.485,8.775 2.41,9.007 c -0.075,0.231 0.002,0.345 0.034,0.41 0.033,0.065 0.063,0.1 0.09,0.135 0.056,0.07 0.11,0.124 0.177,0.188 0.136,0.13 0.314,0.286 0.529,0.463 a 71.582,71.582 0 0 0 1.575,1.252 c 0.573,0.447 1.153,0.894 1.588,1.24 0.216,0.171 0.4,0.32 0.522,0.426 l 0.013,0.012 -0.004,0.018 C 6.896,13.309 6.836,13.536 6.762,13.802 6.615,14.339 6.41,15.04 6.212,15.741 a 71.573,71.573 0 0 0 -0.536,1.939 9.755,9.755 0 0 0 -0.156,0.683 1.888,1.888 0 0 0 -0.034,0.26 0.694,0.694 0 0 0 0.009,0.16 c 0.012,0.072 0.017,0.287 0.214,0.352 0.196,0.142 0.325,0.104 0.397,0.091 0.073,-0.01 0.113,-0.027 0.156,-0.043 0.082,-0.03 0.154,-0.065 0.237,-0.109 0.165,-0.09 0.364,-0.212 0.601,-0.362 a 71.344,71.344 0 0 0 1.676,-1.11 c 0.603,-0.41 1.207,-0.818 1.67,-1.126 0.22,-0.145 0.403,-0.265 0.538,-0.348 h 0.003 c 0.14,0.084 0.336,0.214 0.568,0.368 0.462,0.306 1.065,0.716 1.669,1.124 a 71.612,71.612 0 0 0 1.676,1.112 c 0.237,0.148 0.436,0.27 0.601,0.36 0.083,0.045 0.156,0.079 0.237,0.11 0.042,0.015 0.085,0.032 0.156,0.044 0.072,0.01 0.2,0.05 0.397,-0.094 0.196,-0.142 0.202,-0.278 0.214,-0.351 a 0.693,0.693 0 0 0 0.01,-0.16 1.911,1.911 0 0 0 -0.035,-0.26 10.395,10.395 0 0 0 -0.156,-0.683 71.776,71.776 0 0 0 -0.534,-1.939 c -0.2,-0.7 -0.405,-1.402 -0.553,-1.937 a 19.953,19.953 0 0 1 -0.17,-0.651 l -0.006,-0.02 0.013,-0.013 c 0.124,-0.104 0.306,-0.254 0.523,-0.426 0.435,-0.345 1.013,-0.791 1.589,-1.24 a 71.583,71.583 0 0 0 1.574,-1.25 c 0.215,-0.178 0.393,-0.332 0.529,-0.463 0.066,-0.065 0.12,-0.12 0.177,-0.188 0.026,-0.034 0.056,-0.07 0.09,-0.135 0.032,-0.065 0.109,-0.178 0.033,-0.41 C 19.515,8.795 19.386,8.75 19.323,8.716 19.257,8.683 19.213,8.672 19.17,8.659 A 1.9,1.9 0 0 0 18.915,8.609 10.29,10.29 0 0 0 18.215,8.546 71.025,71.025 0 0 0 16.207,8.457 C 15.479,8.431 14.75,8.409 14.197,8.384 A 22.07,22.07 0 0 1 13.522,8.345 L 13.505,8.344 C 13.501,8.336 13.497,8.334 13.495,8.326 A 19.81,19.81 0 0 1 13.251,7.698 C 13.056,7.178 12.811,6.49 12.564,5.805 A 70.968,70.968 0 0 0 11.861,3.921 10.29,10.29 0 0 0 11.585,3.276 1.924,1.924 0 0 0 11.458,3.046 0.693,0.693 0 0 0 11.357,2.922 C 11.309,2.874 11.229,2.778 11.021,2.766 V 2.743 h -0.002 z m -0.024,1.723 c 0.188,0.478 0.406,1.062 0.63,1.682 0.248,0.681 0.492,1.371 0.69,1.901 0.1,0.266 0.185,0.492 0.257,0.664 0.035,0.087 0.069,0.16 0.101,0.225 0.017,0.033 0.032,0.064 0.055,0.1 0.022,0.037 0.029,0.076 0.152,0.165 0.124,0.09 0.163,0.084 0.205,0.095 0.042,0.01 0.075,0.013 0.11,0.018 0.073,0.012 0.152,0.02 0.245,0.027 0.185,0.016 0.426,0.032 0.71,0.045 0.566,0.026 1.297,0.044 2.02,0.069 0.676,0.023 1.325,0.052 1.846,0.084 -0.404,0.331 -0.912,0.732 -1.447,1.147 -0.571,0.446 -1.15,0.892 -1.594,1.245 -0.22,0.176 -0.408,0.33 -0.55,0.45 a 3.574,3.574 0 0 0 -0.181,0.167 c -0.026,0.026 -0.051,0.048 -0.078,0.081 -0.028,0.034 -0.066,0.052 -0.112,0.195 -0.047,0.146 -0.026,0.183 -0.024,0.226 a 1.3,1.3 0 0 0 0.013,0.11 c 0.01,0.072 0.029,0.15 0.05,0.24 0.044,0.182 0.105,0.419 0.182,0.691 0.15,0.547 0.354,1.248 0.555,1.944 0.184,0.649 0.359,1.273 0.49,1.777 a 73.81,73.81 0 0 1 -1.537,-1.015 c -0.602,-0.409 -1.203,-0.82 -1.676,-1.133 a 19.449,19.449 0 0 0 -0.6,-0.384 4.225,4.225 0 0 0 -0.212,-0.124 1.247,1.247 0 0 0 -0.102,-0.05 C 11.16,15.094 11.118,15.074 11.021,15.068 v -0.022 c -0.143,0 -0.176,0.026 -0.215,0.043 -0.04,0.015 -0.07,0.032 -0.103,0.049 -0.065,0.033 -0.13,0.074 -0.21,0.122 -0.16,0.097 -0.365,0.228 -0.6,0.384 -0.474,0.313 -1.075,0.726 -1.675,1.133 -0.56,0.378 -1.098,0.736 -1.537,1.016 a 66.52,66.52 0 0 1 0.488,-1.777 c 0.2,-0.698 0.404,-1.396 0.555,-1.943 0.076,-0.274 0.138,-0.51 0.182,-0.69 0.021,-0.091 0.04,-0.17 0.05,-0.242 a 1.068,1.068 0 0 0 0.013,-0.11 C 7.973,12.988 7.992,12.951 7.945,12.806 7.897,12.662 7.861,12.643 7.833,12.611 7.806,12.578 7.781,12.555 7.755,12.53 A 3.574,3.574 0 0 0 7.573,12.363 C 7.433,12.241 7.245,12.089 7.023,11.912 6.58,11.56 6,11.113 5.43,10.667 A 75.151,75.151 0 0 1 3.983,9.52 73.74,73.74 0 0 1 5.828,9.435 C 6.552,9.409 7.283,9.39 7.849,9.366 8.132,9.353 8.372,9.338 8.559,9.322 8.652,9.314 8.731,9.305 8.802,9.295 8.839,9.29 8.872,9.287 8.914,9.275 8.956,9.265 8.994,9.271 9.119,9.181 9.242,9.091 9.249,9.053 9.271,9.016 A 3.685,3.685 0 0 0 9.427,8.691 C 9.499,8.519 9.583,8.293 9.684,8.028 9.882,7.497 10.126,6.808 10.374,6.126 a 78.88,78.88 0 0 1 0.622,-1.664 z"
  	 class="ColorScheme-Text" />
</svg>
