<svg xmlns="http://www.w3.org/2000/svg" viewBox="0 0 22 22" id="svg6">
  <defs id="defs3051">
    <style id="current-color-scheme">
      .ColorScheme-Text {
        color:#f9f9f9;
      }
      .ColorScheme-Highlight {
        color:#E0DFD8;
	  </style>
	</defs>
  <path style="fill:currentColor;fill-opacity:1;stroke:none" 
     d="m 11,2.576 a 6.344,6.344 0 1 0 0,12.687 6.344,6.344 0 0 0 0,-12.687 z m 0,0.706 A 5.639,5.639 0 0 1 11,14.559 5.639,5.639 0 0 1 11,3.282 Z M 10.462,3.995 A 5.035,5.035 0 0 0 9.965,4.074 C 9.638,4.142 9.325,4.234 9.025,4.362 A 5.068,5.068 0 0 0 6.097,7.785 l 0.026,0.026 c 0.27,0.289 1.016,0.7 1.542,0.89 0.287,0.104 0.824,0.262 1.203,0.34 0.38,0.078 0.638,0.152 0.602,0.156 -0.038,0.003 -0.197,0.11 -0.367,0.261 -0.322,0.29 -0.488,0.561 -0.627,1.02 -0.076,0.25 -0.074,0.309 0.026,0.445 0.06,0.081 0.334,0.278 0.6,0.443 a 4.9,4.9 0 0 1 0.681,0.522 c 0.413,0.403 0.678,1.107 0.678,1.806 0,0.178 0.014,0.297 0.026,0.338 0.036,0.004 0.071,-0.003 0.105,0 0.078,-0.029 0.184,-0.065 0.367,-0.157 1.533,-0.766 2.265,-1.794 2.196,-3.108 C 13.099,9.717 12.587,9.359 10.593,8.935 9.125,8.623 8.345,8.11 8.345,7.445 8.345,7.27 8.388,7.167 8.581,6.975 8.786,6.769 8.839,6.76 8.999,6.792 c 0.1,0.02 0.346,0.155 0.548,0.315 0.454,0.358 0.68,0.496 0.914,0.496 0.101,0 0.184,-0.012 0.184,-0.027 0,-0.013 -0.075,-0.141 -0.158,-0.262 -0.45,-0.667 -0.408,-1.94 0.079,-3.004 0.077,-0.167 0.113,-0.283 0.105,-0.315 -0.068,0.004 -0.142,-0.006 -0.289,0 z m 4.704,2.379 c -0.092,-0.056 -0.82,0.73 -0.991,1.073 -0.339,0.679 -0.209,1.108 0.599,1.96 0.28,0.294 0.602,0.702 0.707,0.888 0.105,0.186 0.288,0.315 0.236,0.288 0.023,-0.027 0.072,-0.241 0.131,-0.47 0.15,-0.604 0.163,-1.642 0,-2.248 -0.129,-0.47 -0.564,-1.418 -0.682,-1.491 z m -5.513,9.638 c -0.246,0 -0.447,0.256 -0.447,0.57 0,0.315 0.2,0.568 0.447,0.568 H 3.375 c -0.248,0 -0.449,0.254 -0.449,0.57 0,0.316 0.2,0.569 0.449,0.569 h 6.728 v 1.135 h 1.794 V 18.29 h 6.728 c 0.248,0 0.449,-0.255 0.449,-0.568 0,-0.316 -0.2,-0.57 -0.449,-0.57 h -6.278 c 0.246,0 0.447,-0.254 0.447,-0.568 0,-0.315 -0.2,-0.57 -0.447,-0.57 z"
     class="ColorScheme-Text" />
</svg>
