<svg xmlns="http://www.w3.org/2000/svg" viewBox="0 0 22 22" id="svg6">
  <defs id="defs3051">
    <style id="current-color-scheme">
      .ColorScheme-Text {
        color:#f9f9f9;
      }
      .ColorScheme-Highlight {
        color:#E0DFD8;
	  </style>
	</defs>
  <path style="fill:#ff0400;fill-opacity:1;stroke:none" 
     d="m 4.707,3.133 c 0,0 -1.577,-0.032 -1.577,1.542 L 3.205,9.759 C 3.505,9.589 3.823,9.632 4.13,9.538 L 4.071,5.496 C 4.071,4.829 4.406,4.504 4.741,4.344 5.075,4.184 5.409,4.19 5.409,4.19 h 3.567 l 2.466,2.467 5.829,0.389 0.547,0.028 1.014,0.806 0.035,-1.076 C 18.921,5.233 17.293,5.232 17.293,5.232 H 11.524 L 9.426,3.133 Z"
     class="ColorScheme-Highlight" />
  <path style="fill:currentColor;fill-opacity:1;stroke:none" 
     d="M 10.476,6.281 8.378,8.377 H 4.707 c 0,0 -1.574,0 -1.574,1.574 v 8.916 h 14.16 c 0,0 1.574,0 1.574,-1.574 L 18.87,7.819 c 0,-1.572 -1.577,-1.54 -1.577,-1.54 z m 0.596,0.849 h 5.418 c 0,0 1.326,-0.027 1.326,1.255 v 8.243 c 0,1.281 -1.365,1.283 -1.365,1.283 H 4.15 L 4.147,10.637 c 0,-1.283 1.368,-1.283 1.368,-1.283 h 3.19 L 9.254,8.839 Z"
     class="ColorScheme-Text" />
</svg>
