<svg xmlns="http://www.w3.org/2000/svg" viewBox="0 0 22 22" id="svg6">
  <defs id="defs3051">
    <style id="current-color-scheme">
      .ColorScheme-Text {
        color:#f9f9f9;
      }
      .ColorScheme-Highlight {
        color:#E0DFD8;
	  </style>
	</defs>
  <path style="fill:currentColor;fill-opacity:1;stroke:none" 
     d="M 4.746,2.662 A 2.102,2.102 0 0 0 2.662,4.746 v 12.508 c 0,1.137 0.947,2.084 2.084,2.084 h 12.508 a 2.102,2.102 0 0 0 2.084,-2.084 V 4.746 A 2.102,2.102 0 0 0 17.254,2.662 Z m 0,1.043 h 12.508 c 0.542,0 0.978,0.41 1.03,0.938 l -0.03,4.548 a 1.037,1.037 0 0 1 -1,0.766 H 4.746 a 1.034,1.034 0 0 1 -1,-0.766 L 3.716,4.643 A 1.037,1.037 0 0 1 4.746,3.705 Z M 3.706,9.957 A 1.04,1.04 0 0 0 4.747,11 h 12.508 a 1.04,1.04 0 0 0 1.04,-1.043 v 3.127 a 1.04,1.04 0 0 1 -1.04,1.043 H 4.746 a 1.04,1.04 0 0 1 -1.04,-1.043 z m 0,4.17 c 0,0.578 0.462,1.04 1.04,1.04 h 12.508 a 1.037,1.037 0 0 0 1.04,-1.04 v 3.127 a 1.037,1.037 0 0 1 -1.04,1.04 H 4.746 a 1.04,1.04 0 0 1 -1.04,-1.04 v -1.043 l 0.03,-0.795 a 1.04,1.04 0 0 1 -0.03,-0.248 v -1.04 z"
     class="ColorScheme-Text" />
</svg>
