<svg xmlns="http://www.w3.org/2000/svg" viewBox="0 0 22 22" id="svg6">
  <defs id="defs3051">
    <style id="current-color-scheme">
      .ColorScheme-Text {
        color:#f9f9f9;
      }
      .ColorScheme-Highlight {
        color:#E0DFD8;
	  </style>
	</defs>
  <path style="fill:currentColor;fill-opacity:1;stroke:none" 
     d="M 3.286,3.286 C 2.573,3.286 2,3.859 2,4.57 v 12.86 c 0,0.712 0.573,1.285 1.286,1.285 H 18.714 C 19.427,18.715 20,18.142 20,17.43 V 4.57 C 20,3.858 19.427,3.285 18.714,3.285 Z m 0.838,1.285 h 13.752 c 0.464,0 0.838,0.375 0.838,0.84 V 16.59 a 0.838,0.838 0 0 1 -0.838,0.839 H 4.124 A 0.838,0.838 0 0 1 3.286,16.589 V 5.41 C 3.286,4.946 3.66,4.571 4.124,4.571 Z M 4.571,5.857 V 7.143 H 17.43 V 5.857 Z m 3.858,9 v 1.286 h 5.142 v -1.286 z"
     class="ColorScheme-Text" />
</svg>
