<?xml version="1.0" encoding="UTF-8" standalone="no"?>
<svg
   xmlns:dc="http://purl.org/dc/elements/1.1/"
   xmlns:cc="http://creativecommons.org/ns#"
   xmlns:rdf="http://www.w3.org/1999/02/22-rdf-syntax-ns#"
   xmlns:svg="http://www.w3.org/2000/svg"
   xmlns="http://www.w3.org/2000/svg"
   xmlns:sodipodi="http://sodipodi.sourceforge.net/DTD/sodipodi-0.dtd"
   xmlns:inkscape="http://www.inkscape.org/namespaces/inkscape"
   viewBox="0 0 16 16"
   id="svg6"
   version="1.1"
   sodipodi:docname="folder-saved-search-symbolic.svg"
   inkscape:version="0.92.4 (5da689c313, 2019-01-14)">
  <metadata
     id="metadata8">
    <rdf:RDF>
      <cc:Work
         rdf:about="">
        <dc:format>image/svg+xml</dc:format>
        <dc:type
           rdf:resource="http://purl.org/dc/dcmitype/StillImage" />
        <dc:title></dc:title>
      </cc:Work>
    </rdf:RDF>
  </metadata>
  <sodipodi:namedview
     pagecolor="#ffffff"
     bordercolor="#666666"
     borderopacity="1"
     objecttolerance="10"
     gridtolerance="10"
     guidetolerance="10"
     inkscape:pageopacity="0"
     inkscape:pageshadow="2"
     inkscape:window-width="1160"
     inkscape:window-height="480"
     id="namedview6"
     showgrid="false"
     inkscape:zoom="14.75"
     inkscape:cx="0.71186441"
     inkscape:cy="8"
     inkscape:window-x="0"
     inkscape:window-y="25"
     inkscape:window-maximized="0"
     inkscape:current-layer="svg6" />
  <defs
     id="defs3051">
    <style
       id="current-color-scheme" />
  </defs>
  <path
     d="M 10.007,2.014 A 4.229,4.229 0 0 0 6.636,3.588 C 5.374,5.155 5.421,7.372 6.669,8.901 L 6.363,9.206 5.206,10.364 1.847,13.722 c 0.303,0.304 0.81,0.403 1.208,-0.013 L 5.173,11.592 A 0.423,0.423 0 0 0 5.198,11.567 L 7.48,9.282 7.486,9.279 a 0.423,0.423 0 0 0 0.175,-0.4 L 7.66,8.868 A 0.42,0.42 0 0 0 7.642,8.797 0.421,0.421 0 0 0 7.515,8.604 3.375,3.375 0 0 1 7.291,4.119 3.378,3.378 0 0 1 11.753,3.394 3.377,3.377 0 0 1 12.952,7.751 3.376,3.376 0 0 1 8.748,9.408 C 8.214,9.198 7.911,10.009 8.452,10.2 A 4.234,4.234 0 0 0 13.707,8.128 4.23,4.23 0 0 0 12.21,2.683 4.208,4.208 0 0 0 10.006,2.015 Z"
     id="path22"
     inkscape:connector-curvature="0"
     style="color:#090d11;fill:#f9f9f9;stroke-width:0.55199999" />
</svg>
