<?xml version="1.0" encoding="UTF-8" standalone="no"?>
<svg
   xmlns:dc="http://purl.org/dc/elements/1.1/"
   xmlns:cc="http://creativecommons.org/ns#"
   xmlns:rdf="http://www.w3.org/1999/02/22-rdf-syntax-ns#"
   xmlns:svg="http://www.w3.org/2000/svg"
   xmlns="http://www.w3.org/2000/svg"
   xmlns:sodipodi="http://sodipodi.sourceforge.net/DTD/sodipodi-0.dtd"
   xmlns:inkscape="http://www.inkscape.org/namespaces/inkscape"
   viewBox="0 0 16 16"
   id="svg6"
   version="1.1"
   sodipodi:docname="folder-games-symbolic.svg"
   inkscape:version="0.92.4 (5da689c313, 2019-01-14)">
  <metadata
     id="metadata8">
    <rdf:RDF>
      <cc:Work
         rdf:about="">
        <dc:format>image/svg+xml</dc:format>
        <dc:type
           rdf:resource="http://purl.org/dc/dcmitype/StillImage" />
        <dc:title></dc:title>
      </cc:Work>
    </rdf:RDF>
  </metadata>
  <sodipodi:namedview
     pagecolor="#ffffff"
     bordercolor="#666666"
     borderopacity="1"
     objecttolerance="10"
     gridtolerance="10"
     guidetolerance="10"
     inkscape:pageopacity="0"
     inkscape:pageshadow="2"
     inkscape:window-width="1160"
     inkscape:window-height="480"
     id="namedview6"
     showgrid="false"
     inkscape:zoom="14.75"
     inkscape:cx="0.71186441"
     inkscape:cy="8"
     inkscape:window-x="0"
     inkscape:window-y="25"
     inkscape:window-maximized="0"
     inkscape:current-layer="svg6" />
  <defs
     id="defs3051">
    <style
       id="current-color-scheme" />
  </defs>
  <path
     class="ColorScheme-Background"
     d="M 4.084,2.669 C 3.663,2.669 3.277,2.892 3.048,3.172 2.82,3.452 2.708,3.778 2.674,4.116 l -0.762,7.616 c -0.055,0.546 0.272,0.994 0.614,1.236 A 2,2 0 0 0 3.7,13.331 c 0.458,0 0.856,-0.234 1.117,-0.492 0.26,-0.258 0.439,-0.547 0.604,-0.84 0.33,-0.583 0.611,-1.2 0.89,-1.55 C 6.524,10.178 6.598,10.134 6.793,10.076 6.987,10.02 7.368,9.993 8,9.993 c 0.632,0 1.013,0.027 1.208,0.083 0.194,0.057 0.268,0.102 0.482,0.373 0.278,0.35 0.559,0.967 0.89,1.55 0.164,0.293 0.344,0.582 0.605,0.84 0.26,0.258 0.657,0.492 1.115,0.492 a 2,2 0 0 0 1.174,-0.363 c 0.342,-0.242 0.669,-0.69 0.614,-1.236 L 13.326,4.116 A 1.733,1.733 0 0 0 12.952,3.172 1.378,1.378 0 0 0 11.916,2.669 h -1.17 C 10.11,2.669 9.605,3.151 9.447,3.379 9.417,3.424 9.429,3.408 9.412,3.431 H 6.588 C 6.571,3.408 6.581,3.424 6.553,3.379 6.395,3.151 5.89,2.669 5.254,2.669 Z m 0,0.761 h 1.17 c 0.768,0 0.627,0.762 1.192,0.762 h 3.108 c 0.565,0 0.425,-0.762 1.192,-0.762 h 1.17 c 0.362,0 0.612,0.343 0.653,0.762 l 0.762,7.616 c 0.042,0.42 -0.488,0.762 -1.03,0.762 -0.88,0 -1.27,-1.653 -2.015,-2.595 C 9.742,9.288 9.286,9.232 8,9.232 6.714,9.232 6.258,9.288 5.714,9.975 4.97,10.917 4.58,12.57 3.7,12.57 3.158,12.57 2.628,12.228 2.67,11.808 L 3.431,4.192 C 3.473,3.772 3.723,3.43 4.084,3.43 Z m 1.25,2.285 a 0.38,0.38 0 0 0 -0.38,0.381 v 0.38 H 4.574 A 0.38,0.38 0 0 0 4.192,6.858 c 0,0.211 0.17,0.38 0.381,0.38 h 0.38 v 0.381 a 0.381,0.381 0 1 0 0.762,0 v -0.38 h 0.38 c 0.212,0 0.382,-0.17 0.382,-0.381 A 0.38,0.38 0 0 0 6.096,6.477 H 5.716 V 6.097 A 0.38,0.38 0 0 0 5.334,5.715 Z m 5.332,0 a 0.38,0.38 0 0 0 -0.097,0.012 0.38,0.38 0 0 0 -0.005,0.002 0.38,0.38 0 0 0 -10e-4,0 0.38,0.38 0 0 0 -0.026,0.01 0.38,0.38 0 0 0 -0.016,0.005 0.38,0.38 0 0 0 -0.004,0.001 0.38,0.38 0 0 0 -0.024,0.012 0.38,0.38 0 0 0 -0.055,0.034 0.38,0.38 0 0 0 -0.013,0.01 0.38,0.38 0 0 0 -0.016,0.014 0.38,0.38 0 0 0 -0.013,0.012 0.38,0.38 0 0 0 -0.011,0.014 0.38,0.38 0 0 0 -0.014,0.014 0.38,0.38 0 0 0 -0.01,0.014 0.38,0.38 0 0 0 -0.009,0.012 0.38,0.38 0 0 0 -0.006,0.01 0.38,0.38 0 0 0 -0.033,0.06 0.38,0.38 0 0 0 -0.005,0.018 0.38,0.38 0 0 0 -0.01,0.025 0.38,0.38 0 0 0 0,0.001 0.38,0.38 0 0 0 0,0.005 0.38,0.38 0 0 0 -0.005,0.02 0.38,0.38 0 0 0 -10e-4,0.01 0.38,0.38 0 0 0 -0.006,0.067 0.38,0.38 0 0 0 0.001,0.026 0.38,0.38 0 0 0 0.01,0.07 0.38,0.38 0 0 0 0.002,0.006 0.38,0.38 0 0 0 0.009,0.025 0.38,0.38 0 0 0 0.005,0.016 0.38,0.38 0 0 0 0.002,0.005 0.38,0.38 0 0 0 0.012,0.024 0.38,0.38 0 0 0 0.034,0.055 0.38,0.38 0 0 0 0.01,0.013 0.38,0.38 0 0 0 0.014,0.015 0.38,0.38 0 0 0 0.012,0.013 0.38,0.38 0 0 0 0.013,0.012 0.38,0.38 0 0 0 0.015,0.014 0.38,0.38 0 0 0 0.013,0.01 0.38,0.38 0 0 0 0.012,0.009 0.38,0.38 0 0 0 0.01,0.006 0.38,0.38 0 0 0 0.062,0.033 0.38,0.38 0 0 0 0.016,0.006 0.38,0.38 0 0 0 0.027,0.009 0.38,0.38 0 0 0 0.005,10e-4 0.38,0.38 0 0 0 0.02,0.004 0.38,0.38 0 0 0 0.01,0.002 0.38,0.38 0 0 0 0.066,0.006 0.38,0.38 0 0 0 0.064,-0.006 0.38,0.38 0 0 0 0.034,-0.008 0.38,0.38 0 0 0 0.003,0 0.38,0.38 0 0 1 0.002,0 0.38,0.38 0 0 0 0.025,-0.008 0.38,0.38 0 0 0 0.016,-0.007 0.38,0.38 0 0 0 0.028,-0.013 0.38,0.38 0 0 0 0.033,-0.019 0.38,0.38 0 0 0 0.023,-0.015 0.38,0.38 0 0 0 0.013,-0.01 0.38,0.38 0 0 0 0.015,-0.014 0.38,0.38 0 0 0 0.013,-0.012 0.38,0.38 0 0 0 0.012,-0.013 0.38,0.38 0 0 0 0.013,-0.015 0.38,0.38 0 0 0 0.01,-0.013 0.38,0.38 0 0 0 0.016,-0.023 0.38,0.38 0 0 0 0.019,-0.032 0.38,0.38 0 0 0 0.014,-0.029 0.38,0.38 0 0 0 0.005,-0.016 0.38,0.38 0 0 0 0.01,-0.025 0.38,0.38 0 0 1 0,-0.002 0.38,0.38 0 0 0 0,-0.004 0.38,0.38 0 0 0 0.007,-0.031 0.38,0.38 0 0 0 0.004,-0.039 0.38,0.38 0 0 0 0.002,-0.027 0.38,0.38 0 0 0 -0.002,-0.027 0.38,0.38 0 0 0 -0.004,-0.038 0.38,0.38 0 0 0 -0.002,-0.01 0.38,0.38 0 0 0 -0.006,-0.026 0.38,0.38 0 0 1 0,-0.001 A 0.38,0.38 0 0 0 11.024,5.968 0.38,0.38 0 0 0 11.022,5.958 0.38,0.38 0 0 0 11.017,5.948 0.38,0.38 0 0 0 10.987,5.891 0.38,0.38 0 0 0 10.98,5.881 0.38,0.38 0 0 0 10.965,5.859 0.38,0.38 0 0 0 10.958,5.851 0.38,0.38 0 0 0 10.94,5.831 0.38,0.38 0 0 0 10.931,5.822 0.38,0.38 0 0 0 10.911,5.805 0.38,0.38 0 0 0 10.903,5.797 0.38,0.38 0 0 0 10.883,5.782 0.38,0.38 0 0 0 10.839,5.757 0.38,0.38 0 0 0 10.815,5.745 0.38,0.38 0 0 0 10.805,5.741 0.38,0.38 0 0 0 10.779,5.731 0.38,0.38 0 0 0 10.768,5.729 0.38,0.38 0 0 0 10.742,5.723 0.38,0.38 0 0 0 10.693,5.717 0.38,0.38 0 0 0 10.666,5.715 Z M 9.904,6.477 A 0.38,0.38 0 0 0 9.808,6.489 0.38,0.38 0 0 0 9.802,6.491 0.38,0.38 0 0 0 9.776,6.5 0.38,0.38 0 0 0 9.76,6.505 0.38,0.38 0 0 0 9.755,6.507 0.38,0.38 0 0 0 9.731,6.519 0.38,0.38 0 0 0 9.676,6.553 0.38,0.38 0 0 0 9.663,6.563 0.38,0.38 0 0 0 9.648,6.577 0.38,0.38 0 0 0 9.635,6.589 0.38,0.38 0 0 0 9.623,6.602 0.38,0.38 0 0 0 9.609,6.617 0.38,0.38 0 0 0 9.599,6.63 0.38,0.38 0 0 0 9.59,6.642 0.38,0.38 0 0 0 9.584,6.652 0.38,0.38 0 0 0 9.551,6.714 0.38,0.38 0 0 0 9.545,6.73 0.38,0.38 0 0 0 9.536,6.755 a 0.38,0.38 0 0 0 0,0.002 0.38,0.38 0 0 0 -10e-4,0.004 0.38,0.38 0 0 0 -0.004,0.02 0.38,0.38 0 0 0 -0.002,0.011 0.38,0.38 0 0 0 -0.006,0.066 0.38,0.38 0 0 0 0.002,0.027 0.38,0.38 0 0 0 0.01,0.07 0.38,0.38 0 0 0 10e-4,0.005 0.38,0.38 0 0 0 0.01,0.026 0.38,0.38 0 0 0 0.005,0.016 0.38,0.38 0 0 0 0.002,0.005 0.38,0.38 0 0 0 0.012,0.023 0.38,0.38 0 0 0 0.034,0.055 0.38,0.38 0 0 0 0.01,0.014 0.38,0.38 0 0 0 0.014,0.015 0.38,0.38 0 0 0 0.012,0.013 0.38,0.38 0 0 0 0.013,0.012 0.38,0.38 0 0 0 0.015,0.013 0.38,0.38 0 0 0 0.014,0.01 0.38,0.38 0 0 0 0.011,0.01 0.38,0.38 0 0 0 0.01,0.006 0.38,0.38 0 0 0 0.061,0.032 0.38,0.38 0 0 0 0.017,0.006 0.38,0.38 0 0 0 0.027,0.01 0.38,0.38 0 0 0 0.005,0 0.38,0.38 0 0 0 0.02,0.005 0.38,0.38 0 0 0 0.01,0.001 0.38,0.38 0 0 0 0.066,0.007 0.38,0.38 0 0 0 0.064,-0.007 0.38,0.38 0 0 0 0.034,-0.007 0.38,0.38 0 0 0 0.003,0 0.38,0.38 0 0 1 0.002,0 0.38,0.38 0 0 0 0.035,-0.012 0.38,0.38 0 0 0 0.01,-0.004 0.38,0.38 0 0 0 0.025,-0.012 0.38,0.38 0 0 0 0.032,-0.02 0.38,0.38 0 0 0 0.023,-0.015 0.38,0.38 0 0 0 0.013,-0.01 0.38,0.38 0 0 0 0.024,-0.02 0.38,0.38 0 0 0 0.004,-0.005 0.38,0.38 0 0 0 0.012,-0.013 0.38,0.38 0 0 0 0.018,-0.02 0.38,0.38 0 0 0 0.006,-0.009 0.38,0.38 0 0 0 0.009,-0.011 0.38,0.38 0 0 0 0.025,-0.044 0.38,0.38 0 0 0 0.012,-0.023 0.38,0.38 0 0 0 0.004,-0.01 0.38,0.38 0 0 0 0.003,-0.011 0.38,0.38 0 0 0 0.009,-0.027 0.38,0.38 0 0 0 0.002,-0.004 0.38,0.38 0 0 0 0.01,-0.07 0.38,0.38 0 0 0 0.002,-0.027 0.38,0.38 0 0 0 -0.002,-0.027 0.38,0.38 0 0 0 -0.004,-0.039 0.38,0.38 0 0 0 -0.002,-0.01 0.38,0.38 0 0 0 -0.006,-0.025 0.38,0.38 0 0 1 0,-0.002 A 0.38,0.38 0 0 0 10.268,6.745 0.38,0.38 0 0 0 10.26,6.72 0.38,0.38 0 0 0 10.257,6.714 0.38,0.38 0 0 0 10.224,6.653 0.38,0.38 0 0 0 10.218,6.643 0.38,0.38 0 0 0 10.198,6.617 0.38,0.38 0 0 0 10.185,6.602 0.38,0.38 0 0 0 10.169,6.584 0.38,0.38 0 0 0 10.16,6.576 0.38,0.38 0 0 0 10.14,6.559 0.38,0.38 0 0 0 10.132,6.553 0.38,0.38 0 0 0 10.11,6.538 0.38,0.38 0 0 0 10.077,6.518 0.38,0.38 0 0 0 10.049,6.505 0.38,0.38 0 0 0 10.033,6.499 0.38,0.38 0 0 0 10.006,6.49 0.38,0.38 0 0 0 9.98,6.485 0.38,0.38 0 0 0 9.97,6.483 0.38,0.38 0 0 0 9.931,6.478 0.38,0.38 0 0 0 9.905,6.477 Z m 1.523,0 a 0.38,0.38 0 0 0 -0.096,0.012 0.38,0.38 0 0 0 -0.005,0.002 0.38,0.38 0 0 0 -0.001,0 A 0.38,0.38 0 0 0 11.3,6.5 0.38,0.38 0 0 0 11.283,6.505 0.38,0.38 0 0 0 11.2,6.553 a 0.38,0.38 0 0 0 -0.014,0.01 0.38,0.38 0 0 0 -0.014,0.014 0.38,0.38 0 0 0 -0.014,0.012 0.38,0.38 0 0 0 -0.012,0.013 0.38,0.38 0 0 0 -0.013,0.015 0.38,0.38 0 0 0 -0.01,0.013 0.38,0.38 0 0 0 -0.01,0.012 0.38,0.38 0 0 0 -0.005,0.01 0.38,0.38 0 0 0 -0.033,0.062 0.38,0.38 0 0 0 -0.006,0.016 0.38,0.38 0 0 0 -0.009,0.026 0.38,0.38 0 0 0 -0.001,0.005 0.38,0.38 0 0 0 -0.005,0.021 0.38,0.38 0 0 0 -10e-4,0.01 0.38,0.38 0 0 0 -0.006,0.066 0.38,0.38 0 0 0 0.012,0.097 0.38,0.38 0 0 0 0.001,0.006 0.38,0.38 0 0 0 0.009,0.025 0.38,0.38 0 0 0 0.006,0.016 0.38,0.38 0 0 0 0.048,0.084 0.38,0.38 0 0 0 0.01,0.013 0.38,0.38 0 0 0 0.013,0.015 0.38,0.38 0 0 0 0.012,0.013 0.38,0.38 0 0 0 0.013,0.012 0.38,0.38 0 0 0 0.016,0.013 0.38,0.38 0 0 0 0.013,0.01 0.38,0.38 0 0 0 0.011,0.01 0.38,0.38 0 0 0 0.01,0.006 0.38,0.38 0 0 0 0.062,0.033 0.38,0.38 0 0 0 0.016,0.006 0.38,0.38 0 0 0 0.027,0.008 0.38,0.38 0 0 0 0.005,0.002 0.38,0.38 0 0 0 0.02,0.004 0.38,0.38 0 0 0 0.01,0.001 0.38,0.38 0 0 0 0.067,0.007 0.38,0.38 0 0 0 0.063,-0.007 0.38,0.38 0 0 0 0.034,-0.007 0.38,0.38 0 0 0 0.003,0 0.38,0.38 0 0 1 0.002,0 A 0.38,0.38 0 0 0 11.555,7.216 0.38,0.38 0 0 0 11.571,7.21 0.38,0.38 0 0 0 11.6,7.197 0.38,0.38 0 0 0 11.632,7.177 0.38,0.38 0 0 0 11.655,7.162 0.38,0.38 0 0 0 11.668,7.152 0.38,0.38 0 0 0 11.683,7.139 0.38,0.38 0 0 0 11.696,7.127 0.38,0.38 0 0 0 11.708,7.114 0.38,0.38 0 0 0 11.722,7.098 0.38,0.38 0 0 0 11.732,7.085 0.38,0.38 0 0 0 11.741,7.073 0.38,0.38 0 0 0 11.766,7.03 0.38,0.38 0 0 0 11.778,7.006 0.38,0.38 0 0 0 11.783,6.996 0.38,0.38 0 0 0 11.791,6.971 0.38,0.38 0 0 0 11.794,6.959 0.38,0.38 0 0 0 11.801,6.923 0.38,0.38 0 0 0 11.806,6.885 0.38,0.38 0 0 0 11.807,6.858 0.38,0.38 0 0 0 11.806,6.831 0.38,0.38 0 0 0 11.801,6.792 0.38,0.38 0 0 0 11.796,6.761 0.38,0.38 0 0 0 11.794,6.757 0.38,0.38 0 0 1 11.794,6.755 0.38,0.38 0 0 0 11.791,6.745 0.38,0.38 0 0 0 11.782,6.72 0.38,0.38 0 0 0 11.778,6.71 0.38,0.38 0 0 0 11.747,6.653 0.38,0.38 0 0 0 11.741,6.643 0.38,0.38 0 0 0 11.721,6.617 0.38,0.38 0 0 0 11.708,6.602 0.38,0.38 0 0 0 11.696,6.589 0.38,0.38 0 0 0 11.683,6.576 0.38,0.38 0 0 0 11.667,6.563 0.38,0.38 0 0 0 11.654,6.553 0.38,0.38 0 0 0 11.632,6.538 0.38,0.38 0 0 0 11.576,6.507 0.38,0.38 0 0 0 11.571,6.505 0.38,0.38 0 0 0 11.555,6.499 0.38,0.38 0 0 0 11.528,6.49 0.38,0.38 0 0 0 11.523,6.489 0.38,0.38 0 0 0 11.493,6.482 0.38,0.38 0 0 0 11.453,6.478 0.38,0.38 0 0 0 11.427,6.476 Z M 7.619,7.239 a 0.38,0.38 0 0 0 -0.38,0.38 C 7.239,7.831 7.409,8 7.619,8 H 8.381 A 0.38,0.38 0 0 0 8.761,7.62 0.38,0.38 0 0 0 8.381,7.239 Z m 3.047,0 A 0.38,0.38 0 0 0 10.639,7.24 0.38,0.38 0 0 0 10.6,7.245 0.38,0.38 0 0 0 10.569,7.25 0.38,0.38 0 0 0 10.565,7.252 0.38,0.38 0 0 0 10.538,7.261 0.38,0.38 0 0 0 10.522,7.267 0.38,0.38 0 0 0 10.517,7.269 0.38,0.38 0 0 0 10.493,7.28 0.38,0.38 0 0 0 10.461,7.3 0.38,0.38 0 0 0 10.438,7.315 0.38,0.38 0 0 0 10.425,7.325 0.38,0.38 0 0 0 10.41,7.338 0.38,0.38 0 0 0 10.397,7.35 a 0.38,0.38 0 0 0 -0.012,0.013 0.38,0.38 0 0 0 -0.014,0.016 0.38,0.38 0 0 0 -0.01,0.013 0.38,0.38 0 0 0 -0.009,0.012 0.38,0.38 0 0 0 -0.006,0.01 0.38,0.38 0 0 0 -0.019,0.033 0.38,0.38 0 0 0 -0.013,0.028 0.38,0.38 0 0 0 -0.006,0.016 0.38,0.38 0 0 0 -0.01,0.026 0.38,0.38 0 0 0 0,0.006 0.38,0.38 0 0 0 -0.005,0.02 0.38,0.38 0 0 0 -10e-4,0.01 0.38,0.38 0 0 0 -0.005,0.04 0.38,0.38 0 0 0 0,0.026 0.38,0.38 0 0 0 0,0.027 0.38,0.38 0 0 0 0.005,0.039 0.38,0.38 0 0 0 0.006,0.031 0.38,0.38 0 0 0 10e-4,0.006 0.38,0.38 0 0 0 0.009,0.025 0.38,0.38 0 0 0 0.006,0.017 0.38,0.38 0 0 0 10e-4,0.005 0.38,0.38 0 0 0 0.012,0.023 0.38,0.38 0 0 0 0.02,0.033 0.38,0.38 0 0 0 0.015,0.022 0.38,0.38 0 0 0 0.01,0.014 0.38,0.38 0 0 0 0.013,0.014 0.38,0.38 0 0 0 0.012,0.014 0.38,0.38 0 0 0 0.013,0.012 0.38,0.38 0 0 0 0.016,0.013 0.38,0.38 0 0 0 0.013,0.01 0.38,0.38 0 0 0 0.011,0.01 0.38,0.38 0 0 0 0.01,0.005 0.38,0.38 0 0 0 0.034,0.02 0.38,0.38 0 0 0 0.028,0.013 0.38,0.38 0 0 0 0.006,0.003 0.38,0.38 0 0 0 0.037,0.012 0.38,0.38 0 0 0 0.005,0.002 0.38,0.38 0 0 0 0.02,0.004 0.38,0.38 0 0 0 0.01,10e-4 0.38,0.38 0 0 0 0.04,0.005 0.38,0.38 0 0 0 0.026,0.001 0.38,0.38 0 0 0 0.027,-0.001 0.38,0.38 0 0 0 0.037,-0.005 0.38,0.38 0 0 0 0.012,-10e-4 0.38,0.38 0 0 0 0.025,-0.006 0.38,0.38 0 0 0 0.012,-0.003 0.38,0.38 0 0 0 0.026,-0.01 0.38,0.38 0 0 0 0.01,-0.004 0.38,0.38 0 0 0 0.024,-0.011 0.38,0.38 0 0 0 0.032,-0.02 0.38,0.38 0 0 0 0.01,-0.006 0.38,0.38 0 0 0 0.022,-0.015 0.38,0.38 0 0 0 0.008,-0.007 0.38,0.38 0 0 0 0.02,-0.018 0.38,0.38 0 0 0 0.009,-0.01 0.38,0.38 0 0 0 0.017,-0.018 0.38,0.38 0 0 0 0.008,-0.009 0.38,0.38 0 0 0 0.015,-0.02 0.38,0.38 0 0 0 0.006,-0.011 0.38,0.38 0 0 0 0.019,-0.033 0.38,0.38 0 0 0 0.012,-0.024 0.38,0.38 0 0 0 0.005,-0.01 0.38,0.38 0 0 0 0.011,-0.036 0.38,0.38 0 0 0 0,-0.002 0.38,0.38 0 0 0 0.006,-0.025 0.38,0.38 0 0 0 0.002,-0.01 A 0.38,0.38 0 0 0 11.045,7.646 0.38,0.38 0 0 0 11.047,7.619 0.38,0.38 0 0 0 11.045,7.592 0.38,0.38 0 0 0 11.041,7.554 0.38,0.38 0 0 0 11.035,7.523 0.38,0.38 0 0 0 11.034,7.517 0.38,0.38 0 0 0 11.024,7.491 0.38,0.38 0 0 0 11.019,7.475 0.38,0.38 0 0 0 11.005,7.447 0.38,0.38 0 0 0 10.986,7.414 0.38,0.38 0 0 0 10.971,7.392 0.38,0.38 0 0 0 10.961,7.378 0.38,0.38 0 0 0 10.948,7.363 0.38,0.38 0 0 0 10.931,7.346 0.38,0.38 0 0 0 10.922,7.338 0.38,0.38 0 0 0 10.907,7.325 0.38,0.38 0 0 0 10.894,7.315 0.38,0.38 0 0 0 10.872,7.299 0.38,0.38 0 0 0 10.839,7.28 0.38,0.38 0 0 0 10.811,7.267 0.38,0.38 0 0 0 10.794,7.261 0.38,0.38 0 0 0 10.767,7.251 0.38,0.38 0 0 0 10.763,7.251 0.38,0.38 0 0 0 10.732,7.245 0.38,0.38 0 0 0 10.693,7.24 0.38,0.38 0 0 0 10.666,7.239 Z"
     id="path22"
     inkscape:connector-curvature="0"
     style="color:#ffffff;fill:#f9f9f9;stroke-width:0.50800002" />
</svg>
