<?xml version="1.0" encoding="UTF-8" standalone="no"?>
<svg
   xmlns:dc="http://purl.org/dc/elements/1.1/"
   xmlns:cc="http://creativecommons.org/ns#"
   xmlns:rdf="http://www.w3.org/1999/02/22-rdf-syntax-ns#"
   xmlns:svg="http://www.w3.org/2000/svg"
   xmlns="http://www.w3.org/2000/svg"
   xmlns:sodipodi="http://sodipodi.sourceforge.net/DTD/sodipodi-0.dtd"
   xmlns:inkscape="http://www.inkscape.org/namespaces/inkscape"
   viewBox="0 0 16 16"
   id="svg6"
   version="1.1"
   sodipodi:docname="folder-move-symbolic.svg"
   inkscape:version="0.92.4 (5da689c313, 2019-01-14)">
  <metadata
     id="metadata8">
    <rdf:RDF>
      <cc:Work
         rdf:about="">
        <dc:format>image/svg+xml</dc:format>
        <dc:type
           rdf:resource="http://purl.org/dc/dcmitype/StillImage" />
        <dc:title></dc:title>
      </cc:Work>
    </rdf:RDF>
  </metadata>
  <sodipodi:namedview
     pagecolor="#ffffff"
     bordercolor="#666666"
     borderopacity="1"
     objecttolerance="10"
     gridtolerance="10"
     guidetolerance="10"
     inkscape:pageopacity="0"
     inkscape:pageshadow="2"
     inkscape:window-width="1160"
     inkscape:window-height="480"
     id="namedview6"
     showgrid="false"
     inkscape:zoom="14.75"
     inkscape:cx="0.71186441"
     inkscape:cy="8"
     inkscape:window-x="0"
     inkscape:window-y="25"
     inkscape:window-maximized="0"
     inkscape:current-layer="svg6" />
  <defs
     id="defs3051">
    <style
       id="current-color-scheme" />
  </defs>
  <path
     style="fill:#f9f9f9;stroke-width:0.72799999;marker:none"
     d="M 7.217,2.21 V 2.8 h 1.69 V 2.21 Z m 3.285,0 v 0.626 c 0.215,0.017 0.764,0.097 0.764,0.836 v 0.045 h 0.73 V 3.28 c 0,-1.092 -1.092,-1.07 -1.092,-1.07 z M 5.619,2.764 4.717,3.668 H 3.932 v 0.678 h 1.01 L 5.324,3.988 5.619,3.711 Z M 2.168,3.668 c 0,0 -1.092,0 -1.092,1.092 V 5.053 H 1.893 C 1.857,4.673 1.961,4.465 2.395,4.423 V 3.668 Z M 9.098,5.053 7.643,6.51 H 5.096 c 0,0 -1.092,0 -1.092,1.092 v 2.68 H 3.932 v 0.665 h 0.072 v 2.842 h 9.826 c 0,0 1.092,0 1.092,-1.092 l 0.002,-6.574 c 0,-1.092 -1.094,-1.07 -1.094,-1.07 H 9.706 Z m 0.414,0.59 h 3.76 c 0,0 0.92,-0.02 0.92,0.87 v 5.72 c 0,0.89 -0.948,0.891 -0.948,0.891 H 4.71 L 4.708,8.079 c 0,-0.89 0.95,-0.89 0.95,-0.89 H 7.87 L 8.251,6.831 Z M 1.076,6.48 V 7.984 H 1.781 V 6.48 Z m 0,2.887 v 1.58 H 2.395 V 10.281 H 1.78 V 9.367 Z"
     id="path831"
     inkscape:connector-curvature="0" />
</svg>
