<?xml version="1.0" encoding="UTF-8" standalone="no"?>
<svg
   xmlns:dc="http://purl.org/dc/elements/1.1/"
   xmlns:cc="http://creativecommons.org/ns#"
   xmlns:rdf="http://www.w3.org/1999/02/22-rdf-syntax-ns#"
   xmlns:svg="http://www.w3.org/2000/svg"
   xmlns="http://www.w3.org/2000/svg"
   xmlns:sodipodi="http://sodipodi.sourceforge.net/DTD/sodipodi-0.dtd"
   xmlns:inkscape="http://www.inkscape.org/namespaces/inkscape"
   viewBox="0 0 16 16"
   id="svg6"
   version="1.1"
   sodipodi:docname="folder-pictures-symbolic.svg"
   inkscape:version="0.92.4 (5da689c313, 2019-01-14)">
  <metadata
     id="metadata8">
    <rdf:RDF>
      <cc:Work
         rdf:about="">
        <dc:format>image/svg+xml</dc:format>
        <dc:type
           rdf:resource="http://purl.org/dc/dcmitype/StillImage" />
        <dc:title></dc:title>
      </cc:Work>
    </rdf:RDF>
  </metadata>
  <sodipodi:namedview
     pagecolor="#ffffff"
     bordercolor="#666666"
     borderopacity="1"
     objecttolerance="10"
     gridtolerance="10"
     guidetolerance="10"
     inkscape:pageopacity="0"
     inkscape:pageshadow="2"
     inkscape:window-width="1160"
     inkscape:window-height="480"
     id="namedview6"
     showgrid="false"
     inkscape:zoom="14.75"
     inkscape:cx="0.71186441"
     inkscape:cy="8"
     inkscape:window-x="0"
     inkscape:window-y="25"
     inkscape:window-maximized="0"
     inkscape:current-layer="svg6" />
  <defs
     id="defs3051">
    <style
       id="current-color-scheme" />
  </defs>
  <path
     d="M 1.813,2.29 A 0.475,0.475 0 0 0 1.338,2.765 v 10.47 c 0,0.263 0.212,0.475 0.475,0.475 h 12.374 a 0.475,0.475 0 0 0 0.475,-0.475 V 11.33 a 0.474,0.474 0 0 0 -0.03,-0.163 h 0.03 V 2.765 A 0.475,0.475 0 0 0 14.187,2.29 Z M 2.29,3.24 h 11.42 v 9.487 H 2.29 V 3.241 Z m 9.517,0.953 c -0.52,0 -0.951,0.432 -0.951,0.951 0,0.52 0.43,0.952 0.95,0.952 a 0.96,0.96 0 0 0 0.953,-0.952 c 0,-0.52 -0.432,-0.95 -0.952,-0.95 z M 5.264,7.715 A 2.552,2.552 0 0 0 4.944,7.73 C 4.318,7.798 3.719,8.104 3.084,8.673 v 3.199 h 9.805 V 10.55 C 10.279,10.426 8.713,9.264 7.303,8.435 6.653,8.052 5.998,7.727 5.263,7.715 Z"
     id="path22"
     inkscape:connector-curvature="0"
     style="color:#090d11;fill:#f9f9f9;stroke-width:0.60600001" />
</svg>
