<?xml version="1.0" encoding="UTF-8" standalone="no"?>
<svg
   xmlns:dc="http://purl.org/dc/elements/1.1/"
   xmlns:cc="http://creativecommons.org/ns#"
   xmlns:rdf="http://www.w3.org/1999/02/22-rdf-syntax-ns#"
   xmlns:svg="http://www.w3.org/2000/svg"
   xmlns="http://www.w3.org/2000/svg"
   xmlns:sodipodi="http://sodipodi.sourceforge.net/DTD/sodipodi-0.dtd"
   xmlns:inkscape="http://www.inkscape.org/namespaces/inkscape"
   viewBox="0 0 16 16"
   id="svg6"
   version="1.1"
   sodipodi:docname="folder-templates-symbolic.svg"
   inkscape:version="0.92.4 (5da689c313, 2019-01-14)">
  <metadata
     id="metadata8">
    <rdf:RDF>
      <cc:Work
         rdf:about="">
        <dc:format>image/svg+xml</dc:format>
        <dc:type
           rdf:resource="http://purl.org/dc/dcmitype/StillImage" />
        <dc:title></dc:title>
      </cc:Work>
    </rdf:RDF>
  </metadata>
  <sodipodi:namedview
     pagecolor="#ffffff"
     bordercolor="#666666"
     borderopacity="1"
     objecttolerance="10"
     gridtolerance="10"
     guidetolerance="10"
     inkscape:pageopacity="0"
     inkscape:pageshadow="2"
     inkscape:window-width="1160"
     inkscape:window-height="480"
     id="namedview6"
     showgrid="false"
     inkscape:zoom="14.75"
     inkscape:cx="0.71186441"
     inkscape:cy="8"
     inkscape:window-x="0"
     inkscape:window-y="25"
     inkscape:window-maximized="0"
     inkscape:current-layer="svg6" />
  <defs
     id="defs3051">
    <style
       id="current-color-scheme" />
  </defs>
  <path
     d="m 3.716,1.768 c -0.642,0 -1.17,0.528 -1.17,1.169 v 1.617 h 0.779 v 0.82 h -0.78 v 1.618 h 0.78 v 0.82 H 2.545 V 9.43 h 0.78 v 0.82 h -0.78 v 2.814 c 0,0.64 0.53,1.168 1.17,1.168 h 5.063 v -0.006 a 0.759,0.759 0 0 0 0.551,-0.223 l 3.896,-3.894 c 0.49,-0.49 0.142,-1.33 -0.552,-1.33 H 8.778 A 0.78,0.78 0 0 0 8,9.558 v 3.117 H 8.78 V 9.558 h 3.894 L 8.779,13.453 H 3.716 a 0.38,0.38 0 0 1 -0.39,-0.39 V 2.937 a 0.38,0.38 0 0 1 0.39,-0.39 H 4.149 V 1.769 Z m 1.254,0 v 0.78 h 1.617 v -0.78 z m 2.438,0 v 0.78 h 1.617 v -0.78 z m 2.438,0 v 0.78 h 1.617 v -0.78 z m 2.438,0 v 0.78 c 0.223,0 0.373,0.166 0.39,0.389 h 0.778 a 1.175,1.175 0 0 0 -1.168,-1.17 z m 0.39,1.99 v 1.616 h 0.778 V 3.757 Z m 0,2.437 V 8 h 0.778 V 6.195 Z"
     id="path22"
     inkscape:connector-curvature="0"
     style="fill:#f9f9f9;stroke-width:0.57300001" />
</svg>
