<?xml version="1.0" encoding="UTF-8" standalone="no"?>
<svg
   xmlns:dc="http://purl.org/dc/elements/1.1/"
   xmlns:cc="http://creativecommons.org/ns#"
   xmlns:rdf="http://www.w3.org/1999/02/22-rdf-syntax-ns#"
   xmlns:svg="http://www.w3.org/2000/svg"
   xmlns="http://www.w3.org/2000/svg"
   xmlns:sodipodi="http://sodipodi.sourceforge.net/DTD/sodipodi-0.dtd"
   xmlns:inkscape="http://www.inkscape.org/namespaces/inkscape"
   viewBox="0 0 16 16"
   id="svg6"
   version="1.1"
   sodipodi:docname="folder-symbolic.svg"
   inkscape:version="0.92.4 (5da689c313, 2019-01-14)">
  <metadata
     id="metadata8">
    <rdf:RDF>
      <cc:Work
         rdf:about="">
        <dc:format>image/svg+xml</dc:format>
        <dc:type
           rdf:resource="http://purl.org/dc/dcmitype/StillImage" />
        <dc:title></dc:title>
      </cc:Work>
    </rdf:RDF>
  </metadata>
  <sodipodi:namedview
     pagecolor="#ffffff"
     bordercolor="#666666"
     borderopacity="1"
     objecttolerance="10"
     gridtolerance="10"
     guidetolerance="10"
     inkscape:pageopacity="0"
     inkscape:pageshadow="2"
     inkscape:window-width="1160"
     inkscape:window-height="480"
     id="namedview6"
     showgrid="false"
     inkscape:zoom="14.75"
     inkscape:cx="0.71186441"
     inkscape:cy="8"
     inkscape:window-x="0"
     inkscape:window-y="25"
     inkscape:window-maximized="0"
     inkscape:current-layer="svg6" />
  <defs
     id="defs3051">
    <style
       id="current-color-scheme" />
  </defs>
  <path
     style="fill:#f9f9f9;stroke-width:0.82200003;marker:none"
     d="m 3.07,1.836 c 0,0 -1.234,-0.026 -1.234,1.207 L 1.889,6.771 A 1.472,1.472 0 0 0 1.836,7.178 v 6.986 h 11.096 c 0,0 1.232,0 1.232,-1.232 L 14.166,5.51 c 0,-0.067 -0.017,-0.117 -0.023,-0.176 L 14.164,4.713 C 14.206,3.481 12.932,3.48 12.932,3.48 H 8.412 L 6.768,1.836 Z M 8.057,4.969 H 12.3 c 0,0 1.039,-0.023 1.039,0.982 v 6.457 c 0,1.005 -1.07,1.006 -1.07,1.006 H 2.633 l -0.002,-5.7 c 0,-1.004 1.072,-1.003 1.072,-1.003 h 2.498 l 0.43,-0.404 z"
     id="path5603"
     inkscape:connector-curvature="0" />
</svg>
