<?xml version="1.0" encoding="UTF-8" standalone="no"?>
<svg
   xmlns:dc="http://purl.org/dc/elements/1.1/"
   xmlns:cc="http://creativecommons.org/ns#"
   xmlns:rdf="http://www.w3.org/1999/02/22-rdf-syntax-ns#"
   xmlns:svg="http://www.w3.org/2000/svg"
   xmlns="http://www.w3.org/2000/svg"
   xmlns:sodipodi="http://sodipodi.sourceforge.net/DTD/sodipodi-0.dtd"
   xmlns:inkscape="http://www.inkscape.org/namespaces/inkscape"
   viewBox="0 0 16 16"
   id="svg6"
   version="1.1"
   sodipodi:docname="folder-new-symbolic.svg"
   inkscape:version="0.92.4 (5da689c313, 2019-01-14)">
  <metadata
     id="metadata8">
    <rdf:RDF>
      <cc:Work
         rdf:about="">
        <dc:format>image/svg+xml</dc:format>
        <dc:type
           rdf:resource="http://purl.org/dc/dcmitype/StillImage" />
        <dc:title></dc:title>
      </cc:Work>
    </rdf:RDF>
  </metadata>
  <sodipodi:namedview
     pagecolor="#ffffff"
     bordercolor="#666666"
     borderopacity="1"
     objecttolerance="10"
     gridtolerance="10"
     guidetolerance="10"
     inkscape:pageopacity="0"
     inkscape:pageshadow="2"
     inkscape:window-width="1160"
     inkscape:window-height="480"
     id="namedview6"
     showgrid="false"
     inkscape:zoom="14.75"
     inkscape:cx="0.71186441"
     inkscape:cy="8"
     inkscape:window-x="0"
     inkscape:window-y="25"
     inkscape:window-maximized="0"
     inkscape:current-layer="svg6" />
  <defs
     id="defs3051">
    <style
       id="current-color-scheme" />
  </defs>
  <path
     style="fill:#f9f9f9;stroke-width:0.82200003;marker:none"
     d="m 3.07,1.836 c 0,0 -1.234,-0.026 -1.234,1.207 L 1.889,6.771 A 1.472,1.472 0 0 0 1.836,7.178 v 6.986 h 7.596 v -0.75 h -6.8 L 2.631,7.714 C 2.631,6.71 3.703,6.711 3.703,6.711 H 6.201 L 6.631,6.307 8.057,4.969 H 12.3 c 0,0 1.039,-0.023 1.039,0.982 v 3.506 h 0.824 L 14.165,5.51 c 0,-0.067 -0.017,-0.117 -0.023,-0.176 L 14.163,4.713 C 14.205,3.481 12.931,3.48 12.931,3.48 H 8.411 L 6.768,1.836 Z m 8.239,7.596 v 1.877 H 9.432 v 0.939 h 1.877 v 1.879 h 0.939 v -1.879 h 1.879 v -0.94 H 12.248 V 9.433 h -0.94 z"
     id="path5603"
     inkscape:connector-curvature="0" />
</svg>
