<?xml version="1.0" encoding="UTF-8" standalone="no"?>
<svg
   xmlns:dc="http://purl.org/dc/elements/1.1/"
   xmlns:cc="http://creativecommons.org/ns#"
   xmlns:rdf="http://www.w3.org/1999/02/22-rdf-syntax-ns#"
   xmlns:svg="http://www.w3.org/2000/svg"
   xmlns="http://www.w3.org/2000/svg"
   xmlns:sodipodi="http://sodipodi.sourceforge.net/DTD/sodipodi-0.dtd"
   xmlns:inkscape="http://www.inkscape.org/namespaces/inkscape"
   viewBox="0 0 16 16"
   id="svg6"
   version="1.1"
   sodipodi:docname="folder-drag-accept-symbolic.svg"
   inkscape:version="0.92.4 (5da689c313, 2019-01-14)">
  <metadata
     id="metadata8">
    <rdf:RDF>
      <cc:Work
         rdf:about="">
        <dc:format>image/svg+xml</dc:format>
        <dc:type
           rdf:resource="http://purl.org/dc/dcmitype/StillImage" />
        <dc:title></dc:title>
      </cc:Work>
    </rdf:RDF>
  </metadata>
  <sodipodi:namedview
     pagecolor="#ffffff"
     bordercolor="#666666"
     borderopacity="1"
     objecttolerance="10"
     gridtolerance="10"
     guidetolerance="10"
     inkscape:pageopacity="0"
     inkscape:pageshadow="2"
     inkscape:window-width="1160"
     inkscape:window-height="480"
     id="namedview6"
     showgrid="false"
     inkscape:zoom="14.75"
     inkscape:cx="0.71186441"
     inkscape:cy="8"
     inkscape:window-x="0"
     inkscape:window-y="25"
     inkscape:window-maximized="0"
     inkscape:current-layer="svg6" />
  <defs
     id="defs3051">
    <style
       id="current-color-scheme" />
  </defs>
  <path
     style="fill:#f9f9f9;stroke-width:0.81800002;marker:none"
     d="m 3.094,1.867 c 0,0 -1.229,-0.025 -1.229,1.201 L 1.92,6.778 A 1.464,1.464 0 0 0 1.867,7.182 v 6.95 h 11.04 c 0,0 1.226,0 1.226,-1.226 l 0.002,-7.385 c 0,-0.064 -0.015,-0.112 -0.022,-0.17 l 0.02,-0.622 C 14.175,3.503 12.906,3.502 12.906,3.502 H 8.408 L 6.773,1.867 h -3.68 z m 0.547,0.824 h 2.78 l 1.632,1.63 H 7.592 L 5.955,5.954 H 3.094 c 0,0 -0.218,0.021 -0.461,0.106 L 2.6,3.709 c 0,-0.52 0.26,-0.774 0.521,-0.898 0.26,-0.125 0.52,-0.12 0.52,-0.12 z m 4.416,2.291 h 4.222 c 0,0 1.034,-0.021 1.034,0.979 v 6.426 c 0,1 -1.063,1 -1.063,1 H 2.66 L 2.658,7.717 c 0,-1 1.065,-1 1.065,-1 h 2.486 l 0.43,-0.403 z"
     id="path5603"
     inkscape:connector-curvature="0" />
</svg>
