<?xml version="1.0" encoding="UTF-8" standalone="no"?>
<svg
   xmlns:dc="http://purl.org/dc/elements/1.1/"
   xmlns:cc="http://creativecommons.org/ns#"
   xmlns:rdf="http://www.w3.org/1999/02/22-rdf-syntax-ns#"
   xmlns:svg="http://www.w3.org/2000/svg"
   xmlns="http://www.w3.org/2000/svg"
   xmlns:sodipodi="http://sodipodi.sourceforge.net/DTD/sodipodi-0.dtd"
   xmlns:inkscape="http://www.inkscape.org/namespaces/inkscape"
   viewBox="0 0 16 16"
   id="svg6"
   version="1.1"
   sodipodi:docname="folder-remote-symbolic.svg"
   inkscape:version="0.92.4 (5da689c313, 2019-01-14)">
  <metadata
     id="metadata8">
    <rdf:RDF>
      <cc:Work
         rdf:about="">
        <dc:format>image/svg+xml</dc:format>
        <dc:type
           rdf:resource="http://purl.org/dc/dcmitype/StillImage" />
        <dc:title></dc:title>
      </cc:Work>
    </rdf:RDF>
  </metadata>
  <sodipodi:namedview
     pagecolor="#ffffff"
     bordercolor="#666666"
     borderopacity="1"
     objecttolerance="10"
     gridtolerance="10"
     guidetolerance="10"
     inkscape:pageopacity="0"
     inkscape:pageshadow="2"
     inkscape:window-width="1160"
     inkscape:window-height="480"
     id="namedview6"
     showgrid="false"
     inkscape:zoom="14.75"
     inkscape:cx="0.71186441"
     inkscape:cy="8"
     inkscape:window-x="0"
     inkscape:window-y="25"
     inkscape:window-maximized="0"
     inkscape:current-layer="svg6" />
  <defs
     id="defs3051">
    <style
       id="current-color-scheme" />
  </defs>
  <path
     d="M 3.722,1.801 A 0.826,0.826 0 0 0 3.05,2.628 V 9.24 a 0.826,0.826 0 0 0 0.827,0.827 H 6.64 a 0.41800628,0.41800628 0 1 0 0.129,0.826 h 2.479 a 0.415,0.415 0 1 0 0.077,-0.826 h 2.841 A 0.826,0.826 0 0 0 12.994,9.24 V 2.628 A 0.826,0.826 0 0 0 12.166,1.801 h -8.29 a 0.826,0.826 0 0 0 -0.077,0 0.826,0.826 0 0 0 -0.078,0 z M 3.82,2.796 h 8.404 V 9.072 H 3.82 Z m 2.907,8.922 a 0.414,0.414 0 0 0 -0.035,0.002 0.415,0.415 0 0 0 -0.052,0 0.415,0.415 0 0 0 0,0.826 H 1.81 a 0.414,0.414 0 0 0 -0.077,0 0.41528845,0.41528845 0 1 0 0.077,0.827 H 7.183 V 14.2 h 1.653 v -0.827 h 5.372 a 0.414,0.414 0 1 0 0,-0.827 H 9.326 A 0.415,0.415 0 1 0 9.249,11.72 H 6.769 A 0.414,0.414 0 0 0 6.727,11.718 Z"
     id="path22"
     inkscape:connector-curvature="0"
     style="fill:#f9f9f9;stroke-width:0.55199999" />
</svg>
