<?xml version="1.0" encoding="UTF-8" standalone="no"?>
<svg
   xmlns:dc="http://purl.org/dc/elements/1.1/"
   xmlns:cc="http://creativecommons.org/ns#"
   xmlns:rdf="http://www.w3.org/1999/02/22-rdf-syntax-ns#"
   xmlns:svg="http://www.w3.org/2000/svg"
   xmlns="http://www.w3.org/2000/svg"
   xmlns:sodipodi="http://sodipodi.sourceforge.net/DTD/sodipodi-0.dtd"
   xmlns:inkscape="http://www.inkscape.org/namespaces/inkscape"
   viewBox="0 0 16 16"
   id="svg6"
   version="1.1"
   sodipodi:docname="folder-documents-symbolic.svg"
   inkscape:version="0.92.4 (5da689c313, 2019-01-14)">
  <metadata
     id="metadata8">
    <rdf:RDF>
      <cc:Work
         rdf:about="">
        <dc:format>image/svg+xml</dc:format>
        <dc:type
           rdf:resource="http://purl.org/dc/dcmitype/StillImage" />
        <dc:title></dc:title>
      </cc:Work>
    </rdf:RDF>
  </metadata>
  <sodipodi:namedview
     pagecolor="#ffffff"
     bordercolor="#666666"
     borderopacity="1"
     objecttolerance="10"
     gridtolerance="10"
     guidetolerance="10"
     inkscape:pageopacity="0"
     inkscape:pageshadow="2"
     inkscape:window-width="1160"
     inkscape:window-height="480"
     id="namedview6"
     showgrid="false"
     inkscape:zoom="14.75"
     inkscape:cx="0.71186441"
     inkscape:cy="8"
     inkscape:window-x="0"
     inkscape:window-y="25"
     inkscape:window-maximized="0"
     inkscape:current-layer="svg6" />
  <defs
     id="defs3051">
    <style
       id="current-color-scheme" />
  </defs>
  <path
     d="M 4.122,2.36 A 1.063,1.063 0 0 0 3.064,3.418 v 9.164 a 1.063,1.063 0 0 0 1.058,1.058 h 4.582 v -0.006 a 0.684,0.684 0 0 0 0.499,-0.2 L 12.728,9.908 A 0.705,0.705 0 0 0 12.229,8.705 H 8.704 A 0.704,0.704 0 0 0 8,9.41 v 2.82 H 8.704 V 9.41 H 12.23 L 8.704,12.935 H 4.122 A 0.344,0.344 0 0 1 3.77,12.582 V 3.418 c 0,-0.202 0.15,-0.353 0.352,-0.353 h 7.755 c 0.201,0 0.337,0.152 0.353,0.353 V 8 h 0.704 V 3.418 A 1.063,1.063 0 0 0 11.877,2.36 Z m 1.41,2.115 c -0.477,-0.006 -0.477,0.712 0,0.705 h 2.115 c 0.477,0.007 0.477,-0.712 0,-0.705 z m 0,1.41 c -0.477,-0.007 -0.477,0.712 0,0.705 h 2.115 c 0.477,0.007 0.477,-0.712 0,-0.705 z"
     class="ColorScheme-Background"
     id="path22-3"
     inkscape:connector-curvature="0"
     style="fill:#f9f9f9;stroke-width:0.47499999" />
</svg>
