<?xml version="1.0" encoding="UTF-8" standalone="no"?>
<svg
   xmlns:dc="http://purl.org/dc/elements/1.1/"
   xmlns:cc="http://creativecommons.org/ns#"
   xmlns:rdf="http://www.w3.org/1999/02/22-rdf-syntax-ns#"
   xmlns:svg="http://www.w3.org/2000/svg"
   xmlns="http://www.w3.org/2000/svg"
   xmlns:sodipodi="http://sodipodi.sourceforge.net/DTD/sodipodi-0.dtd"
   xmlns:inkscape="http://www.inkscape.org/namespaces/inkscape"
   viewBox="0 0 16 16"
   id="svg6"
   version="1.1"
   sodipodi:docname="folder-music-symbolic.svg"
   inkscape:version="0.92.4 (5da689c313, 2019-01-14)">
  <metadata
     id="metadata8">
    <rdf:RDF>
      <cc:Work
         rdf:about="">
        <dc:format>image/svg+xml</dc:format>
        <dc:type
           rdf:resource="http://purl.org/dc/dcmitype/StillImage" />
        <dc:title></dc:title>
      </cc:Work>
    </rdf:RDF>
  </metadata>
  <sodipodi:namedview
     pagecolor="#ffffff"
     bordercolor="#666666"
     borderopacity="1"
     objecttolerance="10"
     gridtolerance="10"
     guidetolerance="10"
     inkscape:pageopacity="0"
     inkscape:pageshadow="2"
     inkscape:window-width="1160"
     inkscape:window-height="480"
     id="namedview6"
     showgrid="false"
     inkscape:zoom="14.75"
     inkscape:cx="0.71186441"
     inkscape:cy="8"
     inkscape:window-x="0"
     inkscape:window-y="25"
     inkscape:window-maximized="0"
     inkscape:current-layer="svg6" />
  <defs
     id="defs3051">
    <style
       id="current-color-scheme" />
  </defs>
  <path
     d="m 9.399,1.495 c -0.348,-0.001 -0.5,0.257 -0.481,0.6 l 0.002,8.932 c 0,0.175 -0.021,0.344 -0.053,0.51 -0.007,0.038 -0.02,0.075 -0.028,0.113 a 2.679,2.679 0 0 1 -0.121,0.383 c -0.013,0.031 -0.025,0.063 -0.04,0.094 a 2.685,2.685 0 0 1 -0.205,0.374 l -0.034,0.055 a 2.694,2.694 0 0 1 -1.163,0.956 c -0.023,0.01 -0.047,0.016 -0.07,0.026 -0.095,0.038 -0.191,0.077 -0.293,0.104 -0.033,0.01 -0.066,0.01 -0.099,0.017 -0.052,0.012 -0.105,0.02 -0.16,0.029 A 2.705,2.705 0 0 1 6.31,13.722 c -0.033,0.002 -0.063,0.011 -0.096,0.011 -0.025,0 -0.05,-0.006 -0.076,-0.007 a 2.686,2.686 0 0 1 -0.4,-0.042 C 5.709,13.679 5.681,13.678 5.652,13.671 a 2.696,2.696 0 0 1 -0.944,-0.4 L 4.699,13.264 A 2.688,2.688 0 0 1 4.274,12.902 2.7,2.7 0 0 1 3.953,12.499 C 3.927,12.459 3.894,12.424 3.87,12.381 3.825,12.303 3.793,12.221 3.756,12.141 3.742,12.109 3.726,12.08 3.713,12.048 A 2.705,2.705 0 0 1 3.563,11.569 2.708,2.708 0 0 1 3.51,11.054 L 3.508,11.027 c 0,-0.028 0.008,-0.054 0.009,-0.082 0.004,-0.133 0.017,-0.266 0.04,-0.397 A 2.677,2.677 0 0 1 3.702,10.039 L 3.739,9.945 C 3.804,9.797 3.879,9.655 3.972,9.519 4.068,9.376 4.174,9.239 4.299,9.114 4.425,8.988 4.562,8.882 4.704,8.787 4.841,8.694 4.984,8.618 5.132,8.553 L 5.226,8.516 A 2.694,2.694 0 0 1 5.734,8.371 2.72,2.72 0 0 1 6.131,8.331 c 0.028,-10e-4 0.055,-0.01 0.083,-0.01 0.01,0 0.017,0.003 0.026,0.003 0.173,0.002 0.348,0.02 0.52,0.055 H 6.764 C 6.771,8.38 6.778,8.383 6.784,8.385 6.942,8.419 7.098,8.47 7.251,8.533 l 0.075,0.038 c 0.081,0.036 0.163,0.068 0.24,0.113 L 7.953,8.014 A 3.476,3.476 0 0 0 5.759,7.579 3.474,3.474 0 0 0 3.752,8.567 a 3.481,3.481 0 0 0 -0.551,4.2 3.481,3.481 0 0 0 3.912,1.62 3.482,3.482 0 0 0 2.58,-3.36 V 2.711 l 3.09,2.48 0.482,-0.605 z M 6.214,9.37 A 1.657,1.657 0 1 0 7.871,11.027 1.657,1.657 0 0 0 6.214,9.37 Z"
     id="path22"
     inkscape:connector-curvature="0"
     style="color:#ffffff;fill:#f9f9f9;stroke-width:0.56999999" />
</svg>
