<?xml version="1.0" encoding="UTF-8" standalone="no"?>
<svg
   xmlns:dc="http://purl.org/dc/elements/1.1/"
   xmlns:cc="http://creativecommons.org/ns#"
   xmlns:rdf="http://www.w3.org/1999/02/22-rdf-syntax-ns#"
   xmlns:svg="http://www.w3.org/2000/svg"
   xmlns="http://www.w3.org/2000/svg"
   xmlns:sodipodi="http://sodipodi.sourceforge.net/DTD/sodipodi-0.dtd"
   xmlns:inkscape="http://www.inkscape.org/namespaces/inkscape"
   viewBox="0 0 16 16"
   id="svg6"
   version="1.1"
   sodipodi:docname="network-server-symbolic.svg"
   inkscape:version="0.92.4 (5da689c313, 2019-01-14)">
  <metadata
     id="metadata8">
    <rdf:RDF>
      <cc:Work
         rdf:about="">
        <dc:format>image/svg+xml</dc:format>
        <dc:type
           rdf:resource="http://purl.org/dc/dcmitype/StillImage" />
        <dc:title></dc:title>
      </cc:Work>
    </rdf:RDF>
  </metadata>
  <sodipodi:namedview
     pagecolor="#ffffff"
     bordercolor="#666666"
     borderopacity="1"
     objecttolerance="10"
     gridtolerance="10"
     guidetolerance="10"
     inkscape:pageopacity="0"
     inkscape:pageshadow="2"
     inkscape:window-width="1160"
     inkscape:window-height="480"
     id="namedview6"
     showgrid="false"
     inkscape:zoom="14.75"
     inkscape:cx="0.71186441"
     inkscape:cy="8"
     inkscape:window-x="0"
     inkscape:window-y="25"
     inkscape:window-maximized="0"
     inkscape:current-layer="svg6" />
  <defs
     id="defs3051">
    <style
       id="current-color-scheme" />
  </defs>
  <path
     d="m 3.246,1.662 c -0.864,0 -1.584,0.72 -1.584,1.584 v 9.508 c 0,0.864 0.72,1.584 1.584,1.584 h 9.508 c 0.864,0 1.584,-0.72 1.584,-1.584 V 3.246 c 0,-0.864 -0.72,-1.584 -1.584,-1.584 z m 0,0.793 h 9.508 c 0.412,0 0.743,0.312 0.783,0.713 l -0.023,3.457 a 0.788,0.788 0 0 1 -0.76,0.582 H 3.246 A 0.786,0.786 0 0 1 2.486,6.625 L 2.463,3.168 A 0.788,0.788 0 0 1 3.246,2.455 Z M 2.456,7.207 A 0.79,0.79 0 0 0 3.246,8 h 9.508 a 0.79,0.79 0 0 0 0.79,-0.793 v 2.377 a 0.79,0.79 0 0 1 -0.79,0.793 H 3.246 A 0.79,0.79 0 0 1 2.456,9.584 Z m 0,3.17 c 0,0.439 0.351,0.791 0.79,0.791 h 9.508 a 0.788,0.788 0 0 0 0.79,-0.791 v 2.377 a 0.788,0.788 0 0 1 -0.79,0.79 H 3.246 a 0.79,0.79 0 0 1 -0.79,-0.79 V 11.961 L 2.479,11.357 A 0.79,0.79 0 0 1 2.455,11.168 v -0.791 z"
     id="path22"
     inkscape:connector-curvature="0"
     style="color:#ffffff;fill:#f9f9f9;stroke-width:0.57599998" />
</svg>
