<?xml version="1.0" encoding="UTF-8" standalone="no"?>
<svg
   xmlns:dc="http://purl.org/dc/elements/1.1/"
   xmlns:cc="http://creativecommons.org/ns#"
   xmlns:rdf="http://www.w3.org/1999/02/22-rdf-syntax-ns#"
   xmlns:svg="http://www.w3.org/2000/svg"
   xmlns="http://www.w3.org/2000/svg"
   xmlns:sodipodi="http://sodipodi.sourceforge.net/DTD/sodipodi-0.dtd"
   xmlns:inkscape="http://www.inkscape.org/namespaces/inkscape"
   viewBox="0 0 16 16"
   id="svg6"
   version="1.1"
   sodipodi:docname="non-starred-symbolic.svg"
   inkscape:version="0.92.4 (5da689c313, 2019-01-14)">
  <metadata
     id="metadata8">
    <rdf:RDF>
      <cc:Work
         rdf:about="">
        <dc:format>image/svg+xml</dc:format>
        <dc:type
           rdf:resource="http://purl.org/dc/dcmitype/StillImage" />
        <dc:title></dc:title>
      </cc:Work>
    </rdf:RDF>
  </metadata>
  <sodipodi:namedview
     pagecolor="#ffffff"
     bordercolor="#666666"
     borderopacity="1"
     objecttolerance="10"
     gridtolerance="10"
     guidetolerance="10"
     inkscape:pageopacity="0"
     inkscape:pageshadow="2"
     inkscape:window-width="1160"
     inkscape:window-height="480"
     id="namedview6"
     showgrid="false"
     inkscape:zoom="14.75"
     inkscape:cx="0.71186441"
     inkscape:cy="8"
     inkscape:window-x="0"
     inkscape:window-y="25"
     inkscape:window-maximized="0"
     inkscape:current-layer="svg6" />
  <defs
     id="defs3051">
    <style
       id="current-color-scheme" />
  </defs>
  <path
     d="m 8.015,1.657 c -0.187,0 -0.25,0.085 -0.29,0.124 A 0.532,0.532 0 0 0 7.648,1.877 1.41,1.41 0 0 0 7.551,2.054 C 7.488,2.184 7.419,2.35 7.34,2.549 7.181,2.948 6.989,3.47 6.798,3.995 6.608,4.521 6.42,5.049 6.271,5.449 6.197,5.649 6.131,5.817 6.084,5.932 6.082,5.938 6.079,5.939 6.076,5.945 L 6.063,5.946 C 5.939,5.956 5.759,5.966 5.545,5.976 5.12,5.996 4.56,6.013 4.001,6.032 3.442,6.052 2.886,6.072 2.458,6.101 A 7.931,7.931 0 0 0 1.921,6.151 1.459,1.459 0 0 0 1.724,6.188 C 1.691,6.197 1.658,6.206 1.608,6.231 1.558,6.257 1.46,6.291 1.403,6.469 1.345,6.647 1.404,6.734 1.429,6.784 c 0.025,0.05 0.048,0.077 0.069,0.104 0.043,0.053 0.084,0.095 0.136,0.144 0.104,0.1 0.241,0.22 0.406,0.356 A 54.977,54.977 0 0 0 3.25,8.349 C 3.69,8.693 4.135,9.036 4.469,9.301 4.635,9.433 4.776,9.548 4.87,9.629 L 4.88,9.638 4.877,9.652 c -0.029,0.121 -0.075,0.296 -0.132,0.5 -0.113,0.412 -0.27,0.951 -0.423,1.489 a 54.97,54.97 0 0 0 -0.411,1.489 7.492,7.492 0 0 0 -0.12,0.525 1.45,1.45 0 0 0 -0.026,0.2 0.533,0.533 0 0 0 0.007,0.123 c 0.009,0.055 0.013,0.16 0.164,0.27 0.151,0.109 0.25,0.08 0.305,0.07 0.056,-0.008 0.087,-0.021 0.12,-0.033 0.063,-0.024 0.118,-0.05 0.182,-0.084 0.127,-0.069 0.28,-0.163 0.462,-0.278 A 54.794,54.794 0 0 0 6.292,13.07 c 0.463,-0.314 0.927,-0.628 1.282,-0.864 0.17,-0.112 0.31,-0.204 0.414,-0.268 l 0.002,10e-4 c 0.107,0.064 0.258,0.164 0.436,0.282 0.355,0.235 0.818,0.55 1.282,0.863 a 55,55 0 0 0 1.287,0.854 c 0.182,0.114 0.335,0.208 0.462,0.277 0.064,0.034 0.12,0.06 0.182,0.084 0.032,0.012 0.065,0.025 0.12,0.034 0.055,0.008 0.154,0.038 0.305,-0.072 0.15,-0.109 0.155,-0.214 0.164,-0.27 a 0.532,0.532 0 0 0 0.007,-0.123 1.468,1.468 0 0 0 -0.026,-0.2 7.984,7.984 0 0 0 -0.12,-0.524 55.126,55.126 0 0 0 -0.41,-1.489 c -0.154,-0.537 -0.311,-1.077 -0.425,-1.488 -0.056,-0.205 -0.102,-0.38 -0.13,-0.5 l -0.005,-0.015 0.01,-0.01 c 0.095,-0.08 0.235,-0.195 0.402,-0.327 0.334,-0.265 0.778,-0.608 1.22,-0.952 a 54.978,54.978 0 0 0 1.209,-0.96 c 0.165,-0.137 0.302,-0.256 0.406,-0.356 0.051,-0.05 0.093,-0.092 0.136,-0.145 0.02,-0.026 0.043,-0.053 0.069,-0.103 0.025,-0.05 0.084,-0.137 0.026,-0.315 C 14.54,6.306 14.441,6.272 14.392,6.246 14.342,6.22 14.308,6.212 14.275,6.202 A 1.459,1.459 0 0 0 14.079,6.164 7.903,7.903 0 0 0 13.541,6.115 54.549,54.549 0 0 0 11.999,6.047 C 11.44,6.027 10.88,6.01 10.455,5.991 10.241,5.981 10.061,5.971 9.937,5.961 L 9.924,5.96 C 9.921,5.954 9.918,5.953 9.916,5.946 A 15.215,15.215 0 0 1 9.729,5.464 C 9.579,5.064 9.391,4.536 9.201,4.01 A 54.505,54.505 0 0 0 8.661,2.563 7.903,7.903 0 0 0 8.449,2.068 1.478,1.478 0 0 0 8.352,1.891 0.532,0.532 0 0 0 8.274,1.796 C 8.237,1.759 8.176,1.685 8.016,1.676 V 1.658 H 8.015 Z M 7.997,2.98 c 0.144,0.367 0.312,0.816 0.484,1.292 0.19,0.523 0.378,1.053 0.53,1.46 C 9.087,5.936 9.153,6.11 9.208,6.242 9.235,6.309 9.261,6.365 9.286,6.415 9.299,6.44 9.31,6.464 9.328,6.491 9.345,6.52 9.35,6.55 9.445,6.618 9.54,6.688 9.57,6.683 9.602,6.691 9.634,6.699 9.66,6.701 9.687,6.705 9.743,6.714 9.803,6.72 9.875,6.726 c 0.142,0.012 0.327,0.024 0.545,0.034 0.435,0.02 0.996,0.034 1.552,0.053 0.519,0.018 1.017,0.04 1.417,0.065 -0.31,0.254 -0.7,0.562 -1.111,0.881 -0.439,0.342 -0.883,0.685 -1.224,0.956 -0.17,0.135 -0.314,0.253 -0.423,0.346 a 2.745,2.745 0 0 0 -0.139,0.128 c -0.02,0.02 -0.039,0.037 -0.06,0.062 -0.021,0.026 -0.05,0.04 -0.086,0.15 -0.036,0.112 -0.02,0.14 -0.018,0.173 a 0.998,0.998 0 0 0 0.01,0.085 c 0.008,0.055 0.022,0.115 0.039,0.184 0.033,0.14 0.08,0.322 0.139,0.531 0.115,0.42 0.272,0.958 0.426,1.493 0.142,0.498 0.276,0.978 0.376,1.365 a 56.688,56.688 0 0 1 -1.18,-0.78 C 9.676,12.138 9.214,11.822 8.851,11.582 A 14.937,14.937 0 0 0 8.39,11.287 3.245,3.245 0 0 0 8.227,11.192 C 8.203,11.179 8.179,11.167 8.149,11.154 8.123,11.144 8.091,11.129 8.016,11.124 v -0.017 c -0.11,0 -0.135,0.02 -0.165,0.033 -0.03,0.012 -0.054,0.025 -0.079,0.038 -0.05,0.025 -0.1,0.057 -0.162,0.094 -0.123,0.074 -0.28,0.175 -0.46,0.295 -0.364,0.24 -0.826,0.557 -1.287,0.87 -0.43,0.29 -0.843,0.565 -1.18,0.78 C 4.782,12.83 4.915,12.35 5.058,11.852 5.212,11.316 5.368,10.78 5.484,10.36 5.542,10.15 5.59,9.969 5.624,9.83 5.64,9.76 5.654,9.7 5.662,9.644 A 0.82,0.82 0 0 0 5.672,9.56 C 5.675,9.527 5.69,9.499 5.654,9.387 5.617,9.276 5.589,9.262 5.568,9.237 5.547,9.212 5.528,9.194 5.508,9.175 A 2.745,2.745 0 0 0 5.368,9.047 C 5.26,8.953 5.116,8.836 4.945,8.7 4.605,8.43 4.161,8.087 3.722,7.744 A 57.718,57.718 0 0 1 2.611,6.864 56.635,56.635 0 0 1 4.028,6.799 C 4.584,6.779 5.145,6.764 5.58,6.746 5.797,6.736 5.982,6.724 6.125,6.712 6.197,6.706 6.257,6.699 6.312,6.691 6.34,6.687 6.366,6.685 6.398,6.676 6.43,6.668 6.46,6.673 6.555,6.604 6.65,6.534 6.655,6.505 6.672,6.477 a 2.83,2.83 0 0 0 0.12,-0.25 C 6.847,6.095 6.912,5.922 6.989,5.718 7.141,5.31 7.329,4.781 7.519,4.257 7.689,3.787 7.855,3.345 7.997,2.979 Z"
     id="path22"
     inkscape:connector-curvature="0"
     style="color:#ffffff;fill:#f9f9f9;fill-opacity:0.30199998;stroke-width:0.56999999" />
</svg>
