<?xml version="1.0" encoding="UTF-8" standalone="no"?>
<svg
   xmlns:dc="http://purl.org/dc/elements/1.1/"
   xmlns:cc="http://creativecommons.org/ns#"
   xmlns:rdf="http://www.w3.org/1999/02/22-rdf-syntax-ns#"
   xmlns:svg="http://www.w3.org/2000/svg"
   xmlns="http://www.w3.org/2000/svg"
   xmlns:sodipodi="http://sodipodi.sourceforge.net/DTD/sodipodi-0.dtd"
   xmlns:inkscape="http://www.inkscape.org/namespaces/inkscape"
   viewBox="0 0 16 16"
   id="svg6"
   version="1.1"
   sodipodi:docname="semi-starred-symbolic.svg"
   inkscape:version="0.92.4 (5da689c313, 2019-01-14)">
  <metadata
     id="metadata9">
    <rdf:RDF>
      <cc:Work
         rdf:about="">
        <dc:format>image/svg+xml</dc:format>
        <dc:type
           rdf:resource="http://purl.org/dc/dcmitype/StillImage" />
        <dc:title></dc:title>
      </cc:Work>
    </rdf:RDF>
  </metadata>
  <sodipodi:namedview
     pagecolor="#ffffff"
     bordercolor="#666666"
     borderopacity="1"
     objecttolerance="10"
     gridtolerance="10"
     guidetolerance="10"
     inkscape:pageopacity="0"
     inkscape:pageshadow="2"
     inkscape:window-width="1160"
     inkscape:window-height="480"
     id="namedview7"
     showgrid="false"
     inkscape:zoom="14.75"
     inkscape:cx="0.71186441"
     inkscape:cy="8"
     inkscape:window-x="0"
     inkscape:window-y="25"
     inkscape:window-maximized="0"
     inkscape:current-layer="svg6" />
  <defs
     id="defs3051">
    <style
       id="current-color-scheme" />
  </defs>
  <path
     d="M 7.998,1.664 A 0.387,0.387 0 0 0 7.725,1.781 0.532,0.532 0 0 0 7.648,1.877 C 7.611,1.933 7.582,1.987 7.551,2.053 7.488,2.183 7.419,2.349 7.34,2.549 7.181,2.947 6.99,3.471 6.799,3.996 6.609,4.522 6.42,5.05 6.271,5.449 6.197,5.649 6.131,5.817 6.084,5.932 6.082,5.938 6.078,5.94 6.076,5.945 L 6.063,5.947 C 5.939,5.957 5.758,5.967 5.545,5.977 5.119,5.995 4.56,6.014 4.002,6.033 3.443,6.053 2.887,6.073 2.459,6.102 A 7.931,7.931 0 0 0 1.922,6.15 1.459,1.459 0 0 0 1.725,6.187 C 1.692,6.197 1.657,6.205 1.607,6.23 1.557,6.256 1.46,6.291 1.402,6.469 1.345,6.647 1.405,6.735 1.43,6.785 c 0.024,0.05 0.048,0.077 0.068,0.104 0.043,0.052 0.085,0.095 0.137,0.144 0.104,0.1 0.24,0.219 0.406,0.356 a 54.977,54.977 0 0 0 1.209,0.96 c 0.441,0.344 0.885,0.687 1.219,0.952 0.166,0.133 0.308,0.247 0.402,0.328 l 0.01,0.01 -0.004,0.013 a 13.77,13.77 0 0 1 -0.13,0.5 c -0.115,0.411 -0.27,0.951 -0.425,1.489 a 55.386,55.386 0 0 0 -0.412,1.49 7.453,7.453 0 0 0 -0.119,0.525 c -0.013,0.07 -0.022,0.131 -0.025,0.2 a 0.533,0.533 0 0 0 0.005,0.123 c 0.01,0.054 0.014,0.16 0.165,0.269 0.15,0.11 0.25,0.079 0.306,0.07 0.055,-0.008 0.087,-0.02 0.12,-0.033 0.062,-0.024 0.117,-0.05 0.181,-0.084 0.126,-0.068 0.28,-0.163 0.46,-0.277 a 54.794,54.794 0 0 0 1.29,-0.854 c 0.463,-0.313 0.926,-0.628 1.281,-0.863 0.169,-0.112 0.31,-0.205 0.414,-0.27 l 0.002,0.002 0.008,0.006 v -0.836 a 0.407,0.407 0 0 0 -0.146,0.03 c -0.031,0.012 -0.055,0.026 -0.08,0.039 -0.05,0.025 -0.101,0.056 -0.163,0.093 -0.122,0.075 -0.28,0.175 -0.46,0.295 -0.364,0.24 -0.825,0.557 -1.286,0.87 -0.43,0.29 -0.844,0.565 -1.181,0.78 0.1,-0.387 0.234,-0.866 0.377,-1.364 0.153,-0.536 0.31,-1.073 0.425,-1.493 C 5.542,10.149 5.59,9.968 5.623,9.829 5.64,9.758 5.653,9.698 5.663,9.643 A 0.82,0.82 0 0 0 5.672,9.559 C 5.674,9.526 5.69,9.499 5.654,9.387 5.618,9.276 5.589,9.261 5.568,9.237 5.547,9.211 5.528,9.194 5.508,9.174 A 2.745,2.745 0 0 0 5.369,9.044 15.86,15.86 0 0 0 4.945,8.699 C 4.605,8.429 4.16,8.087 3.721,7.744 A 57.718,57.718 0 0 1 2.611,6.864 56.635,56.635 0 0 1 4.027,6.797 C 4.584,6.777 5.145,6.763 5.58,6.744 5.797,6.734 5.982,6.723 6.125,6.711 6.196,6.705 6.257,6.698 6.313,6.689 6.34,6.685 6.367,6.684 6.398,6.676 6.431,6.668 6.46,6.672 6.555,6.604 6.649,6.534 6.655,6.504 6.672,6.477 A 2.789,2.789 0 0 0 6.793,6.227 C 6.848,6.094 6.913,5.921 6.988,5.717 7.141,5.309 7.328,4.78 7.518,4.256 7.688,3.786 7.856,3.344 7.998,2.979 Z"
     id="path850"
     inkscape:connector-curvature="0"
     style="color:#ffffff;fill:#f9f9f9;stroke-width:0.56999999" />
  <path
     d="M 7.998,1.664 V 2.98 c 0.144,0.366 0.312,0.817 0.484,1.292 0.19,0.524 0.377,1.053 0.53,1.461 0.075,0.204 0.14,0.377 0.195,0.51 0.027,0.066 0.053,0.122 0.078,0.172 A 0.914,0.914 0 0 0 9.328,6.491 C 9.345,6.52 9.35,6.549 9.445,6.618 9.54,6.688 9.57,6.682 9.602,6.69 9.634,6.698 9.66,6.7 9.687,6.704 9.743,6.713 9.803,6.72 9.875,6.726 c 0.142,0.012 0.327,0.025 0.545,0.035 0.435,0.02 0.997,0.033 1.553,0.053 0.519,0.017 1.016,0.04 1.416,0.064 -0.31,0.254 -0.701,0.562 -1.112,0.88 -0.438,0.343 -0.882,0.687 -1.222,0.958 -0.17,0.135 -0.315,0.252 -0.424,0.346 a 2.745,2.745 0 0 0 -0.139,0.127 c -0.02,0.019 -0.039,0.036 -0.06,0.062 -0.021,0.026 -0.05,0.039 -0.086,0.15 -0.037,0.111 -0.02,0.14 -0.018,0.172 0.002,0.034 0.006,0.058 0.01,0.086 0.009,0.055 0.022,0.114 0.039,0.184 0.033,0.14 0.08,0.321 0.139,0.531 0.115,0.42 0.272,0.957 0.425,1.492 0.143,0.499 0.277,0.979 0.377,1.365 A 56.688,56.688 0 0 1 10.137,12.452 C 9.675,12.139 9.215,11.822 8.852,11.582 A 14.937,14.937 0 0 0 8.391,11.286 3.17,3.17 0 0 0 8.227,11.192 C 8.202,11.18 8.179,11.168 8.148,11.155 8.122,11.145 8.09,11.129 8.016,11.124 v -0.018 c -0.012,0 -0.008,0.004 -0.018,0.004 v 0.836 c 0.106,0.065 0.253,0.16 0.428,0.276 0.355,0.235 0.818,0.55 1.281,0.863 0.463,0.313 0.927,0.624 1.29,0.854 0.18,0.113 0.333,0.208 0.46,0.277 0.064,0.034 0.119,0.06 0.182,0.084 a 0.547,0.547 0 0 0 0.12,0.033 c 0.055,0.009 0.154,0.04 0.305,-0.07 0.151,-0.11 0.155,-0.215 0.165,-0.27 a 0.532,0.532 0 0 0 0.005,-0.123 1.468,1.468 0 0 0 -0.025,-0.201 7.984,7.984 0 0 0 -0.12,-0.523 55.561,55.561 0 0 0 -0.411,-1.489 C 11.524,11.12 11.368,10.58 11.254,10.169 11.197,9.964 11.152,9.789 11.123,9.667 l -0.004,-0.014 0.01,-0.01 c 0.094,-0.08 0.235,-0.195 0.402,-0.328 0.334,-0.264 0.778,-0.607 1.219,-0.95 A 54.978,54.978 0 0 0 13.959,7.403 7.84,7.84 0 0 0 14.365,7.048 C 14.417,6.998 14.46,6.956 14.502,6.903 14.523,6.877 14.545,6.85 14.57,6.8 14.595,6.75 14.655,6.663 14.598,6.485 14.54,6.308 14.44,6.273 14.391,6.247 A 0.567,0.567 0 0 0 14.275,6.202 1.459,1.459 0 0 0 14.078,6.165 7.889,7.889 0 0 0 13.541,6.116 54.549,54.549 0 0 0 11.998,6.048 C 11.44,6.028 10.881,6.011 10.455,5.991 10.242,5.982 10.062,5.972 9.937,5.961 L 9.924,5.96 C 9.921,5.954 9.918,5.953 9.916,5.946 A 15.215,15.215 0 0 1 9.729,5.464 C 9.579,5.064 9.391,4.536 9.201,4.011 A 54.505,54.505 0 0 0 8.661,2.564 7.903,7.903 0 0 0 8.449,2.069 1.478,1.478 0 0 0 8.352,1.892 0.532,0.532 0 0 0 8.273,1.796 C 8.236,1.759 8.176,1.686 8.016,1.676 V 1.657 c -0.012,0 -0.007,0.007 -0.018,0.008 z"
     id="path22"
     inkscape:connector-curvature="0"
     style="color:#ffffff;fill:#f9f9f9;fill-opacity:0.30199998;stroke-width:0.56999999" />
</svg>
