<?xml version="1.0" encoding="UTF-8" standalone="no"?>
<svg
   xmlns:dc="http://purl.org/dc/elements/1.1/"
   xmlns:cc="http://creativecommons.org/ns#"
   xmlns:rdf="http://www.w3.org/1999/02/22-rdf-syntax-ns#"
   xmlns:svg="http://www.w3.org/2000/svg"
   xmlns="http://www.w3.org/2000/svg"
   xmlns:sodipodi="http://sodipodi.sourceforge.net/DTD/sodipodi-0.dtd"
   xmlns:inkscape="http://www.inkscape.org/namespaces/inkscape"
   viewBox="0 0 16 16"
   id="svg6"
   version="1.1"
   sodipodi:docname="user-home-symbolic.svg"
   inkscape:version="0.92.4 (5da689c313, 2019-01-14)">
  <metadata
     id="metadata8">
    <rdf:RDF>
      <cc:Work
         rdf:about="">
        <dc:format>image/svg+xml</dc:format>
        <dc:type
           rdf:resource="http://purl.org/dc/dcmitype/StillImage" />
        <dc:title></dc:title>
      </cc:Work>
    </rdf:RDF>
  </metadata>
  <sodipodi:namedview
     pagecolor="#ffffff"
     bordercolor="#666666"
     borderopacity="1"
     objecttolerance="10"
     gridtolerance="10"
     guidetolerance="10"
     inkscape:pageopacity="0"
     inkscape:pageshadow="2"
     inkscape:window-width="1160"
     inkscape:window-height="480"
     id="namedview6"
     showgrid="false"
     inkscape:zoom="14.75"
     inkscape:cx="0.71186441"
     inkscape:cy="8"
     inkscape:window-x="0"
     inkscape:window-y="25"
     inkscape:window-maximized="0"
     inkscape:current-layer="svg6" />
  <defs
     id="defs3051">
    <style
       id="current-color-scheme" />
  </defs>
  <path
     d="M 8,1.434 0.832,8.601 H 2.036 L 8,2.638 13.964,8.602 h 1.204 z M 3.74,8.602 2.889,9.454 v 5.112 H 5.87 c 0.71,0 1.242,-0.463 1.454,-0.676 0.213,-0.213 0.108,-0.176 0.25,-0.176 h 0.852 c 0.142,0 0.037,-0.037 0.25,0.176 0.213,0.213 0.744,0.676 1.454,0.676 h 2.981 V 9.454 L 12.26,8.602 v 5.112 h -2.13 c -0.852,0 -0.852,-0.852 -1.704,-0.852 H 7.574 c -0.852,0 -0.852,0.852 -1.704,0.852 H 3.74 Z"
     class="ColorScheme-Background"
     id="path22"
     inkscape:connector-curvature="0"
     style="color:#ffffff;fill:#f9f9f9;stroke-width:0.57700002" />
</svg>
