/* XPM */
static char * close_inactive_xpm[] = {
"26 26 45 1",
" 	c None",
".	c #1A1E24",
"+	c #262A2F",
"@	c #494C50",
"#	c #858789",
"$	c #AEAFB0",
"%	c #B3B4B5",
"&	c #848689",
"*	c #484B50",
"=	c #272B30",
"-	c #8C8D8F",
";	c #9D9EA0",
">	c #6D6F73",
",	c #585A5E",
"'	c #6E7073",
")	c #9E9FA0",
"!	c #8A8C8F",
"~	c #9E9FA1",
"{	c #ABADAE",
"]	c #53565A",
"^	c #1B1F25",
"/	c #54575B",
"(	c #ACADAE",
"_	c #8B8D8E",
":	c #373B40",
"<	c #383B40",
"[	c #8A8B8E",
"}	c #474B4F",
"|	c #848588",
"1	c #ADAEAF",
"2	c #6E7173",
"3	c #ACADAF",
"4	c #57595E",
"5	c #575B5E",
"6	c #25292E",
"7	c #585B5F",
"8	c #6F7174",
"9	c #1C2026",
"0	c #838587",
"a	c #53575A",
"b	c #55585C",
"c	c #474A4E",
"d	c #393C41",
"e	c #888A8D",
"f	c #55575C",
"..........................",
"..........................",
"..........................",
"..........................",
"............++............",
".........@#$%%$&*.........",
".......=-%;>,,')%!+.......",
"......=~{]^....^/()+......",
"......_{:........<([......",
".....@%]........../%}.....",
".....#;^..........^)|.....",
"....^1>............23^....",
"....+%4............5%6....",
"....6%,............7%6....",
"....^1'............8(^....",
".....&;^..........9~0.....",
".....*%a..........b%c.....",
"......!(<........d(e......",
"......+)(f^....^b3;6......",
".......+[%~2552~%e6.......",
".........}|3%%30c.........",
"............66............",
"..........................",
"..........................",
"..........................",
".........................."};
