/* XPM */
static char * maximize_inactive_xpm[] = {
"26 26 13 1",
" 	c None",
".	c #1A1E24",
"+	c #292D32",
"@	c #4B4D52",
"#	c #4D5054",
"$	c #AAABAC",
"%	c #B3B4B5",
"&	c #484B50",
"*	c #6D6F73",
"=	c #4A4D52",
"-	c #292C32",
";	c #A9AAAB",
">	c #282B31",
"..........................",
"..........................",
"..........................",
"..........................",
"..........................",
"......+@#####.............",
".....+$%%%%%%.............",
".....&%*#####.............",
".....=%=..................",
".....=%=..................",
".....=%=..................",
".....=%=..................",
".....=%=..................",
".....=%=..........=%=.....",
".....=%=..........=%=.....",
".....=%=..........=%=.....",
".....=%=..........=%=.....",
".....=%=..........=%=.....",
".....&%*##########*%&.....",
".....-;%%%%%%%%%%%%;>.....",
"......-@##########@>......",
"..........................",
"..........................",
"..........................",
"..........................",
".........................."};
