/* XPM */
static char *maximize_xpm[] = {
"26 26 35 1",
" 	c None",
"B	c #FF0400",
"C	c #1A1E24",
"D	c #301B20",
"E	c #631519",
"F	c #661518",
"G	c #1D1E24",
"H	c #2E1B21",
"I	c #F10602",
"J	c #FF0400",
"K	c #AD0E0D",
"L	c #DF0705",
"M	c #5F1619",
"N	c #961011",
"O	c #621619",
"P	c #AB0E0D",
"Q	c #B10D0C",
"R	c #1E1E23",
"S	c #361A20",
"T	c #57171A",
"U	c #251D22",
"V	c #AC0E0D",
"W	c #821214",
"X	c #421A1E",
"Y	c #431A1E",
"Z	c #CA0A08",
"a	c #CF0908",
"b	c #4A191C",
"c	c #48191D",
"d	c #51181B",
"e	c #851213",
"f	c #331B20",
"g	c #301B21",
"h	c #F00602",
"i	c #2F1B21",
"BBBBBBBBBBBBBBBBBBBBBBBBBB",
"CCCCCCCCCCCCCCCCCCCCCCCCCC",
"CCCCCCCCCCCCCCCCCCCCCCCCCC",
"CCCCCCCCCCCCCCCCCCCCCCCCCC",
"CCCCCCCCCCCCCCCCCCCCCCCCCC",
"CCCCCCDEFFFFFCCCCCGHCCCCCC",
"CCCCCDIJJJJJJCCCCGKLHCCCCC",
"CCCCCMJNFFFFFCCCGKJKGCCCCC",
"CCCCCOJOCCCCCCCGPJQRCCCCCC",
"CCCCCOJOCCCCCCGPJQRCCCCCCC",
"CCCCCOJOCSTUCGVJKGCCCCCCCC",
"CCCCCOJOCWJXGPJQRCCCCCCCCC",
"CCCCCOJOCWJYPJQRCCCCCCCCCC",
"CCCCCOJOCWJZJVGCCCOJOCCCCC",
"CCCCCOJOCWJJabcUCCOJOCCCCC",
"CCCCCOJOCWJJJJJdCCOJOCCCCC",
"CCCCCOJOCbeeeeefCCOJOCCCCC",
"CCCCCOJOCCCCCCCCCCOJOCCCCC",
"CCCCCMJNFFFFFFFFFFNJMCCCCC",
"CCCCCghJJJJJJJJJJJJhiCCCCC",
"CCCCCCgEFFFFFFFFFFEiCCCCCC",
"CCCCCCCCCCCCCCCCCCCCCCCCCC",
"CCCCCCCCCCCCCCCCCCCCCCCCCC",
"CCCCCCCCCCCCCCCCCCCCCCCCCC",
"CCCCCCCCCCCCCCCCCCCCCCCCCC",
"CCCCCCCCCCCCCCCCCCCCCCCCCC"
};
