/* XPM */
static char *maximize_xpm[] = {
"26 26 35 1",
" 	c None",
"B	c #FF0400",
"C	c #1A1E24",
"D	c #301B20",
"E	c #631519",
"F	c #661518",
"G	c #301B21",
"H	c #F10602",
"I	c #FF0400",
"J	c #F00602",
"K	c #5F1619",
"L	c #961011",
"M	c #621619",
"N	c #331B20",
"O	c #851213",
"P	c #4A191C",
"Q	c #51181B",
"R	c #821214",
"S	c #251D22",
"T	c #48191D",
"U	c #CF0908",
"V	c #1D1E24",
"W	c #AC0E0D",
"X	c #CA0A08",
"Y	c #AB0E0D",
"Z	c #B10D0C",
"a	c #45191D",
"b	c #1E1E23",
"c	c #421A1E",
"d	c #AD0E0D",
"e	c #57171A",
"f	c #361A20",
"g	c #2E1B21",
"h	c #DF0705",
"i	c #2F1B21",
"BBBBBBBBBBBBBBBBBBBBBBBBBB",
"CCCCCCCCCCCCCCCCCCCCCCCCCC",
"CCCCCCCCCCCCCCCCCCCCCCCCCC",
"CCCCCCCCCCCCCCCCCCCCCCCCCC",
"CCCCCCCCCCCCCCCCCCCCCCCCCC",
"CCCCCCDEFFFFFFFFFFEGCCCCCC",
"CCCCCDHIIIIIIIIIIIIJGCCCCC",
"CCCCCKILFFFFFFFFFFLIKCCCCC",
"CCCCCMIMCCCCCCCCCCMIMCCCCC",
"CCCCCMIMCCNOOOOOPCMIMCCCCC",
"CCCCCMIMCCQIIIIIRCMIMCCCCC",
"CCCCCMIMCCSTPUIIRCMIMCCCCC",
"CCCCCMIMCCCVWIXIRCMIMCCCCC",
"CCCCCCCCCCVYIZaIRCMIMCCCCC",
"CCCCCCCCCVYIZbcIRCMIMCCCCC",
"CCCCCCCCVdIWVCSefCMIMCCCCC",
"CCCCCCCVYIZbCCCCCCMIMCCCCC",
"CCCCCCVYIZbCCCCCCCMIMCCCCC",
"CCCCCVdIdVCCCFFFFFLIKCCCCC",
"CCCCCghdVCCCCIIIIIIJiCCCCC",
"CCCCCCgVCCCCCFFFFFEiCCCCCC",
"CCCCCCCCCCCCCCCCCCCCCCCCCC",
"CCCCCCCCCCCCCCCCCCCCCCCCCC",
"CCCCCCCCCCCCCCCCCCCCCCCCCC",
"CCCCCCCCCCCCCCCCCCCCCCCCCC",
"CCCCCCCCCCCCCCCCCCCCCCCCCC"
};
