/* XPM */
static char * shade_toggled_inactive_xpm[] = {
"26 26 4 1",
" 	c None",
".	c #1A1E24",
"+	c #898B8D",
"@	c #949698",
"..........................",
"..........................",
"..........................",
"..........................",
"..........................",
"..........................",
"..........................",
"..........................",
"..........................",
"..........................",
"..........................",
"..........................",
"......+@@@@@@@@@@@@+......",
"......+@@@@@@@@@@@@+......",
"..........................",
"..........................",
"..........................",
"..........................",
"..........................",
"..........................",
"..........................",
"..........................",
"..........................",
"..........................",
"..........................",
".........................."};
