/* XPM */
static char * shade_inactive_xpm[] = {
"26 26 12 1",
" 	c None",
".	c #1A1E24",
"+	c #4C4F53",
"@	c #808285",
"#	c #4C4E52",
"$	c #838587",
"%	c #B3B4B5",
"&	c #A0A1A3",
"*	c #2F3237",
"=	c #9D9EA0",
"-	c #ADAEAF",
";	c #8A8C8F",
"..........................",
"..........................",
"..........................",
"..........................",
"..........................",
"..........................",
"..........................",
".......+@@@@@@@@@@#.......",
".......$%%%%%%%%%%$.......",
".......$%%%%%%%%%%$.......",
".......$&********&$.......",
".......$=........=$.......",
".......$=........=$.......",
".......$=........=$.......",
".......$=........=$.......",
".......$=........=$.......",
".......$=........=$.......",
".......$-;;;;;;;;-$.......",
".......#@@@@@@@@@@#.......",
"..........................",
"..........................",
"..........................",
"..........................",
"..........................",
"..........................",
".........................."};
