/* XPM */
static char *shade_xpm[] = {
"26 26 13 1",
" 	c None",
"1	c #FF0400",
"2	c #1A1E24",
"3	c #651518",
"4	c #B30D0C",
"5	c #641518",
"6	c #B70C0B",
"7	c #FF0400",
"8	c #E20705",
"9	c #391B1F",
"A	c #DE0705",
"B	c #F60501",
"C	c #C20B0A",
"11111111111111111111111111",
"22222222222222222222222222",
"22222222222222222222222222",
"22222222222222222222222222",
"22222222222222222222222222",
"22222222222222222222222222",
"22222222222222222222222222",
"22222223444444444452222222",
"22222226777777777762222222",
"22222226777777777762222222",
"22222226899999999862222222",
"22222226A22222222A62222222",
"22222226A22222222A62222222",
"22222226A22222222A62222222",
"22222226A22222222A62222222",
"22222226A22222222A62222222",
"22222226A22222222A62222222",
"22222226BCCCCCCCCB62222222",
"22222225444444444452222222",
"22222222222222222222222222",
"22222222222222222222222222",
"22222222222222222222222222",
"22222222222222222222222222",
"22222222222222222222222222",
"22222222222222222222222222",
"22222222222222222222222222"
};
