/* XPM */
static char *shade_xpm[] = {
"26 26 5 1",
" 	c None",
"1	c #FF0400",
"2	c #1A1E24",
"3	c #C00B0A",
"4	c #D10907",
"11111111111111111111111111",
"22222222222222222222222222",
"22222222222222222222222222",
"22222222222222222222222222",
"22222222222222222222222222",
"22222222222222222222222222",
"22222222222222222222222222",
"22222222222222222222222222",
"22222222222222222222222222",
"22222222222222222222222222",
"22222222222222222222222222",
"22222222222222222222222222",
"22222234444444444443222222",
"22222234444444444443222222",
"22222222222222222222222222",
"22222222222222222222222222",
"22222222222222222222222222",
"22222222222222222222222222",
"22222222222222222222222222",
"22222222222222222222222222",
"22222222222222222222222222",
"22222222222222222222222222",
"22222222222222222222222222",
"22222222222222222222222222",
"22222222222222222222222222",
"22222222222222222222222222"
};
