<?xml version="1.0" encoding="UTF-8" standalone="no"?>
<svg
   xmlns:dc="http://purl.org/dc/elements/1.1/"
   xmlns:cc="http://creativecommons.org/ns#"
   xmlns:rdf="http://www.w3.org/1999/02/22-rdf-syntax-ns#"
   xmlns:svg="http://www.w3.org/2000/svg"
   xmlns="http://www.w3.org/2000/svg"
   xmlns:sodipodi="http://sodipodi.sourceforge.net/DTD/sodipodi-0.dtd"
   xmlns:inkscape="http://www.inkscape.org/namespaces/inkscape"
   width="24"
   height="24"
   version="1.1"
   id="svg6"
   sodipodi:docname="network-wireless-signal-none.svg"
   inkscape:version="0.92.4 (5da689c313, 2019-01-14)">
  <metadata
     id="metadata12">
    <rdf:RDF>
      <cc:Work
         rdf:about="">
        <dc:format>image/svg+xml</dc:format>
        <dc:type
           rdf:resource="http://purl.org/dc/dcmitype/StillImage" />
        <dc:title></dc:title>
      </cc:Work>
    </rdf:RDF>
  </metadata>
  <defs
     id="defs10" />
  <sodipodi:namedview
     pagecolor="#ffffff"
     bordercolor="#666666"
     borderopacity="1"
     objecttolerance="10"
     gridtolerance="10"
     guidetolerance="10"
     inkscape:pageopacity="0"
     inkscape:pageshadow="2"
     inkscape:window-width="1158"
     inkscape:window-height="480"
     id="namedview8"
     showgrid="false"
     inkscape:zoom="9.8333333"
     inkscape:cx="1.0677966"
     inkscape:cy="12"
     inkscape:window-x="0"
     inkscape:window-y="25"
     inkscape:window-maximized="0"
     inkscape:current-layer="svg6" />
  <path
     d="M 12,3.273 A 16.313,16.313 0 0 0 0.418,8.055 L 1.191,8.828 A 15.224,15.224 0 0 1 12,4.363 c 4.23,0 8.048,1.705 10.809,4.465 L 23.582,8.055 A 16.313,16.313 0 0 0 12,3.273 Z"
     id="path2"
     inkscape:connector-curvature="0"
     style="color:#31363b;fill:#f9f9f9;fill-opacity:0.30199998" />
  <path
     d="m 12,7.637 a 11.96,11.96 0 0 0 -8.492,3.506 l 0.771,0.771 A 10.874,10.874 0 0 1 12,8.727 c 3.022,0 5.749,1.215 7.72,3.187 l 0.772,-0.771 A 11.96,11.96 0 0 0 12,7.637 Z M 12,12 c -2.115,0 -4.026,0.85 -5.406,2.23 l 0.773,0.774 A 6.525,6.525 0 0 1 12,13.092 c 1.813,0 3.45,0.729 4.633,1.912 L 17.406,14.23 A 7.615,7.615 0 0 0 12,12 Z m 0,4.363 a 2.177,2.177 0 0 0 -2.182,2.182 c 0,1.209 0.973,2.182 2.182,2.182 A 2.177,2.177 0 0 0 14.182,18.545 2.177,2.177 0 0 0 12,16.363 Z m 0,1.092 a 1.091,1.091 0 1 1 0,2.182 1.091,1.091 0 1 1 0,-2.182 z"
     id="path4"
     inkscape:connector-curvature="0"
     style="color:#31363b;fill:#f9f9f9;fill-opacity:0.30199998" />
</svg>
