<?xml version="1.0" encoding="UTF-8" standalone="no"?>
<svg
   xmlns:dc="http://purl.org/dc/elements/1.1/"
   xmlns:cc="http://creativecommons.org/ns#"
   xmlns:rdf="http://www.w3.org/1999/02/22-rdf-syntax-ns#"
   xmlns:svg="http://www.w3.org/2000/svg"
   xmlns="http://www.w3.org/2000/svg"
   xmlns:sodipodi="http://sodipodi.sourceforge.net/DTD/sodipodi-0.dtd"
   xmlns:inkscape="http://www.inkscape.org/namespaces/inkscape"
   width="24"
   height="24"
   version="1.1"
   id="svg4"
   sodipodi:docname="network-wired-acquiring.svg"
   inkscape:version="0.92.4 (5da689c313, 2019-01-14)">
  <metadata
     id="metadata10">
    <rdf:RDF>
      <cc:Work
         rdf:about="">
        <dc:format>image/svg+xml</dc:format>
        <dc:type
           rdf:resource="http://purl.org/dc/dcmitype/StillImage" />
        <dc:title></dc:title>
      </cc:Work>
    </rdf:RDF>
  </metadata>
  <defs
     id="defs8" />
  <sodipodi:namedview
     pagecolor="#ffffff"
     bordercolor="#666666"
     borderopacity="1"
     objecttolerance="10"
     gridtolerance="10"
     guidetolerance="10"
     inkscape:pageopacity="0"
     inkscape:pageshadow="2"
     inkscape:window-width="1158"
     inkscape:window-height="480"
     id="namedview6"
     showgrid="false"
     inkscape:zoom="9.8333333"
     inkscape:cx="1.0677966"
     inkscape:cy="12"
     inkscape:window-x="0"
     inkscape:window-y="25"
     inkscape:window-maximized="0"
     inkscape:current-layer="svg4" />
  <path
     d="m 4.363,3.273 v 4.71 h 1.092 v -3.62 h 13.09 v 3.62 h 1.092 V 3.273 Z M 8.79,9.008 A 1.003,0.981 0 0 0 7.788,9.99 1.003,0.981 0 0 0 8.79,10.97 1.003,0.981 0 0 0 9.792,9.99 1.003,0.981 0 0 0 8.79,9.008 Z m 6.4,0 A 1.003,0.981 0 0 0 14.188,9.99 1.003,0.981 0 0 0 15.19,10.97 1.003,0.981 0 0 0 16.194,9.99 1.003,0.981 0 0 0 15.19,9.008 Z M 5.6,9.029 A 1.003,0.981 0 0 0 4.597,10.009 1.003,0.981 0 0 0 5.601,10.992 1.003,0.981 0 0 0 6.603,10.01 1.003,0.981 0 0 0 5.6,9.03 Z m 6.401,0 a 1.003,0.981 0 0 0 -1.002,0.98 1.003,0.981 0 0 0 1.002,0.983 A 1.003,0.981 0 0 0 13.003,10.01 1.003,0.981 0 0 0 12,9.03 Z m 6.4,0 a 1.003,0.981 0 0 0 -1.002,0.98 1.003,0.981 0 0 0 1.002,0.983 1.003,0.981 0 0 0 1.004,-0.982 1.003,0.981 0 0 0 -1.004,-0.98 z M 4.363,12.326 v 2.947 h 15.274 v -2.947 h -1.092 v 1.856 H 5.455 v -1.856 z m 6.545,4.037 v 2.182 H 3.273 v 1.092 h 7.635 v 1.09 h 2.184 v -1.09 h 7.635 v -1.092 h -7.635 v -2.182 z"
     id="path2"
     inkscape:connector-curvature="0"
     style="fill:#f9f9f9;fill-opacity:0.94100001" />
</svg>
