<svg xmlns="http://www.w3.org/2000/svg" viewBox="0 0 16 16" id="svg6">
  <defs id="defs3051">
    <style id="current-color-scheme">
      .ColorScheme-Text {
        color:#f9f9f9;
      }
      .ColorScheme-Highlight {
        color:#E0DFD8;
	  </style>
	</defs>
  <path style="fill:currentColor;fill-opacity:1;stroke:none" 
     d="m 9.398,1.494 c -0.348,0 -0.499,0.259 -0.48,0.602 l 0.002,8.931 c 0,0.175 -0.02,0.344 -0.053,0.51 -0.007,0.038 -0.02,0.075 -0.027,0.113 a 2.679,2.679 0 0 1 -0.121,0.383 c -0.013,0.031 -0.026,0.063 -0.041,0.094 a 2.685,2.685 0 0 1 -0.205,0.375 l -0.034,0.055 a 2.694,2.694 0 0 1 -1.164,0.955 c -0.023,0.01 -0.047,0.015 -0.07,0.025 -0.095,0.038 -0.19,0.079 -0.293,0.106 -0.033,0.01 -0.065,0.008 -0.098,0.015 -0.052,0.012 -0.105,0.02 -0.16,0.03 a 2.705,2.705 0 0 1 -0.343,0.035 c -0.033,0.002 -0.063,0.01 -0.096,0.01 -0.025,0 -0.05,-0.005 -0.076,-0.006 a 2.686,2.686 0 0 1 -0.4,-0.043 C 5.709,13.679 5.681,13.679 5.652,13.672 a 2.696,2.696 0 0 1 -0.945,-0.4 L 4.699,13.264 A 2.688,2.688 0 0 1 4.273,12.902 2.7,2.7 0 0 1 3.953,12.498 C 3.927,12.458 3.893,12.424 3.869,12.381 3.824,12.303 3.793,12.221 3.756,12.141 3.742,12.109 3.726,12.081 3.713,12.049 A 2.705,2.705 0 0 1 3.563,11.569 2.708,2.708 0 0 1 3.51,11.055 L 3.508,11.027 c 0,-0.028 0.009,-0.054 0.01,-0.082 0.004,-0.133 0.016,-0.265 0.039,-0.396 a 2.677,2.677 0 0 1 0.144,-0.51 L 3.738,9.945 C 3.803,9.797 3.88,9.655 3.973,9.52 4.069,9.377 4.173,9.238 4.299,9.113 4.425,8.987 4.561,8.883 4.703,8.787 A 2.68,2.68 0 0 1 5.133,8.553 L 5.227,8.516 A 2.694,2.694 0 0 1 5.734,8.371 2.72,2.72 0 0 1 6.131,8.331 c 0.028,-0.002 0.056,-0.01 0.084,-0.01 0.01,0 0.016,0.003 0.025,0.003 0.173,0.002 0.348,0.02 0.52,0.055 h 0.004 c 0.007,0 0.013,0.004 0.02,0.006 0.157,0.034 0.315,0.085 0.468,0.148 L 7.326,8.57 c 0.081,0.036 0.163,0.069 0.24,0.114 L 7.953,8.014 A 3.476,3.476 0 0 0 5.76,7.578 3.474,3.474 0 0 0 3.752,8.566 a 3.481,3.481 0 0 0 -0.55,4.202 3.481,3.481 0 0 0 3.911,1.619 3.482,3.482 0 0 0 2.58,-3.36 V 2.711 l 3.09,2.48 0.483,-0.605 z M 6.215,9.37 A 1.657,1.657 0 1 0 7.871,11.028 1.657,1.657 0 0 0 6.215,9.37 Z"
  	 class="ColorScheme-Text" />
</svg>
