<svg xmlns="http://www.w3.org/2000/svg" viewBox="0 0 16 16" id="svg6">
  <defs id="defs3051">
    <style id="current-color-scheme">
      .ColorScheme-Text {
        color:#f9f9f9;
      }
      .ColorScheme-Highlight {
        color:#E0DFD8;
	  </style>
	</defs>
  <path style="fill:currentColor;fill-opacity:1;stroke:none" 
     d="M 7.217,2.21 V 2.8 h 1.69 V 2.21 Z m 3.285,0 v 0.626 c 0.215,0.017 0.764,0.097 0.764,0.836 v 0.045 h 0.73 V 3.28 c 0,-1.092 -1.092,-1.07 -1.092,-1.07 z M 5.619,2.764 4.717,3.668 H 3.932 v 0.678 h 1.01 L 5.324,3.988 5.619,3.711 Z M 2.168,3.668 c 0,0 -1.092,0 -1.092,1.092 V 5.053 H 1.893 C 1.857,4.673 1.961,4.465 2.395,4.423 V 3.668 Z M 9.098,5.053 7.643,6.51 H 5.096 c 0,0 -1.092,0 -1.092,1.092 v 2.68 H 3.932 v 0.665 h 0.072 v 2.842 h 9.826 c 0,0 1.092,0 1.092,-1.092 l 0.002,-6.574 c 0,-1.092 -1.094,-1.07 -1.094,-1.07 H 9.706 Z m 0.414,0.59 h 3.76 c 0,0 0.92,-0.02 0.92,0.87 v 5.72 c 0,0.89 -0.948,0.891 -0.948,0.891 H 4.71 L 4.708,8.079 c 0,-0.89 0.95,-0.89 0.95,-0.89 H 7.87 L 8.251,6.831 Z M 1.076,6.48 V 7.984 H 1.781 V 6.48 Z m 0,2.887 v 1.58 H 2.395 V 10.281 H 1.78 V 9.367 Z"
  	 class="ColorScheme-Text" />
</svg>
