<svg xmlns="http://www.w3.org/2000/svg" viewBox="0 0 16 16" id="svg6">
  <defs id="defs3051">
    <style id="current-color-scheme">
      .ColorScheme-Text {
        color:#f9f9f9;
      }
      .ColorScheme-Highlight {
        color:#E0DFD8;
	  </style>
	</defs>
  <path style="fill:currentColor;fill-opacity:1;stroke:none" 
     d="m 3.673,1.706 c -0.647,0 -1.18,0.533 -1.18,1.18 V 4.52 H 3.279 V 5.348 H 2.492 V 6.982 H 3.279 V 7.811 H 2.492 v 1.633 h 0.787 v 0.829 H 2.492 v 2.84 c 0,0.648 0.534,1.18 1.181,1.18 H 8.786 V 14.287 A 0.766,0.766 0 0 0 9.343,14.062 L 13.277,10.13 C 13.772,9.635 13.42,8.787 12.719,8.786 H 8.786 A 0.787,0.787 0 0 0 7.999,9.573 v 3.148 H 8.786 V 9.573 h 3.933 L 8.786,13.507 H 3.673 A 0.384,0.384 0 0 1 3.28,13.114 V 2.886 C 3.28,2.662 3.448,2.493 3.673,2.493 H 4.111 V 1.706 Z m 1.267,0 V 2.493 H 6.573 V 1.706 Z m 2.462,0 V 2.493 H 9.035 V 1.706 Z m 2.462,0 v 0.787 h 1.633 V 1.706 Z m 2.462,0 v 0.787 c 0.225,0 0.377,0.17 0.394,0.394 h 0.786 a 1.186,1.186 0 0 0 -1.18,-1.18 z m 0.394,2.01 v 1.632 h 0.786 V 3.715 Z m 0,2.461 V 8 h 0.786 V 6.177 Z"
  	 class="ColorScheme-Text" />
</svg>
