<svg xmlns="http://www.w3.org/2000/svg" viewBox="0 0 16 16" id="svg6">
  <defs id="defs3051">
    <style id="current-color-scheme">
      .ColorScheme-Text {
        color:#f9f9f9;
      }
      .ColorScheme-Highlight {
        color:#E0DFD8;
	  </style>
	</defs>
  <path style="fill:currentColor;fill-opacity:1;stroke:none" 
     d="m 3.526,1.492 a 1.227,1.227 0 0 0 -1.221,1.22 v 10.576 a 1.227,1.227 0 0 0 1.221,1.22 h 8.948 a 1.227,1.227 0 0 0 1.221,-1.22 V 2.712 c 0,-0.335 -0.139,-0.64 -0.361,-0.86 a 1.242,1.242 0 0 0 -0.18,-0.15 1.205,1.205 0 0 0 -0.68,-0.21 H 11.6 Z m 0,0.813 H 8.598 V 2.492 H 7.104 A 0.3,0.3 0 0 0 6.805,2.791 V 3.988 A 0.3,0.3 0 0 0 7.104,4.286 H 8.599 V 4.885 H 7.104 A 0.3,0.3 0 0 0 6.805,5.183 V 6.38 a 0.3,0.3 0 0 0 0.299,0.3 H 8.599 V 7.277 H 7.104 a 0.3,0.3 0 0 0 -0.299,0.3 V 8.77 a 0.3,0.3 0 0 0 0.299,0.298 h 0.388 l -1.248,2.247 a 0.3,0.3 0 0 0 -0.023,0.24 l 0.3,0.896 a 0.3,0.3 0 0 0 0.284,0.204 H 9.196 A 0.3,0.3 0 0 0 9.481,12.451 L 9.779,11.556 A 0.3,0.3 0 0 0 9.755,11.311 L 8.88,9.795 8.361,10.092 9.168,11.495 8.98,12.059 H 7.02 L 6.83,11.491 8.261,8.916 A 0.3,0.3 0 0 0 8.001,8.472 H 7.402 V 7.874 h 1.495 a 0.3,0.3 0 0 0 0.3,-0.299 V 6.38 A 0.3,0.3 0 0 0 8.897,6.081 H 7.402 V 5.483 h 1.495 a 0.3,0.3 0 0 0 0.3,-0.299 V 3.988 a 0.3,0.3 0 0 0 -0.3,-0.3 H 7.402 V 3.09 h 1.495 a 0.3,0.3 0 0 0 0.3,-0.3 V 2.304 h 3.277 c 0.058,0 0.112,0.011 0.16,0.031 0.142,0.06 0.233,0.202 0.247,0.376 v 10.576 a 0.398,0.398 0 0 1 -0.407,0.407 H 3.527 A 0.397,0.397 0 0 1 3.12,13.287 V 2.712 C 3.12,2.48 3.294,2.305 3.527,2.305 Z"
  	 class="ColorScheme-Text" />
</svg>
