<svg xmlns="http://www.w3.org/2000/svg" viewBox="0 0 16 16" id="svg6">
  <defs id="defs3051">
    <style id="current-color-scheme">
      .ColorScheme-Text {
        color:#f9f9f9;
      }
      .ColorScheme-Highlight {
        color:#E0DFD8;
	  </style>
	</defs>
  <path style="fill:currentColor;fill-opacity:1;stroke:none" 
     d="m 4.244,5.708 a 2.309,2.309 0 0 0 -1.62,0.68 2.31,2.31 0 0 0 0,3.24 2.308,2.308 0 0 0 3.24,0 C 6.037,9.455 6.017,9.203 6.122,8.995 6.227,9.203 6.207,9.455 6.38,9.628 a 2.308,2.308 0 0 0 3.24,0 C 9.793,9.455 9.773,9.203 9.878,8.995 c 0.105,0.208 0.085,0.46 0.258,0.633 a 2.308,2.308 0 0 0 3.24,0 2.31,2.31 0 0 0 0,-3.24 2.309,2.309 0 0 0 -1.62,-0.68 2.309,2.309 0 0 0 -1.62,0.68 C 9.963,6.562 9.983,6.814 9.878,7.023 9.773,6.814 9.793,6.562 9.62,6.389 A 2.309,2.309 0 0 0 8,5.709 2.309,2.309 0 0 0 6.38,6.389 C 6.207,6.562 6.227,6.814 6.122,7.023 6.017,6.814 6.037,6.562 5.864,6.389 a 2.309,2.309 0 0 0 -1.62,-0.68 z m 0,0.798 c 0.385,0 0.763,0.153 1.056,0.447 a 1.488,1.488 0 0 1 0,2.112 1.488,1.488 0 0 1 -2.113,0 1.488,1.488 0 0 1 0,-2.113 1.49,1.49 0 0 1 1.057,-0.446 z m 3.756,0 c 0.385,0 0.763,0.153 1.056,0.447 a 1.488,1.488 0 0 1 0,2.112 1.488,1.488 0 0 1 -2.112,0 1.488,1.488 0 0 1 0,-2.113 A 1.49,1.49 0 0 1 8,6.506 Z m 3.756,0 c 0.384,0 0.763,0.153 1.057,0.447 a 1.488,1.488 0 0 1 0,2.112 1.488,1.488 0 0 1 -2.113,0 1.488,1.488 0 0 1 0,-2.113 1.49,1.49 0 0 1 1.056,-0.446 z"
  	 class="ColorScheme-Text" />
</svg>
