<svg xmlns="http://www.w3.org/2000/svg" viewBox="0 0 16 16" id="svg6">
  <defs id="defs3051">
    <style id="current-color-scheme">
      .ColorScheme-Text {
        color:#f9f9f9;
      }
      .ColorScheme-Highlight {
        color:#E0DFD8;
	  </style>
	</defs>
  <path style="fill:#ff0400;fill-opacity:1;stroke:none" 
     d="m 3.094,1.867 c 0,0 -1.228,-0.025 -1.228,1.201 L 1.923,7.033 C 3.236,6.286 4.643,6.588 6.035,6.717 l 1.809,-2.065 5.471,0.288 0.79,0.628 0.028,-0.839 C 14.175,3.503 12.907,3.503 12.907,3.503 H 8.409 L 6.774,1.867 Z"
  	 class="ColorScheme-Highlight" />
  <path style="fill:currentColor;fill-opacity:1;stroke:none" 
     d="M 7.59,4.32 5.956,5.956 H 3.093 c 0,0 -1.226,0 -1.226,1.226 v 6.95 h 11.039 c 0,0 1.226,0 1.226,-1.226 l 0.002,-7.385 c 0,-1.226 -1.228,-1.2 -1.228,-1.2 z m 0.466,0.663 h 4.224 c 0,0 1.033,-0.022 1.033,0.978 v 6.425 c 0,1 -1.064,1 -1.064,1 H 2.659 L 2.657,7.717 c 0,-1 1.066,-1 1.066,-1 H 6.21 L 6.639,6.315 Z"
  	 class="ColorScheme-Text" />
</svg>
