<svg xmlns="http://www.w3.org/2000/svg" viewBox="0 0 16 16" id="svg6">
  <defs id="defs3051">
    <style id="current-color-scheme">
      .ColorScheme-Text {
        color:#f9f9f9;
      }
      .ColorScheme-Highlight {
        color:#E0DFD8;
	  </style>
	</defs>
  <path style="fill:currentColor;fill-opacity:1;stroke:none"
     d="M 4.122,2.36 A 1.063,1.063 0 0 0 3.064,3.418 v 9.164 a 1.063,1.063 0 0 0 1.058,1.058 h 4.582 v -0.006 a 0.684,0.684 0 0 0 0.499,-0.2 L 12.728,9.908 A 0.705,0.705 0 0 0 12.229,8.705 H 8.704 A 0.704,0.704 0 0 0 8,9.41 v 2.82 H 8.704 V 9.41 H 12.23 L 8.704,12.935 H 4.122 A 0.344,0.344 0 0 1 3.77,12.582 V 3.418 c 0,-0.202 0.15,-0.353 0.352,-0.353 h 7.755 c 0.201,0 0.337,0.152 0.353,0.353 V 8 h 0.704 V 3.418 A 1.063,1.063 0 0 0 11.877,2.36 Z m 1.41,2.115 c -0.477,-0.006 -0.477,0.712 0,0.705 h 2.115 c 0.477,0.007 0.477,-0.712 0,-0.705 z m 0,1.41 c -0.477,-0.007 -0.477,0.712 0,0.705 h 2.115 c 0.477,0.007 0.477,-0.712 0,-0.705 z"
  	 class="ColorScheme-Text" />
</svg>
