<svg xmlns="http://www.w3.org/2000/svg" viewBox="0 0 16 16" id="svg6">
  <defs id="defs3051">
    <style id="current-color-scheme">
      .ColorScheme-Text {
        color:#f9f9f9;
      }
      .ColorScheme-Highlight {
        color:#E0DFD8;
	  </style>
	</defs>
  <path style="fill:currentColor;fill-opacity:1;stroke:none" 
     d="M 3.304,3.303 A 1.572,1.572 0 0 0 1.737,4.869 v 6.262 c 0,0.862 0.707,1.566 1.567,1.566 h 9.393 a 1.57,1.57 0 0 0 1.566,-1.566 V 4.87 A 1.57,1.57 0 0 0 12.697,3.304 Z m 0,0.783 h 9.393 c 0.44,0 0.783,0.342 0.783,0.783 v 6.262 c 0,0.441 -0.342,0.783 -0.783,0.783 H 3.304 A 0.774,0.774 0 0 1 2.52,11.131 V 4.87 C 2.52,4.429 2.864,4.087 3.304,4.087 Z M 3.691,5.648 A 0.391,0.391 0 0 0 3.446,6.346 l 4.306,3.522 a 0.391,0.391 0 0 0 0.497,0 L 12.555,6.346 A 0.392,0.392 0 1 0 12.058,5.74 L 8,9.06 3.944,5.74 A 0.391,0.391 0 0 0 3.691,5.648 Z"
  	 class="ColorScheme-Text" />
</svg>
