<svg xmlns="http://www.w3.org/2000/svg" viewBox="0 0 16 16" id="svg6">
  <defs id="defs3051">
    <style id="current-color-scheme">
      .ColorScheme-Text {
        color:#f9f9f9;
      }
      .ColorScheme-Highlight {
        color:#E0DFD8;
	  </style>
	</defs>
  <path style="fill:currentColor;fill-opacity:1;stroke:none" 
     d="M 4.31,14.24 H 5.14 C 5.135,14.229 5.106,14.187 5.101,14.178 4.758,13.562 3.142,10.198 3.485,9.583 3.828,8.967 7.314,8.813 8,8.813 c 0.686,0 4.172,0.154 4.515,0.77 0.343,0.616 -1.273,3.979 -1.616,4.595 l -0.04,0.062 h 0.831 a 22.176,22.176 0 0 0 0.924,-1.99 c 0.196,-0.483 0.374,-0.968 0.494,-1.422 a 3.787,3.787 0 0 0 0.125,-0.682 C 13.253,9.908 13.287,9.634 13.065,9.236 12.848,8.847 12.585,8.721 12.368,8.616 A 3.347,3.347 0 0 0 11.728,8.388 10.34,10.34 0 0 0 10.317,8.145 H 10.304 C 11.1,7.475 11.638,6.51 11.638,5.398 A 3.653,3.653 0 0 0 8,1.76 3.653,3.653 0 0 0 4.362,5.398 c 0,1.112 0.538,2.077 1.334,2.747 H 5.683 C 5.196,8.201 4.711,8.274 4.273,8.388 A 3.347,3.347 0 0 0 3.632,8.615 c -0.217,0.106 -0.48,0.232 -0.697,0.622 -0.222,0.397 -0.187,0.67 -0.168,0.91 0.018,0.237 0.065,0.454 0.125,0.681 0.12,0.454 0.298,0.94 0.493,1.421 a 22.182,22.182 0 0 0 0.924,1.99 z M 8,2.438 a 2.96,2.96 0 1 1 0,5.92 2.96,2.96 0 0 1 0,-5.92 z"
  	 class="ColorScheme-Text" />
</svg>
