<svg xmlns="http://www.w3.org/2000/svg" viewBox="0 0 16 16" id="svg6">
  <defs id="defs3051">
    <style id="current-color-scheme">
      .ColorScheme-Text {
        color:#f9f9f9;
      }
      .ColorScheme-Highlight {
        color:#E0DFD8;
	  </style>
	</defs>
  <path style="fill:currentColor;fill-opacity:1;stroke:none" 
     d="M 7.999,1.452 A 3.315,3.315 0 0 0 4.685,4.765 v 1.264 h -1.3 A 0.354,0.354 0 0 0 3.03,6.383 v 7.81 c 0,0.197 0.158,0.355 0.354,0.355 h 9.232 a 0.354,0.354 0 0 0 0.354,-0.354 v -1.42 a 0.35,0.35 0 0 0 -0.02,-0.121 h 0.02 V 6.383 A 0.354,0.354 0 0 0 12.616,6.029 H 11.313 V 4.765 A 3.315,3.315 0 0 0 7.999,1.452 Z m 0,0.828 a 2.47,2.47 0 0 1 2.486,2.485 V 6.029 H 5.513 V 4.765 A 2.47,2.47 0 0 1 7.999,2.28 Z M 3.74,6.737 h 8.52 v 7.079 H 3.74 Z M 8,9.07 A 0.826,0.826 0 0 0 7.172,9.898 c 0,0.155 0.053,0.291 0.126,0.415 a 0.806,0.806 0 0 0 -0.126,0.414 c 0,0.458 0.369,0.828 0.828,0.828 A 0.826,0.826 0 0 0 8.828,10.727 0.806,0.806 0 0 0 8.702,10.313 0.81,0.81 0 0 0 8.829,9.898 0.826,0.826 0 0 0 7.999,9.07 Z"
  	 class="ColorScheme-Text" />
</svg>
