<svg xmlns="http://www.w3.org/2000/svg" viewBox="0 0 16 16" id="svg6">
  <defs id="defs3051">
    <style id="current-color-scheme">
      .ColorScheme-Text {
        color:#f9f9f9;
      }
      .ColorScheme-Highlight {
        color:#E0DFD8;
	  </style>
	</defs>
  <path style="fill:currentColor;fill-opacity:1;stroke:none" 
     d="M 6.008,1.713 C 5.13,1.713 4.468,2.26 4.213,2.755 3.96,3.251 3.971,3.725 3.971,3.725 v 10.562 l 4.026,-2.013 4.023,2.013 0.01,-6.133 H 12.026 L 12.022,3.726 c 0,0 0.012,-0.47 -0.236,-0.964 C 11.539,2.268 10.881,1.713 10.009,1.713 Z M 5.305,2.467 h 5.416 c 0.454,0 0.38,0.06 0.455,0.2 a 1.042,0.976 0 0 1 0.089,0.31 l 0.006,7.659 -0.002,2.433 -3.273,-1.532 -3.269,1.532 V 2.977 c 0,0 0.014,-0.163 0.09,-0.301 0.074,-0.137 0.012,-0.209 0.488,-0.21 z"
  	 class="ColorScheme-Text" />
</svg>
