<svg xmlns="http://www.w3.org/2000/svg" viewBox="0 0 16 16" id="svg6">
  <defs id="defs3051">
    <style id="current-color-scheme">
      .ColorScheme-Text {
        color:#f9f9f9;
      }
      .ColorScheme-Highlight {
        color:#E0DFD8;
	  </style>
	</defs>
  <path style="fill:#ff0400;fill-opacity:1;stroke:none" 
     d="m 3.07,1.837 c 0,0 -1.235,-0.027 -1.235,1.207 L 1.893,7.028 C 3.213,6.278 4.626,6.581 6.025,6.711 l 1.818,-2.076 5.499,0.29 0.793,0.63 0.029,-0.842 C 14.206,3.48 12.93,3.48 12.93,3.48 H 8.41 L 6.768,1.837 Z"
  	 class="ColorScheme-Highlight" />
  <path style="fill:currentColor;fill-opacity:1;stroke:none" 
     d="M 7.589,4.302 5.945,5.946 H 3.069 c 0,0 -1.233,0 -1.233,1.232 v 6.985 H 9.43 v -0.75 H 2.632 L 2.63,7.716 C 2.63,6.711 3.702,6.711 3.702,6.711 H 6.2 L 6.631,6.307 8.056,4.967 h 4.245 c 0,0 1.038,-0.021 1.038,0.984 v 3.506 h 0.824 l 0.002,-3.948 c 0,-1.233 -1.235,-1.207 -1.235,-1.207 z m 3.72,5.129 v 1.878 H 9.43 v 0.94 h 1.879 v 1.878 h 0.939 v -1.879 h 1.878 V 11.309 H 12.248 V 9.431 Z"
  	 class="ColorScheme-Text" />
</svg>
