<svg xmlns="http://www.w3.org/2000/svg" viewBox="0 0 16 16" id="svg6">
  <defs id="defs3051">
    <style id="current-color-scheme">
      .ColorScheme-Text {
        color:#f9f9f9;
      }
      .ColorScheme-Highlight {
        color:#E0DFD8;
	  </style>
	</defs>
  <path style="fill:currentColor;fill-opacity:1;stroke:none" 
     d="M 1.842,2.316 A 0.473,0.473 0 0 0 1.369,2.789 v 10.422 c 0,0.26 0.21,0.473 0.473,0.473 h 12.316 a 0.473,0.473 0 0 0 0.473,-0.473 v -1.895 a 0.471,0.471 0 0 0 -0.03,-0.164 h 0.032 V 2.79 A 0.473,0.473 0 0 0 14.158,2.317 H 1.842 Z m 0.474,0.948 h 11.368 v 9.441 H 2.316 Z m 9.473,0.947 a 0.954,0.954 0 0 0 -0.947,0.947 c 0,0.517 0.43,0.947 0.947,0.947 0.518,0 0.947,-0.43 0.947,-0.947 A 0.954,0.954 0 0 0 11.789,4.211 Z M 5.275,7.717 A 2.54,2.54 0 0 0 4.959,7.73 C 4.335,7.798 3.739,8.104 3.107,8.672 v 3.182 h 9.76 V 10.537 C 10.269,10.414 8.71,9.259 7.307,8.434 6.659,8.053 6.007,7.729 5.277,7.717 Z"
  	 class="ColorScheme-Text" />
</svg>
