<svg xmlns="http://www.w3.org/2000/svg" viewBox="0 0 16 16" id="svg6">
  <defs id="defs3051">
    <style id="current-color-scheme">
      .ColorScheme-Text {
        color:#f9f9f9;
      }
      .ColorScheme-Highlight {
        color:#E0DFD8;
	  </style>
	</defs>
  <path style="fill:currentColor;fill-opacity:1;stroke:none" 
     d="M 11.9,1.5 A 2.166,2.166 0 0 0 9.733,3.667 2.166,2.166 0 0 0 11.9,5.833 2.166,2.166 0 0 0 14.067,3.667 2.166,2.166 0 0 0 11.9,1.5 Z m 0,0.692 A 1.479,1.479 0 0 1 13.38,3.67 1.479,1.479 0 0 1 11.9,5.15 1.479,1.479 0 0 1 10.422,3.67 1.479,1.479 0 0 1 11.9,2.192 Z M 9.05,4.805 A 0.454,0.454 0 0 0 8.87,4.864 L 6.662,6.074 C 6.16,6.339 6.572,7.088 7.065,6.809 L 9.273,5.6 C 9.712,5.369 9.453,4.766 9.05,4.806 Z M 4.099,5.833 A 2.166,2.166 0 0 0 1.933,8 2.166,2.166 0 0 0 4.1,10.166 2.166,2.166 0 0 0 6.266,8 2.166,2.166 0 0 0 4.1,5.833 Z m 0,0.692 A 1.479,1.479 0 0 1 5.577,8.003 1.479,1.479 0 0 1 4.1,9.483 1.479,1.479 0 0 1 2.622,8.003 1.479,1.479 0 0 1 4.1,6.525 Z M 6.886,9.13 C 6.483,9.09 6.224,9.693 6.663,9.925 l 2.208,1.21 c 0.494,0.278 0.904,-0.47 0.403,-0.736 L 7.066,9.19 A 0.457,0.457 0 0 0 6.886,9.131 Z m 5.015,1.037 A 2.166,2.166 0 0 0 9.734,12.334 2.166,2.166 0 0 0 11.9,14.5 2.166,2.166 0 0 0 14.067,12.334 2.166,2.166 0 0 0 11.9,10.167 Z m 0,0.692 a 1.479,1.479 0 0 1 1.478,1.478 1.479,1.479 0 0 1 -1.479,1.48 1.479,1.479 0 0 1 -1.478,-1.48 1.479,1.479 0 0 1 1.478,-1.478 z"
  	 class="ColorScheme-Text" />
</svg>
