<svg xmlns="http://www.w3.org/2000/svg" viewBox="0 0 16 16" id="svg6">
  <defs id="defs3051">
    <style id="current-color-scheme">
      .ColorScheme-Text {
        color:#f9f9f9;
      }
      .ColorScheme-Highlight {
        color:#E0DFD8;
	  </style>
	</defs>
  <path style="fill:currentColor;fill-opacity:1;stroke:none" 
     d="m 8,1.966 a 6.184,6.184 0 0 0 -6.184,6.184 6.2,6.2 0 0 0 4.23,5.875 c 0.31,0.05 0.408,-0.143 0.408,-0.31 V 12.671 C 4.741,13.041 4.376,11.841 4.376,11.841 4.091,11.124 3.689,10.933 3.689,10.933 3.127,10.55 3.733,10.562 3.733,10.562 c 0.618,0.043 0.946,0.637 0.946,0.637 0.538,0.94 1.447,0.662 1.8,0.513 C 6.534,11.31 6.695,11.038 6.869,10.883 5.495,10.729 4.055,10.197 4.055,7.84 4.055,7.154 4.289,6.604 4.691,6.165 4.629,6.01 4.413,5.367 4.753,4.532 c 0,0 0.52,-0.167 1.701,0.63 A 5.853,5.853 0 0 1 8,4.96 5.84,5.84 0 0 1 9.546,5.164 c 1.18,-0.798 1.7,-0.63 1.7,-0.63 0.34,0.834 0.124,1.477 0.062,1.632 0.403,0.44 0.637,0.99 0.637,1.675 0,2.363 -1.447,2.882 -2.826,3.037 0.223,0.192 0.427,0.57 0.427,1.144 v 1.695 c 0,0.166 0.098,0.365 0.414,0.309 A 6.202,6.202 0 0 0 14.184,8.151 6.185,6.185 0 0 0 8,1.966 Z m 0,0"
  	 class="ColorScheme-Text" />
</svg>
