<svg xmlns="http://www.w3.org/2000/svg" viewBox="0 0 16 16" id="svg6">
  <defs id="defs3051">
    <style id="current-color-scheme">
      .ColorScheme-Text {
        color:#f9f9f9;
      }
      .ColorScheme-Highlight {
        color:#E0DFD8;
	  </style>
	</defs>
  <path style="fill:currentColor;fill-opacity:1;stroke:none" 
     d="M 6.172,2.212 4.716,3.668 H 2.17 c 0,0 -1.092,0 -1.092,1.091 v 6.187 h 2.926 v 2.842 h 9.827 c 0,0 1.091,0 1.091,-1.092 l 0.002,-6.573 c 0,-1.092 -1.093,-1.07 -1.093,-1.07 H 11.998 V 3.282 c 0,-1.092 -1.094,-1.07 -1.094,-1.07 z m 0.414,0.59 h 3.76 c 0,0 0.92,-0.02 0.92,0.87 V 5.055 H 9.098 L 7.643,6.509 H 5.095 c 0,0 -1.092,0 -1.092,1.092 v 2.681 H 1.783 L 1.78,5.236 c 0,-0.89 0.95,-0.89 0.95,-0.89 H 4.942 L 5.324,3.988 Z m 2.927,2.841 h 3.76 c 0,0 0.919,-0.02 0.919,0.871 v 5.719 c 0,0.89 -0.947,0.89 -0.947,0.89 H 4.708 L 4.707,8.077 c 0,-0.89 0.949,-0.89 0.949,-0.89 H 7.868 L 8.25,6.829 Z"
  	 class="ColorScheme-Text" />
</svg>
