<svg xmlns="http://www.w3.org/2000/svg" viewBox="0 0 16 16" id="svg6">
  <defs id="defs3051">
    <style id="current-color-scheme">
      .ColorScheme-Text {
        color:#f9f9f9;
      }
      .ColorScheme-Highlight {
        color:#E0DFD8;
	  </style>
	</defs>
  <path style="fill:currentColor;fill-opacity:1;stroke:none"
     d="M 7.041,2.25 V 4.316 A 3.8,3.8 0 0 0 6.084,4.706 L 4.616,3.268 3.268,4.616 4.706,6.084 A 3.8,3.8 0 0 0 4.316,7.041 H 2.25 V 8.96 h 2.066 c 0.089,0.34 0.217,0.66 0.39,0.957 l -1.438,1.468 1.348,1.348 1.468,-1.438 a 3.8,3.8 0 0 0 0.957,0.39 v 2.066 H 8.96 v -2.066 a 3.8,3.8 0 0 0 0.957,-0.39 l 1.468,1.438 1.348,-1.348 -1.438,-1.468 a 3.8,3.8 0 0 0 0.39,-0.957 h 2.066 V 7.04 H 11.685 A 3.8,3.8 0 0 0 11.295,6.083 L 12.733,4.615 11.385,3.267 9.917,4.705 A 3.8,3.8 0 0 0 8.96,4.315 V 2.25 Z M 8,5.494 a 2.506,2.506 0 1 1 0,5.012 2.506,2.506 0 0 1 0,-5.012 z"
  	 class="ColorScheme-Text" />
</svg>
