<svg xmlns="http://www.w3.org/2000/svg" viewBox="0 0 16 16" id="svg6">
  <defs id="defs3051">
    <style id="current-color-scheme">
      .ColorScheme-Text {
        color:#f9f9f9;
      }
      .ColorScheme-Highlight {
        color:#E0DFD8;
	  </style>
	</defs>
  <path style="fill:currentColor;fill-opacity:1;stroke:none" 
     d="M 5.874,1.784 C 4.824,1.861 3.937,2.53 3.23,3.236 2.665,3.802 2.143,4.486 1.898,5.271 1.654,6.055 1.802,7.059 2.573,7.674 2.809,7.862 3.08,7.914 3.34,8.008 3.08,8.102 2.809,8.154 2.572,8.343 2.472,8.423 2.384,8.507 2.307,8.59 c -0.605,0.66 -0.623,1.579 -0.36,2.301 0.264,0.723 0.754,1.359 1.283,1.889 0.565,0.565 1.25,1.087 2.035,1.332 0.785,0.245 1.788,0.097 2.403,-0.675 0.188,-0.236 0.24,-0.507 0.334,-0.767 0.095,0.261 0.146,0.531 0.335,0.768 0.614,0.77 1.618,0.919 2.403,0.674 0.784,-0.245 1.469,-0.767 2.034,-1.332 0.565,-0.565 1.087,-1.25 1.332,-2.035 C 14.351,9.96 14.202,8.957 13.432,8.342 13.196,8.154 12.925,8.102 12.664,8.008 12.924,7.913 13.196,7.862 13.432,7.673 14.202,7.059 14.351,6.055 14.107,5.271 13.861,4.486 13.339,3.801 12.774,3.236 12.244,2.706 11.608,2.216 10.885,1.953 10.163,1.69 9.243,1.707 8.585,2.313 A 2.351,2.351 0 0 0 8.337,2.579 C 8.148,2.814 8.097,3.085 8.002,3.346 7.908,3.086 7.856,2.814 7.668,2.579 A 2.123,2.123 0 0 0 5.874,1.784 Z M 5.925,2.475 C 6.372,2.442 6.792,2.59 7.127,3.01 8.019,4.13 7.309,6.188 8.002,8.008 8.695,6.188 7.986,4.129 8.878,3.01 8.934,2.94 8.992,2.879 9.052,2.823 9.955,1.993 11.326,2.768 12.284,3.726 13.306,4.748 14.119,6.24 13,7.132 11.88,8.024 9.822,7.315 8.002,8.008 9.822,8.702 11.881,7.991 13,8.884 14.119,9.776 13.306,11.268 12.284,12.29 11.262,13.312 9.77,14.125 8.878,13.006 7.986,11.886 8.695,9.828 8.002,8.008 7.309,9.828 8.019,11.886 7.127,13.006 6.234,14.126 4.743,13.312 3.72,12.29 2.762,11.332 1.988,9.962 2.818,9.059 2.873,8.998 2.935,8.939 3.005,8.884 4.124,7.991 6.182,8.702 8.002,8.008 6.182,7.315 4.124,8.025 3.004,7.132 1.885,6.24 2.698,4.748 3.721,3.726 4.359,3.087 5.181,2.53 5.925,2.476 Z"
  	 class="ColorScheme-Text" />
</svg>
