<svg xmlns="http://www.w3.org/2000/svg" viewBox="0 0 16 16" id="svg6">
  <defs id="defs3051">
    <style id="current-color-scheme">
      .ColorScheme-Text {
        color:#f9f9f9;
      }
      .ColorScheme-Highlight {
        color:#E0DFD8;
	  </style>
	</defs>
  <path style="fill:currentColor;fill-opacity:1;stroke:none" 
     d="M 8,1.6 C 4.48,1.6 1.6,4.48 1.6,8 c 0,3.519 2.88,6.4 6.4,6.4 3.52,0 6.4,-2.881 6.4,-6.4 C 14.4,4.48 11.52,1.6 8,1.6 Z M 8,2.4 A 5.61,5.61 0 0 1 13.6,8 5.61,5.61 0 0 1 8,13.6 5.61,5.61 0 0 1 2.4,8 5.61,5.61 0 0 1 8,2.4 Z M 7.2,4.8 v 4 h 4 V 8 H 8 V 4.8 Z"
  	 class="ColorScheme-Text" />
</svg>
