<svg xmlns="http://www.w3.org/2000/svg" viewBox="0 0 16 16" id="svg6">
  <defs id="defs3051">
    <style id="current-color-scheme">
      .ColorScheme-Text {
        color:#f9f9f9;
      }
      .ColorScheme-Highlight {
        color:#E0DFD8;
	  </style>
	</defs>
  <path style="fill:currentColor;fill-opacity:1;stroke:none" 
     d="M 7.997,1.83 A 6.177,6.177 0 0 0 1.827,8 c 0,0.266 0.021,0.525 0.054,0.782 0.019,0.08 0.019,0.067 0.005,0.136 0.038,0.09 -0.006,0.081 0.033,0.107 0.49,2.915 3.025,5.145 6.078,5.145 3.004,0 5.51,-2.16 6.056,-5.008 A 0.439,0.439 0 0 1 14.117,9.14 6.154,6.154 0 0 0 14.167,8 6.176,6.176 0 0 0 7.997,1.83 Z m 0,0.88 A 5.27,5.27 0 0 1 12.21,4.81 18.233,18.233 0 0 0 9.941,4.627 15.26,15.26 0 0 0 5.297,5.311 C 5.275,4.589 5.35,3.911 5.523,3.324 A 5.275,5.275 0 0 1 7.997,2.711 Z M 4.42,4.114 C 4.409,4.35 4.407,4.586 4.41,4.821 c 0,0.09 0,0.18 0.003,0.268 0,0.172 -0.003,0.343 0.007,0.519 A 18.66,18.66 0 0 0 3.03,6.195 5.27,5.27 0 0 1 4.42,4.114 Z m 5.402,1.394 c 0.927,0 1.914,0.087 2.97,0.27 A 5.273,5.273 0 0 1 13.286,8 c 0,0.294 -0.03,0.58 -0.076,0.863 C 11.598,9.273 8.98,9.63 6.466,9.496 A 9.48,9.48 0 0 1 5.46,6.65 10.342,10.342 0 0 1 5.384,6.206 C 6.744,5.766 8.196,5.507 9.822,5.507 Z M 4.515,6.512 A 10.748,10.748 0 0 0 5.244,9.069 C 5.293,9.184 5.352,9.295 5.405,9.409 4.457,9.298 3.56,9.104 2.775,8.8 A 5.327,5.327 0 0 1 2.707,8 c 0,-0.237 0.022,-0.47 0.052,-0.697 a 19.14,19.14 0 0 1 1.756,-0.79 z m 8.538,3.042 a 5.285,5.285 0 0 1 -2.918,3.282 5.196,5.196 0 0 1 -1.216,-0.577 7.932,7.932 0 0 1 -1.895,-1.87 c 0.311,0.006 0.622,0.018 0.937,0.007 1.87,-0.056 3.747,-0.397 5.092,-0.841 z M 2.97,9.64 c 0.826,0.362 1.862,0.575 2.966,0.68 0.2,0.328 0.415,0.646 0.653,0.945 H 6.542 a 7.586,7.586 0 0 0 1.68,1.591 c 0.003,10e-4 0.004,0.004 0.006,0.005 0.173,0.13 0.356,0.247 0.54,0.363 A 5.281,5.281 0 0 1 7.997,13.29 5.28,5.28 0 0 1 2.97,9.64 Z"
  	 class="ColorScheme-Text" />
</svg>
