<svg xmlns="http://www.w3.org/2000/svg" viewBox="0 0 16 16" id="svg6">
  <defs id="defs3051">
    <style id="current-color-scheme">
      .ColorScheme-Text {
        color:#f9f9f9;
      }
      .ColorScheme-Highlight {
        color:#E0DFD8;
	  </style>
	</defs>
  <path style="fill:currentColor;fill-opacity:1;stroke:none" 
     d="m 8,1.735 c -0.374,0 -0.751,0.148 -1.03,0.427 L 5.781,3.354 5.672,3.463 2.16,6.974 c -0.56,0.56 -0.56,1.499 0,2.059 l 4.811,4.812 c 0.56,0.56 1.5,0.56 2.06,0 l 4.81,-4.812 c 0.56,-0.56 0.56,-1.499 0,-2.059 L 9.03,2.162 A 1.464,1.464 0 0 0 8,1.735 Z m 0,0.851 c 0.155,0 0.31,0.06 0.428,0.178 l 4.812,4.812 a 0.604,0.604 0 0 1 0,0.856 l -4.812,4.812 a 0.604,0.604 0 0 1 -0.856,0 L 2.76,8.432 a 0.604,0.604 0 0 1 0,-0.856 L 5.78,4.557 6.334,4.004 7.983,5.654 v 4.168 a 0.776,0.8 0 0 0 -0.382,0.688 0.776,0.8 0 0 0 0.776,0.8 0.776,0.8 0 0 0 0.776,-0.8 0.776,0.8 0 0 0 -0.38,-0.687 v -3.38 l 1.314,1.314 a 0.776,0.8 0 0 0 -0.034,0.237 0.776,0.8 0 0 0 0.776,0.8 0.776,0.8 0 0 0 0.776,-0.8 0.776,0.8 0 0 0 -0.776,-0.8 0.776,0.8 0 0 0 -0.196,0.027 L 6.873,3.462 7.571,2.764 A 0.6,0.6 0 0 1 8,2.586 Z"
  	 class="ColorScheme-Text" />
</svg>
