<svg xmlns="http://www.w3.org/2000/svg" viewBox="0 0 16 16" id="svg6">
  <defs id="defs3051">
    <style id="current-color-scheme">
      .ColorScheme-Text {
        color:#f9f9f9;
      }
      .ColorScheme-Highlight {
        color:#E0DFD8;
	  </style>
	</defs>
  <path style="fill:currentColor;fill-opacity:1;stroke:none" 
     d="M 7.999,1.349 C 6.537,1.349 5.327,2.302 4.871,3.61 L 5.553,4.04 C 5.845,2.976 6.769,2.19 7.933,2.19 a 2.495,2.495 0 0 1 2.51,2.511 v 1.354 h -7.1 A 0.357,0.357 0 0 0 2.985,6.413 v 7.88 c 0,0.199 0.16,0.358 0.358,0.358 h 9.314 a 0.357,0.357 0 0 0 0.358,-0.357 V 12.86 a 0.353,0.353 0 0 0 -0.021,-0.122 h 0.021 V 6.413 A 0.357,0.357 0 0 0 12.657,6.055 h -1.31 V 4.697 A 3.35,3.35 0 0 0 7.999,1.349 Z m -4.297,5.42 h 8.597 v 7.143 H 3.7 V 6.77 Z M 7.999,9.123 A 0.834,0.834 0 0 0 7.163,9.959 c 0,0.156 0.054,0.294 0.127,0.419 a 0.814,0.814 0 0 0 -0.127,0.417 c 0,0.463 0.373,0.836 0.836,0.836 A 0.834,0.834 0 0 0 8.834,10.795 0.814,0.814 0 0 0 8.707,10.378 0.817,0.817 0 0 0 8.835,9.959 0.834,0.834 0 0 0 8,9.123 Z"
  	 class="ColorScheme-Text" />
</svg>
