<svg xmlns="http://www.w3.org/2000/svg" viewBox="0 0 16 16" id="svg6">
  <defs id="defs3051">
    <style id="current-color-scheme">
      .ColorScheme-Text {
        color:#f9f9f9;
      }
      .ColorScheme-Highlight {
        color:#E0DFD8;
	  </style>
	</defs>
  <path style="fill:currentColor;fill-opacity:1;stroke:none" 
     d="m 6.766,3.047 c -1.91,0 -3.451,1.254 -3.755,3.086 -1.012,0.697 -1.594,1.773 -1.594,3.086 0,1.773 1.065,3.256 2.7,3.703 h 7.766 c 1.635,-0.447 2.7,-1.93 2.7,-3.703 0,-1.95 -1.33,-3.5 -3.214,-3.755 C 10.908,4.811 10.275,4.338 9.492,4.127 8.801,3.409 7.862,3.047 6.766,3.047 Z m 0,0.823 c 0.902,0 1.683,0.431 2.211,1.08 a 2.458,2.458 0 0 1 1.877,1.389 h 0.026 a 2.88,2.88 0 1 1 0,5.76 H 5.12 A 2.88,2.88 0 0 1 2.24,9.219 C 2.24,8.067 2.909,7.083 3.885,6.622 A 2.882,2.882 0 0 1 6.765,3.87 Z"
  	 class="ColorScheme-Text" />
</svg>
