<svg xmlns="http://www.w3.org/2000/svg" viewBox="0 0 16 16" id="svg6">
  <defs id="defs3051">
    <style id="current-color-scheme">
      .ColorScheme-Text {
        color:#f9f9f9;
      }
      .ColorScheme-Highlight {
        color:#E0DFD8;
	  </style>
	</defs>
  <path style="fill:currentColor;fill-opacity:1;stroke:none" 
     d="m 9.225,1.746 a 0.055,0.055 0 0 0 -0.01,0.01 0.055,0.055 0 0 0 -0.01,0.01 0.055,0.055 0 0 0 -0.01,0.01 0.055,0.055 0 0 0 -0.009,0.02 0.055,0.055 0 0 0 0,0.01 0.055,0.055 0 0 0 0,0.01 C 9.314,2.318 9.274,2.723 9.116,3.078 8.96,3.433 8.686,3.738 8.372,4.019 7.747,4.582 6.938,5.059 6.502,5.714 6.2,6.167 6.274,6.655 6.571,7.144 c 0.296,0.487 0.81,0.985 1.4,1.518 a 0.055,0.055 0 0 0 0.01,0 0.055,0.055 0 0 0 0.01,0.009 0.055,0.055 0 0 0 0.01,0 0.055,0.055 0 0 0 0.01,0 0.055,0.055 0 0 0 0.009,0 0.055,0.055 0 0 0 0.02,0 0.055,0.055 0 0 0 0.01,-0.01 0.055,0.055 0 0 0 0.01,-0.01 0.055,0.055 0 0 0 0,-0.009 0.055,0.055 0 0 0 0.01,-0.01 0.055,0.055 0 0 0 0,-0.02 0.055,0.055 0 0 0 0,-0.009 0.055,0.055 0 0 0 -0.01,-0.01 C 7.823,8.059 7.327,7.577 7.138,7.036 A 1.198,1.198 0 0 1 7.148,6.164 C 7.273,5.85 7.55,5.501 8.05,5.106 9.316,4.106 9.634,3.275 9.626,2.686 9.619,2.098 9.284,1.766 9.284,1.766 a 0.055,0.055 0 0 0 -0.01,-0.01 0.055,0.055 0 0 0 -0.01,0 0.055,0.055 0 0 0 -0.01,-0.01 0.055,0.055 0 0 0 -0.009,0 0.055,0.055 0 0 0 -0.01,0 0.055,0.055 0 0 0 -0.01,0 z m 1.561,2.537 a 0.055,0.055 0 0 0 -0.004,0 c 0,0 -1.057,0.265 -1.88,0.832 C 8.491,5.4 8.129,5.765 8.011,6.213 7.892,6.661 8.024,7.185 8.54,7.779 8.827,8.109 8.783,8.405 8.677,8.633 8.57,8.861 8.393,9.013 8.393,9.013 a 0.055,0.055 0 0 0 -0.01,0.012 0.055,0.055 0 0 0 -0.01,0.01 0.055,0.055 0 0 0 -0.01,0.009 0.055,0.055 0 0 0 0,0.01 0.055,0.055 0 0 0 0,0.009 0.055,0.055 0 0 0 0.01,0.01 0.055,0.055 0 0 0 0,0.01 0.055,0.055 0 0 0 0.01,0.01 0.055,0.055 0 0 0 0.01,0.01 0.055,0.055 0 0 0 0.028,0.009 0.055,0.055 0 0 0 0.01,0 0.055,0.055 0 0 0 0.01,-0.01 0.055,0.055 0 0 0 0.01,0 c 0,0 0.385,-0.199 0.686,-0.529 C 9.287,8.408 9.413,8.212 9.46,7.986 A 0.93,0.93 0 0 0 9.294,7.241 C 9.13,7.011 8.974,6.813 8.882,6.624 8.789,6.436 8.752,6.274 8.813,6.076 8.936,5.682 9.479,5.166 10.831,4.382 a 0.055,0.055 0 0 0 0.01,0 0.055,0.055 0 0 0 0,-0.011 0.055,0.055 0 0 0 0.01,0 0.055,0.055 0 0 0 0,-0.01 0.055,0.055 0 0 0 0.01,-0.019 0.055,0.055 0 0 0 0,-0.01 0.055,0.055 0 0 0 0,-0.01 0.055,0.055 0 0 0 -0.01,-0.01 0.055,0.055 0 0 0 0,-0.009 0.055,0.055 0 0 0 -0.01,-0.01 0.055,0.055 0 0 0 -0.01,-0.01 0.055,0.055 0 0 0 -0.01,0 0.055,0.055 0 0 0 -0.01,0 0.055,0.055 0 0 0 -0.01,0 0.055,0.055 0 0 0 -0.01,0 0.055,0.055 0 0 0 -0.006,0 z m 0.839,4.213 a 1.44,1.44 0 0 0 -0.549,0.077 0.466,0.466 0 0 0 -0.215,0.167 0.025,0.025 0 0 0 0,0.01 0.025,0.025 0 0 0 0,0.01 0.025,0.025 0 0 0 0,0.01 0.025,0.025 0 0 0 0.008,0 0.025,0.025 0 0 0 0,0.008 0.025,0.025 0 0 0 0.011,0 0.025,0.025 0 0 0 0.01,0 c 0,0 0.09,-0.03 0.274,-0.067 0.362,-0.075 0.804,0.162 0.872,0.568 0.035,0.202 -0.023,0.452 -0.235,0.725 -0.213,0.272 -0.574,0.57 -1.155,0.871 a 0.025,0.025 0 0 0 -0.01,0 0.025,0.025 0 0 0 -0.006,0.004 0.025,0.025 0 0 0 -0.005,0.007 0.19,0.19 0 0 1 -0.02,0.039 c -0.005,0.006 -0.015,0.015 -0.018,0.02 -0.004,0.003 0,0.01 0,0.01 l 0.018,0.01 v 0.028 c 1.368,-0.36 1.926,-0.96 1.99,-1.49 0.062,-0.529 -0.371,-0.978 -0.97,-1.007 z M 6.444,8.612 c -0.3,0.008 -1,0.078 -1.813,0.471 A 0.749,0.749 0 0 0 4.444,9.2 C 4.404,9.24 4.384,9.275 4.385,9.318 a 0.172,0.172 0 0 0 0.069,0.118 c 0.04,0.032 0.097,0.06 0.167,0.087 0.278,0.106 0.781,0.18 1.4,0.216 1.238,0.073 2.924,-0.011 4.075,-0.314 a 0.025,0.025 0 0 0 0.01,0 c 0.235,-0.16 0.558,-0.304 0.558,-0.304 a 0.025,0.025 0 0 0 0.01,-0.01 0.025,0.025 0 0 0 0.006,-0.003 0.025,0.025 0 0 0 0.004,-0.005 0.025,0.025 0 0 0 0,-0.01 0.025,0.025 0 0 0 0,-0.01 0.025,0.025 0 0 0 -0.01,0 0.025,0.025 0 0 0 0,-0.01 0.025,0.025 0 0 0 -0.01,0 0.025,0.025 0 0 0 -0.01,0 c 0,0 -0.937,0.156 -1.87,0.235 C 7.641,9.404 6.418,9.428 5.807,9.347 A 1.579,1.579 0 0 1 5.424,9.259 0.185,0.185 0 0 1 5.356,9.21 C 5.342,9.196 5.334,9.182 5.336,9.17 5.337,9.146 5.366,9.112 5.424,9.073 5.482,9.033 5.575,8.984 5.67,8.945 6.047,8.788 6.61,8.662 6.61,8.662 a 0.025,0.025 0 0 0 0,-0.01 0.025,0.025 0 0 0 0.01,0 0.025,0.025 0 0 0 0,-0.01 0.025,0.025 0 0 0 0,-0.01 0.025,0.025 0 0 0 0,-0.01 0.025,0.025 0 0 0 -0.01,-0.01 0.025,0.025 0 0 0 -0.01,0 c 0,0 -0.057,-0.003 -0.156,0 z m -0.38,1.41 a 0.025,0.025 0 0 0 -0.003,10e-4 c -0.265,0.088 -0.448,0.174 -0.559,0.264 a 0.36,0.36 0 0 0 -0.108,0.138 0.18,0.18 0 0 0 -0.01,0.136 c 0.034,0.091 0.132,0.168 0.276,0.235 0.144,0.067 0.335,0.122 0.567,0.167 0.93,0.18 2.492,0.167 3.967,-0.265 a 0.025,0.025 0 0 0 0.01,0 0.025,0.025 0 0 0 0,-0.01 0.025,0.025 0 0 0 0,-0.01 0.025,0.025 0 0 0 0,-0.009 0.025,0.025 0 0 0 0,-0.01 0.025,0.025 0 0 0 -0.01,0 0.025,0.025 0 0 0 0,-0.01 1.541,1.541 0 0 1 -0.51,-0.304 0.025,0.025 0 0 0 -0.01,-0.01 0.025,0.025 0 0 0 -0.009,0 C 8.229,10.613 7.395,10.611 6.345,10.502 6.143,10.482 6.04,10.439 5.982,10.395 5.924,10.351 5.92,10.305 5.933,10.257 A 0.342,0.342 0 0 1 6.011,10.12 C 6.047,10.083 6.08,10.06 6.08,10.06 a 0.025,0.025 0 0 0 0.01,-0.008 0.025,0.025 0 0 0 0,-0.01 0.025,0.025 0 0 0 0,-0.01 0.025,0.025 0 0 0 -0.01,-0.01 0.025,0.025 0 0 0 -0.01,0 0.025,0.025 0 0 0 -0.007,-10e-4 z m 0.303,1.361 a 0.025,0.025 0 0 0 -0.003,0.002 c -0.24,0.067 -0.4,0.142 -0.5,0.225 -0.098,0.083 -0.129,0.183 -0.097,0.274 0.032,0.09 0.122,0.171 0.254,0.245 0.132,0.074 0.3,0.142 0.51,0.195 0.839,0.214 2.224,0.23 3.447,-0.293 a 0.025,0.025 0 0 0 0,-0.01 0.025,0.025 0 0 0 0.01,0 0.025,0.025 0 0 0 0,-0.01 0.025,0.025 0 0 0 0,-0.01 0.025,0.025 0 0 0 0,-0.01 0.025,0.025 0 0 0 -0.01,0 0.025,0.025 0 0 0 0,-0.01 C 9.582,11.827 9.303,11.638 9.303,11.638 a 0.025,0.025 0 0 0 -0.01,0 0.025,0.025 0 0 0 -0.01,0 0.025,0.025 0 0 0 -0.01,0 C 8.189,11.843 7.691,11.868 6.707,11.757 6.506,11.733 6.379,11.695 6.316,11.659 6.284,11.641 6.266,11.626 6.257,11.61 c -0.009,-0.015 -0.004,-0.033 0,-0.049 0.007,-0.03 0.038,-0.063 0.068,-0.089 0.031,-0.025 0.07,-0.039 0.07,-0.039 a 0.025,0.025 0 0 0 0,-0.01 0.025,0.025 0 0 0 0,-0.01 0.025,0.025 0 0 0 0,-0.01 0.025,0.025 0 0 0 0,-0.01 0.025,0.025 0 0 0 0,-0.01 0.025,0.025 0 0 0 -0.01,0 0.025,0.025 0 0 0 -0.01,0 0.025,0.025 0 0 0 -0.008,0 z m -1.276,0.902 c -0.047,0 -0.096,0.007 -0.147,0.011 -0.446,0.04 -1.045,0.233 -1.351,0.46 a 0.604,0.604 0 0 0 -0.166,0.186 c -0.034,0.06 -0.042,0.117 -0.01,0.176 0.03,0.06 0.093,0.112 0.194,0.156 0.102,0.044 0.246,0.079 0.433,0.109 2.483,0.403 4.745,0.313 6.228,0.049 0.742,-0.132 1.282,-0.308 1.568,-0.49 0.142,-0.09 0.226,-0.174 0.224,-0.275 a 0.222,0.222 0 0 0 -0.068,-0.146 0.606,0.606 0 0 0 -0.185,-0.117 0.025,0.025 0 0 0 -0.01,0 0.025,0.025 0 0 0 -0.01,0 0.025,0.025 0 0 0 -0.01,0 0.025,0.025 0 0 0 0,0.009 0.025,0.025 0 0 0 -0.01,0 0.025,0.025 0 0 0 0,0.01 0.025,0.025 0 0 0 0,0.01 0.025,0.025 0 0 0 0.01,0 0.025,0.025 0 0 0 0,0.01 c 0,0 0.082,0.061 0.078,0.147 -0.002,0.042 -0.022,0.1 -0.089,0.156 a 1.046,1.046 0 0 1 -0.361,0.167 C 10.713,13.124 9.245,13.259 7.804,13.275 7.084,13.283 6.369,13.264 5.757,13.206 5.146,13.149 4.631,13.054 4.327,12.922 A 0.194,0.194 0 0 1 4.239,12.854 c -0.015,-0.02 -0.018,-0.03 -0.01,-0.05 0.016,-0.04 0.084,-0.098 0.176,-0.146 0.183,-0.095 0.46,-0.177 0.588,-0.205 0.27,-0.059 0.412,-0.049 0.412,-0.049 a 0.025,0.025 0 0 0 0.01,0 0.025,0.025 0 0 0 0.01,0 0.025,0.025 0 0 0 0,-0.01 0.025,0.025 0 0 0 0.01,0 0.025,0.025 0 0 0 0,-0.01 0.025,0.025 0 0 0 0,-0.01 0.025,0.025 0 0 0 -0.01,-0.01 0.025,0.025 0 0 0 0,-0.01 C 5.347,12.3 5.232,12.285 5.091,12.285 Z m 7.463,0.744 a 0.025,0.025 0 0 0 0,0.01 c 0,0 -0.002,0.01 -0.01,0.02 -0.006,0.01 -0.01,0.02 -0.03,0.04 a 1.02,1.02 0 0 1 -0.234,0.165 c -0.245,0.14 -0.703,0.322 -1.548,0.481 -1.906,0.36 -4.258,0.318 -5.651,0.088 l -0.01,0.02 0.02,0.018 c 0,0 -0.031,0.004 -0.02,0.011 0.011,0.008 0.033,0.026 0.059,0.038 0.05,0.025 0.135,0.053 0.264,0.09 0.256,0.072 0.694,0.157 1.43,0.204 1.121,0.072 2.542,0.055 3.693,-0.117 0.576,-0.086 1.077,-0.212 1.45,-0.382 0.372,-0.17 0.614,-0.387 0.635,-0.665 a 0.025,0.025 0 0 0 0,-0.01 0.025,0.025 0 0 0 0,-0.01 0.025,0.025 0 0 0 -0.008,0 0.025,0.025 0 0 0 -0.01,0 0.025,0.025 0 0 0 -0.01,0 0.025,0.025 0 0 0 -0.01,0 0.025,0.025 0 0 0 -0.01,0 z"
  	 class="ColorScheme-Text" />
</svg>
