<svg xmlns="http://www.w3.org/2000/svg" viewBox="0 0 16 16" id="svg6">
  <defs id="defs3051">
    <style id="current-color-scheme">
      .ColorScheme-Text {
        color:#f9f9f9;
      }
      .ColorScheme-Highlight {
        color:#E0DFD8;
	  </style>
	</defs>
  <path style="fill:currentColor;fill-opacity:1;stroke:none"
     d="M 4.299,1.71 C 3.386,3.299 2.081,6.526 2.559,8.314 a 3.804,3.804 0 0 0 1.602,2.215 c 0.727,0.485 1.765,0.728 2.938,0.913 0.275,0.044 0.79,0.033 0.79,1.557 0,0.273 -0.02,0.441 -0.79,0.441 -1.97,0 -2.252,0.342 -2.252,0.85 h 6.306 c 0,-0.508 -0.283,-0.85 -2.252,-0.85 -0.77,0 -0.79,-0.168 -0.79,-0.44 0,-1.525 0.515,-1.514 0.79,-1.558 1.173,-0.185 2.21,-0.428 2.938,-0.913 A 3.804,3.804 0 0 0 13.441,8.314 C 13.919,6.526 12.614,3.299 11.701,1.71 l -0.42,0.019 c 1.25,2.588 1.746,4.985 1.37,6.391 -0.187,0.704 -0.65,1.218 -1.312,1.66 -0.662,0.441 -1.621,0.76 -2.934,0.893 L 8,10.713 7.595,10.673 C 6.282,10.539 5.323,10.221 4.661,9.78 3.998,9.338 3.536,8.824 3.348,8.12 2.973,6.714 3.469,4.317 4.718,1.729 Z m 3.782,0.63 a 0.246,0.246 0 1 0 0,0.492 0.246,0.246 0 0 0 0,-0.492 z M 6.726,2.37 c -0.142,0 -0.298,0.014 -0.46,0.057 -0.903,0.242 -1.368,1.33 -1.547,1.765 -1.47,3.57 -0.026,5.578 3.18,5.578 3.794,0 4.392,-2.415 3.597,-4.973 -1.08,-1.08 -4.59,2.217 -5.667,0.35 C 5.455,4.5 5.934,3.395 6.81,3.395 8.114,3.395 7.721,2.387 6.726,2.37 Z M 8.348,3.053 A 0.483,0.483 0 1 0 8.864,3.536 0.482,0.482 0 0 0 8.348,3.053 Z"
  	 class="ColorScheme-Text" />
</svg>
