<svg xmlns="http://www.w3.org/2000/svg" viewBox="0 0 16 16" id="svg6">
  <defs id="defs3051">
    <style id="current-color-scheme">
      .ColorScheme-Text {
        color:#f9f9f9;
      }
      .ColorScheme-Highlight {
        color:#E0DFD8;
	  </style>
	</defs>
  <path style="fill:currentColor;fill-opacity:1;stroke:none" 
     d="m 3.119,2.305 c -0.888,0 -1.628,0.74 -1.628,1.627 v 8.136 c 0,0.887 0.74,1.627 1.628,1.627 h 9.762 c 0.888,0 1.628,-0.74 1.628,-1.627 V 3.932 c 0,-0.887 -0.74,-1.627 -1.628,-1.627 h -2.44 z m 0,0.814 h 9.762 c 0.451,0 0.814,0.362 0.814,0.813 v 8.136 c 0,0.45 -0.363,0.813 -0.814,0.813 H 3.12 A 0.812,0.812 0 0 1 2.306,12.068 V 3.932 c 0,-0.45 0.363,-0.813 0.814,-0.813 z M 3.932,3.932 V 5.56 H 5.56 V 3.932 Z m 3.254,0 V 5.56 H 8.814 V 3.932 Z m 3.255,0 V 5.56 h 1.627 V 3.932 Z m -6.509,6.509 v 1.627 H 5.56 V 10.44 Z m 3.254,0 v 1.627 H 8.814 V 10.44 Z m 3.255,0 v 1.627 h 1.627 V 10.44 Z"
  	 class="ColorScheme-Text" />
</svg>
