<svg xmlns="http://www.w3.org/2000/svg" viewBox="0 0 16 16" id="svg6">
  <defs id="defs3051">
    <style id="current-color-scheme">
      .ColorScheme-Text {
        color:#f9f9f9;
      }
      .ColorScheme-Highlight {
        color:#E0DFD8;
	  </style>
	</defs>
  <path style="fill:currentColor;fill-opacity:1;stroke:none" 
     d="m 4.044,2.615 c -0.425,0 -0.815,0.226 -1.046,0.508 A 1.75,1.75 0 0 0 2.62,4.077 L 1.85,11.77 c -0.055,0.551 0.275,1.004 0.621,1.248 a 2.02,2.02 0 0 0 1.185,0.367 c 0.464,0 0.865,-0.237 1.129,-0.498 0.263,-0.26 0.443,-0.552 0.61,-0.847 C 5.728,11.45 6.013,10.828 6.293,10.473 6.51,10.2 6.583,10.155 6.78,10.097 6.977,10.04 7.362,10.013 8,10.013 c 0.638,0 1.023,0.027 1.22,0.084 0.197,0.058 0.27,0.103 0.487,0.376 0.28,0.355 0.565,0.978 0.898,1.567 0.167,0.295 0.348,0.587 0.612,0.847 0.263,0.26 0.663,0.498 1.127,0.498 a 2.02,2.02 0 0 0 1.185,-0.367 c 0.346,-0.244 0.676,-0.697 0.62,-1.248 L 13.38,4.077 A 1.75,1.75 0 0 0 13.002,3.123 1.392,1.392 0 0 0 11.956,2.616 H 10.774 C 10.132,2.616 9.621,3.102 9.462,3.332 9.43,3.378 9.443,3.362 9.426,3.385 H 6.574 C 6.556,3.361 6.567,3.378 6.538,3.332 6.379,3.102 5.868,2.616 5.226,2.616 H 4.044 Z m 0,0.77 h 1.182 c 0.776,0 0.633,0.769 1.204,0.769 h 3.14 c 0.57,0 0.429,-0.77 1.204,-0.77 h 1.182 c 0.365,0 0.617,0.346 0.66,0.77 l 0.769,7.693 c 0.042,0.423 -0.493,0.77 -1.041,0.77 -0.89,0 -1.283,-1.67 -2.035,-2.622 C 9.759,9.301 9.299,9.245 8,9.245 c -1.299,0 -1.76,0.056 -2.309,0.75 -0.753,0.951 -1.145,2.621 -2.035,2.621 -0.548,0 -1.083,-0.346 -1.041,-0.77 L 3.385,4.154 C 3.426,3.73 3.679,3.384 4.044,3.384 Z M 5.308,5.692 A 0.384,0.384 0 0 0 4.923,6.077 V 6.462 H 4.54 A 0.384,0.384 0 0 0 4.155,6.846 c 0,0.214 0.171,0.385 0.385,0.385 h 0.384 v 0.385 a 0.385,0.385 0 1 0 0.77,0 V 7.23 H 6.078 A 0.384,0.384 0 0 0 6.462,6.845 0.384,0.384 0 0 0 6.078,6.461 H 5.693 V 6.076 A 0.384,0.384 0 0 0 5.308,5.691 Z m 5.385,0 a 0.385,0.385 0 0 0 -0.098,0.013 0.385,0.385 0 0 0 -0.005,0.001 0.385,0.385 0 0 0 -10e-4,0 0.385,0.385 0 0 0 -0.026,0.01 0.385,0.385 0 0 0 -0.017,0.005 0.385,0.385 0 0 0 -0.003,0.002 0.385,0.385 0 0 0 -0.025,0.012 0.385,0.385 0 0 0 -0.055,0.034 0.385,0.385 0 0 0 -0.014,0.01 0.385,0.385 0 0 0 -0.015,0.014 0.385,0.385 0 0 0 -0.014,0.012 0.385,0.385 0 0 0 -0.011,0.014 0.385,0.385 0 0 0 -0.014,0.015 0.385,0.385 0 0 0 -0.01,0.013 0.385,0.385 0 0 0 -0.009,0.012 0.385,0.385 0 0 0 -0.006,0.01 0.385,0.385 0 0 0 -0.033,0.062 0.385,0.385 0 0 0 -0.006,0.017 0.385,0.385 0 0 0 -0.009,0.026 0.385,0.385 0 0 0 -10e-4,0.005 0.385,0.385 0 0 0 -0.004,0.021 0.385,0.385 0 0 0 -0.002,0.01 0.385,0.385 0 0 0 -0.006,0.067 0.385,0.385 0 0 0 0.002,0.027 0.385,0.385 0 0 0 0.01,0.07 0.385,0.385 0 0 0 10e-4,0.007 0.385,0.385 0 0 0 0.01,0.025 0.385,0.385 0 0 0 0.005,0.017 0.385,0.385 0 0 0 0.002,0.005 0.385,0.385 0 0 0 0.012,0.023 0.385,0.385 0 0 0 0.034,0.056 0.385,0.385 0 0 0 0.01,0.014 0.385,0.385 0 0 0 0.014,0.014 0.385,0.385 0 0 0 0.012,0.014 0.385,0.385 0 0 0 0.014,0.012 0.385,0.385 0 0 0 0.015,0.013 0.385,0.385 0 0 0 0.013,0.01 0.385,0.385 0 0 0 0.012,0.01 0.385,0.385 0 0 0 0.01,0.006 0.385,0.385 0 0 0 0.062,0.033 0.385,0.385 0 0 0 0.017,0.006 0.385,0.385 0 0 0 0.027,0.01 0.385,0.385 0 0 0 0.005,0 0.385,0.385 0 0 0 0.02,0.005 0.385,0.385 0 0 0 0.01,0.001 0.385,0.385 0 0 0 0.067,0.007 0.385,0.385 0 0 0 0.065,-0.007 0.385,0.385 0 0 0 0.034,-0.007 0.385,0.385 0 0 0 0.003,0 0.385,0.385 0 0 1 0.002,0 A 0.385,0.385 0 0 0 10.823,6.439 0.385,0.385 0 0 0 10.839,6.433 0.385,0.385 0 0 0 10.867,6.42 0.385,0.385 0 0 0 10.9,6.4 0.385,0.385 0 0 0 10.923,6.385 0.385,0.385 0 0 0 10.936,6.375 0.385,0.385 0 0 0 10.952,6.361 0.385,0.385 0 0 0 10.965,6.349 0.385,0.385 0 0 0 10.977,6.335 0.385,0.385 0 0 0 10.99,6.32 a 0.385,0.385 0 0 0 0.011,-0.013 0.385,0.385 0 0 0 0.015,-0.023 0.385,0.385 0 0 0 0.02,-0.033 0.385,0.385 0 0 0 0.013,-0.028 0.385,0.385 0 0 0 0.006,-0.017 0.385,0.385 0 0 0 0.009,-0.025 0.385,0.385 0 0 1 0,-0.002 0.385,0.385 0 0 0 10e-4,-0.005 0.385,0.385 0 0 0 0.006,-0.03 0.385,0.385 0 0 0 0.005,-0.04 A 0.385,0.385 0 0 0 11.077,6.077 0.385,0.385 0 0 0 11.076,6.05 0.385,0.385 0 0 0 11.071,6.01 0.385,0.385 0 0 0 11.07,6 0.385,0.385 0 0 0 11.064,5.975 0.385,0.385 0 0 1 11.064,5.973 0.385,0.385 0 0 0 11.054,5.948 0.385,0.385 0 0 0 11.052,5.938 0.385,0.385 0 0 0 11.047,5.928 0.385,0.385 0 0 0 11.017,5.87 0.385,0.385 0 0 0 11.01,5.86 0.385,0.385 0 0 0 10.995,5.838 0.385,0.385 0 0 0 10.988,5.829 0.385,0.385 0 0 0 10.97,5.809 0.385,0.385 0 0 0 10.961,5.801 0.385,0.385 0 0 0 10.941,5.783 0.385,0.385 0 0 0 10.933,5.775 0.385,0.385 0 0 0 10.913,5.759 0.385,0.385 0 0 0 10.868,5.734 0.385,0.385 0 0 0 10.844,5.723 0.385,0.385 0 0 0 10.834,5.718 0.385,0.385 0 0 0 10.808,5.708 0.385,0.385 0 0 0 10.796,5.706 0.385,0.385 0 0 0 10.771,5.7 0.385,0.385 0 0 0 10.721,5.694 0.385,0.385 0 0 0 10.694,5.692 Z m -0.77,0.77 A 0.385,0.385 0 0 0 9.826,6.474 0.385,0.385 0 0 0 9.821,6.475 0.385,0.385 0 0 0 9.82,6.475 0.385,0.385 0 0 0 9.794,6.485 0.385,0.385 0 0 0 9.778,6.49 0.385,0.385 0 0 0 9.772,6.492 0.385,0.385 0 0 0 9.749,6.504 0.385,0.385 0 0 0 9.693,6.539 0.385,0.385 0 0 0 9.679,6.549 0.385,0.385 0 0 0 9.664,6.563 0.385,0.385 0 0 0 9.651,6.574 0.385,0.385 0 0 0 9.639,6.588 0.385,0.385 0 0 0 9.626,6.603 0.385,0.385 0 0 0 9.616,6.616 0.385,0.385 0 0 0 9.606,6.629 0.385,0.385 0 0 0 9.6,6.639 0.385,0.385 0 0 0 9.567,6.701 0.385,0.385 0 0 0 9.561,6.717 a 0.385,0.385 0 0 0 -0.01,0.026 0.385,0.385 0 0 0 0,10e-4 0.385,0.385 0 0 0 0,0.005 A 0.385,0.385 0 0 0 9.546,6.769 0.385,0.385 0 0 0 9.545,6.78 0.385,0.385 0 0 0 9.538,6.847 0.385,0.385 0 0 0 9.54,6.873 0.385,0.385 0 0 0 9.55,6.944 0.385,0.385 0 0 0 9.552,6.95 0.385,0.385 0 0 0 9.562,6.975 0.385,0.385 0 0 0 9.567,6.992 0.385,0.385 0 0 0 9.569,6.997 0.385,0.385 0 0 0 9.581,7.021 0.385,0.385 0 0 0 9.615,7.076 0.385,0.385 0 0 0 9.625,7.09 0.385,0.385 0 0 0 9.639,7.105 0.385,0.385 0 0 0 9.651,7.118 0.385,0.385 0 0 0 9.665,7.13 0.385,0.385 0 0 0 9.68,7.144 a 0.385,0.385 0 0 0 0.014,0.01 0.385,0.385 0 0 0 0.011,0.01 0.385,0.385 0 0 0 0.01,0.005 0.385,0.385 0 0 0 0.062,0.033 0.385,0.385 0 0 0 0.017,0.006 0.385,0.385 0 0 0 0.027,0.01 0.385,0.385 0 0 0 0.005,0.001 0.385,0.385 0 0 0 0.02,0.004 0.385,0.385 0 0 0 0.011,0.002 0.385,0.385 0 0 0 0.066,0.006 0.385,0.385 0 0 0 0.065,-0.006 0.385,0.385 0 0 0 0.034,-0.008 0.385,0.385 0 0 0 0.003,0 0.385,0.385 0 0 1 0.002,0 0.385,0.385 0 0 0 0.036,-0.012 0.385,0.385 0 0 0 0.01,-0.004 0.385,0.385 0 0 0 0.025,-0.012 0.385,0.385 0 0 0 0.032,-0.02 0.385,0.385 0 0 0 0.023,-0.015 0.385,0.385 0 0 0 0.013,-0.01 0.385,0.385 0 0 0 0.024,-0.021 0.385,0.385 0 0 0 0.005,-0.005 0.385,0.385 0 0 0 0.012,-0.013 0.385,0.385 0 0 0 0.018,-0.02 0.385,0.385 0 0 0 0.006,-0.009 0.385,0.385 0 0 0 0.009,-0.012 0.385,0.385 0 0 0 0.025,-0.043 0.385,0.385 0 0 0 0.012,-0.024 0.385,0.385 0 0 0 0.005,-0.01 0.385,0.385 0 0 0 0.003,-0.011 0.385,0.385 0 0 0 0.008,-0.028 0.385,0.385 0 0 0 0.002,-0.004 0.385,0.385 0 0 0 0.01,-0.07 A 0.385,0.385 0 0 0 10.307,6.846 0.385,0.385 0 0 0 10.306,6.819 0.385,0.385 0 0 0 10.301,6.78 0.385,0.385 0 0 0 10.3,6.77 0.385,0.385 0 0 0 10.294,6.744 0.385,0.385 0 0 1 10.294,6.743 0.385,0.385 0 0 0 10.291,6.733 0.385,0.385 0 0 0 10.282,6.707 0.385,0.385 0 0 0 10.279,6.701 0.385,0.385 0 0 0 10.246,6.639 0.385,0.385 0 0 0 10.24,6.629 0.385,0.385 0 0 0 10.22,6.603 0.385,0.385 0 0 0 10.207,6.588 0.385,0.385 0 0 0 10.191,6.57 0.385,0.385 0 0 0 10.182,6.562 0.385,0.385 0 0 0 10.162,6.544 0.385,0.385 0 0 0 10.154,6.539 0.385,0.385 0 0 0 10.131,6.523 0.385,0.385 0 0 0 10.098,6.503 0.385,0.385 0 0 0 10.069,6.49 0.385,0.385 0 0 0 10.053,6.484 0.385,0.385 0 0 0 10.026,6.474 0.385,0.385 0 0 0 10,6.47 0.385,0.385 0 0 0 9.99,6.469 0.385,0.385 0 0 0 9.95,6.464 0.385,0.385 0 0 0 9.924,6.463 Z m 1.539,0 a 0.385,0.385 0 0 0 -0.098,0.012 0.385,0.385 0 0 0 -0.005,10e-4 0.385,0.385 0 0 0 -0.026,0.01 0.385,0.385 0 0 0 -0.017,0.005 0.385,0.385 0 0 0 -0.084,0.049 0.385,0.385 0 0 0 -0.014,0.01 0.385,0.385 0 0 0 -0.014,0.014 0.385,0.385 0 0 0 -0.014,0.011 0.385,0.385 0 0 0 -0.012,0.014 0.385,0.385 0 0 0 -0.013,0.015 0.385,0.385 0 0 0 -0.01,0.013 0.385,0.385 0 0 0 -0.01,0.013 0.385,0.385 0 0 0 -0.006,0.01 0.385,0.385 0 0 0 -0.033,0.062 0.385,0.385 0 0 0 -0.006,0.017 0.385,0.385 0 0 0 -0.009,0.025 0.385,0.385 0 0 0 0,10e-4 0.385,0.385 0 0 0 -10e-4,0.005 0.385,0.385 0 0 0 -0.005,0.02 0.385,0.385 0 0 0 -0.001,0.011 0.385,0.385 0 0 0 -0.006,0.067 0.385,0.385 0 0 0 0.012,0.097 0.385,0.385 0 0 0 0.002,0.006 0.385,0.385 0 0 0 0.008,0.026 0.385,0.385 0 0 0 0.006,0.016 0.385,0.385 0 0 0 0.048,0.084 0.385,0.385 0 0 0 0.01,0.014 0.385,0.385 0 0 0 0.014,0.015 0.385,0.385 0 0 0 0.012,0.014 0.385,0.385 0 0 0 0.014,0.011 0.385,0.385 0 0 0 0.015,0.014 0.385,0.385 0 0 0 0.013,0.01 0.385,0.385 0 0 0 0.012,0.01 0.385,0.385 0 0 0 0.01,0.005 0.385,0.385 0 0 0 0.062,0.034 0.385,0.385 0 0 0 0.017,0.006 0.385,0.385 0 0 0 0.027,0.009 0.385,0.385 0 0 0 0.005,0.001 0.385,0.385 0 0 0 0.02,0.005 0.385,0.385 0 0 0 0.01,0 0.385,0.385 0 0 0 0.068,0.007 0.385,0.385 0 0 0 0.064,-0.006 0.385,0.385 0 0 0 0.034,-0.007 0.385,0.385 0 0 0 0.003,0 0.385,0.385 0 0 1 10e-4,0 0.385,0.385 0 0 0 0.026,-0.01 0.385,0.385 0 0 0 0.017,-0.006 0.385,0.385 0 0 0 0.028,-0.013 0.385,0.385 0 0 0 0.033,-0.02 0.385,0.385 0 0 0 0.023,-0.015 0.385,0.385 0 0 0 0.013,-0.01 0.385,0.385 0 0 0 0.015,-0.014 0.385,0.385 0 0 0 0.014,-0.012 0.385,0.385 0 0 0 0.012,-0.013 0.385,0.385 0 0 0 0.013,-0.016 0.385,0.385 0 0 0 0.01,-0.013 0.385,0.385 0 0 0 0.01,-0.012 0.385,0.385 0 0 0 0.025,-0.043 0.385,0.385 0 0 0 0.012,-0.025 0.385,0.385 0 0 0 0.005,-0.01 A 0.385,0.385 0 0 0 11.83,6.961 0.385,0.385 0 0 0 11.833,6.948 0.385,0.385 0 0 0 11.84,6.912 0.385,0.385 0 0 0 11.844,6.873 0.385,0.385 0 0 0 11.846,6.846 0.385,0.385 0 0 0 11.844,6.819 0.385,0.385 0 0 0 11.84,6.78 0.385,0.385 0 0 0 11.834,6.748 0.385,0.385 0 0 0 11.832,6.744 0.385,0.385 0 0 1 11.832,6.743 0.385,0.385 0 0 0 11.829,6.733 0.385,0.385 0 0 0 11.82,6.707 0.385,0.385 0 0 0 11.816,6.697 0.385,0.385 0 0 0 11.784,6.639 0.385,0.385 0 0 0 11.778,6.629 0.385,0.385 0 0 0 11.759,6.603 0.385,0.385 0 0 0 11.745,6.588 0.385,0.385 0 0 0 11.733,6.574 0.385,0.385 0 0 0 11.72,6.562 0.385,0.385 0 0 0 11.705,6.549 0.385,0.385 0 0 0 11.691,6.539 0.385,0.385 0 0 0 11.669,6.523 0.385,0.385 0 0 0 11.612,6.492 0.385,0.385 0 0 0 11.607,6.49 0.385,0.385 0 0 0 11.591,6.484 0.385,0.385 0 0 0 11.564,6.474 0.385,0.385 0 0 0 11.559,6.474 0.385,0.385 0 0 0 11.528,6.467 0.385,0.385 0 0 0 11.488,6.463 0.385,0.385 0 0 0 11.462,6.461 Z M 7.615,7.231 A 0.384,0.384 0 0 0 7.231,7.616 C 7.231,7.829 7.403,8 7.615,8 h 0.77 A 0.383,0.383 0 0 0 8.769,7.616 0.384,0.384 0 0 0 8.385,7.231 Z m 3.078,0 a 0.385,0.385 0 0 0 -0.028,0.001 0.385,0.385 0 0 0 -0.039,0.005 0.385,0.385 0 0 0 -0.031,0.006 0.385,0.385 0 0 0 -0.004,10e-4 0.385,0.385 0 0 0 -0.027,0.01 0.385,0.385 0 0 0 -0.017,0.006 0.385,0.385 0 0 0 -0.004,0.001 0.385,0.385 0 0 0 -0.024,0.012 0.385,0.385 0 0 0 -0.033,0.02 0.385,0.385 0 0 0 -0.023,0.015 0.385,0.385 0 0 0 -0.014,0.01 0.385,0.385 0 0 0 -0.015,0.013 0.385,0.385 0 0 0 -0.013,0.013 0.385,0.385 0 0 0 -0.012,0.013 0.385,0.385 0 0 0 -0.014,0.015 0.385,0.385 0 0 0 -0.01,0.014 0.385,0.385 0 0 0 -0.009,0.012 0.385,0.385 0 0 0 -0.006,0.01 0.385,0.385 0 0 0 -0.02,0.033 0.385,0.385 0 0 0 -0.013,0.029 0.385,0.385 0 0 0 -0.006,0.016 0.385,0.385 0 0 0 -0.009,0.026 0.385,0.385 0 0 0 0,0.006 0.385,0.385 0 0 0 -0.006,0.02 0.385,0.385 0 0 0 0,0.011 0.385,0.385 0 0 0 -0.005,0.04 0.385,0.385 0 0 0 0,0.027 0.385,0.385 0 0 0 0,0.027 0.385,0.385 0 0 0 0.004,0.039 0.385,0.385 0 0 0 0.006,0.032 0.385,0.385 0 0 0 0.002,0.005 0.385,0.385 0 0 0 0.008,0.026 0.385,0.385 0 0 0 0.006,0.016 0.385,0.385 0 0 0 0.002,0.005 0.385,0.385 0 0 0 0.012,0.024 0.385,0.385 0 0 0 0.02,0.033 0.385,0.385 0 0 0 0.015,0.022 0.385,0.385 0 0 0 0.01,0.014 0.385,0.385 0 0 0 0.013,0.015 0.385,0.385 0 0 0 0.013,0.013 0.385,0.385 0 0 0 0.013,0.013 0.385,0.385 0 0 0 0.015,0.013 0.385,0.385 0 0 0 0.014,0.01 0.385,0.385 0 0 0 0.011,0.01 0.385,0.385 0 0 0 0.01,0.006 0.385,0.385 0 0 0 0.034,0.02 0.385,0.385 0 0 0 0.029,0.013 0.385,0.385 0 0 0 0.006,0.003 0.385,0.385 0 0 0 0.037,0.012 0.385,0.385 0 0 0 0.005,0.001 0.385,0.385 0 0 0 0.02,0.005 0.385,0.385 0 0 0 0.011,10e-4 0.385,0.385 0 0 0 0.039,0.005 0.385,0.385 0 0 0 0.027,0.001 0.385,0.385 0 0 0 0.027,0 0.385,0.385 0 0 0 0.038,-0.005 0.385,0.385 0 0 0 0.012,-0.001 0.385,0.385 0 0 0 0.025,-0.006 0.385,0.385 0 0 0 0.013,-0.003 0.385,0.385 0 0 0 0.025,-0.01 0.385,0.385 0 0 0 0.01,-0.004 0.385,0.385 0 0 0 0.025,-0.012 0.385,0.385 0 0 0 0.032,-0.02 0.385,0.385 0 0 0 0.01,-0.005 0.385,0.385 0 0 0 0.022,-0.016 0.385,0.385 0 0 0 0.009,-0.007 0.385,0.385 0 0 0 0.02,-0.018 0.385,0.385 0 0 0 0.008,-0.01 0.385,0.385 0 0 0 0.018,-0.019 0.385,0.385 0 0 0 0.008,-0.008 0.385,0.385 0 0 0 0.015,-0.021 0.385,0.385 0 0 0 0.006,-0.01 0.385,0.385 0 0 0 0.02,-0.034 0.385,0.385 0 0 0 0.01,-0.024 0.385,0.385 0 0 0 0.006,-0.01 0.385,0.385 0 0 0 0.012,-0.036 0.385,0.385 0 0 0 0,-0.002 0.385,0.385 0 0 0 0.005,-0.026 0.385,0.385 0 0 0 0.003,-0.01 0.385,0.385 0 0 0 0.003,-0.04 A 0.385,0.385 0 0 0 11.077,7.617 0.385,0.385 0 0 0 11.075,7.589 0.385,0.385 0 0 0 11.072,7.55 0.385,0.385 0 0 0 11.066,7.52 0.385,0.385 0 0 0 11.064,7.513 0.385,0.385 0 0 0 11.055,7.487 0.385,0.385 0 0 0 11.049,7.471 0.385,0.385 0 0 0 11.036,7.442 0.385,0.385 0 0 0 11.016,7.409 0.385,0.385 0 0 0 11.001,7.387 0.385,0.385 0 0 0 10.991,7.373 0.385,0.385 0 0 0 10.977,7.358 0.385,0.385 0 0 0 10.96,7.34 0.385,0.385 0 0 0 10.952,7.332 0.385,0.385 0 0 0 10.936,7.319 0.385,0.385 0 0 0 10.923,7.309 0.385,0.385 0 0 0 10.9,7.293 0.385,0.385 0 0 0 10.868,7.273 0.385,0.385 0 0 0 10.839,7.261 0.385,0.385 0 0 0 10.823,7.254 0.385,0.385 0 0 0 10.795,7.245 0.385,0.385 0 0 0 10.791,7.244 0.385,0.385 0 0 0 10.76,7.238 0.385,0.385 0 0 0 10.72,7.233 0.385,0.385 0 0 0 10.693,7.232 Z"
  	 class="ColorScheme-Text" />
</svg>
