<svg xmlns="http://www.w3.org/2000/svg" viewBox="0 0 16 16" id="svg6">
  <defs id="defs3051">
    <style id="current-color-scheme">
      .ColorScheme-Text {
        color:#f9f9f9;
      }
      .ColorScheme-Highlight {
        color:#E0DFD8;
	  </style>
	</defs>
  <path style="fill:currentColor;fill-opacity:1;stroke:none"
     d="m 8,1.576 a 4.838,4.838 0 1 0 0,9.675 4.838,4.838 0 0 0 0,-9.675 z m 0,0.538 a 4.3,4.3 0 0 1 0,8.6 4.3,4.3 0 0 1 0,-8.6 z M 7.59,2.658 A 3.84,3.84 0 0 0 7.211,2.718 C 6.961,2.77 6.723,2.84 6.494,2.938 a 3.865,3.865 0 0 0 -2.233,2.61 l 0.02,0.02 c 0.206,0.22 0.775,0.533 1.176,0.678 0.219,0.08 0.628,0.2 0.917,0.26 0.29,0.059 0.487,0.116 0.459,0.119 C 6.804,6.627 6.683,6.708 6.553,6.824 6.308,7.045 6.181,7.252 6.075,7.601 6.017,7.792 6.019,7.837 6.095,7.941 6.141,8.003 6.35,8.153 6.553,8.279 c 0.204,0.126 0.434,0.316 0.519,0.398 0.315,0.307 0.517,0.844 0.517,1.377 0,0.136 0.011,0.227 0.02,0.258 0.027,0.003 0.054,-0.002 0.08,0 0.059,-0.022 0.14,-0.05 0.28,-0.12 C 9.138,9.608 9.696,8.824 9.643,7.822 9.601,7.022 9.21,6.748 7.69,6.425 6.57,6.187 5.975,5.796 5.975,5.289 c 0,-0.134 0.033,-0.212 0.18,-0.358 0.157,-0.158 0.197,-0.165 0.319,-0.14 0.077,0.015 0.264,0.118 0.418,0.24 0.346,0.273 0.519,0.378 0.697,0.378 0.077,0 0.14,-0.009 0.14,-0.02 0,-0.01 -0.057,-0.108 -0.12,-0.2 C 7.265,4.68 7.298,3.71 7.669,2.898 7.728,2.771 7.755,2.682 7.749,2.658 7.697,2.661 7.641,2.653 7.589,2.658 Z m 3.587,1.814 c -0.07,-0.043 -0.626,0.557 -0.756,0.818 -0.258,0.518 -0.159,0.845 0.457,1.495 0.213,0.224 0.459,0.535 0.539,0.677 0.08,0.142 0.16,0.24 0.18,0.22 0.018,-0.021 0.055,-0.184 0.1,-0.359 0.115,-0.46 0.124,-1.252 0,-1.714 -0.098,-0.359 -0.43,-1.081 -0.52,-1.137 z m -4.204,7.35 c -0.188,0 -0.341,0.195 -0.341,0.435 0,0.24 0.152,0.433 0.341,0.433 H 2.185 c -0.189,0 -0.342,0.193 -0.342,0.435 0,0.24 0.152,0.433 0.342,0.433 h 5.131 v 0.866 h 1.368 v -0.866 h 5.131 c 0.189,0 0.342,-0.194 0.342,-0.433 0,-0.241 -0.152,-0.435 -0.342,-0.435 H 9.027 c 0.188,0 0.341,-0.193 0.341,-0.433 0,-0.24 -0.152,-0.434 -0.341,-0.434 z"
  	 class="ColorScheme-Text" />
</svg>
