<svg xmlns="http://www.w3.org/2000/svg" viewBox="0 0 16 16" id="svg6">
  <defs id="defs3051">
    <style id="current-color-scheme">
      .ColorScheme-Text {
        color:#f9f9f9;
      }
      .ColorScheme-Highlight {
        color:#E0DFD8;
	  </style>
	</defs>
  <path style="fill:currentColor;fill-opacity:1;stroke:none"
     d="M 3 2 C 2.446 2 2 2.446 2 3 L 2 6.84375 L 2 7 L 2 10 C 2 10 2 10.001953 2 10.001953 L 2 13 C 2 13.554 2.446 14 3 14 L 13 14 C 13.554 14 14 13.554 14 13 L 14 10.259766 L 13.945312 10.273438 C 13.970819 10.184914 14 10.09695 14 10 L 14 7.1503906 L 13.96875 7.1542969 C 13.977131 7.1019971 14 7.0547341 14 7 L 14 3 C 14 2.446 13.554 2 13 2 L 3 2 z M 3.6230469 3 L 12.376953 3 C 12.721717 3 13 3.2782829 13 3.6230469 L 13 6.3769531 C 13 6.7217171 12.721717 7 12.376953 7 L 3.6230469 7 C 3.2782829 7 3 6.7217171 3 6.3769531 L 3 3.6230469 C 3 3.2782829 3.2782829 3 3.6230469 3 z M 3 8 L 13 8 L 13 9.3769531 C 13 9.7217171 12.721717 10 12.376953 10 L 3.6230469 10 C 3.2782829 10 3 9.7217171 3 9.3769531 L 3 8 z M 3 11 L 13 11 L 13 12.376953 C 13 12.721717 12.721717 13 12.376953 13 L 3.6230469 13 C 3.2782829 13 3 12.721717 3 12.376953 L 3 11 z "
  	 class="ColorScheme-Text" />
</svg>
