<svg xmlns="http://www.w3.org/2000/svg" viewBox="0 0 16 16" id="svg6">
  <defs id="defs3051">
    <style id="current-color-scheme">
      .ColorScheme-Text {
        color:#f9f9f9;
      }
	  </style>
	</defs>
  <path style="fill:currentColor;fill-opacity:1;stroke:none" 
    d="M 2,2 C 1.446,2 1,2.446 1,3 v 10 c 0,0.554 0.446,1 1,1 h 12 c 0.554,0 1,-0.446 1,-1 V 3 C 15,2.446 14.554,2 14,2 Z M 2.652,3 H 13.348 C 13.708,3 14,3.291 14,3.652 v 8.696 C 14,12.708 13.709,13 13.348,13 H 2.652 A 0.652,0.652 0 0 1 2,12.348 V 3.652 C 2,3.292 2.291,3 2.652,3 Z M 3,4 V 5 H 13 V 4 Z m 3,7 v 1 h 4 v -1 z"
    class="ColorScheme-Text" />
</svg>
