<?xml version="1.0" encoding="UTF-8" standalone="no"?>
<svg
   xmlns:dc="http://purl.org/dc/elements/1.1/"
   xmlns:cc="http://creativecommons.org/ns#"
   xmlns:rdf="http://www.w3.org/1999/02/22-rdf-syntax-ns#"
   xmlns:svg="http://www.w3.org/2000/svg"
   xmlns="http://www.w3.org/2000/svg"
   xmlns:sodipodi="http://sodipodi.sourceforge.net/DTD/sodipodi-0.dtd"
   xmlns:inkscape="http://www.inkscape.org/namespaces/inkscape"
   width="64"
   height="64"
   version="1.1"
   id="svg24"
   sodipodi:docname="folder-tar.svg"
   inkscape:version="0.92.4 (5da689c313, 2019-01-14)">
  <metadata
     id="metadata28">
    <rdf:RDF>
      <cc:Work
         rdf:about="">
        <dc:format>image/svg+xml</dc:format>
        <dc:type
           rdf:resource="http://purl.org/dc/dcmitype/StillImage" />
        <dc:title></dc:title>
      </cc:Work>
    </rdf:RDF>
  </metadata>
  <sodipodi:namedview
     pagecolor="#ffffff"
     bordercolor="#666666"
     borderopacity="1"
     objecttolerance="10"
     gridtolerance="10"
     guidetolerance="10"
     inkscape:pageopacity="0"
     inkscape:pageshadow="2"
     inkscape:window-width="1160"
     inkscape:window-height="480"
     id="namedview26"
     showgrid="false"
     inkscape:zoom="3.6875"
     inkscape:cx="2.8474576"
     inkscape:cy="32"
     inkscape:window-x="0"
     inkscape:window-y="25"
     inkscape:window-maximized="0"
     inkscape:current-layer="svg24" />
  <defs
     id="defs8">
    <clipPath
       id="a">
      <path
         d="M192-164H88s-40 0-40 40V4h416v-96s0-40-40-40H224z"
         style="marker:none"
         fill="#c9b8a7"
         stroke-width="26.067"
         enable-background="new"
         id="path2" />
    </clipPath>
    <filter
       id="b"
       x="-.108"
       width="1.217"
       y="-.134"
       height="1.269"
       color-interpolation-filters="sRGB">
      <feGaussianBlur
         stdDeviation="18.8"
         id="feGaussianBlur5" />
    </filter>
  </defs>
  <path
     style="fill:#7f0200;marker:none;enable-background:new"
     d="M 23.401,4.155 H 9.43 c 0,0 -5.375,0 -5.375,5.375 V 26.727 H 59.947 V 13.829 c 0,0 0,-5.374 -5.375,-5.374 h -26.87 z"
     id="path10"
     inkscape:connector-curvature="0" />
  <path
     transform="matrix(0.13435,0,0,0.13435,-2.395,26.088)"
     d="m 256,-80 -32,32 H 88 c 0,0 -40,0 -40,40 v 264 h 376 c 40,0 40,-40 40,-40 V -40 c 0,-40 -40,-40 -40,-40 z"
     style="opacity:0.1;marker:none;filter:url(#b);enable-background:new"
     clip-path="url(#a)"
     id="path12"
     inkscape:connector-curvature="0" />
  <path
     style="fill:#ff0400;marker:none;enable-background:new"
     d="m 32,14.802 -4.3,4.3 H 9.43 c 0,0 -5.375,0 -5.375,5.374 v 35.47 h 50.517 c 5.375,0 5.375,-5.375 5.375,-5.375 V 20.176 c 0,-5.374 -5.375,-5.374 -5.375,-5.374 z"
     id="path14"
     inkscape:connector-curvature="0" />
  <path
     d="m 32,14.803 -4.3,4.299 H 9.428 c 0,0 -5.373,0 -5.373,5.375 v 1.228 c 0,-0.672 0.083,-1.261 0.23,-1.775 a 4.72,4.72 0 0 1 0.61,-1.332 C 5.398,21.842 6.07,21.338 6.742,21.002 A 6.69,6.69 0 0 1 9.428,20.33 h 18.707 l 4.298,-4.299 h 22.14 c 0,0 1.341,0 2.685,0.672 0.671,0.336 1.344,0.84 1.847,1.596 0.252,0.378 0.463,0.818 0.61,1.332 0.147,0.514 0.23,1.102 0.23,1.773 v -1.228 c 0,-5.374 -5.373,-5.373 -5.373,-5.373 z"
     style="fill-opacity:0.23500001;marker:none;enable-background:new"
     id="path16"
     inkscape:connector-curvature="0" />
  <path
     d="m 9.428,4.055 c 0,0 -5.373,-10e-4 -5.373,5.373 v 1.127 c 0,-0.672 0.083,-1.26 0.23,-1.774 C 4.432,8.267 4.642,7.825 4.895,7.447 5.398,6.692 6.07,6.189 6.742,5.854 8.086,5.182 9.428,5.182 9.428,5.182 h 13.476 l 4.299,4.298 h 27.37 c 0.67,0 1.258,0.084 1.773,0.23 a 4.72,4.72 0 0 1 1.332,0.61 c 0.755,0.504 1.26,1.176 1.595,1.848 0.672,1.344 0.672,2.686 0.672,2.686 v -1.127 c 0,0 10e-4,-5.373 -5.373,-5.373 H 27.701 l -4.299,-4.3 z"
     style="fill:#ffffff;fill-opacity:0.23500001;marker:none;enable-background:new"
     id="path18"
     inkscape:connector-curvature="0" />
  <path
     d="m 59.945,53.342 c 0,0 0,1.344 -0.672,2.687 -0.336,0.672 -0.838,1.344 -1.593,1.848 -0.378,0.252 -0.82,0.462 -1.334,0.61 a 6.432,6.432 0 0 1 -1.774,0.23 H 4.055 v 1.228 h 50.517 c 5.374,0 5.373,-5.375 5.373,-5.375 z"
     style="fill-opacity:0.23500001;marker:none;enable-background:new"
     id="path20"
     inkscape:connector-curvature="0" />
  <path
     d="m 24.087,28.492 a 2.17,2.17 0 0 0 -2.159,2.157 v 18.702 a 2.17,2.17 0 0 0 2.16,2.157 H 39.91 a 2.17,2.17 0 0 0 2.16,-2.157 V 30.649 c 0,-0.592 -0.246,-1.13 -0.639,-1.522 a 2.197,2.197 0 0 0 -0.318,-0.264 h -0.002 a 2.13,2.13 0 0 0 -1.202,-0.37 h -1.542 z m 0,1.438 h 8.97 v 0.331 h -2.643 a 0.529,0.529 0 0 0 -0.528,0.528 v 2.116 a 0.529,0.529 0 0 0 0.528,0.528 h 2.644 v 1.058 h -2.644 a 0.529,0.529 0 0 0 -0.528,0.528 v 2.114 a 0.529,0.529 0 0 0 0.528,0.53 h 2.644 v 1.056 h -2.644 a 0.529,0.529 0 0 0 -0.528,0.53 v 2.114 a 0.529,0.529 0 0 0 0.528,0.528 h 0.687 l -2.207,3.972 a 0.529,0.529 0 0 0 -0.04,0.426 l 0.53,1.584 a 0.529,0.529 0 0 0 0.502,0.361 h 4.228 a 0.529,0.529 0 0 0 0.503,-0.361 l 0.528,-1.584 a 0.529,0.529 0 0 0 -0.043,-0.432 l -1.546,-2.683 -0.916,0.526 1.427,2.48 -0.333,0.998 h -3.468 l -0.335,-1.005 2.53,-4.553 A 0.529,0.529 0 0 0 32,40.835 h -1.058 v -1.058 h 2.644 a 0.529,0.529 0 0 0 0.528,-0.528 v -2.116 a 0.529,0.529 0 0 0 -0.528,-0.528 h -2.644 v -1.058 h 2.644 a 0.529,0.529 0 0 0 0.528,-0.528 v -2.114 a 0.529,0.529 0 0 0 -0.528,-0.53 h -2.644 v -1.056 h 2.644 a 0.529,0.529 0 0 0 0.528,-0.53 v -0.86 h 5.797 c 0.102,0 0.197,0.02 0.282,0.056 0.252,0.106 0.413,0.357 0.437,0.664 v 18.702 c 0,0.41 -0.308,0.72 -0.72,0.72 H 24.089 a 0.702,0.702 0 0 1 -0.72,-0.72 V 30.649 c 0,-0.41 0.308,-0.72 0.72,-0.72 z"
     id="path22"
     inkscape:connector-curvature="0"
     style="fill-opacity:0.5" />
</svg>
