<?xml version="1.0" encoding="UTF-8" standalone="no"?>
<svg
   xmlns:dc="http://purl.org/dc/elements/1.1/"
   xmlns:cc="http://creativecommons.org/ns#"
   xmlns:rdf="http://www.w3.org/1999/02/22-rdf-syntax-ns#"
   xmlns:svg="http://www.w3.org/2000/svg"
   xmlns="http://www.w3.org/2000/svg"
   xmlns:sodipodi="http://sodipodi.sourceforge.net/DTD/sodipodi-0.dtd"
   xmlns:inkscape="http://www.inkscape.org/namespaces/inkscape"
   width="64"
   height="64"
   version="1.1"
   id="svg24"
   sodipodi:docname="folder-games.svg"
   inkscape:version="0.92.4 (5da689c313, 2019-01-14)">
  <metadata
     id="metadata28">
    <rdf:RDF>
      <cc:Work
         rdf:about="">
        <dc:format>image/svg+xml</dc:format>
        <dc:type
           rdf:resource="http://purl.org/dc/dcmitype/StillImage" />
        <dc:title></dc:title>
      </cc:Work>
    </rdf:RDF>
  </metadata>
  <sodipodi:namedview
     pagecolor="#ffffff"
     bordercolor="#666666"
     borderopacity="1"
     objecttolerance="10"
     gridtolerance="10"
     guidetolerance="10"
     inkscape:pageopacity="0"
     inkscape:pageshadow="2"
     inkscape:window-width="1160"
     inkscape:window-height="480"
     id="namedview26"
     showgrid="false"
     inkscape:zoom="3.6875"
     inkscape:cx="2.8474576"
     inkscape:cy="32"
     inkscape:window-x="0"
     inkscape:window-y="25"
     inkscape:window-maximized="0"
     inkscape:current-layer="svg24" />
  <defs
     id="defs8">
    <clipPath
       id="a">
      <path
         d="M192-164H88s-40 0-40 40V4h416v-96s0-40-40-40H224z"
         style="marker:none"
         fill="#c9b8a7"
         stroke-width="26.067"
         enable-background="new"
         id="path2" />
    </clipPath>
    <filter
       id="b"
       x="-.108"
       width="1.217"
       y="-.134"
       height="1.269"
       color-interpolation-filters="sRGB">
      <feGaussianBlur
         stdDeviation="18.8"
         id="feGaussianBlur5" />
    </filter>
  </defs>
  <path
     style="fill:#7f0200;marker:none;enable-background:new"
     d="M 23.401,4.155 H 9.43 c 0,0 -5.375,0 -5.375,5.375 V 26.727 H 59.947 V 13.829 c 0,0 0,-5.374 -5.375,-5.374 h -26.87 z"
     id="path10"
     inkscape:connector-curvature="0" />
  <path
     transform="matrix(0.13435,0,0,0.13435,-2.395,26.088)"
     d="m 256,-80 -32,32 H 88 c 0,0 -40,0 -40,40 v 264 h 376 c 40,0 40,-40 40,-40 V -40 c 0,-40 -40,-40 -40,-40 z"
     style="opacity:0.1;marker:none;filter:url(#b);enable-background:new"
     clip-path="url(#a)"
     id="path12"
     inkscape:connector-curvature="0" />
  <path
     style="fill:#ff0400;marker:none;enable-background:new"
     d="m 32,14.802 -4.3,4.3 H 9.43 c 0,0 -5.375,0 -5.375,5.374 v 35.47 h 50.517 c 5.375,0 5.375,-5.375 5.375,-5.375 V 20.176 c 0,-5.374 -5.375,-5.374 -5.375,-5.374 z"
     id="path14"
     inkscape:connector-curvature="0" />
  <path
     d="m 32,14.803 -4.3,4.299 H 9.428 c 0,0 -5.373,0 -5.373,5.375 v 1.228 c 0,-0.672 0.083,-1.261 0.23,-1.775 a 4.72,4.72 0 0 1 0.61,-1.332 C 5.398,21.842 6.07,21.338 6.742,21.002 A 6.69,6.69 0 0 1 9.428,20.33 h 18.707 l 4.298,-4.299 h 22.14 c 0,0 1.341,0 2.685,0.672 0.671,0.336 1.344,0.84 1.847,1.596 0.252,0.378 0.463,0.818 0.61,1.332 0.147,0.514 0.23,1.102 0.23,1.773 v -1.228 c 0,-5.374 -5.373,-5.373 -5.373,-5.373 z"
     style="fill-opacity:0.23500001;marker:none;enable-background:new"
     id="path16"
     inkscape:connector-curvature="0" />
  <path
     d="m 9.428,4.055 c 0,0 -5.373,-10e-4 -5.373,5.373 v 1.127 c 0,-0.672 0.083,-1.26 0.23,-1.774 C 4.432,8.267 4.642,7.825 4.895,7.447 5.398,6.692 6.07,6.189 6.742,5.854 8.086,5.182 9.428,5.182 9.428,5.182 h 13.476 l 4.299,4.298 h 27.37 c 0.67,0 1.258,0.084 1.773,0.23 a 4.72,4.72 0 0 1 1.332,0.61 c 0.755,0.504 1.26,1.176 1.595,1.848 0.672,1.344 0.672,2.686 0.672,2.686 v -1.127 c 0,0 10e-4,-5.373 -5.373,-5.373 H 27.701 l -4.299,-4.3 z"
     style="fill:#ffffff;fill-opacity:0.23500001;marker:none;enable-background:new"
     id="path18"
     inkscape:connector-curvature="0" />
  <path
     d="m 59.945,53.342 c 0,0 0,1.344 -0.672,2.687 -0.336,0.672 -0.838,1.344 -1.593,1.848 -0.378,0.252 -0.82,0.462 -1.334,0.61 a 6.432,6.432 0 0 1 -1.774,0.23 H 4.055 v 1.228 h 50.517 c 5.374,0 5.373,-5.375 5.373,-5.375 z"
     style="fill-opacity:0.23500001;marker:none;enable-background:new"
     id="path20"
     inkscape:connector-curvature="0" />
  <path
     class="ColorScheme-Background"
     d="m 24.287,29.5 c -0.829,0 -1.589,0.44 -2.039,0.991 -0.45,0.55 -0.672,1.194 -0.738,1.86 l -1.5,14.999 c -0.108,1.075 0.535,1.957 1.21,2.434 a 3.94,3.94 0 0 0 2.311,0.715 c 0.903,0 1.686,-0.462 2.2,-0.97 0.514,-0.507 0.864,-1.077 1.19,-1.652 0.65,-1.15 1.204,-2.364 1.751,-3.055 0.422,-0.533 0.566,-0.62 0.95,-0.733 0.383,-0.111 1.134,-0.164 2.378,-0.164 1.244,0 1.995,0.053 2.379,0.164 0.383,0.112 0.527,0.2 0.949,0.733 0.547,0.691 1.101,1.906 1.752,3.055 0.325,0.575 0.678,1.145 1.192,1.652 0.514,0.508 1.294,0.97 2.197,0.97 a 3.94,3.94 0 0 0 2.311,-0.715 c 0.675,-0.477 1.318,-1.359 1.21,-2.434 l -1.5,-14.999 c -0.066,-0.666 -0.288,-1.31 -0.738,-1.86 -0.45,-0.55 -1.21,-0.99 -2.039,-0.99 h -2.305 c -1.252,0 -2.248,0.948 -2.558,1.397 -0.061,0.09 -0.036,0.057 -0.07,0.103 h -5.56 c -0.035,-0.046 -0.015,-0.014 -0.07,-0.103 -0.31,-0.449 -1.306,-1.397 -2.558,-1.397 h -2.305 z m 0,1.5 h 2.305 c 1.512,0 1.234,1.5 2.347,1.5 h 6.122 c 1.113,0 0.836,-1.5 2.347,-1.5 h 2.305 c 0.713,0 1.204,0.674 1.286,1.5 l 1.5,15 c 0.083,0.826 -0.96,1.5 -2.03,1.5 -1.733,0 -2.5,-3.256 -3.966,-5.11 -1.072,-1.353 -1.97,-1.464 -4.503,-1.464 -2.532,0 -3.431,0.11 -4.502,1.464 C 26.03,45.744 25.265,49 23.53,49 22.461,49 21.418,48.326 21.5,47.5 L 23,32.5 C 23.082,31.674 23.574,31 24.286,31 Z m 2.464,4.5 a 0.748,0.748 0 0 0 -0.75,0.75 V 37 h -0.75 a 0.748,0.748 0 0 0 -0.75,0.75 c 0,0.416 0.334,0.75 0.75,0.75 H 26 v 0.75 c 0,0.416 0.334,0.75 0.75,0.75 0.415,0 0.75,-0.334 0.75,-0.75 V 38.5 h 0.75 C 28.665,38.5 29,38.166 29,37.75 A 0.748,0.748 0 0 0 28.25,37 H 27.5 V 36.25 A 0.748,0.748 0 0 0 26.75,35.5 Z m 10.499,0 a 0.75,0.75 0 0 0 -0.19,0.024 0.75,0.75 0 0 0 -0.01,0.003 0.75,0.75 0 0 0 -0.003,0 0.75,0.75 0 0 0 -0.05,0.018 0.75,0.75 0 0 0 -0.032,0.011 0.75,0.75 0 0 0 -0.008,0.003 0.75,0.75 0 0 0 -0.047,0.024 0.75,0.75 0 0 0 -0.108,0.067 0.75,0.75 0 0 0 -0.027,0.02 0.75,0.75 0 0 0 -0.03,0.027 0.75,0.75 0 0 0 -0.026,0.023 0.75,0.75 0 0 0 -0.023,0.027 0.75,0.75 0 0 0 -0.026,0.029 0.75,0.75 0 0 0 -0.02,0.026 0.75,0.75 0 0 0 -0.018,0.024 0.75,0.75 0 0 0 -0.012,0.02 0.75,0.75 0 0 0 -0.065,0.12 0.75,0.75 0 0 0 -0.011,0.033 0.75,0.75 0 0 0 -0.018,0.05 0.75,0.75 0 0 0 0,0.002 0.75,0.75 0 0 0 -0.003,0.009 0.75,0.75 0 0 0 -0.008,0.04 0.75,0.75 0 0 0 -0.003,0.021 0.75,0.75 0 0 0 -0.012,0.13 0.75,0.75 0 0 0 0.003,0.052 0.75,0.75 0 0 0 0.02,0.138 0.75,0.75 0 0 0 0.003,0.011 0.75,0.75 0 0 0 0.018,0.05 0.75,0.75 0 0 0 0.011,0.032 0.75,0.75 0 0 0 0.003,0.01 0.75,0.75 0 0 0 0.024,0.046 0.75,0.75 0 0 0 0.067,0.108 0.75,0.75 0 0 0 0.02,0.027 0.75,0.75 0 0 0 0.027,0.029 0.75,0.75 0 0 0 0.023,0.026 0.75,0.75 0 0 0 0.027,0.024 0.75,0.75 0 0 0 0.029,0.026 0.75,0.75 0 0 0 0.026,0.02 0.75,0.75 0 0 0 0.024,0.018 0.75,0.75 0 0 0 0.02,0.012 0.75,0.75 0 0 0 0.12,0.065 0.75,0.75 0 0 0 0.033,0.011 0.75,0.75 0 0 0 0.052,0.018 0.75,0.75 0 0 0 0.01,0.003 0.75,0.75 0 0 0 0.04,0.008 0.75,0.75 0 0 0 0.02,0.003 0.75,0.75 0 0 0 0.13,0.012 0.75,0.75 0 0 0 0.125,-0.012 0.75,0.75 0 0 0 0.068,-0.015 0.75,0.75 0 0 0 0.006,0 0.75,0.75 0 0 1 0.003,0 0.75,0.75 0 0 0 0.05,-0.017 0.75,0.75 0 0 0 0.032,-0.012 0.75,0.75 0 0 0 0.055,-0.026 0.75,0.75 0 0 0 0.065,-0.038 0.75,0.75 0 0 0 0.044,-0.03 0.75,0.75 0 0 0 0.026,-0.02 0.75,0.75 0 0 0 0.03,-0.027 0.75,0.75 0 0 0 0.026,-0.023 0.75,0.75 0 0 0 0.023,-0.026 0.75,0.75 0 0 0 0.026,-0.03 0.75,0.75 0 0 0 0.021,-0.026 0.75,0.75 0 0 0 0.03,-0.044 0.75,0.75 0 0 0 0.037,-0.064 0.75,0.75 0 0 0 0.027,-0.056 0.75,0.75 0 0 0 0.011,-0.032 0.75,0.75 0 0 0 0.018,-0.05 0.75,0.75 0 0 1 0,-0.003 0.75,0.75 0 0 0 0.003,-0.009 0.75,0.75 0 0 0 0.012,-0.061 0.75,0.75 0 0 0 0.009,-0.076 0.75,0.75 0 0 0 0.003,-0.053 0.75,0.75 0 0 0 -0.003,-0.053 0.75,0.75 0 0 0 -0.009,-0.076 0.75,0.75 0 0 0 -0.003,-0.02 0.75,0.75 0 0 0 -0.012,-0.05 0.75,0.75 0 0 1 0,-0.003 0.75,0.75 0 0 0 -0.018,-0.05 0.75,0.75 0 0 0 -0.005,-0.02 0.75,0.75 0 0 0 -0.01,-0.02 0.75,0.75 0 0 0 -0.06,-0.112 0.75,0.75 0 0 0 -0.012,-0.02 0.75,0.75 0 0 0 -0.03,-0.042 0.75,0.75 0 0 0 -0.014,-0.017 0.75,0.75 0 0 0 -0.036,-0.038 0.75,0.75 0 0 0 -0.017,-0.018 0.75,0.75 0 0 0 -0.038,-0.035 0.75,0.75 0 0 0 -0.018,-0.015 0.75,0.75 0 0 0 -0.04,-0.03 0.75,0.75 0 0 0 -0.086,-0.049 0.75,0.75 0 0 0 -0.047,-0.023 0.75,0.75 0 0 0 -0.02,-0.009 0.75,0.75 0 0 0 -0.05,-0.018 0.75,0.75 0 0 0 -0.023,-0.005 0.75,0.75 0 0 0 -0.05,-0.012 0.75,0.75 0 0 0 -0.097,-0.012 0.75,0.75 0 0 0 -0.053,-0.003 z m -1.5,1.5 a 0.75,0.75 0 0 0 -0.19,0.024 0.75,0.75 0 0 0 -0.01,0.003 0.75,0.75 0 0 0 -0.002,0 0.75,0.75 0 0 0 -0.05,0.018 0.75,0.75 0 0 0 -0.032,0.011 0.75,0.75 0 0 0 -0.01,0.003 0.75,0.75 0 0 0 -0.046,0.023 0.75,0.75 0 0 0 -0.108,0.068 0.75,0.75 0 0 0 -0.027,0.02 0.75,0.75 0 0 0 -0.03,0.027 0.75,0.75 0 0 0 -0.025,0.023 0.75,0.75 0 0 0 -0.024,0.026 0.75,0.75 0 0 0 -0.026,0.03 0.75,0.75 0 0 0 -0.02,0.026 0.75,0.75 0 0 0 -0.018,0.024 0.75,0.75 0 0 0 -0.012,0.02 0.75,0.75 0 0 0 -0.065,0.12 0.75,0.75 0 0 0 -0.011,0.032 0.75,0.75 0 0 0 -0.018,0.05 0.75,0.75 0 0 0 0,0.003 0.75,0.75 0 0 0 -0.003,0.009 0.75,0.75 0 0 0 -0.008,0.04 0.75,0.75 0 0 0 -0.003,0.021 0.75,0.75 0 0 0 -0.012,0.13 0.75,0.75 0 0 0 0.003,0.052 0.75,0.75 0 0 0 0.02,0.138 0.75,0.75 0 0 0 0.003,0.011 0.75,0.75 0 0 0 0.018,0.05 0.75,0.75 0 0 0 0.011,0.032 0.75,0.75 0 0 0 0.004,0.009 0.75,0.75 0 0 0 0.023,0.047 0.75,0.75 0 0 0 0.067,0.108 0.75,0.75 0 0 0 0.021,0.027 0.75,0.75 0 0 0 0.026,0.029 0.75,0.75 0 0 0 0.024,0.026 0.75,0.75 0 0 0 0.026,0.024 0.75,0.75 0 0 0 0.03,0.026 0.75,0.75 0 0 0 0.026,0.02 0.75,0.75 0 0 0 0.023,0.018 0.75,0.75 0 0 0 0.02,0.012 0.75,0.75 0 0 0 0.12,0.064 0.75,0.75 0 0 0 0.033,0.012 0.75,0.75 0 0 0 0.053,0.018 0.75,0.75 0 0 0 0.009,0.003 0.75,0.75 0 0 0 0.04,0.008 0.75,0.75 0 0 0 0.021,0.003 0.75,0.75 0 0 0 0.129,0.012 0.75,0.75 0 0 0 0.126,-0.012 0.75,0.75 0 0 0 0.067,-0.015 0.75,0.75 0 0 0 0.006,0 0.75,0.75 0 0 1 0.003,0 0.75,0.75 0 0 0 0.07,-0.023 0.75,0.75 0 0 0 0.02,-0.009 0.75,0.75 0 0 0 0.048,-0.023 0.75,0.75 0 0 0 0.064,-0.038 0.75,0.75 0 0 0 0.044,-0.03 0.75,0.75 0 0 0 0.026,-0.02 0.75,0.75 0 0 0 0.047,-0.041 0.75,0.75 0 0 0 0.009,-0.009 0.75,0.75 0 0 0 0.023,-0.026 0.75,0.75 0 0 0 0.036,-0.038 0.75,0.75 0 0 0 0.011,-0.018 0.75,0.75 0 0 0 0.018,-0.023 0.75,0.75 0 0 0 0.05,-0.085 0.75,0.75 0 0 0 0.023,-0.047 0.75,0.75 0 0 0 0.009,-0.02 0.75,0.75 0 0 0 0.006,-0.021 0.75,0.75 0 0 0 0.017,-0.053 0.75,0.75 0 0 0 0.004,-0.008 0.75,0.75 0 0 0 0.02,-0.138 0.75,0.75 0 0 0 0.003,-0.053 0.75,0.75 0 0 0 -0.003,-0.053 0.75,0.75 0 0 0 -0.009,-0.076 0.75,0.75 0 0 0 -0.003,-0.02 0.75,0.75 0 0 0 -0.012,-0.05 0.75,0.75 0 0 1 0,-0.003 0.75,0.75 0 0 0 -0.006,-0.02 0.75,0.75 0 0 0 -0.017,-0.05 0.75,0.75 0 0 0 -0.006,-0.012 0.75,0.75 0 0 0 -0.064,-0.12 0.75,0.75 0 0 0 -0.012,-0.02 0.75,0.75 0 0 0 -0.038,-0.05 0.75,0.75 0 0 0 -0.027,-0.03 A 0.75,0.75 0 0 0 36.271,37.211 0.75,0.75 0 0 0 36.254,37.196 0.75,0.75 0 0 0 36.215,37.161 0.75,0.75 0 0 0 36.198,37.15 0.75,0.75 0 0 0 36.154,37.12 0.75,0.75 0 0 0 36.09,37.082 0.75,0.75 0 0 0 36.034,37.056 0.75,0.75 0 0 0 36.002,37.044 0.75,0.75 0 0 0 35.949,37.026 0.75,0.75 0 0 0 35.899,37.015 0.75,0.75 0 0 0 35.879,37.012 0.75,0.75 0 0 0 35.802,37.003 0.75,0.75 0 0 0 35.75,37 Z m 3,0 a 0.75,0.75 0 0 0 -0.19,0.024 0.75,0.75 0 0 0 -0.01,0.003 0.75,0.75 0 0 0 -0.002,0 0.75,0.75 0 0 0 -0.05,0.018 0.75,0.75 0 0 0 -0.032,0.011 0.75,0.75 0 0 0 -0.164,0.094 0.75,0.75 0 0 0 -0.027,0.02 0.75,0.75 0 0 0 -0.029,0.027 0.75,0.75 0 0 0 -0.026,0.023 0.75,0.75 0 0 0 -0.024,0.027 0.75,0.75 0 0 0 -0.026,0.029 0.75,0.75 0 0 0 -0.02,0.026 0.75,0.75 0 0 0 -0.018,0.024 0.75,0.75 0 0 0 -0.012,0.02 0.75,0.75 0 0 0 -0.065,0.12 0.75,0.75 0 0 0 -0.011,0.033 0.75,0.75 0 0 0 -0.018,0.05 0.75,0.75 0 0 0 0,0.002 0.75,0.75 0 0 0 -0.003,0.009 0.75,0.75 0 0 0 -0.009,0.041 0.75,0.75 0 0 0 -0.003,0.02 0.75,0.75 0 0 0 -0.012,0.13 0.75,0.75 0 0 0 0.024,0.19 0.75,0.75 0 0 0 0.003,0.012 0.75,0.75 0 0 0 0.017,0.05 0.75,0.75 0 0 0 0.012,0.032 0.75,0.75 0 0 0 0.094,0.164 0.75,0.75 0 0 0 0.02,0.026 0.75,0.75 0 0 0 0.026,0.03 0.75,0.75 0 0 0 0.024,0.026 0.75,0.75 0 0 0 0.026,0.023 0.75,0.75 0 0 0 0.03,0.026 0.75,0.75 0 0 0 0.026,0.021 0.75,0.75 0 0 0 0.023,0.018 0.75,0.75 0 0 0 0.02,0.011 0.75,0.75 0 0 0 0.121,0.065 0.75,0.75 0 0 0 0.032,0.012 0.75,0.75 0 0 0 0.053,0.017 0.75,0.75 0 0 0 0.009,0.003 0.75,0.75 0 0 0 0.04,0.009 0.75,0.75 0 0 0 0.021,0.002 0.75,0.75 0 0 0 0.13,0.012 0.75,0.75 0 0 0 0.125,-0.012 0.75,0.75 0 0 0 0.067,-0.014 0.75,0.75 0 0 0 0.006,0 0.75,0.75 0 0 1 0.003,0 0.75,0.75 0 0 0 0.05,-0.018 0.75,0.75 0 0 0 0.032,-0.012 0.75,0.75 0 0 0 0.056,-0.026 0.75,0.75 0 0 0 0.064,-0.038 0.75,0.75 0 0 0 0.044,-0.03 0.75,0.75 0 0 0 0.027,-0.02 0.75,0.75 0 0 0 0.029,-0.026 0.75,0.75 0 0 0 0.026,-0.024 0.75,0.75 0 0 0 0.024,-0.026 0.75,0.75 0 0 0 0.026,-0.03 0.75,0.75 0 0 0 0.02,-0.026 0.75,0.75 0 0 0 0.018,-0.023 0.75,0.75 0 0 0 0.05,-0.085 0.75,0.75 0 0 0 0.023,-0.047 0.75,0.75 0 0 0 0.01,-0.02 0.75,0.75 0 0 0 0.017,-0.05 0.75,0.75 0 0 0 0.006,-0.024 0.75,0.75 0 0 0 0.014,-0.07 0.75,0.75 0 0 0 0.009,-0.076 0.75,0.75 0 0 0 0.003,-0.053 0.75,0.75 0 0 0 -0.003,-0.053 0.75,0.75 0 0 0 -0.009,-0.076 0.75,0.75 0 0 0 -0.011,-0.062 0.75,0.75 0 0 0 -0.004,-0.008 0.75,0.75 0 0 1 0,-0.003 0.75,0.75 0 0 0 -0.006,-0.02 0.75,0.75 0 0 0 -0.017,-0.05 0.75,0.75 0 0 0 -0.009,-0.02 0.75,0.75 0 0 0 -0.061,-0.112 0.75,0.75 0 0 0 -0.012,-0.02 0.75,0.75 0 0 0 -0.038,-0.05 0.75,0.75 0 0 0 -0.027,-0.03 0.75,0.75 0 0 0 -0.023,-0.026 0.75,0.75 0 0 0 -0.026,-0.024 0.75,0.75 0 0 0 -0.03,-0.026 0.75,0.75 0 0 0 -0.026,-0.02 0.75,0.75 0 0 0 -0.044,-0.03 0.75,0.75 0 0 0 -0.111,-0.061 0.75,0.75 0 0 0 -0.01,-0.003 0.75,0.75 0 0 0 -0.031,-0.012 0.75,0.75 0 0 0 -0.053,-0.018 0.75,0.75 0 0 0 -0.009,-0.003 0.75,0.75 0 0 0 -0.061,-0.012 0.75,0.75 0 0 0 -0.076,-0.008 0.75,0.75 0 0 0 -0.053,-0.004 z m -7.5,1.5 a 0.748,0.748 0 0 0 -0.75,0.75 c 0,0.416 0.335,0.75 0.75,0.75 h 1.5 c 0.416,0 0.75,-0.334 0.75,-0.75 A 0.748,0.748 0 0 0 32.75,38.5 Z m 6,0 a 0.75,0.75 0 0 0 -0.053,0.003 0.75,0.75 0 0 0 -0.076,0.009 0.75,0.75 0 0 0 -0.062,0.011 0.75,0.75 0 0 0 -0.008,0.003 0.75,0.75 0 0 0 -0.053,0.018 0.75,0.75 0 0 0 -0.032,0.012 0.75,0.75 0 0 0 -0.009,0.003 0.75,0.75 0 0 0 -0.047,0.023 0.75,0.75 0 0 0 -0.064,0.038 0.75,0.75 0 0 0 -0.044,0.03 0.75,0.75 0 0 0 -0.027,0.02 0.75,0.75 0 0 0 -0.029,0.026 0.75,0.75 0 0 0 -0.026,0.024 0.75,0.75 0 0 0 -0.024,0.026 0.75,0.75 0 0 0 -0.026,0.03 0.75,0.75 0 0 0 -0.02,0.026 0.75,0.75 0 0 0 -0.018,0.023 0.75,0.75 0 0 0 -0.012,0.02 0.75,0.75 0 0 0 -0.038,0.065 0.75,0.75 0 0 0 -0.026,0.056 0.75,0.75 0 0 0 -0.012,0.032 0.75,0.75 0 0 0 -0.018,0.05 0.75,0.75 0 0 0 -0.002,0.012 0.75,0.75 0 0 0 -0.01,0.04 0.75,0.75 0 0 0 -0.002,0.021 0.75,0.75 0 0 0 -0.009,0.076 0.75,0.75 0 0 0 -0.002,0.053 0.75,0.75 0 0 0 0.002,0.053 0.75,0.75 0 0 0 0.009,0.076 0.75,0.75 0 0 0 0.012,0.062 0.75,0.75 0 0 0 0.003,0.011 0.75,0.75 0 0 0 0.017,0.05 0.75,0.75 0 0 0 0.012,0.032 0.75,0.75 0 0 0 0.003,0.01 0.75,0.75 0 0 0 0.023,0.046 0.75,0.75 0 0 0 0.038,0.064 0.75,0.75 0 0 0 0.03,0.044 0.75,0.75 0 0 0 0.02,0.027 0.75,0.75 0 0 0 0.026,0.029 0.75,0.75 0 0 0 0.024,0.026 0.75,0.75 0 0 0 0.026,0.024 0.75,0.75 0 0 0 0.03,0.026 0.75,0.75 0 0 0 0.026,0.02 0.75,0.75 0 0 0 0.023,0.018 0.75,0.75 0 0 0 0.02,0.012 0.75,0.75 0 0 0 0.065,0.038 0.75,0.75 0 0 0 0.056,0.027 0.75,0.75 0 0 0 0.012,0.005 0.75,0.75 0 0 0 0.073,0.024 0.75,0.75 0 0 0 0.009,0.003 0.75,0.75 0 0 0 0.04,0.008 0.75,0.75 0 0 0 0.021,0.003 0.75,0.75 0 0 0 0.076,0.009 0.75,0.75 0 0 0 0.053,0.003 0.75,0.75 0 0 0 0.053,-0.003 0.75,0.75 0 0 0 0.073,-0.009 0.75,0.75 0 0 0 0.023,-0.003 0.75,0.75 0 0 0 0.05,-0.011 0.75,0.75 0 0 0 0.024,-0.006 0.75,0.75 0 0 0 0.05,-0.018 0.75,0.75 0 0 0 0.02,-0.009 0.75,0.75 0 0 0 0.047,-0.023 0.75,0.75 0 0 0 0.064,-0.038 0.75,0.75 0 0 0 0.02,-0.012 0.75,0.75 0 0 0 0.042,-0.03 0.75,0.75 0 0 0 0.017,-0.014 0.75,0.75 0 0 0 0.039,-0.035 0.75,0.75 0 0 0 0.017,-0.018 0.75,0.75 0 0 0 0.035,-0.038 0.75,0.75 0 0 0 0.015,-0.017 0.75,0.75 0 0 0 0.03,-0.041 0.75,0.75 0 0 0 0.011,-0.02 0.75,0.75 0 0 0 0.038,-0.065 0.75,0.75 0 0 0 0.023,-0.047 0.75,0.75 0 0 0 0.01,-0.02 0.75,0.75 0 0 0 0.023,-0.07 0.75,0.75 0 0 0 0,-0.004 0.75,0.75 0 0 0 0.011,-0.05 0.75,0.75 0 0 0 0.004,-0.02 0.75,0.75 0 0 0 0.008,-0.076 A 0.75,0.75 0 0 0 38,39.25 0.75,0.75 0 0 0 37.997,39.197 0.75,0.75 0 0 0 37.989,39.121 0.75,0.75 0 0 0 37.977,39.06 0.75,0.75 0 0 0 37.974,39.048 0.75,0.75 0 0 0 37.956,38.998 0.75,0.75 0 0 0 37.944,38.966 0.75,0.75 0 0 0 37.918,38.91 0.75,0.75 0 0 0 37.88,38.846 0.75,0.75 0 0 0 37.85,38.802 0.75,0.75 0 0 0 37.83,38.775 0.75,0.75 0 0 0 37.804,38.746 0.75,0.75 0 0 0 37.771,38.711 0.75,0.75 0 0 0 37.754,38.696 0.75,0.75 0 0 0 37.724,38.67 0.75,0.75 0 0 0 37.698,38.65 0.75,0.75 0 0 0 37.654,38.62 0.75,0.75 0 0 0 37.59,38.582 0.75,0.75 0 0 0 37.534,38.556 0.75,0.75 0 0 0 37.502,38.544 0.75,0.75 0 0 0 37.449,38.526 0.75,0.75 0 0 0 37.44,38.523 0.75,0.75 0 0 0 37.379,38.512 0.75,0.75 0 0 0 37.303,38.503 0.75,0.75 0 0 0 37.25,38.5 Z"
     id="path22"
     inkscape:connector-curvature="0"
     style="color:#ffffff;fill-opacity:0.5" />
</svg>
