<?xml version="1.0" encoding="UTF-8" standalone="no"?>
<svg
   xmlns:dc="http://purl.org/dc/elements/1.1/"
   xmlns:cc="http://creativecommons.org/ns#"
   xmlns:rdf="http://www.w3.org/1999/02/22-rdf-syntax-ns#"
   xmlns:svg="http://www.w3.org/2000/svg"
   xmlns="http://www.w3.org/2000/svg"
   xmlns:sodipodi="http://sodipodi.sourceforge.net/DTD/sodipodi-0.dtd"
   xmlns:inkscape="http://www.inkscape.org/namespaces/inkscape"
   width="64"
   height="64"
   version="1.1"
   id="svg24"
   sodipodi:docname="folder-github.svg"
   inkscape:version="0.92.4 (5da689c313, 2019-01-14)">
  <metadata
     id="metadata28">
    <rdf:RDF>
      <cc:Work
         rdf:about="">
        <dc:format>image/svg+xml</dc:format>
        <dc:type
           rdf:resource="http://purl.org/dc/dcmitype/StillImage" />
        <dc:title></dc:title>
      </cc:Work>
    </rdf:RDF>
  </metadata>
  <sodipodi:namedview
     pagecolor="#ffffff"
     bordercolor="#666666"
     borderopacity="1"
     objecttolerance="10"
     gridtolerance="10"
     guidetolerance="10"
     inkscape:pageopacity="0"
     inkscape:pageshadow="2"
     inkscape:window-width="1160"
     inkscape:window-height="480"
     id="namedview26"
     showgrid="false"
     inkscape:zoom="3.6875"
     inkscape:cx="2.8474576"
     inkscape:cy="32"
     inkscape:window-x="0"
     inkscape:window-y="25"
     inkscape:window-maximized="0"
     inkscape:current-layer="svg24" />
  <defs
     id="defs8">
    <clipPath
       id="a">
      <path
         d="M192-164H88s-40 0-40 40V4h416v-96s0-40-40-40H224z"
         style="marker:none"
         fill="#c9b8a7"
         stroke-width="26.067"
         enable-background="new"
         id="path2" />
    </clipPath>
    <filter
       id="b"
       x="-.108"
       width="1.217"
       y="-.134"
       height="1.269"
       color-interpolation-filters="sRGB">
      <feGaussianBlur
         stdDeviation="18.8"
         id="feGaussianBlur5" />
    </filter>
  </defs>
  <path
     style="fill:#7f0200;marker:none;enable-background:new"
     d="M 23.401,4.155 H 9.43 c 0,0 -5.375,0 -5.375,5.375 V 26.727 H 59.947 V 13.829 c 0,0 0,-5.374 -5.375,-5.374 h -26.87 z"
     id="path10"
     inkscape:connector-curvature="0" />
  <path
     transform="matrix(0.13435,0,0,0.13435,-2.395,26.088)"
     d="m 256,-80 -32,32 H 88 c 0,0 -40,0 -40,40 v 264 h 376 c 40,0 40,-40 40,-40 V -40 c 0,-40 -40,-40 -40,-40 z"
     style="opacity:0.1;marker:none;filter:url(#b);enable-background:new"
     clip-path="url(#a)"
     id="path12"
     inkscape:connector-curvature="0" />
  <path
     style="fill:#ff0400;marker:none;enable-background:new"
     d="m 32,14.802 -4.3,4.3 H 9.43 c 0,0 -5.375,0 -5.375,5.374 v 35.47 h 50.517 c 5.375,0 5.375,-5.375 5.375,-5.375 V 20.176 c 0,-5.374 -5.375,-5.374 -5.375,-5.374 z"
     id="path14"
     inkscape:connector-curvature="0" />
  <path
     d="m 32,14.803 -4.3,4.299 H 9.428 c 0,0 -5.373,0 -5.373,5.375 v 1.228 c 0,-0.672 0.083,-1.261 0.23,-1.775 a 4.72,4.72 0 0 1 0.61,-1.332 C 5.398,21.842 6.07,21.338 6.742,21.002 A 6.69,6.69 0 0 1 9.428,20.33 h 18.707 l 4.298,-4.299 h 22.14 c 0,0 1.341,0 2.685,0.672 0.671,0.336 1.344,0.84 1.847,1.596 0.252,0.378 0.463,0.818 0.61,1.332 0.147,0.514 0.23,1.102 0.23,1.773 v -1.228 c 0,-5.374 -5.373,-5.373 -5.373,-5.373 z"
     style="fill-opacity:0.23500001;marker:none;enable-background:new"
     id="path16"
     inkscape:connector-curvature="0" />
  <path
     d="m 9.428,4.055 c 0,0 -5.373,-10e-4 -5.373,5.373 v 1.127 c 0,-0.672 0.083,-1.26 0.23,-1.774 C 4.432,8.267 4.642,7.825 4.895,7.447 5.398,6.692 6.07,6.189 6.742,5.854 8.086,5.182 9.428,5.182 9.428,5.182 h 13.476 l 4.299,4.298 h 27.37 c 0.67,0 1.258,0.084 1.773,0.23 a 4.72,4.72 0 0 1 1.332,0.61 c 0.755,0.504 1.26,1.176 1.595,1.848 0.672,1.344 0.672,2.686 0.672,2.686 v -1.127 c 0,0 10e-4,-5.373 -5.373,-5.373 H 27.701 l -4.299,-4.3 z"
     style="fill:#ffffff;fill-opacity:0.23500001;marker:none;enable-background:new"
     id="path18"
     inkscape:connector-curvature="0" />
  <path
     d="m 59.945,53.342 c 0,0 0,1.344 -0.672,2.687 -0.336,0.672 -0.838,1.344 -1.593,1.848 -0.378,0.252 -0.82,0.462 -1.334,0.61 a 6.432,6.432 0 0 1 -1.774,0.23 H 4.055 v 1.228 h 50.517 c 5.374,0 5.373,-5.375 5.373,-5.375 z"
     style="fill-opacity:0.23500001;marker:none;enable-background:new"
     id="path20"
     inkscape:connector-curvature="0" />
  <path
     d="m 32,28.848 c -6.312,0 -11.43,5.117 -11.43,11.429 0,5.052 3.28,9.338 7.818,10.858 0.572,0.092 0.755,-0.263 0.755,-0.571 V 48.632 C 25.976,49.317 25.302,47.1 25.302,47.1 c -0.526,-1.326 -1.269,-1.68 -1.269,-1.68 -1.04,-0.708 0.08,-0.685 0.08,-0.685 1.143,0.08 1.749,1.177 1.749,1.177 0.994,1.737 2.674,1.223 3.326,0.948 0.102,-0.743 0.4,-1.245 0.72,-1.531 -2.538,-0.286 -5.2,-1.269 -5.2,-5.624 0,-1.268 0.434,-2.285 1.177,-3.097 -0.115,-0.286 -0.514,-1.475 0.114,-3.017 0,0 0.96,-0.309 3.144,1.165 0.902,-0.25 1.885,-0.377 2.857,-0.377 0.97,0 1.954,0.126 2.857,0.377 C 37.04,33.282 38,33.591 38,33.591 c 0.628,1.542 0.229,2.731 0.114,3.017 0.744,0.812 1.177,1.829 1.177,3.097 0,4.367 -2.674,5.326 -5.223,5.612 0.412,0.355 0.789,1.052 0.789,2.115 v 3.132 c 0,0.308 0.182,0.674 0.766,0.571 C 40.16,49.603 43.43,45.329 43.43,40.277 43.429,33.965 38.312,28.847 32,28.847 Z m 0,0"
     id="path22"
     inkscape:connector-curvature="0"
     style="fill-opacity:0.50199998" />
</svg>
