<?xml version="1.0" encoding="UTF-8" standalone="no"?>
<svg
   xmlns:dc="http://purl.org/dc/elements/1.1/"
   xmlns:cc="http://creativecommons.org/ns#"
   xmlns:rdf="http://www.w3.org/1999/02/22-rdf-syntax-ns#"
   xmlns:svg="http://www.w3.org/2000/svg"
   xmlns="http://www.w3.org/2000/svg"
   xmlns:sodipodi="http://sodipodi.sourceforge.net/DTD/sodipodi-0.dtd"
   xmlns:inkscape="http://www.inkscape.org/namespaces/inkscape"
   width="64"
   height="64"
   version="1.1"
   id="svg24"
   sodipodi:docname="folder-favorites.svg"
   inkscape:version="0.92.4 (5da689c313, 2019-01-14)">
  <metadata
     id="metadata28">
    <rdf:RDF>
      <cc:Work
         rdf:about="">
        <dc:format>image/svg+xml</dc:format>
        <dc:type
           rdf:resource="http://purl.org/dc/dcmitype/StillImage" />
        <dc:title></dc:title>
      </cc:Work>
    </rdf:RDF>
  </metadata>
  <sodipodi:namedview
     pagecolor="#ffffff"
     bordercolor="#666666"
     borderopacity="1"
     objecttolerance="10"
     gridtolerance="10"
     guidetolerance="10"
     inkscape:pageopacity="0"
     inkscape:pageshadow="2"
     inkscape:window-width="1160"
     inkscape:window-height="480"
     id="namedview26"
     showgrid="false"
     inkscape:zoom="3.6875"
     inkscape:cx="2.8474576"
     inkscape:cy="32"
     inkscape:window-x="0"
     inkscape:window-y="25"
     inkscape:window-maximized="0"
     inkscape:current-layer="svg24" />
  <defs
     id="defs8">
    <clipPath
       id="a">
      <path
         d="M192-164H88s-40 0-40 40V4h416v-96s0-40-40-40H224z"
         style="marker:none"
         fill="#c9b8a7"
         stroke-width="26.067"
         enable-background="new"
         id="path2" />
    </clipPath>
    <filter
       id="b"
       x="-.108"
       width="1.217"
       y="-.134"
       height="1.269"
       color-interpolation-filters="sRGB">
      <feGaussianBlur
         stdDeviation="18.8"
         id="feGaussianBlur5" />
    </filter>
  </defs>
  <path
     style="fill:#7f0200;marker:none;enable-background:new"
     d="M 23.401,4.155 H 9.43 c 0,0 -5.375,0 -5.375,5.375 V 26.727 H 59.947 V 13.829 c 0,0 0,-5.374 -5.375,-5.374 h -26.87 z"
     id="path10"
     inkscape:connector-curvature="0" />
  <path
     transform="matrix(0.13435,0,0,0.13435,-2.395,26.088)"
     d="m 256,-80 -32,32 H 88 c 0,0 -40,0 -40,40 v 264 h 376 c 40,0 40,-40 40,-40 V -40 c 0,-40 -40,-40 -40,-40 z"
     style="opacity:0.1;marker:none;filter:url(#b);enable-background:new"
     clip-path="url(#a)"
     id="path12"
     inkscape:connector-curvature="0" />
  <path
     style="fill:#ff0400;marker:none;enable-background:new"
     d="m 32,14.802 -4.3,4.3 H 9.43 c 0,0 -5.375,0 -5.375,5.374 v 35.47 h 50.517 c 5.375,0 5.375,-5.375 5.375,-5.375 V 20.176 c 0,-5.374 -5.375,-5.374 -5.375,-5.374 z"
     id="path14"
     inkscape:connector-curvature="0" />
  <path
     d="m 32,14.803 -4.3,4.299 H 9.428 c 0,0 -5.373,0 -5.373,5.375 v 1.228 c 0,-0.672 0.083,-1.261 0.23,-1.775 a 4.72,4.72 0 0 1 0.61,-1.332 C 5.398,21.842 6.07,21.338 6.742,21.002 A 6.69,6.69 0 0 1 9.428,20.33 h 18.707 l 4.298,-4.299 h 22.14 c 0,0 1.341,0 2.685,0.672 0.671,0.336 1.344,0.84 1.847,1.596 0.252,0.378 0.463,0.818 0.61,1.332 0.147,0.514 0.23,1.102 0.23,1.773 v -1.228 c 0,-5.374 -5.373,-5.373 -5.373,-5.373 z"
     style="fill-opacity:0.23500001;marker:none;enable-background:new"
     id="path16"
     inkscape:connector-curvature="0" />
  <path
     d="m 9.428,4.055 c 0,0 -5.373,-10e-4 -5.373,5.373 v 1.127 c 0,-0.672 0.083,-1.26 0.23,-1.774 C 4.432,8.267 4.642,7.825 4.895,7.447 5.398,6.692 6.07,6.189 6.742,5.854 8.086,5.182 9.428,5.182 9.428,5.182 h 13.476 l 4.299,4.298 h 27.37 c 0.67,0 1.258,0.084 1.773,0.23 a 4.72,4.72 0 0 1 1.332,0.61 c 0.755,0.504 1.26,1.176 1.595,1.848 0.672,1.344 0.672,2.686 0.672,2.686 v -1.127 c 0,0 10e-4,-5.373 -5.373,-5.373 H 27.701 l -4.299,-4.3 z"
     style="fill:#ffffff;fill-opacity:0.23500001;marker:none;enable-background:new"
     id="path18"
     inkscape:connector-curvature="0" />
  <path
     d="m 59.945,53.342 c 0,0 0,1.344 -0.672,2.687 -0.336,0.672 -0.838,1.344 -1.593,1.848 -0.378,0.252 -0.82,0.462 -1.334,0.61 a 6.432,6.432 0 0 1 -1.774,0.23 H 4.055 v 1.228 h 50.517 c 5.374,0 5.373,-5.375 5.373,-5.375 z"
     style="fill-opacity:0.23500001;marker:none;enable-background:new"
     id="path20"
     inkscape:connector-curvature="0" />
  <path
     d="m 31.994,28.88 c -0.328,0.001 -0.438,0.149 -0.508,0.218 a 0.934,0.934 0 0 0 -0.136,0.168 c -0.066,0.099 -0.115,0.196 -0.17,0.31 -0.11,0.228 -0.232,0.52 -0.371,0.87 -0.278,0.699 -0.616,1.616 -0.95,2.538 -0.334,0.923 -0.664,1.85 -0.925,2.551 -0.131,0.35 -0.245,0.646 -0.329,0.848 -0.004,0.011 -0.009,0.013 -0.013,0.023 l -0.024,0.002 c -0.217,0.018 -0.534,0.036 -0.908,0.053 -0.747,0.033 -1.73,0.064 -2.71,0.098 -0.981,0.034 -1.957,0.071 -2.708,0.12 a 13.92,13.92 0 0 0 -0.943,0.087 2.56,2.56 0 0 0 -0.346,0.066 c -0.057,0.016 -0.116,0.031 -0.203,0.076 -0.087,0.045 -0.26,0.106 -0.361,0.418 -0.101,0.312 0.003,0.465 0.047,0.553 0.043,0.087 0.084,0.135 0.12,0.182 0.075,0.092 0.148,0.166 0.239,0.253 0.183,0.175 0.423,0.385 0.713,0.625 a 96.49,96.49 0 0 0 2.123,1.686 c 0.774,0.603 1.553,1.205 2.139,1.67 0.292,0.233 0.539,0.434 0.705,0.576 0.009,0.007 0.009,0.008 0.017,0.016 l -0.006,0.025 c -0.05,0.213 -0.13,0.519 -0.23,0.879 -0.2,0.721 -0.474,1.668 -0.744,2.611 -0.27,0.943 -0.536,1.884 -0.721,2.614 -0.093,0.364 -0.166,0.672 -0.21,0.922 -0.023,0.124 -0.04,0.23 -0.046,0.35 a 0.935,0.935 0 0 0 0.012,0.216 c 0.016,0.096 0.024,0.28 0.289,0.473 0.265,0.192 0.438,0.14 0.535,0.125 0.097,-0.015 0.153,-0.038 0.21,-0.059 0.11,-0.042 0.208,-0.089 0.32,-0.148 0.222,-0.12 0.492,-0.286 0.81,-0.487 a 96.169,96.169 0 0 0 2.26,-1.498 c 0.812,-0.55 1.626,-1.102 2.25,-1.515 0.296,-0.197 0.542,-0.358 0.726,-0.471 l 0.004,0.002 c 0.187,0.113 0.452,0.287 0.764,0.494 0.623,0.413 1.437,0.966 2.25,1.516 0.812,0.55 1.624,1.095 2.26,1.498 0.318,0.2 0.587,0.366 0.81,0.486 0.112,0.06 0.21,0.106 0.32,0.148 0.056,0.021 0.113,0.044 0.21,0.059 0.096,0.015 0.27,0.067 0.535,-0.125 0.265,-0.192 0.273,-0.376 0.289,-0.473 a 0.934,0.934 0 0 0 0.011,-0.217 2.577,2.577 0 0 0 -0.045,-0.35 14.012,14.012 0 0 0 -0.21,-0.921 c -0.186,-0.73 -0.45,-1.67 -0.721,-2.613 -0.27,-0.943 -0.545,-1.89 -0.744,-2.612 -0.1,-0.36 -0.18,-0.666 -0.23,-0.879 -0.004,-0.01 -0.004,-0.014 -0.007,-0.025 l 0.018,-0.016 c 0.166,-0.142 0.412,-0.343 0.705,-0.576 0.586,-0.465 1.365,-1.067 2.139,-1.67 a 96.492,96.492 0 0 0 2.123,-1.685 c 0.29,-0.24 0.53,-0.45 0.713,-0.625 0.09,-0.088 0.164,-0.161 0.238,-0.254 0.037,-0.047 0.077,-0.094 0.121,-0.182 0.044,-0.087 0.148,-0.24 0.047,-0.552 -0.101,-0.312 -0.275,-0.373 -0.361,-0.418 -0.087,-0.045 -0.146,-0.06 -0.204,-0.077 A 2.56,2.56 0 0 0 42.637,36.791 C 42.387,36.756 42.069,36.73 41.693,36.705 A 95.738,95.738 0 0 0 38.986,36.584 C 38.006,36.55 37.023,36.52 36.276,36.486 35.902,36.47 35.585,36.452 35.367,36.434 L 35.344,36.432 C 35.339,36.421 35.334,36.42 35.33,36.408 A 26.703,26.703 0 0 1 35.002,35.561 C 34.74,34.86 34.41,33.932 34.076,33.01 a 95.661,95.661 0 0 0 -0.949,-2.54 13.87,13.87 0 0 0 -0.371,-0.868 2.594,2.594 0 0 0 -0.17,-0.311 0.934,0.934 0 0 0 -0.137,-0.168 c -0.065,-0.064 -0.172,-0.194 -0.453,-0.21 v -0.032 h -0.002 z m -0.031,2.32 c 0.252,0.644 0.548,1.433 0.85,2.267 0.332,0.919 0.662,1.848 0.93,2.564 0.133,0.358 0.248,0.662 0.345,0.895 0.048,0.116 0.093,0.215 0.137,0.303 0.022,0.043 0.043,0.085 0.074,0.134 0.03,0.05 0.038,0.102 0.205,0.223 0.166,0.121 0.219,0.113 0.275,0.127 0.057,0.014 0.102,0.018 0.15,0.025 0.098,0.015 0.203,0.027 0.329,0.037 0.25,0.021 0.575,0.042 0.957,0.059 0.763,0.034 1.748,0.06 2.724,0.094 0.911,0.031 1.786,0.07 2.487,0.113 -0.543,0.446 -1.23,0.987 -1.95,1.547 -0.77,0.6 -1.55,1.202 -2.148,1.678 -0.299,0.237 -0.551,0.443 -0.742,0.607 a 4.818,4.818 0 0 0 -0.244,0.225 c -0.035,0.034 -0.068,0.064 -0.106,0.109 -0.037,0.045 -0.086,0.068 -0.15,0.264 -0.064,0.195 -0.037,0.244 -0.033,0.302 0.004,0.059 0.01,0.1 0.017,0.149 0.016,0.097 0.04,0.202 0.069,0.324 0.058,0.245 0.142,0.564 0.244,0.932 0.203,0.736 0.478,1.68 0.748,2.619 0.25,0.875 0.484,1.717 0.66,2.396 a 99.492,99.492 0 0 1 -2.072,-1.37 c -0.81,-0.549 -1.621,-1.104 -2.258,-1.526 a 26.215,26.215 0 0 0 -0.809,-0.518 c -0.107,-0.065 -0.198,-0.12 -0.285,-0.166 -0.043,-0.022 -0.084,-0.044 -0.138,-0.066 -0.046,-0.018 -0.102,-0.044 -0.233,-0.053 v -0.031 c -0.192,0.002 -0.236,0.037 -0.289,0.058 -0.054,0.022 -0.095,0.044 -0.139,0.067 -0.087,0.045 -0.177,0.1 -0.285,0.166 -0.215,0.13 -0.49,0.306 -0.808,0.517 -0.637,0.422 -1.449,0.978 -2.258,1.526 -0.754,0.51 -1.48,0.993 -2.072,1.371 0.175,-0.68 0.409,-1.522 0.66,-2.397 0.27,-0.94 0.544,-1.882 0.748,-2.619 0.101,-0.368 0.186,-0.686 0.244,-0.931 0.029,-0.123 0.052,-0.228 0.068,-0.325 0.008,-0.048 0.014,-0.09 0.018,-0.148 0.004,-0.058 0.03,-0.107 -0.033,-0.303 -0.064,-0.195 -0.113,-0.219 -0.15,-0.263 -0.038,-0.045 -0.071,-0.075 -0.106,-0.11 A 4.818,4.818 0 0 0 27.35,41.848 C 27.159,41.684 26.906,41.478 26.607,41.24 26.009,40.765 25.23,40.163 24.459,39.562 a 101.3,101.3 0 0 1 -1.95,-1.546 99.399,99.399 0 0 1 2.487,-0.114 c 0.977,-0.034 1.962,-0.06 2.725,-0.093 0.381,-0.017 0.706,-0.038 0.957,-0.059 0.125,-0.01 0.23,-0.022 0.328,-0.037 0.048,-0.007 0.094,-0.011 0.15,-0.026 0.057,-0.014 0.11,-0.005 0.276,-0.126 0.166,-0.122 0.174,-0.174 0.205,-0.223 0.03,-0.05 0.052,-0.09 0.074,-0.135 0.044,-0.088 0.088,-0.186 0.137,-0.303 0.097,-0.232 0.212,-0.536 0.345,-0.894 0.268,-0.716 0.597,-1.645 0.93,-2.565 0.299,-0.824 0.59,-1.6 0.84,-2.242 z"
     id="path22"
     inkscape:connector-curvature="0"
     style="color:#ffffff;fill-opacity:0.5" />
</svg>
