<?xml version="1.0" encoding="UTF-8" standalone="no"?>
<svg
   xmlns:dc="http://purl.org/dc/elements/1.1/"
   xmlns:cc="http://creativecommons.org/ns#"
   xmlns:rdf="http://www.w3.org/1999/02/22-rdf-syntax-ns#"
   xmlns:svg="http://www.w3.org/2000/svg"
   xmlns="http://www.w3.org/2000/svg"
   xmlns:sodipodi="http://sodipodi.sourceforge.net/DTD/sodipodi-0.dtd"
   xmlns:inkscape="http://www.inkscape.org/namespaces/inkscape"
   width="64"
   height="64"
   version="1.1"
   id="svg14"
   sodipodi:docname="folder-activities.svg"
   inkscape:version="0.92.4 (5da689c313, 2019-01-14)">
  <metadata
     id="metadata20">
    <rdf:RDF>
      <cc:Work
         rdf:about="">
        <dc:format>image/svg+xml</dc:format>
        <dc:type
           rdf:resource="http://purl.org/dc/dcmitype/StillImage" />
        <dc:title></dc:title>
      </cc:Work>
    </rdf:RDF>
  </metadata>
  <defs
     id="defs18" />
  <sodipodi:namedview
     pagecolor="#ffffff"
     bordercolor="#666666"
     borderopacity="1"
     objecttolerance="10"
     gridtolerance="10"
     guidetolerance="10"
     inkscape:pageopacity="0"
     inkscape:pageshadow="2"
     inkscape:window-width="1160"
     inkscape:window-height="480"
     id="namedview16"
     showgrid="false"
     inkscape:zoom="3.6875"
     inkscape:cx="2.8474576"
     inkscape:cy="32"
     inkscape:window-x="0"
     inkscape:window-y="25"
     inkscape:window-maximized="0"
     inkscape:current-layer="svg14" />
  <path
     style="fill:#7f0200;marker:none"
     d="M 23.401,4.155 H 9.43 c 0,0 -5.375,0 -5.375,5.375 V 26.727 H 59.947 V 13.829 c 0,0 0,-5.374 -5.375,-5.374 h -26.87 z"
     id="path2"
     inkscape:connector-curvature="0" />
  <path
     style="fill:#ff0400;marker:none"
     d="m 32,14.802 -4.3,4.3 H 9.43 c 0,0 -5.375,0 -5.375,5.374 v 35.47 h 50.517 c 5.375,0 5.375,-5.375 5.375,-5.375 V 20.176 c 0,-5.374 -5.375,-5.374 -5.375,-5.374 z"
     id="path4"
     inkscape:connector-curvature="0" />
  <path
     d="m 32,14.803 -4.3,4.299 H 9.428 c 0,0 -5.373,0 -5.373,5.375 v 1.228 c 0,-0.672 0.083,-1.261 0.23,-1.775 a 4.72,4.72 0 0 1 0.61,-1.332 C 5.398,21.842 6.07,21.338 6.742,21.002 A 6.69,6.69 0 0 1 9.428,20.33 h 18.707 l 4.298,-4.299 h 22.14 c 0,0 1.341,0 2.685,0.672 0.671,0.336 1.344,0.84 1.847,1.596 0.252,0.378 0.463,0.818 0.61,1.332 0.147,0.514 0.23,1.102 0.23,1.773 v -1.228 c 0,-5.374 -5.373,-5.373 -5.373,-5.373 z"
     style="fill-opacity:0.23500001;marker:none"
     id="path6"
     inkscape:connector-curvature="0" />
  <path
     d="m 9.428,4.055 c 0,0 -5.373,-10e-4 -5.373,5.373 v 1.127 c 0,-0.672 0.083,-1.26 0.23,-1.774 C 4.432,8.267 4.642,7.825 4.895,7.447 5.398,6.692 6.07,6.189 6.742,5.854 8.086,5.182 9.428,5.182 9.428,5.182 h 13.476 l 4.299,4.298 h 27.37 c 0.67,0 1.258,0.084 1.773,0.23 a 4.72,4.72 0 0 1 1.332,0.61 c 0.755,0.504 1.26,1.176 1.595,1.848 0.672,1.344 0.672,2.686 0.672,2.686 v -1.127 c 0,0 10e-4,-5.373 -5.373,-5.373 H 27.701 l -4.299,-4.3 z"
     style="fill:#ffffff;fill-opacity:0.23500001;marker:none"
     id="path8"
     inkscape:connector-curvature="0" />
  <path
     d="m 59.945,53.342 c 0,0 0,1.344 -0.672,2.687 -0.336,0.672 -0.838,1.344 -1.593,1.848 -0.378,0.252 -0.82,0.462 -1.334,0.61 a 6.432,6.432 0 0 1 -1.774,0.23 H 4.055 v 1.228 h 50.517 c 5.374,0 5.373,-5.375 5.373,-5.375 z"
     style="fill-opacity:0.23500001;marker:none"
     id="path10"
     inkscape:connector-curvature="0" />
  <path
     style="color:#000000;font-weight:400;line-height:normal;font-family:Sans;-inkscape-font-specification:Sans;text-indent:0;text-align:start;text-decoration:none;text-decoration-line:none;text-transform:none;overflow:visible;fill-opacity:0.50199998;marker:none"
     d="m 24.512,35.554 a 4.603,4.603 0 0 0 -3.229,1.357 c -1.763,1.763 -1.763,4.695 0,6.458 1.763,1.764 4.695,1.764 6.458,0 0.345,-0.345 0.305,-0.847 0.515,-1.263 0.21,0.416 0.17,0.918 0.515,1.263 1.763,1.764 4.695,1.764 6.458,0 0.345,-0.345 0.305,-0.847 0.515,-1.263 0.21,0.416 0.17,0.918 0.515,1.263 1.763,1.764 4.695,1.764 6.458,0 1.763,-1.763 1.763,-4.695 0,-6.458 a 4.602,4.602 0 0 0 -3.23,-1.357 4.603,4.603 0 0 0 -3.228,1.357 c -0.345,0.345 -0.305,0.848 -0.515,1.264 -0.21,-0.416 -0.17,-0.919 -0.515,-1.264 A 4.602,4.602 0 0 0 32,35.554 4.603,4.603 0 0 0 28.77,36.911 c -0.344,0.345 -0.304,0.848 -0.514,1.264 -0.21,-0.416 -0.17,-0.919 -0.515,-1.264 a 4.602,4.602 0 0 0 -3.229,-1.357 z m 0,1.591 c 0.767,0 1.521,0.305 2.106,0.89 a 2.966,2.966 0 0 1 0,4.211 2.966,2.966 0 0 1 -4.212,0 2.967,2.967 0 0 1 0,-4.212 2.972,2.972 0 0 1 2.106,-0.889 z m 7.488,0 c 0.767,0 1.521,0.305 2.106,0.89 a 2.966,2.966 0 0 1 0,4.211 2.966,2.966 0 0 1 -4.212,0 2.967,2.967 0 0 1 0,-4.212 A 2.972,2.972 0 0 1 32,37.145 Z m 7.488,0 c 0.766,0 1.52,0.305 2.106,0.89 a 2.966,2.966 0 0 1 0,4.211 2.966,2.966 0 0 1 -4.212,0 2.967,2.967 0 0 1 0,-4.212 2.972,2.972 0 0 1 2.106,-0.889 z"
     font-weight="400"
     overflow="visible"
     id="path12"
     inkscape:connector-curvature="0" />
</svg>
