<?xml version="1.0" encoding="UTF-8" standalone="no"?>
<svg
   xmlns:dc="http://purl.org/dc/elements/1.1/"
   xmlns:cc="http://creativecommons.org/ns#"
   xmlns:rdf="http://www.w3.org/1999/02/22-rdf-syntax-ns#"
   xmlns:svg="http://www.w3.org/2000/svg"
   xmlns="http://www.w3.org/2000/svg"
   xmlns:sodipodi="http://sodipodi.sourceforge.net/DTD/sodipodi-0.dtd"
   xmlns:inkscape="http://www.inkscape.org/namespaces/inkscape"
   width="64"
   height="64"
   version="1.1"
   id="svg24"
   sodipodi:docname="folder-music.svg"
   inkscape:version="0.92.4 (5da689c313, 2019-01-14)">
  <metadata
     id="metadata28">
    <rdf:RDF>
      <cc:Work
         rdf:about="">
        <dc:format>image/svg+xml</dc:format>
        <dc:type
           rdf:resource="http://purl.org/dc/dcmitype/StillImage" />
        <dc:title></dc:title>
      </cc:Work>
    </rdf:RDF>
  </metadata>
  <sodipodi:namedview
     pagecolor="#ffffff"
     bordercolor="#666666"
     borderopacity="1"
     objecttolerance="10"
     gridtolerance="10"
     guidetolerance="10"
     inkscape:pageopacity="0"
     inkscape:pageshadow="2"
     inkscape:window-width="1160"
     inkscape:window-height="480"
     id="namedview26"
     showgrid="false"
     inkscape:zoom="3.6875"
     inkscape:cx="2.8474576"
     inkscape:cy="32"
     inkscape:window-x="0"
     inkscape:window-y="25"
     inkscape:window-maximized="0"
     inkscape:current-layer="svg24" />
  <defs
     id="defs8">
    <clipPath
       id="a">
      <path
         d="M192-164H88s-40 0-40 40V4h416v-96s0-40-40-40H224z"
         style="marker:none"
         fill="#c9b8a7"
         stroke-width="26.067"
         enable-background="new"
         id="path2" />
    </clipPath>
    <filter
       id="b"
       x="-.108"
       width="1.217"
       y="-.134"
       height="1.269"
       color-interpolation-filters="sRGB">
      <feGaussianBlur
         stdDeviation="18.8"
         id="feGaussianBlur5" />
    </filter>
  </defs>
  <path
     style="fill:#7f0200;marker:none;enable-background:new"
     d="M 23.401,4.155 H 9.43 c 0,0 -5.375,0 -5.375,5.375 V 26.727 H 59.947 V 13.829 c 0,0 0,-5.374 -5.375,-5.374 h -26.87 z"
     id="path10"
     inkscape:connector-curvature="0" />
  <path
     transform="matrix(0.13435,0,0,0.13435,-2.395,26.088)"
     d="m 256,-80 -32,32 H 88 c 0,0 -40,0 -40,40 v 264 h 376 c 40,0 40,-40 40,-40 V -40 c 0,-40 -40,-40 -40,-40 z"
     style="opacity:0.1;marker:none;filter:url(#b);enable-background:new"
     clip-path="url(#a)"
     id="path12"
     inkscape:connector-curvature="0" />
  <path
     style="fill:#ff0400;marker:none;enable-background:new"
     d="m 32,14.802 -4.3,4.3 H 9.43 c 0,0 -5.375,0 -5.375,5.374 v 35.47 h 50.517 c 5.375,0 5.375,-5.375 5.375,-5.375 V 20.176 c 0,-5.374 -5.375,-5.374 -5.375,-5.374 z"
     id="path14"
     inkscape:connector-curvature="0" />
  <path
     d="m 32,14.803 -4.3,4.299 H 9.428 c 0,0 -5.373,0 -5.373,5.375 v 1.228 c 0,-0.672 0.083,-1.261 0.23,-1.775 a 4.72,4.72 0 0 1 0.61,-1.332 C 5.398,21.842 6.07,21.338 6.742,21.002 A 6.69,6.69 0 0 1 9.428,20.33 h 18.707 l 4.298,-4.299 h 22.14 c 0,0 1.341,0 2.685,0.672 0.671,0.336 1.344,0.84 1.847,1.596 0.252,0.378 0.463,0.818 0.61,1.332 0.147,0.514 0.23,1.102 0.23,1.773 v -1.228 c 0,-5.374 -5.373,-5.373 -5.373,-5.373 z"
     style="fill-opacity:0.23500001;marker:none;enable-background:new"
     id="path16"
     inkscape:connector-curvature="0" />
  <path
     d="m 9.428,4.055 c 0,0 -5.373,-10e-4 -5.373,5.373 v 1.127 c 0,-0.672 0.083,-1.26 0.23,-1.774 C 4.432,8.267 4.642,7.825 4.895,7.447 5.398,6.692 6.07,6.189 6.742,5.854 8.086,5.182 9.428,5.182 9.428,5.182 h 13.476 l 4.299,4.298 h 27.37 c 0.67,0 1.258,0.084 1.773,0.23 a 4.72,4.72 0 0 1 1.332,0.61 c 0.755,0.504 1.26,1.176 1.595,1.848 0.672,1.344 0.672,2.686 0.672,2.686 v -1.127 c 0,0 10e-4,-5.373 -5.373,-5.373 H 27.701 l -4.299,-4.3 z"
     style="fill:#ffffff;fill-opacity:0.23500001;marker:none;enable-background:new"
     id="path18"
     inkscape:connector-curvature="0" />
  <path
     d="m 59.945,53.342 c 0,0 0,1.344 -0.672,2.687 -0.336,0.672 -0.838,1.344 -1.593,1.848 -0.378,0.252 -0.82,0.462 -1.334,0.61 a 6.432,6.432 0 0 1 -1.774,0.23 H 4.055 v 1.228 h 50.517 c 5.374,0 5.373,-5.375 5.373,-5.375 z"
     style="fill-opacity:0.23500001;marker:none;enable-background:new"
     id="path20"
     inkscape:connector-curvature="0" />
  <path
     d="m 34.41,27.973 c -0.61,-0.002 -0.877,0.451 -0.844,1.052 l 0.004,15.672 c 0,0.306 -0.038,0.603 -0.093,0.895 -0.013,0.066 -0.034,0.131 -0.05,0.197 a 4.7,4.7 0 0 1 -0.212,0.672 c -0.023,0.056 -0.044,0.111 -0.069,0.166 a 4.71,4.71 0 0 1 -0.36,0.656 c -0.022,0.032 -0.04,0.065 -0.061,0.096 a 4.726,4.726 0 0 1 -2.04,1.678 c -0.04,0.017 -0.082,0.028 -0.123,0.045 -0.167,0.066 -0.335,0.136 -0.513,0.183 -0.058,0.016 -0.116,0.016 -0.174,0.03 -0.092,0.02 -0.185,0.034 -0.28,0.05 a 4.745,4.745 0 0 1 -0.605,0.06 c -0.057,0.003 -0.11,0.02 -0.168,0.02 -0.044,0 -0.088,-0.012 -0.133,-0.013 a 4.713,4.713 0 0 1 -0.703,-0.073 c -0.05,-0.009 -0.1,-0.012 -0.15,-0.023 A 4.73,4.73 0 0 1 26.18,48.633 l -0.016,-0.012 a 4.716,4.716 0 0 1 -0.746,-0.635 4.738,4.738 0 0 1 -0.563,-0.707 c -0.046,-0.071 -0.103,-0.132 -0.146,-0.207 -0.079,-0.136 -0.135,-0.28 -0.2,-0.422 -0.024,-0.054 -0.052,-0.106 -0.075,-0.162 a 4.745,4.745 0 0 1 -0.262,-0.84 c -0.062,-0.299 -0.09,-0.601 -0.094,-0.904 0,-0.016 -0.004,-0.03 -0.004,-0.047 0,-0.05 0.014,-0.095 0.016,-0.144 0.007,-0.234 0.03,-0.466 0.072,-0.696 a 4.697,4.697 0 0 1 0.252,-0.893 c 0.022,-0.054 0.043,-0.111 0.066,-0.165 0.114,-0.26 0.247,-0.51 0.409,-0.748 0.168,-0.25 0.354,-0.492 0.574,-0.711 0.22,-0.22 0.46,-0.406 0.71,-0.574 0.24,-0.162 0.491,-0.295 0.75,-0.409 l 0.165,-0.066 a 4.727,4.727 0 0 1 0.892,-0.254 c 0.23,-0.041 0.462,-0.063 0.696,-0.07 0.05,-0.002 0.096,-0.018 0.146,-0.018 0.017,0 0.029,0.006 0.045,0.006 0.305,0.003 0.612,0.033 0.914,0.096 h 0.006 c 0.012,0.002 0.024,0.007 0.035,0.01 0.278,0.06 0.551,0.15 0.819,0.261 0.045,0.02 0.088,0.044 0.132,0.065 0.142,0.064 0.286,0.12 0.422,0.199 l 0.678,-1.176 a 6.098,6.098 0 0 0 -3.85,-0.763 6.095,6.095 0 0 0 -3.52,1.734 6.108,6.108 0 0 0 -0.968,7.367 6.108,6.108 0 0 0 6.865,2.844 6.109,6.109 0 0 0 4.526,-5.895 v -14.59 l 5.42,4.35 0.847,-1.06 z m -5.588,13.816 a 2.908,2.908 0 1 0 2.908,2.908 2.908,2.908 0 0 0 -2.908,-2.908 z"
     id="path22"
     inkscape:connector-curvature="0"
     style="color:#ffffff;fill-opacity:0.5" />
</svg>
