<?xml version="1.0" encoding="UTF-8" standalone="no"?>
<svg
   xmlns:dc="http://purl.org/dc/elements/1.1/"
   xmlns:cc="http://creativecommons.org/ns#"
   xmlns:rdf="http://www.w3.org/1999/02/22-rdf-syntax-ns#"
   xmlns:svg="http://www.w3.org/2000/svg"
   xmlns="http://www.w3.org/2000/svg"
   xmlns:sodipodi="http://sodipodi.sourceforge.net/DTD/sodipodi-0.dtd"
   xmlns:inkscape="http://www.inkscape.org/namespaces/inkscape"
   width="64"
   height="64"
   version="1.1"
   id="svg24"
   sodipodi:docname="folder-html.svg"
   inkscape:version="0.92.4 (5da689c313, 2019-01-14)">
  <metadata
     id="metadata28">
    <rdf:RDF>
      <cc:Work
         rdf:about="">
        <dc:format>image/svg+xml</dc:format>
        <dc:type
           rdf:resource="http://purl.org/dc/dcmitype/StillImage" />
        <dc:title></dc:title>
      </cc:Work>
    </rdf:RDF>
  </metadata>
  <sodipodi:namedview
     pagecolor="#ffffff"
     bordercolor="#666666"
     borderopacity="1"
     objecttolerance="10"
     gridtolerance="10"
     guidetolerance="10"
     inkscape:pageopacity="0"
     inkscape:pageshadow="2"
     inkscape:window-width="1160"
     inkscape:window-height="480"
     id="namedview26"
     showgrid="false"
     inkscape:zoom="3.6875"
     inkscape:cx="2.8474576"
     inkscape:cy="32"
     inkscape:window-x="0"
     inkscape:window-y="25"
     inkscape:window-maximized="0"
     inkscape:current-layer="svg24" />
  <defs
     id="defs8">
    <clipPath
       id="a">
      <path
         d="M192-164H88s-40 0-40 40V4h416v-96s0-40-40-40H224z"
         style="marker:none"
         fill="#c9b8a7"
         stroke-width="26.067"
         enable-background="new"
         id="path2" />
    </clipPath>
    <filter
       id="b"
       x="-.108"
       width="1.217"
       y="-.134"
       height="1.269"
       color-interpolation-filters="sRGB">
      <feGaussianBlur
         stdDeviation="18.8"
         id="feGaussianBlur5" />
    </filter>
  </defs>
  <path
     style="fill:#7f0200;marker:none;enable-background:new"
     d="M 23.401,4.155 H 9.43 c 0,0 -5.375,0 -5.375,5.375 V 26.727 H 59.947 V 13.829 c 0,0 0,-5.374 -5.375,-5.374 h -26.87 z"
     id="path10"
     inkscape:connector-curvature="0" />
  <path
     transform="matrix(0.13435,0,0,0.13435,-2.395,26.088)"
     d="m 256,-80 -32,32 H 88 c 0,0 -40,0 -40,40 v 264 h 376 c 40,0 40,-40 40,-40 V -40 c 0,-40 -40,-40 -40,-40 z"
     style="opacity:0.1;marker:none;filter:url(#b);enable-background:new"
     clip-path="url(#a)"
     id="path12"
     inkscape:connector-curvature="0" />
  <path
     style="fill:#ff0400;marker:none;enable-background:new"
     d="m 32,14.802 -4.3,4.3 H 9.43 c 0,0 -5.375,0 -5.375,5.374 v 35.47 h 50.517 c 5.375,0 5.375,-5.375 5.375,-5.375 V 20.176 c 0,-5.374 -5.375,-5.374 -5.375,-5.374 z"
     id="path14"
     inkscape:connector-curvature="0" />
  <path
     d="m 32,14.803 -4.3,4.299 H 9.428 c 0,0 -5.373,0 -5.373,5.375 v 1.228 c 0,-0.672 0.083,-1.261 0.23,-1.775 a 4.72,4.72 0 0 1 0.61,-1.332 C 5.398,21.842 6.07,21.338 6.742,21.002 A 6.69,6.69 0 0 1 9.428,20.33 h 18.707 l 4.298,-4.299 h 22.14 c 0,0 1.341,0 2.685,0.672 0.671,0.336 1.344,0.84 1.847,1.596 0.252,0.378 0.463,0.818 0.61,1.332 0.147,0.514 0.23,1.102 0.23,1.773 v -1.228 c 0,-5.374 -5.373,-5.373 -5.373,-5.373 z"
     style="fill-opacity:0.23500001;marker:none;enable-background:new"
     id="path16"
     inkscape:connector-curvature="0" />
  <path
     d="m 9.428,4.055 c 0,0 -5.373,-10e-4 -5.373,5.373 v 1.127 c 0,-0.672 0.083,-1.26 0.23,-1.774 C 4.432,8.267 4.642,7.825 4.895,7.447 5.398,6.692 6.07,6.189 6.742,5.854 8.086,5.182 9.428,5.182 9.428,5.182 h 13.476 l 4.299,4.298 h 27.37 c 0.67,0 1.258,0.084 1.773,0.23 a 4.72,4.72 0 0 1 1.332,0.61 c 0.755,0.504 1.26,1.176 1.595,1.848 0.672,1.344 0.672,2.686 0.672,2.686 v -1.127 c 0,0 10e-4,-5.373 -5.373,-5.373 H 27.701 l -4.299,-4.3 z"
     style="fill:#ffffff;fill-opacity:0.23500001;marker:none;enable-background:new"
     id="path18"
     inkscape:connector-curvature="0" />
  <path
     d="m 59.945,53.342 c 0,0 0,1.344 -0.672,2.687 -0.336,0.672 -0.838,1.344 -1.593,1.848 -0.378,0.252 -0.82,0.462 -1.334,0.61 a 6.432,6.432 0 0 1 -1.774,0.23 H 4.055 v 1.228 h 50.517 c 5.374,0 5.373,-5.375 5.373,-5.375 z"
     style="fill-opacity:0.23500001;marker:none;enable-background:new"
     id="path20"
     inkscape:connector-curvature="0" />
  <path
     d="m 32,30.016 c -5.506,0 -9.984,4.478 -9.984,9.984 0,0.43 0.036,0.85 0.089,1.265 0.03,0.13 0.03,0.109 0.008,0.22 0.062,0.147 -0.01,0.132 0.053,0.173 0.794,4.717 4.895,8.326 9.834,8.326 4.862,0 8.917,-3.495 9.8,-8.104 A 0.71,0.71 0 0 1 41.903,41.844 9.958,9.958 0 0 0 41.983,40 C 41.984,34.494 37.506,30.016 32,30.016 Z m 0,1.426 a 8.526,8.526 0 0 1 6.817,3.396 c -1.27,-0.17 -2.503,-0.287 -3.67,-0.295 a 24.692,24.692 0 0 0 -7.515,1.106 c -0.035,-1.168 0.086,-2.266 0.365,-3.215 A 8.535,8.535 0 0 1 32,31.442 Z m -5.786,2.268 c -0.018,0.383 -0.021,0.764 -0.017,1.145 0.002,0.145 0,0.29 0.006,0.434 0,0.278 -0.005,0.555 0.011,0.839 -0.768,0.284 -1.514,0.608 -2.25,0.95 a 8.526,8.526 0 0 1 2.25,-3.368 z m 8.742,2.256 c 1.5,0 3.097,0.141 4.805,0.437 A 8.532,8.532 0 0 1 40.558,40 c 0,0.476 -0.048,0.94 -0.123,1.396 -2.607,0.664 -6.844,1.241 -10.912,1.025 a 15.34,15.34 0 0 1 -1.626,-4.605 16.734,16.734 0 0 1 -0.123,-0.719 c 2.2,-0.711 4.55,-1.13 7.182,-1.13 z m -8.589,1.627 a 17.39,17.39 0 0 0 1.179,4.137 c 0.079,0.186 0.175,0.365 0.261,0.549 C 26.273,42.1 24.822,41.786 23.551,41.295 A 8.62,8.62 0 0 1 23.442,40 c 0,-0.383 0.035,-0.759 0.084,-1.128 0.93,-0.475 1.874,-0.902 2.841,-1.279 z m 13.815,4.922 a 8.552,8.552 0 0 1 -4.722,5.31 8.407,8.407 0 0 1 -1.967,-0.933 12.834,12.834 0 0 1 -3.067,-3.028 c 0.504,0.012 1.006,0.03 1.516,0.014 3.026,-0.091 6.063,-0.643 8.24,-1.362 z m -16.316,0.137 c 1.337,0.586 3.013,0.93 4.8,1.1 0.324,0.531 0.671,1.045 1.056,1.53 h -0.075 a 12.274,12.274 0 0 0 2.718,2.574 c 0.004,0.002 0.006,0.006 0.009,0.008 0.28,0.209 0.576,0.4 0.874,0.588 -0.408,0.06 -0.822,0.106 -1.248,0.106 a 8.543,8.543 0 0 1 -8.134,-5.906 z"
     class="ColorScheme-Text"
     id="path22"
     inkscape:connector-curvature="0"
     style="color:#090d11;fill-opacity:0.50199998" />
</svg>
