<?xml version="1.0" encoding="UTF-8" standalone="no"?>
<svg
   xmlns:dc="http://purl.org/dc/elements/1.1/"
   xmlns:cc="http://creativecommons.org/ns#"
   xmlns:rdf="http://www.w3.org/1999/02/22-rdf-syntax-ns#"
   xmlns:svg="http://www.w3.org/2000/svg"
   xmlns="http://www.w3.org/2000/svg"
   xmlns:sodipodi="http://sodipodi.sourceforge.net/DTD/sodipodi-0.dtd"
   xmlns:inkscape="http://www.inkscape.org/namespaces/inkscape"
   width="64"
   height="64"
   version="1.1"
   id="svg12"
   sodipodi:docname="folder-visiting.svg"
   inkscape:version="0.92.4 (5da689c313, 2019-01-14)">
  <metadata
     id="metadata18">
    <rdf:RDF>
      <cc:Work
         rdf:about="">
        <dc:format>image/svg+xml</dc:format>
        <dc:type
           rdf:resource="http://purl.org/dc/dcmitype/StillImage" />
        <dc:title></dc:title>
      </cc:Work>
    </rdf:RDF>
  </metadata>
  <defs
     id="defs16" />
  <sodipodi:namedview
     pagecolor="#ffffff"
     bordercolor="#666666"
     borderopacity="1"
     objecttolerance="10"
     gridtolerance="10"
     guidetolerance="10"
     inkscape:pageopacity="0"
     inkscape:pageshadow="2"
     inkscape:window-width="1160"
     inkscape:window-height="480"
     id="namedview14"
     showgrid="false"
     inkscape:zoom="3.6875"
     inkscape:cx="2.8474576"
     inkscape:cy="32"
     inkscape:window-x="0"
     inkscape:window-y="25"
     inkscape:window-maximized="0"
     inkscape:current-layer="svg12" />
  <path
     d="M 23.43,4.118 H 9.435 c 0,0 -5.382,0 -5.382,5.382 V 31.03 H 60.03 V 13.806 c 0,0 0,-5.382 -5.383,-5.382 H 27.736 Z"
     style="fill:#7f0200;marker:none"
     id="path2"
     inkscape:connector-curvature="0" />
  <path
     d="M 32.042,23.495 27.736,27.8 H 7.282 c 0,0 -5.382,0 -5.382,5.382 l 2.153,26.913 h 50.595 c 5.383,0 5.383,-5.382 5.383,-5.382 l 2.153,-25.837 c 0,-5.382 -5.383,-5.382 -5.383,-5.382 z"
     style="fill:#ff0400;marker:none"
     id="path4"
     inkscape:connector-curvature="0" />
  <path
     d="m 32.041,23.494 -4.299,4.299 h -4.308 v 0.008 H 7.28 c 0,0 -5.38,0 -5.38,5.383 l 0.06,0.76 C 1.992,33.48 2.021,33.014 2.13,32.634 2.277,32.12 2.487,31.679 2.74,31.301 3.244,30.544 3.916,30.04 4.589,29.703 A 6.717,6.717 0 0 1 7.28,29.029 h 20.455 l 0.006,-0.008 h 0.434 l 4.299,-4.298 H 56.8 c 0,0 1.346,0 2.691,0.673 0.673,0.337 1.347,0.841 1.852,1.598 0.252,0.379 0.462,0.821 0.61,1.336 0.106,0.376 0.135,0.837 0.167,1.295 l 0.063,-0.748 c 0,-5.383 -5.383,-5.383 -5.383,-5.383 H 32.04 Z"
     style="fill-opacity:0.23500001;marker:none"
     id="path6"
     inkscape:connector-curvature="0" />
  <path
     d="m 9.462,4.125 c 0,0 -5.372,-0.001 -5.372,5.373 v 1.127 C 4.09,9.953 4.174,9.365 4.32,8.852 4.468,8.337 4.678,7.895 4.93,7.518 5.434,6.762 6.106,6.26 6.778,5.924 8.121,5.252 9.463,5.252 9.463,5.252 H 22.94 l 4.299,4.299 h 27.369 c 0.672,0 1.259,0.083 1.773,0.23 a 4.72,4.72 0 0 1 1.332,0.61 c 0.756,0.503 1.26,1.176 1.596,1.847 0.672,1.344 0.672,2.686 0.672,2.686 v -1.127 c 0,0 0,-5.373 -5.373,-5.373 H 27.736 l -4.3,-4.299 z"
     style="fill:#ffffff;fill-opacity:0.23500001;marker:none"
     id="path8"
     inkscape:connector-curvature="0" />
  <path
     d="m 3.955,58.865 0.098,1.23 h 50.595 c 5.383,0 5.383,-5.382 5.383,-5.382 -0.074,0.518 -0.298,0.71 -0.674,1.463 -0.336,0.673 -0.84,1.347 -1.597,1.851 a 4.725,4.725 0 0 1 -1.334,0.61 6.45,6.45 0 0 1 -1.778,0.23 H 4.053 Z"
     style="fill-opacity:0.23500001;marker:none"
     id="path10"
     inkscape:connector-curvature="0" />
</svg>
