<?xml version="1.0" encoding="UTF-8" standalone="no"?>
<svg
   xmlns:dc="http://purl.org/dc/elements/1.1/"
   xmlns:cc="http://creativecommons.org/ns#"
   xmlns:rdf="http://www.w3.org/1999/02/22-rdf-syntax-ns#"
   xmlns:svg="http://www.w3.org/2000/svg"
   xmlns="http://www.w3.org/2000/svg"
   xmlns:sodipodi="http://sodipodi.sourceforge.net/DTD/sodipodi-0.dtd"
   xmlns:inkscape="http://www.inkscape.org/namespaces/inkscape"
   width="64"
   height="64"
   version="1.1"
   id="svg24"
   sodipodi:docname="folder-playonlinux.svg"
   inkscape:version="0.92.4 (5da689c313, 2019-01-14)">
  <metadata
     id="metadata28">
    <rdf:RDF>
      <cc:Work
         rdf:about="">
        <dc:format>image/svg+xml</dc:format>
        <dc:type
           rdf:resource="http://purl.org/dc/dcmitype/StillImage" />
        <dc:title></dc:title>
      </cc:Work>
    </rdf:RDF>
  </metadata>
  <sodipodi:namedview
     pagecolor="#ffffff"
     bordercolor="#666666"
     borderopacity="1"
     objecttolerance="10"
     gridtolerance="10"
     guidetolerance="10"
     inkscape:pageopacity="0"
     inkscape:pageshadow="2"
     inkscape:window-width="1160"
     inkscape:window-height="480"
     id="namedview26"
     showgrid="false"
     inkscape:zoom="3.6875"
     inkscape:cx="2.8474576"
     inkscape:cy="32"
     inkscape:window-x="0"
     inkscape:window-y="25"
     inkscape:window-maximized="0"
     inkscape:current-layer="svg24" />
  <defs
     id="defs8">
    <clipPath
       id="a">
      <path
         d="M192-164H88s-40 0-40 40V4h416v-96s0-40-40-40H224z"
         style="marker:none"
         fill="#c9b8a7"
         stroke-width="26.067"
         enable-background="new"
         id="path2" />
    </clipPath>
    <filter
       id="b"
       x="-.108"
       width="1.217"
       y="-.134"
       height="1.269"
       color-interpolation-filters="sRGB">
      <feGaussianBlur
         stdDeviation="18.8"
         id="feGaussianBlur5" />
    </filter>
  </defs>
  <path
     style="fill:#7f0200;marker:none;enable-background:new"
     d="M 23.401,4.155 H 9.43 c 0,0 -5.375,0 -5.375,5.375 V 26.727 H 59.947 V 13.829 c 0,0 0,-5.374 -5.375,-5.374 h -26.87 z"
     id="path10"
     inkscape:connector-curvature="0" />
  <path
     transform="matrix(0.13435,0,0,0.13435,-2.395,26.088)"
     d="m 256,-80 -32,32 H 88 c 0,0 -40,0 -40,40 v 264 h 376 c 40,0 40,-40 40,-40 V -40 c 0,-40 -40,-40 -40,-40 z"
     style="opacity:0.1;marker:none;filter:url(#b);enable-background:new"
     clip-path="url(#a)"
     id="path12"
     inkscape:connector-curvature="0" />
  <path
     style="fill:#ff0400;marker:none;enable-background:new"
     d="m 32,14.802 -4.3,4.3 H 9.43 c 0,0 -5.375,0 -5.375,5.374 v 35.47 h 50.517 c 5.375,0 5.375,-5.375 5.375,-5.375 V 20.176 c 0,-5.374 -5.375,-5.374 -5.375,-5.374 z"
     id="path14"
     inkscape:connector-curvature="0" />
  <path
     d="m 32,14.803 -4.3,4.299 H 9.428 c 0,0 -5.373,0 -5.373,5.375 v 1.228 c 0,-0.672 0.083,-1.261 0.23,-1.775 a 4.72,4.72 0 0 1 0.61,-1.332 C 5.398,21.842 6.07,21.338 6.742,21.002 A 6.69,6.69 0 0 1 9.428,20.33 h 18.707 l 4.298,-4.299 h 22.14 c 0,0 1.341,0 2.685,0.672 0.671,0.336 1.344,0.84 1.847,1.596 0.252,0.378 0.463,0.818 0.61,1.332 0.147,0.514 0.23,1.102 0.23,1.773 v -1.228 c 0,-5.374 -5.373,-5.373 -5.373,-5.373 z"
     style="fill-opacity:0.23500001;marker:none;enable-background:new"
     id="path16"
     inkscape:connector-curvature="0" />
  <path
     d="m 9.428,4.055 c 0,0 -5.373,-10e-4 -5.373,5.373 v 1.127 c 0,-0.672 0.083,-1.26 0.23,-1.774 C 4.432,8.267 4.642,7.825 4.895,7.447 5.398,6.692 6.07,6.189 6.742,5.854 8.086,5.182 9.428,5.182 9.428,5.182 h 13.476 l 4.299,4.298 h 27.37 c 0.67,0 1.258,0.084 1.773,0.23 a 4.72,4.72 0 0 1 1.332,0.61 c 0.755,0.504 1.26,1.176 1.595,1.848 0.672,1.344 0.672,2.686 0.672,2.686 v -1.127 c 0,0 10e-4,-5.373 -5.373,-5.373 H 27.701 l -4.299,-4.3 z"
     style="fill:#ffffff;fill-opacity:0.23500001;marker:none;enable-background:new"
     id="path18"
     inkscape:connector-curvature="0" />
  <path
     d="m 59.945,53.342 c 0,0 0,1.344 -0.672,2.687 -0.336,0.672 -0.838,1.344 -1.593,1.848 -0.378,0.252 -0.82,0.462 -1.334,0.61 a 6.432,6.432 0 0 1 -1.774,0.23 H 4.055 v 1.228 h 50.517 c 5.374,0 5.373,-5.375 5.373,-5.375 z"
     style="fill-opacity:0.23500001;marker:none;enable-background:new"
     id="path20"
     inkscape:connector-curvature="0" />
  <path
     style="color:#000000;font-weight:400;line-height:normal;font-family:sans-serif;font-variant-ligatures:normal;font-variant-position:normal;font-variant-caps:normal;font-variant-numeric:normal;font-variant-alternates:normal;font-feature-settings:normal;text-indent:0;text-align:start;text-decoration:none;text-decoration-line:none;text-decoration-style:solid;text-decoration-color:#000000;text-transform:none;text-orientation:mixed;white-space:normal;shape-padding:0;overflow:visible;isolation:auto;mix-blend-mode:normal;fill-opacity:0.50199998;fill-rule:evenodd;marker:none;enable-background:accumulate"
     d="m 28.25,29.034 c -1.854,0.136 -3.419,1.316 -4.665,2.562 -0.997,0.998 -1.918,2.206 -2.35,3.59 -0.432,1.384 -0.17,3.155 1.19,4.24 0.416,0.332 0.894,0.422 1.354,0.59 -0.46,0.166 -0.938,0.257 -1.355,0.59 -0.177,0.14 -0.332,0.289 -0.468,0.436 -1.068,1.163 -1.1,2.786 -0.635,4.06 0.465,1.275 1.33,2.397 2.264,3.332 0.997,0.997 2.206,1.918 3.59,2.35 1.384,0.433 3.155,0.171 4.24,-1.19 0.331,-0.416 0.422,-0.894 0.589,-1.353 0.167,0.46 0.258,0.937 0.59,1.354 1.084,1.36 2.855,1.622 4.24,1.19 1.383,-0.433 2.592,-1.354 3.589,-2.35 0.997,-0.998 1.918,-2.206 2.35,-3.59 0.432,-1.385 0.17,-3.156 -1.19,-4.24 -0.416,-0.332 -0.894,-0.423 -1.354,-0.59 0.46,-0.167 0.938,-0.257 1.355,-0.59 1.36,-1.084 1.621,-2.855 1.19,-4.239 -0.433,-1.384 -1.354,-2.592 -2.351,-3.59 -0.935,-0.934 -2.057,-1.8 -3.332,-2.264 -1.274,-0.464 -2.897,-0.433 -4.06,0.636 a 4.148,4.148 0 0 0 -0.437,0.468 c -0.332,0.416 -0.423,0.894 -0.59,1.354 -0.167,-0.46 -0.258,-0.938 -0.59,-1.354 A 3.745,3.745 0 0 0 28.25,29.034 Z m 0.09,1.22 c 0.788,-0.058 1.528,0.203 2.119,0.944 1.574,1.974 0.322,5.606 1.545,8.817 1.223,-3.21 -0.029,-6.843 1.545,-8.817 0.099,-0.124 0.202,-0.232 0.308,-0.33 1.593,-1.464 4.011,-0.097 5.701,1.593 1.803,1.803 3.238,4.435 1.264,6.009 -1.975,1.574 -5.607,0.322 -8.818,1.545 3.21,1.224 6.843,-0.029 8.818,1.546 1.974,1.574 0.54,4.206 -1.264,6.009 -1.803,1.803 -4.435,3.238 -6.009,1.263 -1.574,-1.975 -0.322,-5.607 -1.545,-8.818 -1.223,3.211 0.029,6.843 -1.545,8.818 -1.574,1.975 -4.206,0.54 -6.01,-1.263 -1.69,-1.69 -3.056,-4.108 -1.592,-5.701 0.097,-0.107 0.206,-0.21 0.33,-0.308 1.974,-1.575 5.606,-0.322 8.817,-1.546 -3.21,-1.223 -6.843,0.03 -8.818,-1.545 -1.974,-1.574 -0.54,-4.206 1.264,-6.009 1.127,-1.127 2.577,-2.11 3.89,-2.207 z"
     font-weight="400"
     overflow="visible"
     id="path22"
     inkscape:connector-curvature="0" />
</svg>
