<?xml version="1.0" encoding="UTF-8" standalone="no"?>
<svg
   xmlns:dc="http://purl.org/dc/elements/1.1/"
   xmlns:cc="http://creativecommons.org/ns#"
   xmlns:rdf="http://www.w3.org/1999/02/22-rdf-syntax-ns#"
   xmlns:svg="http://www.w3.org/2000/svg"
   xmlns="http://www.w3.org/2000/svg"
   xmlns:sodipodi="http://sodipodi.sourceforge.net/DTD/sodipodi-0.dtd"
   xmlns:inkscape="http://www.inkscape.org/namespaces/inkscape"
   width="64"
   height="64"
   version="1.1"
   id="svg20"
   sodipodi:docname="folder-copy.svg"
   inkscape:version="0.92.4 (5da689c313, 2019-01-14)">
  <metadata
     id="metadata24">
    <rdf:RDF>
      <cc:Work
         rdf:about="">
        <dc:format>image/svg+xml</dc:format>
        <dc:type
           rdf:resource="http://purl.org/dc/dcmitype/StillImage" />
        <dc:title></dc:title>
      </cc:Work>
    </rdf:RDF>
  </metadata>
  <sodipodi:namedview
     pagecolor="#ffffff"
     bordercolor="#666666"
     borderopacity="1"
     objecttolerance="10"
     gridtolerance="10"
     guidetolerance="10"
     inkscape:pageopacity="0"
     inkscape:pageshadow="2"
     inkscape:window-width="1160"
     inkscape:window-height="480"
     id="namedview22"
     showgrid="false"
     inkscape:zoom="3.6875"
     inkscape:cx="2.8474576"
     inkscape:cy="32"
     inkscape:window-x="0"
     inkscape:window-y="25"
     inkscape:window-maximized="0"
     inkscape:current-layer="svg20" />
  <defs
     id="defs8">
    <clipPath
       id="a">
      <path
         d="M192-164H88s-40 0-40 40V4h416v-96s0-40-40-40H224z"
         style="marker:none"
         fill="#c9b8a7"
         stroke-width="26.067"
         enable-background="new"
         id="path2" />
    </clipPath>
    <filter
       id="b"
       x="-.108"
       width="1.217"
       y="-.134"
       height="1.269"
       color-interpolation-filters="sRGB">
      <feGaussianBlur
         stdDeviation="18.8"
         id="feGaussianBlur5" />
    </filter>
  </defs>
  <path
     d="m 25.735,9.834 -3.124,3.123 H 9.337 c 0,0 -3.904,0 -3.904,3.905 v 25.77 h 36.702 c 3.905,0 3.905,-3.905 3.905,-3.905 V 13.738 c 0,-3.904 -3.905,-3.904 -3.905,-3.904 z"
     style="fill:#7f0200;stroke-width:0.727;marker:none;enable-background:new"
     id="path10"
     inkscape:connector-curvature="0" />
  <path
     style="fill-opacity:0.23500001;stroke-width:0.727;marker:none;enable-background:new"
     d="m 25.735,9.834 -3.123,3.123 H 9.336 c 0,0 -3.904,0 -3.904,3.905 v 0.893 c 0,-0.488 0.06,-0.916 0.167,-1.29 a 3.43,3.43 0 0 1 0.444,-0.968 c 0.365,-0.549 0.853,-0.915 1.342,-1.16 a 4.86,4.86 0 0 1 1.951,-0.488 h 13.591 l 3.124,-3.122 h 16.084 c 0,0 0.975,0 1.951,0.487 0.488,0.244 0.977,0.61 1.342,1.16 0.183,0.274 0.336,0.594 0.443,0.968 0.107,0.374 0.167,0.8 0.167,1.288 v -0.892 c 0,-3.905 -3.903,-3.904 -3.903,-3.904 z m 20.303,28 c 0,0 0,0.976 -0.488,1.953 a 3.425,3.425 0 0 1 -1.157,1.342 3.442,3.442 0 0 1 -0.97,0.443 4.673,4.673 0 0 1 -1.288,0.167 H 5.432 v 0.893 h 36.703 c 3.904,0 3.903,-3.905 3.903,-3.905 z"
     id="path12"
     inkscape:connector-curvature="0" />
  <path
     clip-path="url(#a)"
     style="opacity:0.1;marker:none;filter:url(#b);enable-background:new"
     d="m 256,-80 -32,32 H 88 c 0,0 -40,0 -40,40 v 264 h 376 c 40,0 40,-40 40,-40 V -40 c 0,-40 -40,-40 -40,-40 z"
     transform="matrix(0.09761,0,0,0.09761,13.275,29.567)"
     id="path14"
     inkscape:connector-curvature="0" />
  <path
     style="fill:#ff0400;marker:none;enable-background:new"
     d="m 38.263,21.368 -3.124,3.124 H 21.865 c 0,0 -3.904,0 -3.904,3.904 v 25.77 h 36.702 c 3.905,0 3.905,-3.905 3.905,-3.905 V 25.273 c 0,-3.905 -3.905,-3.905 -3.905,-3.905 z"
     id="path16"
     inkscape:connector-curvature="0" />
  <path
     d="M 38.263,21.368 35.14,24.492 H 21.864 c 0,0 -3.904,0 -3.904,3.905 v 0.892 c 0,-0.488 0.06,-0.916 0.167,-1.29 a 3.43,3.43 0 0 1 0.443,-0.967 c 0.366,-0.55 0.854,-0.916 1.342,-1.16 a 4.86,4.86 0 0 1 1.952,-0.488 h 13.591 l 3.124,-3.123 h 16.084 c 0,0 0.975,0 1.951,0.488 0.488,0.244 0.976,0.61 1.342,1.16 0.183,0.274 0.336,0.593 0.443,0.967 0.107,0.374 0.167,0.8 0.167,1.289 v -0.893 c 0,-3.905 -3.903,-3.904 -3.903,-3.904 z m 20.303,28 c 0,0 0,0.977 -0.488,1.953 a 3.425,3.425 0 0 1 -1.157,1.342 3.442,3.442 0 0 1 -0.97,0.443 4.673,4.673 0 0 1 -1.288,0.167 H 17.96 v 0.893 h 36.703 c 3.904,0 3.903,-3.905 3.903,-3.905 z"
     style="fill-opacity:0.23500001;marker:none;enable-background:new"
     id="path18"
     inkscape:connector-curvature="0" />
</svg>
