<?xml version="1.0" encoding="UTF-8" standalone="no"?>
<svg
   xmlns:dc="http://purl.org/dc/elements/1.1/"
   xmlns:cc="http://creativecommons.org/ns#"
   xmlns:rdf="http://www.w3.org/1999/02/22-rdf-syntax-ns#"
   xmlns:svg="http://www.w3.org/2000/svg"
   xmlns="http://www.w3.org/2000/svg"
   xmlns:sodipodi="http://sodipodi.sourceforge.net/DTD/sodipodi-0.dtd"
   xmlns:inkscape="http://www.inkscape.org/namespaces/inkscape"
   width="64"
   height="64"
   version="1.1"
   id="svg24"
   sodipodi:docname="folder-java.svg"
   inkscape:version="0.92.4 (5da689c313, 2019-01-14)">
  <metadata
     id="metadata28">
    <rdf:RDF>
      <cc:Work
         rdf:about="">
        <dc:format>image/svg+xml</dc:format>
        <dc:type
           rdf:resource="http://purl.org/dc/dcmitype/StillImage" />
        <dc:title></dc:title>
      </cc:Work>
    </rdf:RDF>
  </metadata>
  <sodipodi:namedview
     pagecolor="#ffffff"
     bordercolor="#666666"
     borderopacity="1"
     objecttolerance="10"
     gridtolerance="10"
     guidetolerance="10"
     inkscape:pageopacity="0"
     inkscape:pageshadow="2"
     inkscape:window-width="1160"
     inkscape:window-height="480"
     id="namedview26"
     showgrid="false"
     inkscape:zoom="3.6875"
     inkscape:cx="2.8474576"
     inkscape:cy="32"
     inkscape:window-x="0"
     inkscape:window-y="25"
     inkscape:window-maximized="0"
     inkscape:current-layer="svg24" />
  <defs
     id="defs8">
    <clipPath
       id="a">
      <path
         d="M192-164H88s-40 0-40 40V4h416v-96s0-40-40-40H224z"
         style="marker:none"
         fill="#c9b8a7"
         stroke-width="26.067"
         enable-background="new"
         id="path2" />
    </clipPath>
    <filter
       id="b"
       x="-.108"
       width="1.217"
       y="-.134"
       height="1.269"
       color-interpolation-filters="sRGB">
      <feGaussianBlur
         stdDeviation="18.8"
         id="feGaussianBlur5" />
    </filter>
  </defs>
  <path
     style="fill:#7f0200;marker:none;enable-background:new"
     d="M 23.401,4.155 H 9.43 c 0,0 -5.375,0 -5.375,5.375 V 26.727 H 59.947 V 13.829 c 0,0 0,-5.374 -5.375,-5.374 h -26.87 z"
     id="path10"
     inkscape:connector-curvature="0" />
  <path
     transform="matrix(0.13435,0,0,0.13435,-2.395,26.088)"
     d="m 256,-80 -32,32 H 88 c 0,0 -40,0 -40,40 v 264 h 376 c 40,0 40,-40 40,-40 V -40 c 0,-40 -40,-40 -40,-40 z"
     style="opacity:0.1;marker:none;filter:url(#b);enable-background:new"
     clip-path="url(#a)"
     id="path12"
     inkscape:connector-curvature="0" />
  <path
     style="fill:#ff0400;marker:none;enable-background:new"
     d="m 32,14.802 -4.3,4.3 H 9.43 c 0,0 -5.375,0 -5.375,5.374 v 35.47 h 50.517 c 5.375,0 5.375,-5.375 5.375,-5.375 V 20.176 c 0,-5.374 -5.375,-5.374 -5.375,-5.374 z"
     id="path14"
     inkscape:connector-curvature="0" />
  <path
     d="m 32,14.803 -4.3,4.299 H 9.428 c 0,0 -5.373,0 -5.373,5.375 v 1.228 c 0,-0.672 0.083,-1.261 0.23,-1.775 a 4.72,4.72 0 0 1 0.61,-1.332 C 5.398,21.842 6.07,21.338 6.742,21.002 A 6.69,6.69 0 0 1 9.428,20.33 h 18.707 l 4.298,-4.299 h 22.14 c 0,0 1.341,0 2.685,0.672 0.671,0.336 1.344,0.84 1.847,1.596 0.252,0.378 0.463,0.818 0.61,1.332 0.147,0.514 0.23,1.102 0.23,1.773 v -1.228 c 0,-5.374 -5.373,-5.373 -5.373,-5.373 z"
     style="fill-opacity:0.23500001;marker:none;enable-background:new"
     id="path16"
     inkscape:connector-curvature="0" />
  <path
     d="m 9.428,4.055 c 0,0 -5.373,-10e-4 -5.373,5.373 v 1.127 c 0,-0.672 0.083,-1.26 0.23,-1.774 C 4.432,8.267 4.642,7.825 4.895,7.447 5.398,6.692 6.07,6.189 6.742,5.854 8.086,5.182 9.428,5.182 9.428,5.182 h 13.476 l 4.299,4.298 h 27.37 c 0.67,0 1.258,0.084 1.773,0.23 a 4.72,4.72 0 0 1 1.332,0.61 c 0.755,0.504 1.26,1.176 1.595,1.848 0.672,1.344 0.672,2.686 0.672,2.686 v -1.127 c 0,0 10e-4,-5.373 -5.373,-5.373 H 27.701 l -4.299,-4.3 z"
     style="fill:#ffffff;fill-opacity:0.23500001;marker:none;enable-background:new"
     id="path18"
     inkscape:connector-curvature="0" />
  <path
     d="m 59.945,53.342 c 0,0 0,1.344 -0.672,2.687 -0.336,0.672 -0.838,1.344 -1.593,1.848 -0.378,0.252 -0.82,0.462 -1.334,0.61 a 6.432,6.432 0 0 1 -1.774,0.23 H 4.055 v 1.228 h 50.517 c 5.374,0 5.373,-5.375 5.373,-5.375 z"
     style="fill-opacity:0.23500001;marker:none;enable-background:new"
     id="path20"
     inkscape:connector-curvature="0" />
  <path
     d="m 34.447,25.5 a 0.11,0.11 0 0 0 -0.02,0.02 0.11,0.11 0 0 0 -0.019,0.021 0.11,0.11 0 0 0 -0.02,0.02 0.11,0.11 0 0 0 -0.017,0.037 0.11,0.11 0 0 0 0,0.02 0.11,0.11 0 0 0 0,0.02 c 0.255,1.005 0.175,1.814 -0.139,2.524 -0.313,0.71 -0.862,1.318 -1.488,1.881 -1.251,1.125 -2.866,2.077 -3.738,3.387 -0.604,0.906 -0.457,1.882 0.137,2.857 0.593,0.975 1.62,1.971 2.798,3.035 a 0.11,0.11 0 0 0 0.02,0 0.11,0.11 0 0 0 0.02,0.018 0.11,0.11 0 0 0 0.021,0 0.11,0.11 0 0 0 0.02,0 0.11,0.11 0 0 0 0.017,0 0.11,0.11 0 0 0 0.04,0 0.11,0.11 0 0 0 0.02,-0.018 0.11,0.11 0 0 0 0.02,-0.02 0.11,0.11 0 0 0 0,-0.019 0.11,0.11 0 0 0 0.02,-0.02 0.11,0.11 0 0 0 0,-0.04 0.11,0.11 0 0 0 0,-0.018 0.11,0.11 0 0 0 -0.02,-0.02 c -0.473,-1.068 -1.465,-2.032 -1.842,-3.113 -0.188,-0.54 -0.23,-1.114 0.02,-1.742 0.25,-0.628 0.804,-1.326 1.803,-2.115 2.53,-1.998 3.165,-3.66 3.15,-4.836 -0.015,-1.176 -0.684,-1.838 -0.684,-1.838 a 0.11,0.11 0 0 0 -0.021,-0.021 0.11,0.11 0 0 0 -0.02,0 0.11,0.11 0 0 0 -0.02,-0.02 0.11,0.11 0 0 0 -0.017,0 0.11,0.11 0 0 0 -0.02,0 0.11,0.11 0 0 0 -0.02,0 z m 3.121,5.07 a 0.11,0.11 0 0 0 -0.007,0.002 c 0,0 -2.114,0.528 -3.758,1.662 -0.822,0.568 -1.545,1.297 -1.782,2.194 -0.237,0.896 0.026,1.943 1.057,3.13 0.574,0.66 0.487,1.25 0.274,1.706 -0.214,0.456 -0.567,0.761 -0.567,0.761 a 0.11,0.11 0 0 0 -0.021,0.022 0.11,0.11 0 0 0 -0.02,0.02 0.11,0.11 0 0 0 -0.02,0.019 0.11,0.11 0 0 0 0,0.02 0.11,0.11 0 0 0 0,0.017 0.11,0.11 0 0 0 0.02,0.022 0.11,0.11 0 0 0 0,0.02 0.11,0.11 0 0 0 0.02,0.019 0.11,0.11 0 0 0 0.021,0.02 0.11,0.11 0 0 0 0.057,0.017 0.11,0.11 0 0 0 0.02,0 0.11,0.11 0 0 0 0.02,-0.018 0.11,0.11 0 0 0 0.02,0 c 0,0 0.768,-0.398 1.37,-1.058 0.3,-0.33 0.552,-0.722 0.646,-1.174 0.094,-0.453 0.032,-0.976 -0.332,-1.489 -0.328,-0.46 -0.64,-0.855 -0.824,-1.232 -0.185,-0.377 -0.26,-0.701 -0.137,-1.096 0.246,-0.788 1.33,-1.819 4.033,-3.386 a 0.11,0.11 0 0 0 0.02,0 0.11,0.11 0 0 0 0,-0.022 0.11,0.11 0 0 0 0.02,0 0.11,0.11 0 0 0 0,-0.02 0.11,0.11 0 0 0 0.019,-0.037 0.11,0.11 0 0 0 0,-0.02 0.11,0.11 0 0 0 0,-0.02 0.11,0.11 0 0 0 -0.02,-0.02 0.11,0.11 0 0 0 0,-0.018 0.11,0.11 0 0 0 -0.02,-0.02 0.11,0.11 0 0 0 -0.019,-0.019 0.11,0.11 0 0 0 -0.02,0 0.11,0.11 0 0 0 -0.019,0 0.11,0.11 0 0 0 -0.02,0 0.11,0.11 0 0 0 -0.019,0 0.11,0.11 0 0 0 -0.012,-0.002 z m 1.676,8.42 c -0.34,-0.016 -0.716,0.021 -1.096,0.155 a 0.932,0.932 0 0 0 -0.431,0.334 0.05,0.05 0 0 0 0,0.019 0.05,0.05 0 0 0 0,0.02 0.05,0.05 0 0 0 0,0.02 0.05,0.05 0 0 0 0.017,0 0.05,0.05 0 0 0 0,0.017 0.05,0.05 0 0 0 0.022,0 0.05,0.05 0 0 0 0.02,0 c 0,0 0.18,-0.059 0.546,-0.135 0.724,-0.15 1.608,0.325 1.744,1.135 0.069,0.405 -0.046,0.905 -0.47,1.449 -0.425,0.544 -1.148,1.139 -2.309,1.742 a 0.05,0.05 0 0 0 -0.02,0 0.05,0.05 0 0 0 -0.011,0.008 0.05,0.05 0 0 0 -0.01,0.012 c -0.007,0.018 -0.019,0.05 -0.039,0.078 -0.01,0.013 -0.03,0.03 -0.037,0.039 -0.007,0.008 0,0.02 0,0.02 l 0.037,0.019 v 0.058 c 2.733,-0.718 3.848,-1.918 3.975,-2.976 0.126,-1.058 -0.741,-1.956 -1.938,-2.014 z m -10.355,0.233 c -0.6,0.015 -1.998,0.155 -3.623,0.941 a 1.497,1.497 0 0 0 -0.373,0.234 c -0.08,0.078 -0.122,0.15 -0.118,0.235 a 0.343,0.343 0 0 0 0.137,0.236 c 0.08,0.064 0.195,0.12 0.334,0.174 0.555,0.212 1.562,0.359 2.799,0.432 2.474,0.145 5.843,-0.022 8.144,-0.627 a 0.05,0.05 0 0 0 0.02,0 c 0.47,-0.321 1.115,-0.608 1.115,-0.608 a 0.05,0.05 0 0 0 0.02,-0.02 0.05,0.05 0 0 0 0.011,-0.007 0.05,0.05 0 0 0 0.008,-0.01 0.05,0.05 0 0 0 0,-0.02 0.05,0.05 0 0 0 0,-0.019 0.05,0.05 0 0 0 -0.02,0 0.05,0.05 0 0 0 0,-0.021 0.05,0.05 0 0 0 -0.019,0 0.05,0.05 0 0 0 -0.02,0 c 0,0 -1.872,0.313 -3.738,0.47 -2.284,0.192 -4.729,0.242 -5.95,0.078 C 27.253,40.643 27,40.579 26.852,40.516 a 0.37,0.37 0 0 1 -0.137,-0.098 c -0.028,-0.029 -0.043,-0.056 -0.041,-0.08 0.004,-0.049 0.06,-0.117 0.178,-0.195 0.116,-0.08 0.301,-0.176 0.49,-0.254 0.755,-0.314 1.879,-0.567 1.879,-0.567 a 0.05,0.05 0 0 0 0,-0.02 0.05,0.05 0 0 0 0.02,0 0.05,0.05 0 0 0 0,-0.019 0.05,0.05 0 0 0 0,-0.021 0.05,0.05 0 0 0 0,-0.02 0.05,0.05 0 0 0 -0.02,-0.02 0.05,0.05 0 0 0 -0.02,0 c 0,0 -0.113,-0.005 -0.312,0 z m -0.76,2.818 a 0.05,0.05 0 0 0 -0.004,0.002 h -0.002 c -0.528,0.175 -0.895,0.347 -1.115,0.527 a 0.719,0.719 0 0 0 -0.217,0.276 0.36,0.36 0 0 0 -0.018,0.273 c 0.066,0.182 0.262,0.335 0.55,0.469 0.287,0.134 0.67,0.244 1.134,0.334 1.858,0.36 4.98,0.333 7.928,-0.53 a 0.05,0.05 0 0 0 0.02,0 0.05,0.05 0 0 0 0,-0.019 0.05,0.05 0 0 0 0,-0.02 0.05,0.05 0 0 0 0,-0.017 0.05,0.05 0 0 0 0,-0.022 0.05,0.05 0 0 0 -0.02,0 0.05,0.05 0 0 0 0,-0.02 3.08,3.08 0 0 1 -1.018,-0.606 0.05,0.05 0 0 0 -0.02,-0.018 0.05,0.05 0 0 0 -0.019,0 c -2.87,0.553 -4.536,0.549 -6.637,0.332 -0.402,-0.042 -0.608,-0.127 -0.724,-0.215 -0.116,-0.088 -0.125,-0.18 -0.098,-0.275 a 0.683,0.683 0 0 1 0.156,-0.274 c 0.072,-0.074 0.137,-0.119 0.137,-0.119 a 0.05,0.05 0 0 0 0.02,-0.017 0.05,0.05 0 0 0 0,-0.02 0.05,0.05 0 0 0 0,-0.02 0.05,0.05 0 0 0 -0.02,-0.019 0.05,0.05 0 0 0 -0.02,0 0.05,0.05 0 0 0 -0.013,-0.002 z m 0.607,2.72 a 0.05,0.05 0 0 0 -0.006,0.003 c -0.48,0.134 -0.8,0.285 -0.998,0.45 -0.197,0.167 -0.259,0.366 -0.195,0.548 0.064,0.181 0.244,0.342 0.508,0.49 0.264,0.148 0.598,0.284 1.017,0.39 1.678,0.428 4.447,0.46 6.891,-0.587 a 0.05,0.05 0 0 0 0,-0.02 0.05,0.05 0 0 0 0.02,0 0.05,0.05 0 0 0 0,-0.017 0.05,0.05 0 0 0 0,-0.02 0.05,0.05 0 0 0 0,-0.021 0.05,0.05 0 0 0 -0.02,0 0.05,0.05 0 0 0 0,-0.02 c -0.792,-0.308 -1.35,-0.686 -1.35,-0.686 a 0.05,0.05 0 0 0 -0.019,0 0.05,0.05 0 0 0 -0.02,0 0.05,0.05 0 0 0 -0.02,0 c -2.166,0.41 -3.162,0.461 -5.128,0.237 -0.403,-0.047 -0.656,-0.124 -0.783,-0.196 -0.064,-0.035 -0.1,-0.066 -0.117,-0.097 -0.017,-0.031 -0.008,-0.067 0,-0.098 0.014,-0.06 0.075,-0.126 0.136,-0.178 0.062,-0.051 0.139,-0.078 0.139,-0.078 a 0.05,0.05 0 0 0 0,-0.02 0.05,0.05 0 0 0 0,-0.019 0.05,0.05 0 0 0 0,-0.02 0.05,0.05 0 0 0 0,-0.019 0.05,0.05 0 0 0 0,-0.02 0.05,0.05 0 0 0 -0.021,0 0.05,0.05 0 0 0 -0.02,0 0.05,0.05 0 0 0 -0.014,-10e-4 z m -2.55,1.803 c -0.094,0 -0.193,0.013 -0.295,0.022 -0.89,0.078 -2.087,0.465 -2.7,0.918 a 1.207,1.207 0 0 0 -0.332,0.373 c -0.067,0.121 -0.083,0.233 -0.021,0.352 0.061,0.118 0.187,0.224 0.39,0.312 0.204,0.088 0.492,0.157 0.864,0.217 4.963,0.805 9.484,0.625 12.449,0.097 1.482,-0.263 2.562,-0.614 3.133,-0.978 0.285,-0.182 0.453,-0.348 0.449,-0.549 a 0.443,0.443 0 0 0 -0.137,-0.293 1.212,1.212 0 0 0 -0.37,-0.234 0.05,0.05 0 0 0 -0.02,0 0.05,0.05 0 0 0 -0.02,0 0.05,0.05 0 0 0 -0.021,0 0.05,0.05 0 0 0 0,0.017 0.05,0.05 0 0 0 -0.02,0 0.05,0.05 0 0 0 0,0.02 0.05,0.05 0 0 0 0,0.02 0.05,0.05 0 0 0 0.02,0 0.05,0.05 0 0 0 0,0.02 c 0,0 0.165,0.123 0.158,0.294 -0.004,0.085 -0.044,0.201 -0.178,0.312 -0.134,0.111 -0.357,0.224 -0.722,0.334 -1.391,0.422 -4.325,0.691 -7.206,0.723 -1.44,0.016 -2.867,-0.022 -4.09,-0.137 C 26.295,48.289 25.266,48.1 24.66,47.836 a 0.388,0.388 0 0 1 -0.178,-0.135 c -0.03,-0.04 -0.035,-0.06 -0.02,-0.1 0.032,-0.08 0.169,-0.197 0.352,-0.292 0.367,-0.191 0.92,-0.355 1.176,-0.41 0.54,-0.118 0.823,-0.098 0.823,-0.098 a 0.05,0.05 0 0 0 0.019,0 0.05,0.05 0 0 0 0.02,0 0.05,0.05 0 0 0 0,-0.02 0.05,0.05 0 0 0 0.02,0 0.05,0.05 0 0 0 0,-0.021 0.05,0.05 0 0 0 0,-0.02 0.05,0.05 0 0 0 -0.02,-0.02 0.05,0.05 0 0 0 0,-0.019 c -0.154,-0.108 -0.385,-0.137 -0.666,-0.137 z m 14.916,1.487 a 0.05,0.05 0 0 0 0,0.021 c 0,0 -0.005,0.019 -0.018,0.04 -0.013,0.02 -0.022,0.037 -0.06,0.077 -0.077,0.082 -0.224,0.194 -0.47,0.332 -0.489,0.278 -1.404,0.643 -3.093,0.961 -3.81,0.718 -8.51,0.635 -11.295,0.176 l -0.02,0.04 0.04,0.036 c 0,0 -0.062,0.007 -0.04,0.022 0.023,0.015 0.067,0.051 0.118,0.076 0.101,0.05 0.27,0.105 0.527,0.178 0.513,0.146 1.387,0.315 2.86,0.41 2.24,0.143 5.079,0.108 7.38,-0.234 1.151,-0.172 2.153,-0.425 2.897,-0.764 0.744,-0.339 1.229,-0.774 1.271,-1.33 a 0.05,0.05 0 0 0 0,-0.02 0.05,0.05 0 0 0 0,-0.021 0.05,0.05 0 0 0 -0.017,0 0.05,0.05 0 0 0 -0.02,0 0.05,0.05 0 0 0 -0.02,0 0.05,0.05 0 0 0 -0.02,0 0.05,0.05 0 0 0 -0.02,0 z"
     id="path22"
     inkscape:connector-curvature="0"
     style="color:#000000;fill-opacity:0.50199998" />
</svg>
