<?xml version="1.0" encoding="UTF-8" standalone="no"?>
<svg
   xmlns:dc="http://purl.org/dc/elements/1.1/"
   xmlns:cc="http://creativecommons.org/ns#"
   xmlns:rdf="http://www.w3.org/1999/02/22-rdf-syntax-ns#"
   xmlns:svg="http://www.w3.org/2000/svg"
   xmlns="http://www.w3.org/2000/svg"
   xmlns:sodipodi="http://sodipodi.sourceforge.net/DTD/sodipodi-0.dtd"
   xmlns:inkscape="http://www.inkscape.org/namespaces/inkscape"
   width="64"
   height="64"
   version="1.1"
   id="svg24"
   sodipodi:docname="gnome-fs-web.svg"
   inkscape:version="0.92.4 (5da689c313, 2019-01-14)">
  <metadata
     id="metadata28">
    <rdf:RDF>
      <cc:Work
         rdf:about="">
        <dc:format>image/svg+xml</dc:format>
        <dc:type
           rdf:resource="http://purl.org/dc/dcmitype/StillImage" />
        <dc:title></dc:title>
      </cc:Work>
    </rdf:RDF>
  </metadata>
  <sodipodi:namedview
     pagecolor="#ffffff"
     bordercolor="#666666"
     borderopacity="1"
     objecttolerance="10"
     gridtolerance="10"
     guidetolerance="10"
     inkscape:pageopacity="0"
     inkscape:pageshadow="2"
     inkscape:window-width="1160"
     inkscape:window-height="480"
     id="namedview26"
     showgrid="false"
     inkscape:zoom="3.6875"
     inkscape:cx="2.8474576"
     inkscape:cy="32"
     inkscape:window-x="0"
     inkscape:window-y="25"
     inkscape:window-maximized="0"
     inkscape:current-layer="svg24" />
  <defs
     id="defs8">
    <clipPath
       id="a">
      <path
         d="M192-164H88s-40 0-40 40V4h416v-96s0-40-40-40H224z"
         style="marker:none"
         fill="#c9b8a7"
         stroke-width="26.067"
         enable-background="new"
         id="path2" />
    </clipPath>
    <filter
       id="b"
       x="-.108"
       width="1.217"
       y="-.134"
       height="1.269"
       color-interpolation-filters="sRGB">
      <feGaussianBlur
         stdDeviation="18.8"
         id="feGaussianBlur5" />
    </filter>
  </defs>
  <path
     style="fill:#7f0200;marker:none;enable-background:new"
     d="M 23.401,4.155 H 9.43 c 0,0 -5.375,0 -5.375,5.375 V 26.727 H 59.947 V 13.829 c 0,0 0,-5.374 -5.375,-5.374 h -26.87 z"
     id="path10"
     inkscape:connector-curvature="0" />
  <path
     transform="matrix(0.13435,0,0,0.13435,-2.395,26.088)"
     d="m 256,-80 -32,32 H 88 c 0,0 -40,0 -40,40 v 264 h 376 c 40,0 40,-40 40,-40 V -40 c 0,-40 -40,-40 -40,-40 z"
     style="opacity:0.1;marker:none;filter:url(#b);enable-background:new"
     clip-path="url(#a)"
     id="path12"
     inkscape:connector-curvature="0" />
  <path
     style="fill:#ff0400;marker:none;enable-background:new"
     d="m 32,14.802 -4.3,4.3 H 9.43 c 0,0 -5.375,0 -5.375,5.374 v 35.47 h 50.517 c 5.375,0 5.375,-5.375 5.375,-5.375 V 20.176 c 0,-5.374 -5.375,-5.374 -5.375,-5.374 z"
     id="path14"
     inkscape:connector-curvature="0" />
  <path
     d="m 32,14.803 -4.3,4.299 H 9.428 c 0,0 -5.373,0 -5.373,5.375 v 1.228 c 0,-0.672 0.083,-1.261 0.23,-1.775 a 4.72,4.72 0 0 1 0.61,-1.332 C 5.398,21.842 6.07,21.338 6.742,21.002 A 6.69,6.69 0 0 1 9.428,20.33 h 18.707 l 4.298,-4.299 h 22.14 c 0,0 1.341,0 2.685,0.672 0.671,0.336 1.344,0.84 1.847,1.596 0.252,0.378 0.463,0.818 0.61,1.332 0.147,0.514 0.23,1.102 0.23,1.773 v -1.228 c 0,-5.374 -5.373,-5.373 -5.373,-5.373 z"
     style="fill-opacity:0.23500001;marker:none;enable-background:new"
     id="path16"
     inkscape:connector-curvature="0" />
  <path
     d="m 9.428,4.055 c 0,0 -5.373,-10e-4 -5.373,5.373 v 1.127 c 0,-0.672 0.083,-1.26 0.23,-1.774 C 4.432,8.267 4.642,7.825 4.895,7.447 5.398,6.692 6.07,6.189 6.742,5.854 8.086,5.182 9.428,5.182 9.428,5.182 h 13.476 l 4.299,4.298 h 27.37 c 0.67,0 1.258,0.084 1.773,0.23 a 4.72,4.72 0 0 1 1.332,0.61 c 0.755,0.504 1.26,1.176 1.595,1.848 0.672,1.344 0.672,2.686 0.672,2.686 v -1.127 c 0,0 10e-4,-5.373 -5.373,-5.373 H 27.701 l -4.299,-4.3 z"
     style="fill:#ffffff;fill-opacity:0.23500001;marker:none;enable-background:new"
     id="path18"
     inkscape:connector-curvature="0" />
  <path
     d="m 59.945,53.342 c 0,0 0,1.344 -0.672,2.687 -0.336,0.672 -0.838,1.344 -1.593,1.848 -0.378,0.252 -0.82,0.462 -1.334,0.61 a 6.432,6.432 0 0 1 -1.774,0.23 H 4.055 v 1.228 h 50.517 c 5.374,0 5.373,-5.375 5.373,-5.375 z"
     style="fill-opacity:0.23500001;marker:none;enable-background:new"
     id="path20"
     inkscape:connector-curvature="0" />
  <path
     d="M 32,28.392 A 8.742,8.742 0 1 0 32.001,45.875 8.742,8.742 0 0 0 32,28.392 Z m 0,0.972 a 7.77,7.77 0 0 1 0,15.54 7.77,7.77 0 0 1 0,-15.54 z m -0.742,0.984 a 6.937,6.937 0 0 0 -0.683,0.109 c -0.453,0.092 -0.882,0.22 -1.297,0.395 a 6.983,6.983 0 0 0 -4.034,4.718 l 0.036,0.036 c 0.373,0.398 1.4,0.962 2.125,1.225 0.395,0.143 1.134,0.361 1.657,0.468 0.524,0.108 0.88,0.212 0.829,0.216 -0.052,0.005 -0.272,0.15 -0.505,0.36 -0.444,0.4 -0.672,0.773 -0.864,1.405 -0.105,0.345 -0.102,0.426 0.036,0.613 0.082,0.113 0.46,0.383 0.828,0.611 0.368,0.228 0.783,0.572 0.937,0.72 0.57,0.554 0.935,1.524 0.935,2.487 0,0.247 0.02,0.411 0.037,0.467 0.048,0.005 0.096,-0.004 0.143,0 0.106,-0.04 0.252,-0.09 0.505,-0.216 2.113,-1.057 3.121,-2.473 3.026,-4.285 -0.076,-1.445 -0.783,-1.939 -3.53,-2.522 -2.024,-0.43 -3.098,-1.137 -3.098,-2.054 0,-0.241 0.06,-0.383 0.325,-0.646 0.284,-0.285 0.356,-0.298 0.576,-0.254 0.14,0.028 0.478,0.214 0.755,0.433 0.626,0.495 0.938,0.685 1.26,0.685 0.14,0 0.254,-0.016 0.254,-0.036 0,-0.02 -0.103,-0.195 -0.216,-0.361 -0.624,-0.92 -0.564,-2.673 0.107,-4.141 0.106,-0.23 0.156,-0.39 0.145,-0.433 -0.094,0.005 -0.196,-0.009 -0.29,0 z m 6.483,3.278 c -0.126,-0.078 -1.132,1.005 -1.367,1.478 -0.466,0.936 -0.286,1.526 0.826,2.7 0.386,0.406 0.829,0.967 0.974,1.224 0.145,0.257 0.29,0.433 0.325,0.396 0.033,-0.037 0.1,-0.331 0.18,-0.647 0.209,-0.83 0.226,-2.263 0,-3.098 -0.176,-0.647 -0.776,-1.953 -0.939,-2.053 z m -7.596,13.282 c -0.341,0 -0.617,0.35 -0.617,0.784 0,0.434 0.275,0.782 0.617,0.782 h -8.653 c -0.341,0 -0.617,0.35 -0.617,0.786 0,0.433 0.275,0.783 0.617,0.783 h 9.272 v 1.566 h 2.472 v -1.566 h 9.272 c 0.341,0 0.617,-0.35 0.617,-0.783 0,-0.435 -0.275,-0.786 -0.617,-0.786 h -8.653 c 0.341,0 0.617,-0.348 0.617,-0.782 0,-0.434 -0.275,-0.784 -0.617,-0.784 z"
     id="path22"
     inkscape:connector-curvature="0"
     style="color:#090d11;fill-opacity:0.5" />
</svg>
