<?xml version="1.0" encoding="UTF-8" standalone="no"?>
<svg
   xmlns:dc="http://purl.org/dc/elements/1.1/"
   xmlns:cc="http://creativecommons.org/ns#"
   xmlns:rdf="http://www.w3.org/1999/02/22-rdf-syntax-ns#"
   xmlns:svg="http://www.w3.org/2000/svg"
   xmlns="http://www.w3.org/2000/svg"
   xmlns:sodipodi="http://sodipodi.sourceforge.net/DTD/sodipodi-0.dtd"
   xmlns:inkscape="http://www.inkscape.org/namespaces/inkscape"
   width="64"
   height="64"
   version="1.1"
   id="svg10"
   sodipodi:docname="gnome-fs-directory-accept.svg"
   inkscape:version="0.92.4 (5da689c313, 2019-01-14)">
  <metadata
     id="metadata16">
    <rdf:RDF>
      <cc:Work
         rdf:about="">
        <dc:format>image/svg+xml</dc:format>
        <dc:type
           rdf:resource="http://purl.org/dc/dcmitype/StillImage" />
        <dc:title></dc:title>
      </cc:Work>
    </rdf:RDF>
  </metadata>
  <defs
     id="defs14" />
  <sodipodi:namedview
     pagecolor="#ffffff"
     bordercolor="#666666"
     borderopacity="1"
     objecttolerance="10"
     gridtolerance="10"
     guidetolerance="10"
     inkscape:pageopacity="0"
     inkscape:pageshadow="2"
     inkscape:window-width="1160"
     inkscape:window-height="480"
     id="namedview12"
     showgrid="false"
     inkscape:zoom="3.6875"
     inkscape:cx="2.8474576"
     inkscape:cy="32"
     inkscape:window-x="0"
     inkscape:window-y="25"
     inkscape:window-maximized="0"
     inkscape:current-layer="svg10" />
  <path
     style="fill:#7f0200;marker:none"
     d="M 23.376,4.04 H 9.431 c 0,0 -5.364,0 -5.364,5.363 V 39.439 H 59.85 V 13.694 c 0,0 0,-5.364 -5.364,-5.364 H 27.667 Z"
     id="path2"
     inkscape:connector-curvature="0" />
  <path
     style="fill:#ff0400;marker:none"
     d="m 31.958,31.93 -4.29,4.291 H 6.212 c 0,0 -4.291,0 -4.291,5.364 L 4.067,59.82 h 50.418 c 5.364,0 5.364,-5.364 5.364,-5.364 l 2.146,-17.163 c 0,-5.364 -4.291,-5.364 -4.291,-5.364 z"
     id="path4"
     inkscape:connector-curvature="0" />
  <path
     d="m 9.402,4.04 c 0,0 -5.373,-0.002 -5.373,5.372 v 1.127 C 4.029,9.867 4.112,9.28 4.259,8.766 4.406,8.251 4.617,7.81 4.869,7.432 5.372,6.676 6.044,6.174 6.716,5.838 8.06,5.166 9.402,5.166 9.402,5.166 h 13.476 l 4.3,4.299 h 27.367 c 0.672,0 1.26,0.084 1.774,0.23 a 4.72,4.72 0 0 1 1.332,0.61 c 0.755,0.504 1.26,1.176 1.595,1.847 0.672,1.344 0.672,2.686 0.672,2.686 v -1.127 c 0,0 10e-4,-5.373 -5.373,-5.373 h -26.87 l -4.3,-4.299 z"
     style="fill:#ffffff;fill-opacity:0.23500001;marker:none"
     id="path6"
     inkscape:connector-curvature="0" />
  <path
     d="m 31.959,31.93 -0.484,0.484 -3.807,3.807 H 6.213 c 0,0 -4.291,0 -4.291,5.363 l 0.094,0.795 c 0.062,-1.074 0.23,-2.017 0.576,-2.666 a 4.153,4.153 0 0 1 1.474,-1.594 c 1.073,-0.67 2.147,-0.67 2.147,-0.67 h 21.771 l 4.291,-4.29 h 25.428 c 0,0 1.074,-10e-4 2.147,0.67 0.536,0.334 1.072,0.839 1.474,1.593 0.344,0.645 0.508,1.585 0.572,2.65 l 0.098,-0.779 c 0,-5.364 -4.29,-5.363 -4.29,-5.363 H 31.958 Z M 3.924,58.584 4.068,59.82 h 50.418 c 5.364,0 5.364,-5.363 5.364,-5.363 -0.076,0.514 -0.305,0.719 -0.672,1.453 -0.335,0.67 -0.838,1.341 -1.592,1.844 -0.377,0.251 -0.817,0.46 -1.33,0.607 -0.513,0.147 -1.1,0.23 -1.77,0.23 H 4.066 Z"
     style="fill-opacity:0.23500001;marker:none"
     id="path8"
     inkscape:connector-curvature="0" />
</svg>
