<?xml version="1.0" encoding="UTF-8" standalone="no"?>
<svg
   xmlns:dc="http://purl.org/dc/elements/1.1/"
   xmlns:cc="http://creativecommons.org/ns#"
   xmlns:rdf="http://www.w3.org/1999/02/22-rdf-syntax-ns#"
   xmlns:svg="http://www.w3.org/2000/svg"
   xmlns="http://www.w3.org/2000/svg"
   xmlns:sodipodi="http://sodipodi.sourceforge.net/DTD/sodipodi-0.dtd"
   xmlns:inkscape="http://www.inkscape.org/namespaces/inkscape"
   width="64"
   height="64"
   version="1.1"
   id="svg12"
   sodipodi:docname="user-desktop.svg"
   inkscape:version="0.92.4 (5da689c313, 2019-01-14)">
  <metadata
     id="metadata18">
    <rdf:RDF>
      <cc:Work
         rdf:about="">
        <dc:format>image/svg+xml</dc:format>
        <dc:type
           rdf:resource="http://purl.org/dc/dcmitype/StillImage" />
        <dc:title></dc:title>
      </cc:Work>
    </rdf:RDF>
  </metadata>
  <defs
     id="defs16" />
  <sodipodi:namedview
     pagecolor="#ffffff"
     bordercolor="#666666"
     borderopacity="1"
     objecttolerance="10"
     gridtolerance="10"
     guidetolerance="10"
     inkscape:pageopacity="0"
     inkscape:pageshadow="2"
     inkscape:window-width="1160"
     inkscape:window-height="480"
     id="namedview14"
     showgrid="false"
     inkscape:zoom="3.6875"
     inkscape:cx="2.8474576"
     inkscape:cy="32"
     inkscape:window-x="0"
     inkscape:window-y="25"
     inkscape:window-maximized="0"
     inkscape:current-layer="svg12" />
  <path
     d="m 8.783,6.996 c -2.722,0 -4.914,2.07 -4.914,4.641 V 55.49 c 0,2.57 2.192,4.64 4.914,4.64 h 46.434 c 2.722,0 4.914,-2.07 4.914,-4.64 V 11.637 c 0,-2.57 -2.192,-4.64 -4.914,-4.64 z"
     id="path2"
     inkscape:connector-curvature="0"
     style="fill:#ff0400;fill-rule:evenodd" />
  <path
     d="M 3.87,12.855 V 55.49 c 0,1.225 0.52,2.319 1.335,3.147 L 60.131,12.855 H 3.869 Z"
     id="path4"
     inkscape:connector-curvature="0"
     style="fill:#ffffff;fill-opacity:0.23500001;fill-rule:evenodd" />
  <path
     d="m 3.87,12.855 h 56.26 v -1.218 c 0,-2.57 -2.191,-4.64 -4.913,-4.64 H 8.783 c -2.722,0 -4.914,2.07 -4.914,4.64 z M 8.082,40.01 H 12.9 V 35.378 H 8.08 Z m 0,-7.694 H 12.9 V 27.684 H 8.08 Z m 0,-7.694 H 12.9 V 19.99 H 8.08 Z M 19.654,60.13 H 44.346 V 54.035 H 19.654 v 6.096 z"
     id="path6"
     inkscape:connector-curvature="0"
     style="fill:#1a1a1a;fill-opacity:0.50199998;fill-rule:evenodd" />
  <path
     d="m 8.783,6.996 c -2.722,0 -4.914,2.07 -4.914,4.64 v 1.23 c 0,-0.643 0.137,-1.254 0.385,-1.81 A 4.63,4.63 0 0 1 5.304,9.58 C 5.749,9.16 6.279,8.822 6.867,8.588 A 5.17,5.17 0 0 1 8.783,8.225 h 46.434 c 0.68,0 1.328,0.129 1.916,0.363 a 4.931,4.931 0 0 1 1.562,0.992 c 0.444,0.42 0.803,0.921 1.051,1.477 a 4.42,4.42 0 0 1 0.385,1.808 v -1.228 c 0,-2.571 -2.192,-4.64 -4.914,-4.64 H 8.783 Z"
     id="path8"
     inkscape:connector-curvature="0"
     style="fill:#ffffff;fill-opacity:0.23500001;fill-rule:evenodd" />
  <path
     d="m 60.13,54.262 a 4.42,4.42 0 0 1 -0.384,1.808 4.63,4.63 0 0 1 -1.05,1.477 c -0.445,0.42 -0.975,0.758 -1.563,0.992 a 5.17,5.17 0 0 1 -1.916,0.363 H 8.783 A 5.17,5.17 0 0 1 6.867,58.539 4.931,4.931 0 0 1 5.305,57.547 4.63,4.63 0 0 1 4.254,56.07 4.42,4.42 0 0 1 3.869,54.262 v 1.228 c 0,2.571 2.192,4.64 4.914,4.64 h 46.434 c 2.722,0 4.914,-2.069 4.914,-4.64 v -1.228 z"
     id="path10"
     inkscape:connector-curvature="0"
     style="fill-opacity:0.23500001;fill-rule:evenodd" />
</svg>
